<mxfile host="app.diagrams.net" modified="2021-09-11T08:16:59.114Z" agent="5.0 (Windows NT 10.0; Win64; x64) AppleWebKit/537.36 (KHTML, like Gecko) Chrome/93.0.4577.63 Safari/537.36" etag="n8LNryDh3jz1HNFXNEy2" version="15.1.4" type="github">
  <diagram id="6KgurAl5LxyeVBakjbxx" name="Page-1">
    <mxGraphModel dx="1579" dy="807" grid="1" gridSize="10" guides="1" tooltips="1" connect="1" arrows="1" fold="1" page="1" pageScale="1" pageWidth="827" pageHeight="1169" math="0" shadow="0">
      <root>
        <mxCell id="0" />
        <mxCell id="1" parent="0" />
        <mxCell id="iwCctyNVbd0rTA0l8e7b-1" value="buffer pool 中的缓存页与数据描述与磁盘上的数据页关系" style="text;html=1;align=center;verticalAlign=middle;resizable=0;points=[];autosize=1;strokeColor=#b85450;fillColor=#f8cecc;fontSize=16;fontStyle=1" vertex="1" parent="1">
          <mxGeometry x="40" y="60" width="420" height="20" as="geometry" />
        </mxCell>
        <mxCell id="iwCctyNVbd0rTA0l8e7b-3" value="" style="shape=image;verticalLabelPosition=bottom;labelBackgroundColor=#ffffff;verticalAlign=top;aspect=fixed;imageAspect=0;image=data:image/png,iVBORw0KGgoAAAANSUhEUgAAA5cAAAFRCAYAAADgu1llAAAgAElEQVR4AeydiV9N7fr/f3/Rec55aFh7t6vdQIkSkSIRiUgkEomeRCJDhkQimSIRERFRRCFDhohKlJmeptM++5z377XWntbe7dL0POf5fr/1et2ttdd439e6p891fa7r/n+M/I1IYEQCIxIYkcCQJPD582eam5t7pA8fPgzpuX/kzf/85z975FdehtbW1j/y9YN69n/+8x9+//13Wlpa+sy7vBziNxDvG/kbmAQ+ffrUbxkPpa50dHRYfc9QvtnHjx+Nz/zy5cvACj5y9YgERiQwIoERCQxJAv9vSHeP3DwigREJjEjg/7gENBqNcSIrBzXi/tevX/+y0ukLPIiT86FM7v+IQre3tyMCRUsZ/+y3CET/9a9//RFZ+l/9TFHeP5Ot4bwo43//+9+Dkoc1cCnWv8H+WbZHUYky8jcigREJjEhgRAJ/ngRGwOWfJ+uRN41IYEQC/wsl8OPHj14n4UOx6PyRovoZcOju7v4jXz+gZ4vgQ26JMgCagWy/ffs2oHeOXIwEyAciY9GiPJg/a3VxKEoZMR+GfIuMgpG/EQmMSGBEAiMS+HMlMAIu/1x5j7xtRAIjEvhfJAHRutcXRVMERn+1P9HC1JcFUATLf4W/rq4u+rKuinIXgURf1xhAhrgVLVojfwOTQH9lK8p3sNZLa+ByKHVQnufOzs6BFXjk6hEJjEhgRAIjEhiyBEbA5ZBFOPKAEQmMSOD/qgSsUfrkgOavZAE0fKO+LK1/BTqsKLPefFgNIEa0CBtomCIIlcu8t/0R3ztDDej/Vm4F7E2u8uODsV5aA5fiscH8abVaY10QQebI34gERiQwIoERCfz5EhgBl3++zEfeOCKB/3USEEHWXxFI/ZGCFq2WP6NrGgDQH5mPgTxb/EZyMGC5/9/0TxMtiyId0jJP8t/fv39HBBCWf32BUfn9/83yWeb5f8JvS/9FuSyt7Q/GemkNwA72O8mB6l+RNfA/4ZuP5HFEAiMSGJHAUCXwx4DLtidcOJjJoaIa2oaaw2G5X0NdSQ4H8ipo6Tkv6fmG1qeUl7/iu3htRz2VVW/o6nlVP4/8oDxrPam5VXzuz7t/9lRNHSU5WZx/9CdHctS85W5RCY9bhuKLpeX9rZMcyC6m1opAtS0V5B3I5srLobzjZwL8o8+30vT8MU/efGFIn1vTyJ3LpTxpHjitS9vewrOKSxTebmAwRMDOFzcoulXLlx6fQUP97QuUPGg0a9dyaqhItxQtY6I16Q8JCKP9TsPTxzx59WEIbXKodUBLc9EW5kft5cqbnhFiDZNucaL9V/qzBMONVWfY8dtOzj/XlcFERdTyqSqfrDPD1Gf1IQTtlydUPPyE6BNpkFvzi+tkbtpJYU2T8ZgIOjUdL7m4P4trb3patX4Gmg3PHrwP3n9zDBEFOMzjSB/fxPJUXxRqg1zlWzM/4+522nv0I+ZvsGZJ7z0Ak5avj0oormrgh5UOVgSUYrsbSkAg89z18av7GUVZxyhtGEwv28dz/yec6n7J1ewD5Fd9NhvnBjp2/KlF7bpHVkwkW4s/muX5z8lDN7UFGWSXNTLwEd2Uw6HJt5vaU78Rk1U1/GNnVx0lRzLJKXk1/M82Fd/6nraZ+9fKqO05YbF+/Z94VPvtBWV36gYlk+53ZWSn5/PMimdN24Nc9hy7w3sr8+i+izfAcazvh/V59g8Al2082DUTBxsbFP6p3P7e1/s1NFac43ReHnkDTfkl1Fg8W9P2kfqaKm5ezudIxjaSYiMImZtKaVsnZRsmoPBPo7oLWh8XcLS4DivfTMrsj+J4PIQAdlZ30pQfzRjVVNZfeSd1SF3fWmh6+5a38tT0ji+9PezbJeLG2OOTfKvX9/UloR7nOkpYN9aBhcff/7yDbL1FZlwssbEDS3H7yrAMf9FesRk/dRjZtfKBVMu74l3E9fb81SmcrZXNLDofkDZNgUdckRWgreH14TBU6ijym63MGnoIYnAHOr829/x+8m/5s/2mT/Sc2sry0lnBZl87lNEF/Bz+a/n2+hXv5SLVP0rzMosQhRORp372nTU0lueSuXMziXHLWDjLD3elLTY2djiHHeTWxbQ+vs8OinpMjH5wda0H9hPWU2rpetf9iF0B9jhF5vFe9ol0tMQmnl3PJXP/fvbL0qFDhzh69CgnT54kv7RWkp2moYKC05Zt/jRnyt/8BAxrab64Gi/b0ShDspBXLdkXMO1qGijasXqA9f83jomdRJ9/Gp7tC8HWLYb811bAZcNdctMPc+OVYRmSbp7lbSR25UpWmqXVpJe8pDQjzuK4+XWrthfR4zP1mT/rJy0n8U33D7FIbcfkjcU0mEWH7eb5vmBUc7Ko66in+NgZHn2TfXDD47+eY/X4sYwd25/kSfAu80nNv//9nUvrJjBKHUJaySsjkGysyiFy7GicQ3ZS/vaL3iKupaUoDi97V8JzapH1Kobc/NTqaQBAffnh/SXHELGEQxlH2t9Tc/sqFwrOUlBYTFm1dWCmE2QXn19WUVpcSMH5IkoqnvL8nQz4y5fbqXvC/Xv3eFzbaPx2ooyN1kvNS05FeTMpNp9X0oy6iwdHE3q0xyVLlhAREWGWYmPjSL/2oecYp6nlYKgKIXCXNJYbP75sR2QLWLV8fitj/4DHw9Vsv9iLkq79HNGqCWwo6wkXtB+quZRv2cflkV/yFGO3OsT2oytyGy9K8wcxf7rC4y9aul7dJP+nc698rj0z5lr32o5i1rgpmJVZK+uzBz52yD6baXdY5GJ6nHFPmjspmX/kbc96ZbzIcqebH+9eUFWST/auDcQums2SA4+t9j+Wd8p/d9XmEO4i4LOumBathqbKwr7nvafPc+et5cRgqPLt4t52fzzWXpXmot/LMs3mBqu3FVJz0/yYYe6YcPRB7wBJ08ilhCkoR49G4buK/Be9TYblEhm+fU19DmEOSuZm1fL9+fWf1uf8q0/4ajmc/SF1ro3yZF/sxXnzC2sjVt8yaL23h1lODvhvKuWTPL8dj8gIcUQVsIWyL/ITpucN1zhmeuLA94YZXGr5dGMT/kongjemEjlWge+6S7yzXn7RLMj1JF9c1GrUlslZhWBjg72Dc89z4rXuC8l5rWt8HRU7CPJwQrC1YfTo0YwWga16PP4hEcQkZlL6roOqbX4oJqdyt7OVqvQQXISxzEsr5Z1l++U7xfEeKILSqRHrg/YdRfETEdQhpFd95t72qdiL75AnWzfir3TQ9TifbSmb2LTJlJJXTMfZRsGUpRvNjsuvMe5vyeGWWS2y8kEHAi4/5xGptMc3Yj0bN27sR0piqb8K5aITmOE7zStywtXYOo5jSkAAAQEBBIbtoqJTy4eyHLalbiZmuhOCXxQpqamkpqayJXE+XopAdj8yNCoN9ScjcbO1RT3BX3qG+BwpBYaTfvMGKZPtsVF54mc4btgGxXOmqddKZEVIvR3qpDzZGzv5txvovjKac32hywGAS+2HC6zydMQ/qZgms3qo4XX2PBxEoP1TU3sH137zwH5MIJGxiaSmZ5NXVMbDN1/oQkvzzWy2pSaz2FdAHRTLZv332Rw3GzdFCAdemr0Y7ccClrspCNpb02MA7areyTTBlZjzn8wGZx1oaeTO3oV4jxvHuHGuKH79O/ZqT8ZJv8fhqvgV27mZvP7Rxo8LsbjYOeLhM5GJE8U0ATcHG1QxhX0Cd03DWZZ72qGe7Mc4exfmZz/rWwvcXUP6DAUeIavZIK//SVFMc7THO/w38zaxfhG+gq4tm9Wgrkec3pZCSooubdiwgeggN34VfAlfFUdcnJji2Zp3j8Y3dzi8bDx2dj6sLXiuf0wn5Ru9cQ/bzJFjxzgmpUOsmaYiNPsp987uY+/evVLasWwyglsoiem63+LxfSf7ybgwy7T5D3Gy3dzcxNOy8+SdOsUpKeWya8kUpi7bzrniYq5du8a16xW8+NJFzd4gVKHZvG4qISXIBedpCZx9YVHxxf7FwZXIzGvcuHGj91R6juRAJb4pFdL3Ei2oIhVSBCHNTwtJmiowasxCMstfG0FKXfFGpjsoCNx5X6eU+3qTjZMFPKJOoe/2zQsIUsAeA4Dsa2vNqvVXGUPEQg3bOKL9RNXh1Ux3E7CR93M29oxLvG6h7Oym8UYmsTPcEWzk45sNNo6TCE/Jo9LCSl93dDHKX0YTtLOKJjnobG6W2AvQTf35OHwFJZPjC6nv7uJJ/laS9W0xYYE39s6BhK8yVwCtWbOGjRtTyC43t4qJsvl+cwO+9i4szWsy64N6VAYrB7QfcolQqvBflmxsy1KbTl6Cn2DHhAW/mR/ftJpZbgqm73nSoy+UHm8FXGre3ebC9Vd8rdrGFMERz8lTmTpVTFOY4GKPEHrIVH8H2X7MiqZt4mi4AlsHdQ8lj6vKDhvBCTdL5Y+rCnshiL013Xw7H8d4w3k3Ffbi3MnZ3eJZXkTlvqH69FZSj1fqwLEVcDmYscOsLIYfQ5HL5yKSgvTzCsP8wbCd5oObvS1OXlPN5x+G8wHTWXpQBI5aPpfsIGLWVMa7KrG1GY2N0pPpi1aSuG0/J27U0dn2hqrSa7o+U+w3zVIp9+plfeX3SnYGO6KcspFSaX7Xya3Uabi7ueHWW3L3Y9NNc6XF0OUrB5daPp5cjMovhvTsbLKSQnAN3EVldSFZknI4g+QwD5yD15GxP5PsK9YVerQ9Jz/OD5VLCLuu3eJI1HgcxkVwoPLPsg5reJEZgtJ5MblN3bw9Mh+F4Ir3FEO7M9/6uAkIwRk8M0xLh6POGZ5hZatpOMUSNzvco07TaD7VsnK15aEunh4MY4zvOoqME3It784sx2PsInKemdcP8e7hHccs8zOw38MKLn9UZxE+xh6PpbnUdml4W7gab8GFkF0VVixVfWdU25BDmEJBWE7DTwcR7de7nNybxdHTF7hakExgjwliNzXpQSgmbECnZPxG9eEleAkO+Mbm8VymaBEb8Ao3FWGH60wauW93OLBhNyX1HXx/fZ9b5eWU61NZQRLT9O/rrMhgaXg44Ya0YAZewmgErxksMBzraxuRQtF7LZqmcnIzzS1ARmtQxjqCnQQmR+80sxAZz+/P5HDJK91gKIFLJcvOWmgdexV9B1fXuuNgBi41NORH4+m1nJybFVRUXCZtrhp1WDYmI+Y3CqKd8Vpfapzsd9ekE6SaQ1adrkVpGs6w3FNg4ooMjuxOZGN6rknbejqPwwmBqBxnsj4nj6Npv7Ex46TpfP41LBWnvRahzxNaWh6WcPHCBS5YpsIsYrztEKYnkWd5Tv67qLJvK9IAwCV08fJ0DN6CE0Fby0zaqe5nZAQL2PtGsWNfL/Ug8xDFkjZMBy5VRkvpD56dTyerRGbx1NSTPU/FlG33jNrHzooUfFULOPJWD9p/lJK2OJwFQV4obFR4By/Q1+NFxOc+o5t2ypN9sLVxxS9UVsfDw5k1K4To/WU0GiaYdaeIdrZjXuZzPVio42S0M7Zz9vGkuRlxUuogRHDud926eNoPBSx3VRK8T3xPL3/fq0gPUWM7ZgknX7VQsn4SgiqQzWXmQNfsbglcqpiZ8dT8uR2lJHo6sPikxQD4/QxRDtbA5X2OrV9LfHw8q1evJioqioX+an61m0DIkqUsXSqmaJIOnSZ9oQc2Cj/WnLxPs3EZBB249Io9xYNHj3gkpQrSQ0VwWW/qZ+jmyZ5AVGE5NA6HLkUvDNGSo/MNbeBqygzcXVxwkSXR8mhQAowbP5f0B+082TPdlI9v1eREeeMYmMY9WV+JNAl0I/rYfX2ZDGWz2D4sZXuwkombbvOpra1HpNqGO5nMd7VjfNwZXjbWUFN1l0eP7lN0cC955Q959Kiaixv9UbqGsbdU/P2YJ/XWaeeiT2ZfwNJwzjJgzF9lDBE/2fCMI128OrYIV1s73Gev5/ClCh7W1FBdcYVTe+KYn3xZpsjppDYvBh+FDbbqacSknaCorJJ7lWVczt3FigAX/vHLaMYuzKRcBjD7Apei4kBHbW2nJnsh7naOhGY9l7XDbh7vno5qZgY335qvXdrW1oszTedjMoIdzIGyHDRb2RcCdvFQ36lI4NJa+24vJMZR0dOi1fWAHf4OZuBS++4Y4Qo5+DbtK+bvJifWCwf/VG6WbWOKKoycBn1D7qgk1U+BX+pdE6gfYPsxKGfM+jgJXCpxjZN/T6kWcSPJC2VIpmyc1t3ZeXsTE5U6cGl6Vht3t01D4bKQo690Y3Z3W6txPId2CmNUKAxzAzm4HMLYER6+iIQ8ufUTBtqvmMmlo5ZSKxZjiRmXu4V5agH/+GzT3MLMaptP0YMWab6peX2VnEMnuXjzPmW7ZuHgt5UqGaFFYhYJNtjY2WFnkWxsBOYZ+vX2Z5yI8kJwm8/BxzLAaRL8z/eGTb49waVz+FFEvX1HSQJegbt42FbFgZgtFL3voGrrFMYllJjqq0VO22oLSQ52QzE+kkOVzbSJ8umsozBpOmqlN5EZN2nqdUC3eNhgf0rtStCx4dBK4NLBM5FS+ThlfHYnFSm+KHsFl/0fy8zqHNDa9JzHxrFdPv49oCAplLCk49yolh8X9x/z8oMBIOrmcbZW+jAzQ1Zf5xXhHKmpGDYsZBTbIHeGCVxq+Vixl/lj7XGZs4c7RlPtd+7vD8PNTk3w5is0yBrnz/KraTjMPEFB+LGBaSh1dELLCaKGN9mhKN3juWKsdB28OJ3Iqj23TJN6NLzKDsPRbTkFH8RBoYuq7HjiMkp7BcfW36cr3deSBMbbjyO++IusuBp+fGji3efeO5rummyipvetfXP2srD+GbVvgczbdVs3KEjg0o7xc2J6UJEMdAfzbQxhvkozy2Xni6NEjB1LVJ5IDdLy+VoivuoQ9j02NArQfrrIKg8nInJNgKbjxnq8HCLIFeXY+pADYa4oJq2n5MNHitdOQD0rnQfSHKKdz29K2DFrPMG77tOmqefkEnecgrZTYcnNlUlx2He7H7IrUDANnoN9wYDApfiSVh5kzEFt5074oUeSL6NIQZ4sqPENDiU0tGeaO2M8Kls1q4vEOmQJLtu4vzsYp7GRHDfwRn8UEz/WiSV5JppZR2ki41RLOP1VX1CxrijsmBQps7Anr2a2u8Ck1Eo63p8l2k3AZ2GimQU+aX0k3ra/4rvxGg1GcHmSZU52zD9ooDrWcXKZM7Zz9xvBpUqxmEKpCWh4k7MAR3UkJw1A11L2rY84HOGBndKfDdd0gz+tD9g3V42t2zz23ulp4ZAeIYFLBwK33aJBTnd+c444DyXzDz41p7fX5hBhbfKpz484Wdb5nzVyd8cMM1ps44N81k93YrRrCKkXn0iWHFN0Uh24VLh6M2XKFH3yY5yTQgKX3d9rKJEmRLmkzlPjNDeFXP2k53RhlRV2haWA+v4t5sMAqiy3liBL96RuqncGoFp43ER/7mriVb0F0VvqX2wRVFaYJ2ZMFGeJhTIu/gKvDXXEbNvE87t3eP29nb4m76ZBtncrtxjsR7KImj2/J3VZ/I69+QRb79P/O2OI+D0GNY50PyVjpoCNOorTRq23qZ7IgyJ11WQS4miDnWckR2t6Arv/tD9j7zwRYArM2HHT2M77ApdiPTOuLaptpizvPDU/QNNUSaFEic8lNUyNfWACu2U0elFJejz3msm6Z8xyF88PL8DFfjzLsy5y6dKln6RCtoU6IATt1TGQRBKSZLl0Iyb/tXm7f51LlEpg7r5qGuX9RMM1kv2UZuASzTea6l7x6tUrXj07TIRqHGsKXvDqVS03M+YzximIXVWtdIqWSxm4/FwUh4dqLlkmjawORCn7134c7O2Nln+jSMSdYQKXujrgTGjWU0kB2V2TRai7P5tvGXyP+gCXgxw7NiVH4e9gT6ClZXgA/UqvcjETkv7HoGixGl5lzbEOLpXjSLREMfp3SOBSUspNQHAOIvXmB7SdDdS+tuhDreXT8tiQ5Xufil3BeI4di5vKHjsHF8Z6zmTD+nCcQvfzsPEtbwpW4SmCy4/5LFUv5fRXEYhNYnxiaU9w2dHAjQMrmeqkZEJEOjffvqUw1hu/hGI9S7GV5wXrCXKxR+2/gvRLLzDUIsuiDe23lpZzMYwRppF2X5yPDhFcDrotdlGZOrkno7EvICidE5iT9UqvXNbyrf4x1Q8e8GCwqbqWDzKMNbRxbGhfRrx76OBS+5Xq46uZorLHI3wfdz9r+FZzmeJqfXXSfqEqcyEe9gKeYdu5/LLn4GWtGJq6g8wVFETkmibE1q4TJ+evq0qNtISSvET8BTUL068Yj4mUhcLNwQgOYewstqQwiFSw2zwXo+20lpPsa4+9UUul71D12h1r77f+AUVcWiNpWR1mZ5qb4DWvOThHwCm2SKY5tvbkXo79qbTYVso3TUblMAbvaSLYnYa3qx22Tl5MDQhg+tJDPP7xkvxYbxTj47n04iKp0av4bUMiUdPUCNPSeNAlUpL9EZxns6dKVye0788T6+XFqsJabu+ai6utDaqpCRTW69RcmsYCYrxcWJBjaHi9yGI4D//XwKXI52vg3NqFJJx7Rae2mbPRbiim7+ZRF2g/VlGQk8dtI29WQ6042KmXkic5PsrAZcd7qi9msXGxH84i/Tg0i5pOLe/yl+HmuIAj9SZexqf8KJxcVnPJoOOQBjAl0ecNBwBRJgEKJm0ppzItEIVbNGfkzpbA7x/OEukwiikpN3hReZnTIt3yRDKzFLbMWH9cT788waYQBbahmTzVWy6dVMt04LLrEbsCFXitu9LDz1f8vJqWcnaHumMr+LLqrLljvLb5OikznLB1ns76wpc925MELgVzCvvPOnw9xd1QtTobHlB67RpFRUWStltHJz3JgRhfRjmFsuXEKU5mpzBvzGj+rphMTLqhzKc4e/Ys128/57NWBJc++Gwsl1kCPnFqsaMELrsk/1o3/ELmMneuKc0JHIfKKwkLdpQha/3aWvpZNjc3UnlyC/FxcSQkJJjTADfvoqDoNDtSNrEq2A3BZxFJeiqwgRKcelJPUxXfLtYZBw8SSowaux55Ev0bP72/T9oMWzzjzvcAlyIQFC1VBqAngUuVD8llrVJQKNGf1zz9oGi1K459UKh7lrknuBTBj2nZjL/oGCJKc7DjSGcFKb522LqvobjP+ex3rqzzxNZ2DCsKTMpByw/54eEB5ip+4R9jYjlTp5Pnz8ClKGPLCNJdlemEB4pjyWQ8HGxxGDtJT43XUeR9PFTYK5f1cD1of7SPOc72eK0q7MPNRp7rds4vd0CYbbLcSeCyF6ujSXFhskTqjgnm4NLsFQafyw4+lW8jSD2OZadeSuCsSw4uNXUcDnNi7MpCJJ214Rn9aD/SpZoGDoc5/HHgsu0h+0NdcAk7SI1BZ6xpIC9qDA6B26mU6s/PwOXAxw46iolzFQjeJ7do969f6Usu34uTCTIq22VK+p/QYmfEHEfnJdJNU7VhTlnC6UR/FONjOHxVP3csfUD9swOE9AkuX/JkXzBKl2BSr79HQxc1mXNwcl1KXm9KVEO9sNwOcmyWy/fr+1qePikhNVDANfoYD5/W8jQnAqWdgEKhQCHY6fyYa7OYO040wnRQmjjevM51vqPqdCqRkxyxd5tJwon7esOMli9lm5iqdCM857mJHdVYxoGV/jjb2OM6NYL1B4qp7bMvsiz4T3533CctQEAwuLANFVz+ZCyTctNLW+z+8YmWnyg0DYrdhoosIjztEcZHkyunTf6kuNZPa6jLjWXm0kM86R7Gccz6ywZ0dEjgsrOhlIyoSZIVZXriOWrFeanmNcciXBB8f+OK0V+sg1cXNzHLzQ5bx0lEbjvDgxYZxLaS5e7n+wgWlCzNN5hWrFwkHtK8JGuOg4yaIAYzsUZXsJGOW1IYpN/CJFIqfudVznycbEYPA7jspjZnAWphMsllFjqbPx1c9k6L1bR/pqnuKdV3bnClMI+jWens2HmWGvmnaW/m5pYA3KMOU1mVS+z48aw6WUXVseV4Tl7G2gVjEVxD2HX7M9quexyKjSRiUQRRcds480QPJj9VUVLxTkb/0/L5zR1OJwaidvAl9uAxUoLVKL2XcqCiRbKQfn33vh8BcXqpE4M5rAeXwtx1JM4PJeHoXZoHQ+nQWy57n6yM7jPYT9vdrfgLrizN0wUd6Lq3nalKf3Y80H+Uzvvs8Bdwj73AZ7Gc2hZORaqw85yC/1gFgutUItZnUnA2ldCp0Ry7dorlXgLeCcXcP7uNDam72LsnhcUTlTiGH8WIN/sYwHzXbibaXUVwxmMZONIJ+VP9cSKEUQRsK+Pe/jCcxIFKYceoX35hlJ24r0t2o/6OzbwsXjQ3U39iCS5OMRK4/FG6Hm9lIDt7BNHR8OHuQZZNVGDjGEDiRX3E5q4P1FZX8+ydDgRrP94mff5Y7GxdmL72GJXyj6a3XM7YWUXLp0+I695J6X0R8R4OhOe8Mh0TzzUcJ9LMcqmlMXcZY9RqnJ2deyaVWM6/8bdfRqNw6nlepJ56zkyjsktnuVSNnymjx4fh766zXErg0jGKM9/Fz3mX/CNXEQMmd95Oxtd78ODS+hqcbyhePxFbzxAS1q9nvSElLsZP5cW6jAxWLI5glrcDwrjpzPR2wN5zBov0AVei9tw0RQoW64xSgVeQOU1adAsICwtj9uzZBAcHExw8nfGqUWbgsuXtHfbMtGHUqFGMHm2awOvA5UQ23TbMci0bczuX4/oGlyINuD/WS/EaaamYv+QYIpZ7KOPIZwpj3bG1cSZ4cwkNvYmz8yZJXnbYeSVyvQ+97++/13NwvsAvv45nXdEbyRLeJ7hsesLxdXOkOhAeHkHCKQufLfG94x2Yn9Ng5q/ZmL8CD5W5X7v2XTGJfkoE71AStu3rxR1kP5nHbshcFr5zJkqJEJrNG71ObeiWyw7K9kTK3F4C8bBzYMLMOfi52GLr7EuI6PayaDXZJ7foLZca2ipSmKwMIO2BxUfoo/0YXWskNwQ3O+UAACAASURBVJpQprgJ5hN9Q7PQ+1z2Nd5YPaf3ueRbFQcivBAUfsTnFFJw6igHM9LYkhRPzJwJCDYqQjJr6OqLFjvIsYP2ImKdBeYclLkgieUaolx6DVL0E1psfvFjdKS771yI99G7CnjgorSRfFfH6OMHjPNZTf79n4HLero+3Kf84VeJZmsI6OOXfJO3DTX9s1BV19AgejQNk3y1H/JY4miL+5qLfO7Q+Vxa0mLv392G/9RUKrvauRjryvTdj/RU9g4pGJCg9GLehlyqeqwa0EpVWgiB8eeM7U1XRTtpunuSzYv98Fly0gojwVCRB7rtpvbwfNQ2oxGM1G+d5VKh9CKoF/ezYG9V7z6XvYxl/W6LPy2Clq/3DxHpJaCYGMOp5zJFvnRvN08zZiL0pgA3xPvovE3G0igyKsT+RHePRNtuGy4sZNFP/bRc1i8YHLjUfqTiwAr81bbYuc9iw9lnZkCg++UxFrnZ4xV7HrmSpuNNCXuW+qKyscHWNZxN62dKpnqr0QbdHCUqlVLdeyRCD5/fKLZQmvdmSews28AE5UwyzDx5NWj0LhHa94XEego4qR0Rhmi57K49xiLRhyi+mI+WvlP9BZcdX3jXZBGVVqTsvDlLrLuSeQeemFN49HSepk9tJh9VqZNWEnWsmL0xkSwMm0vwDH8me3vi5qTATnRUtxVwch/P5IBg5kVEEZuQwTWzCExdVO8M1EUY67xFsq+vNPETaZUTpqZy6cpJCsqKyN5bwOPvHZRtmcbEhOKeViRj/eviXcVh4gLUKL0iSC8TtXpiNMSHnFg9FSfBgzlJuVS+kyNc8YJBRsWT+1TkF3HfqPAwZki3YwCXgStInD8ehY097sGJnLj3UQaKLe6x9lMPLoWZSUZqo2Uk5Pyy1zLfI/1DtCLpuIvHBxfgFbiNKn2/03EtAQ/Bl813RHlo+XQhlrHCZDZXGC6oZEeAA45+UWw/Wc5rY3x+Da3VR1gyQYEqcDM3Pmn4WrqHZeHzmBMSwoKY7Vx8KetE+hjAJqXe5eubZ9wpTCVmQ6FxAietgVd3mHC7UczYWWmaJL46xAI7FUuP1xl9Lo8vUWE3/yCvmpv5dHaFDly2faFwpRv2E5MoleuQWmsp2h4u+SsrfKI4JAt3L4EPwYJK1fGay6lzGWs3GluXaUTvOKeLJD1In8s1xe2IdFERiBq0jebbN1Sd3cbiiQr+YTeORbuLedbU0zpmosV2UZUexuy1h7hopPOdY+fSAFblNyEHl92PdhPoFovIeB4KuBQtRtYB1huubZyEaslpc0ux6EPl7qWneXVQss6DMfFFXE3ywqk3K6FYZxycmZ2YSVZWlpT27dtHWloaW7duNaXU9cz3HC2ByzctLejWqmyl4UEZN0pPsnayiXo4HOBSbFHW1k40/4a67yVaOS3//gpjiJinoY4j3XVnWe2rlCJHuwSsJKO4Jz1N25jDfMVoFIty+1ym61//6uDqBl9G/WLHgkO1PweXzc8p2r+BxMQYQj1smbrd5O8tlk0CeqpxxF82p2y3nIu1AJddPMoIxtEpmJ1luUQ7CHgEhEnKC1GBYUhz/NwQvJO5ZezSPpMXqUQRfsxo6ZTeaaY80n/5fvtcdlNbcoycnBx9ymbnCj9Utk4ErskwHT9ympuXUvXg8gfXE70QxsVw1jLks5X2Y2hHZtsDO4n2VfQBLpU4L9pHqSwWRHn5DQ4tG4Pgn0RBmSlGhBgr4kZODOMUep/Lznts97eXFO/2Kje8JgUyK2wx0asTSN62i9QlPghuS8lraO3d53IQY4ck+fZCVqgEwnIaTXMW8cQQ5NL59X3v0eCluZOiJ/1ZToVu+kSbfM729RJxHrYyg4Ouzkh9RJ+WS5kvfftDMkKcUfqnUPa1o/9BBe30SrZhka+WT2eX4+GoQunkwuRVBTzMXYwluKwqTsBrZhoV9aI125G5+x5K80xxXtn97SU1b0TToz7qs1nk85WsjIkhxuzYanZfbdZ/Ww0aE3FK3/AGv9G8ziXSzQ6lg6IHuFSqQ0jM1I1HZu0oK5ON89xQ9OpzaT6Wmd+rf15fbbHP4nRRf3kTM9V2OAUmUVRvOb8VbzYAxSSKHtdQU2NK1TlLcXbQK92k/sqJlRfEOaDhHnOfYPFpgx3H+izGAE4ODlyKGtUj0cyJzeRmo3UhvTgcTVjiWbNgObp8tVF3LYttObd4freAE8boiYYoirrt/lg/7EfboAhcy8Ferjl+shR9vBhjkXsTaHfNXoIU40kycsw6eZa9iCnzdlH28QulST4IXrHsTQ5EORRw2faA9NmOjB7tSMyFdjQNV9gvjyCbvI5542wR/JawURZVdtPmQ9yU+cZ0XInHzdaSovPz38rIU3wySEPslJRKluU/pyQ7nYysHI7nFXCh+CqHlnugnJ1BjVlParhRvhXBZQBKNx+mTfPFXaHA3TeAaRPd9H4IWlrylqL2Saa8Q0fRtE5Z6+bDw3PsWjENF3s1AXGHudNi2duIwWhSCZ+gxM7Jl/DETC7cb9Jx/geroZVrgewnseWutfoqtlGZz6XmC49ObyRkrD02ggehKQU9lr2RS8hsf8A+l+LdXVTvDiMk6Ty1HRraWvXAES2NOWEoRguEHHipA7ltjVSVViGPUt75uoqS69fNaOBS9LrLOcSHLiYtv6TnuevlPJVrPqQBTGDuDn3UUDH6XckxVvvofC7FyLMfSxLxFdTMzXxES2urDry8yGLe6FHM3vvQBC6fZTLPzpnleSZweXSxAruFh3n94QNtRauMlsu2p8eJ8hL0QcBEWbRzZ4sf9jaOTIk9TOVH8zpiFVxKH6Cb97cPsSrABaeQTJ31XQKXSvzW5lIij+Z3ZT+RbgqCt1wwk8uVC1uYYetM1EmdZcYaGHl+4ygbw71R/OMX/vbLKFynL2W1FC3WEDXWtE3IuMwPtLQ8ucl1+fvl+9fLeXJP9HnTWS67H+0i0G3VkMClKYBPT8D78WMj93b447g0vw9w+Y2zy5zwTblJSV/gUvORl9WPqf+mlYK3mK1VaUYRes3DsmJuPWrQB3mRtRi9ddkQkXO4wKVIs+3v+oyikkT+918fQ8TMDNM4ovlYxfHEEDwEG0bbCHjOSeJUtSkYUvezDIKF3n1YTXLRcHfHdEb9zYa5+2v6AS71da/hBpun6sHlt8tsNETy9PNEZeuAm4+fGS12ygQ1gq1a54YxYyUnxOAymiYePmyku+0c0Q4urDZy+Q250/taycGltpkTixTIx0Od5XKYosVqWqjIisLHwY2QHTfMo6uLPbqMFqv9XMGuOa44BqZSboxHIc7+TO3HUBLr205aaqupkcxYFldoG8gJU+Ay6IA+Wr431dHwoVVSeHbdy2BR0CpO6s29mjeF7N17gZqvbT8Bl/0bO0Kznph8+H6cJUohsChX70dvKNqg5dIpBTEaWjR4XT+sy4qWtycjJeuY/aR4Dl6qMhoL+g0ute8oTvRDaSOCaF1wSuvLodVzJckXwSOOc2/0RoWmZr6KypIBjM29ylfbQn70dMLD/fCI2cXmGb5Ex4Si8g4nMSWF5OhpqAN3UZEXhYNZtGjdnNMYyEkSTDdP8lPZuGEDYuR0aykpOhAnGyci83qn2hs+98C33yiKG4NiciL7kqbgYGG5HFRAn0HXuX7kXvOesvSFeAkCXhGZ3Ol1RQg9UBR9Xy1Yc+2XVuMyTOCybywk16z0o2x9XDJIcGl4YjvvnlUPwAG1micN38y1VIZHybfaj5yNdkFwcUXtHsM5+SRYfp2V/S5psHRiTtI+0jbGsSQ0gIkLD1L7+SzRKgci80TopeXjjRQCVQLecYW81XRRtSOMlWfe8GjP9MGDS00Tl9ZNQhCjh+nBZXftadZHRRIZaUgL8Hezwd5rJouNxyKJjNrMBVmsYu23Bmoem0eXenj7CNFedrpoeXaeLMu5zUOLCFVPXn82Wtq0LbrQ6zG6yCloOr7x4e1rXjyp4liMB4JfLJlHs8ncu4ttKRtIWBNLdORCwlOLMRmSdJZLq7TYKVup6njHyUinXiP4KSOzKS/KIGH+RJxEClHYBg5tnofSSgdmoO/YT13HoQOJhHmrsLURcJkSz7nGdr401PLixYvBp9rXtBhwm2XdkYNLffvqfl/BwRg/HG1sUPkuY39ZU0+Lo+VzBgEutZ+KiPOwQx1+BH2gPv1TRf8yNwRBQDk3y+Kc7MWSH4ACwWmMKeqnROFxx9HeBqWLh/lxT1cc7CyCEUgD2GjsFCpUKkNyQLC1kwL6iJD8P//5SnHiJEbbTGTtuWc6q96T/cwdPZrQzKe8qiql+PJlLucnEWCjZtHeIi6Lvy9fIHW2HULEUVp+/x2po9TTYsVSfKtIZZpSzaJjr6W6q/1UxaVrL030S1lReweX+ou6P9DUojdfSMBFwF6l7jXku6urq7TUkaOjIyqVPaP/rmLpCQMoNoCzRmquHyUlcgrOo37hHwpPxruNZtSY6SyWIsUaIsaab1dsO883OrmZGsTkSZOYJCVv3BS2OHn66n77zSHtzD4juOy6k8Ikz3WIboyDtVx+/vzZqsVVBFsaze+SsqjHckqiEsZWXyf0Ft/Q7FpKe4BLDfXZ84zUHZHW+ve//51ffvmFv/3tb1aTeP7XX381+r7aqHXgWfpi1sDlT/3i+gOGkHw5rSkILI99/Wrq7cQ8/VfHEDEDwziO6FqFlm/PL5OxKhA3O3FpkWls0K/brHmTTaggWi4tlp/S3Sj7301F6lRG/aJk8VFd++iTFmtQLjTcIGWKLb6bbtLVWUtpXi65uaZ08OBB4zI84rI7x48fN50/dYmHYiwEw5+49Ed/waXUJwo4GKNoGwL6KPGdv0q/fJBeEbRqHt6CHZ6zlpsfXx1JgIuJsm3IRtvLS+wIF9kto7FVT2KOnIIXmS5FpJeDS/E+bVMhsV5K/Hfc4bms/RjGvIFszdqPpo6sOUo8f7NcWkYHtPofLVZXOh3DK5j9Pdbl+5nPZd9jB3zj1mZ/FMoAUm/rI/VJY46CJZLrk3m/MhB5GK4V5VLQZM1y2cjT8wlMdhjDpElujInO5bncWinu17/kpQjq5JbLzvukTVPiPtYNe/V4vNQuBG8rk/xm+wUutR8o3zEbtZ0ttjZWohEbKpS01QWFEaxFOu3H2Pwz+Wre5BA+ZT1Zm8V1Lq/w7WMLr3MXo/KJIHnbNlJXTpfApQHUaGozCXEO55icemiW3z5+aN9yNnosyoDtRgZWH1cP4pSGuqNJpN3+JC0NOHhwOTx1Toqr2EspNO/LyYj0RmHnRkhqMVYNlsZ7deDyp7TYflouBzeOGTMz5J2hgUv95M3QuH++tcMr6UYPvy3LUnQ/yyTEQUX4wbMk+6oISn/Uxz3fqDyWTFxUGEGTPFDZi2tdihx5F7wDw1i2djN7z9znc2c1adMU+CSX03I3nVA3e9zDD/JQ72Cs/fKJL1pxKYDBgsuP3N87G2fbMSzKTCNCobNcWpZN9EkdVECfjuccX+qFV+RqFrkpmBkdzSTvaE7VGnlAVl51iFDlWNaePkaUm44GK8nGXomDwhZbRy+mzQolPDKa2DW/sXHzdnZnZHGk6JFskdm+aLFbufPsIHMdJ7P+4mNqah6SGzMGVcQhqvUm/WcNzTw9vprw2DRO32nU0WV/vOe1IeKeGHXPItU1ftZ97+5PPL16lL25d82tLD1KOgwHrIBL3VO/U3MmiZmu9riEZfPcQqPU480DBpdd1GQE4yBMY7uBC2t4qLhwuoeKeckbCFL5s0OKiGY4KdtKEykVk1Mrjc700lmRxuytYuFxC+2hOFiprIHLXoIypFbypb1dZwl6cZ613qP41XMFJ5800XR/N8GjbFmQXSP58v3aC8D429/+jmrJcVr/9a8e4BLtJ87FuJlFdpSVzmz3p+BSfrWmgaIda0i79NaocIFOXpxJZPnmYp59/WFOHa07z9Yly9ldbLBc1lFxegcrQ7wkS+WvKl/C1x/k8pU9zFU5M2/PdSqrqqiySPeqnxoD1xiy8+N5KedKX9DaJa69qZZYDYZz0kRFslxq+ZwfhXr6Hp4M0ueyt6U4RGCpWxpCw5vCrcSnF/Hs5X32haoISC2l9vkVMhM2cFJ88ed8opy9SLrxXbIEWNJiO1tquX/vHjdv3uRyXhZ7Dp7moqRE0CkStgTbMmr6Bs6XlHDnzp0eysfqR6/1vk0iY0CUh2m5B23zaWImBJKYX8Gx5WNQhu2l4kEVBb9NQumfTNG9So7G+uLTJ/VeJ1nReqlbgsWgJOht+4zy7PV/gTFE9PFo+wPHkS4aijcQqLLBzus3SkRGcHsJCR622I77jWt9+Fyi/UjeUhV/HzWVzTcbB2S5FMHlhN8u0favf0kfputbs5G6+PjxY2P7qa6u1kdxbeK9ZLIxtBD9dkDg8iUHQgScYy+aXDS0bXxqescXC1caeqPF0sW3liZavhs6/Xaqc5YxyVGcY9gzdc1h8s+c4Yw+nU5biJveX9QSXIKG2szZOEzcxPX6WqPP3f1rZzheUEqlMULkXTLDHRBCd1NmPGYeQdK8/Txmd6CAo184K2NjZVHhY1gwWYWd+wyWmB2PZWW4H056n8vup3lsXGW6L2aBHyo7N6ZHrjQ9Ky6TW60/s1z2PnYYuUI/Kkj1F5fYSqTkk1YXGVpwYPl5XcUT+xVDtMwhy8VYdbR8rswgzF2Ff/J1mu6lEaCezT5jYAktn6tzSQgay6T4ImlZDt2tGupzI3FTh7MtJQQHv1RKrqUS5KwmeNtN3tdm/SSgz3Pu7A7CSfBi6cFdLFYOFVwORb4fuZvqj+/GUiq2i+DyKh2igeWkgRar5UvNPR6++66fP2h4czgMlfM0Npv5qxiFar7T+oQT8dFsLm6gGw2NBSvwVPiRXGautDO/aai/RKWTuLTK1B6WS6Xc+mumRKjncqK32VIkf0ydE8vWweviHcwfJ2DnNotNF6wEHOwhAgPFdSPFT82NKE+ORaH+qeVyeLBQj2wN8sDQwCX9tFzeLyM7ygNbu3HEFDTKJnpWct1Vy5FFrthPSKDkazevjy1ErZ7D/seWI4Lh3k7KUgLwCQwjOiGVvbtj8BPcEP2mzP9aKY4fgzBhGv5qe8bM30/VV5lWVLp4KODyd96eT2T5ngo+fztDlHIYwWVrDSeivXH2T+b626usG+vAwmMvqdgZjJtvLHnPrc8Kuqq24qfwZ8e9dzyvus/jF69p+vidTjF6ZbI3DnMPWnWw1nZ+5f37r/qOpovqtGk4+y8jOTmGGS4uBMUkk7w8EPWUVEqKtxIadRCdorMvWqwo4B9UHk81j1BpEY3SEJUyZfN+rlj6qJh/0OH91Su41L2m/XUVD2SW5V5fPkBwqf1wgVUe9niuumAeSVBcFidnPs7qxeQ21HEk3An3pXlGf0ez9/+B4HLrFDvGrbvEG4MlormZZ2fiCZ6XwtnqJpru7iDY1pFlee9oelNH3atX1BxdipPtLHZX1uoVB/dJD7HFOfokv2u1PcElOg2iwimWi5bN1qyg6CckFj6XFtcYfnY9Kya3sIqmTi3f7x4jdec5nnVr+ViajL9KTeCWq1KAIYMlq67sEGtX7+F6XYsESj5/buZBdiST/Bfx296z3H7RpJtUn1iK6u/WrXSi9e5Xn0SK9esB6iiX+vUrI0/zRQKXTszbpacfl96n/s15Ni7eSWnrR86LINs/iasNnXQ9OcLqldn0iHVkKKDFtjc/QxFgyZeeoPUW+9Zuo6juHScWOTIz/SrHovyJytVZjn8Ux+OhjiL/Y0cPcCkCNjG6q45y2kj51gBsnJdw/IUBuNVxNMIO+4VHTPR8i3ya/bQAl5of3/UWa9HHS41L3CXaRdr4zgAcrPnKmD2s5w/rQY0MeTVsX3Mu3vcvMIaIY5z2jxtHJPF849wKZ2zs/UmTKtZXiuLGStFio8+865VVpKnLYb6jDTb+W7nWoJPbQCyXExIu0SSt+2oetl9u8RYt3DoFdS9KaAlcOrJgt4y6L1HMSyhIno5STovtrmFvkIC7NJEWCy6PAGoRMb54J/McBKYnF5jT5w309dIqDCtItFYfJ+3AMTZOV5nWMtRXO8nq1yu4BMnVxWExJz8a6qmGl1lzUI5dQ7HR9VdnIZTTeQ1XW91KAZkEPENipejPYgRoXVpHpL8jdh6zWWk8pju3buk0nA3g8lk+KWtMVP5VC/1wtHMnKGq1yYq7NovbwwEuRZZK2RbCozIob9aieX2IuYLaCs15GOQiCaudl4VJBKnt8Vp+mlciytV+5HL8BFzmHeDxu4fkb17ABAcV3gtSOHWvxchM0r6/wGovgckpZdQYlyLR0FCYQPiafF78NFpsHY0FycQfr6FNpHP/GeCyV/m+pXB1KGn3W6WgPD3AZestNk0aw9I8/dy86xG7pwvY2Ch6KKY1DWWcKbxHU4dsTO1ooiQlCGeFt7Tm8ZOSA6QeusVXrYb3ZftIzrzd61J+Vut0vw9aB5cKuSuUlX3B6jgyXHUONB+qOBofiNpWwGtBGlfe9IZdLAs6VFrscGIhy7wN/PcQwWV/Xqil6WIc3vYK/DZcN3LWrd6pbaE0JRCVnRex5/XrW3bWkDVPjXJSvHGpCqv36g9KVgCF5TqXItWomWtJoi+XgM+KEzzRd+aa1xfIyDjPYwloDgVcyiqQuBj7MIHLroYSts11RzUpjoK6LnG1Wx24FK1RmkaKfpuK45hQtl1t6GHd/XImCkeHSE5JtOJu2r68p+FlDdWVNzm0zAPBN5q09DQ2i5HhloQzZ8YUvMc6o7C1QZi+h8eSwla38KxbSCIZGeuZ6+ZOaFIGGb/NxnXKFgqKssk0rlOWQcIsZxSBcew1HDuQT5WBYy75wShR+oYRY6FNla+3uTIyEDdhCtvkqxb39dGH49xPwGW/XzEgcNlGpbhMi2oOWRYmUU1DPtEeAr7JZdIaUd9vbsRX8CQ6XxYowJApPQXs58wBmc+ugQJpeIZEvTFpR8XlHz69u0bSxNF4rr1oBi5FMCYGixHBzD9r0gkSPFh9wRD8pkHyHbHxWkeRYcH1pmr2zLLFNSafVo3GCrjUKTCEsQkSHdSQJWvb/lsu27iRNAFhYjLl7VreH1+Iw1gd3VTUKj7Jmoej7QTWXnxLV/tbHpTd5fXDHBaPVeCz+rxVEC8CK9H61/qxiac1T3jyxDLdI3OBgE3IXh7pA/zo1pEUw7qPwyXmAj/0bA9nLz/depeB6zgvrU+g5f3VRPxUE5kb5oujWxCJ+U96tdhrPr2k+sET6r/rFGS9AUsxKJEZsETLu7wo3LziKf4i+qU5MjOjhpcnInAbG8Xpho8UrfbAKSKXd1odtc5gufz+7BCLZ8Ry+K7OctXccJ3kyaNxXnJcAukiiO3o+CT5ZtlYGdTF+ilYKrSM4PIxH+9lExWSzA2RjNH9mD3THQjY9ZBuK+BS866a8ofNZn2epUwM9af3wEwGcKnbikBU/PtLjCFiRoYyjmiaeVVnxQVF28DRcBU2wlwO6gMWdD7OYJZozfSIJOdxz7UCtF+qyAhzk5TDsefe8a6lZeCWywSdguqf//whrQnnEJJO1Zt6KisruXv3rpSeP39Off1Tshc6WGc4SeDSFoWzm1Wa+5jp2zG61HfpmEpeSTf1deQ751d7Wr3Pzc0JhY0NgqOr9fMe4WTr1qjQVanuZ2QEK3CZHGIMKCQFFprhhYPeutDTctktLSGldI6h0AAkxbofpGDsmmIMh0Sf88IYVa9uJpbtx+D6EnXG0kr0Z9NiTWOHJCRxPBWXsbJk0+gkqLvk6V5p7Ei4Jps7iWeGQy6fHpCbGISrvT32dkoWn/xoVJxo3xUR7+OAUqnALTCWfVdfmgWkFCmmJQleCJ6xFDZ3DX6dS0NZxXr7J4FLwyslMcrk21r/mmaNCMZ6Wi7ftr3ipDQf3ER5q4bG/GV4jIsgcqajDlxqGnlQ8YIvGg21B2ajcI2h8LOG98fDUY5ZqxuztZ+4vSsEtd1YovMb0Gjecr/8EU/Or8FH8GDJiVqzvtqQz976bMP5vrfWwaXSYzVnX9ZTX2+ZXnExwdxyaXz+MNS5znfVXDmygTkeAnYugaw5UsUHc3d+4+us7wwvLXZo45j1HA7k6B8OLrtrj7N4jB1Os9O533PcMuW1rZZzvwXgaOtE0LZyM01Hd/15Vk8UUHhHkXX3Q5+WT2sC/fHiAttEHwnBGWeVwJStlUan8o6raxmjXMARiVv+VwKXrbwoTCXUQ0AdlMzlBj01Rw4uRelp3lKSOgtXYQyzN+TJfFQ6KNswAcW0HVzImo9asNUNWDY22DuoUavssVX7Mjt8CStWJ5C0eTt79mdzLK+AwtxM0k9W6S1p3ymMcSNw1yO6e0SLTSFnXwyL9csUREREEDxBabZ0QcSSFAoNFj8JXDrItMmmzy/fkxyOHf73g8uuZ1mEOtnjnXjdHET8uE9GqAuCzzqKDdFttR8oXueDoA5hV4UpIIckNwlcOuCTUEiN3Ce15ixrvJTMTa/kufz4g0zCHKzTYpfmf8Pos9dwpQe4FEGlGGFTWsJBClyRip/gzfrSHzo/v4arbPAdjWvMaeoM1s7GO+yYrlvn8Ed3tw5cOi4meV8KaRlZZO2OY4aLHW7LC/qMWCmWtd/g8ovox6ogYGc13ViCS3EC85rik8XUifMaaVkEJXMPvuLd1UQmK5yZtatvKrYIMnsEjGksY8s0GwlEv9aXXVpIXvOKrBCB0aogtpffYY8FLVb79RlFe5YwUTWW8KxqfkhrB69iiqMjfrFHeSAPAiJ98G4e7ZrGaCGc4++0vUZGFb+j4TsZ21d7FTsCVEzbcV9aU1UHLp/S3fmQPcE+rMjYwTwnN2LOiZMx3QTVIeo0bz5+pOHqBnztppFaLoLLJh4fXYLrP37hV/UCch5/1q9VqffNmpdBpSzanSHy3dPXs/ovWgAAIABJREFUn8yp290irU/JhNAIAtUuBG0okpbH6Xq0hxlKLxKvi6bsnpZLMVr1OGUIWcZJv7lMjOUVP29np65uGupjL1vxe4oKhL/EGCIWYCjgsvMmG3y9CF65hQN5RZSW3eJmcT774oNwtbXFLTJXtmRAJ7V5MUxU2GDr5MeSlCxOF12lpPg8J/YmMt9bhY2tK7PTyiTlsEGRobNc/oMxIatYt26dLCWQdPAaDaKc9T6XouXyxd0TbE3Lo3jLZFRhh3nzz3+bfRedEuQb+UtVfYBLawF95F9bv6+36E3ZZh6l1sqV9E6LtXo1SODSAf+E4xReuMAFfTqfvpgxZpbLucQmzGNWWASLFwTiobDDM7ZQH/xHy8dLa/CyE0F9NHmvDeTRgbWfthIxmngAuwzOcsYsDyO41HTQ3qWl/fM7jNHoxejSbgpmZdaisVBMSlnoB7jsqtKNHcmmEL+S5X5Icmmt4/qhBGZ7CCjGh7PjYj7rvVVm4FJkB3y5u5d5bgIeYaJlyZIuI64lvZy4sw1oRAaR0XJpFK6uj+h3tNj/DrjsKV9zcNmQE4bKN4xIfzUq75kEjnMlcm8WUePciTh2l5xwJx24FOecnlPZVvGYzNkK3FcVIS6wYgYuRdGIq0jkneGBaKj5UcgKJxVR+W+p2hOMk4M/yaUmgK+TZO99tknSfe1Zgktoe36d/MK7GJcFN7tdS/O9IvKvPpG5fYkXDLUtdtNQnEKwi26OLa6Ekf3UQmFilo/efvSTFttRzG8TfUm8Ir7DcE//osX2Hwv1lsf+H/9jweX3u+wMdsRubCQnxIXbrP5101x5jHUzXLC1tR55Tbyt42UB6/xV2AqehCYdo6zBskPQPdw0MWins+kOuSki7cEet+BEch+8496u6SidZpP+QES6oiYmBKXPJnTLqg0cXHY/2cN0wQMz7ZthUnD2BVWlFhScknwS/e1Rhe2i2EC7MWxLq6hv1/K1ppC0SF9UdmoCE/LMI5Vagkup2D94mp/IDBdbBM85JOaU0/D5FpsmCngnl9P6roaqBzXU1r/jU6sY97OT2ykTUU7frbdOyj+Mlve5EajU0RR8Eed1laT6qYk++wV6gEvLCv0TWuwIuJQJWgxR742943xyZCGPpXUbw8Zir57Nrrv6wAeGu75WsCPIETu3ELaWNBopPAwDLVbTfIIwm3+gcPfGx8dHnzxxtvmH0XKpW0JCTiXX8iE/Cmd73TqVIuB4cmwprqPGEV8oC4rz5hK/edvgm3SF1q4uveVyGSnJAdKSOIKDO1MitveLBt0/cKnhVXYYjs4LOSYt5Kml+cQilC6r6RFoUuwF6rKY4+CDbpLTStWuYNz8kiS/IIPorW1FeqiBUitum6ozmaewMVuWRQTjmvocwlTeRCVE4Onqjbers9HnUlOfz/JxAs5+Uey+8tqo9JImQA9yiJkTzZEnFn2d9j3Hw+0Rwo7w7Id5Hgz5EZdBEYGS+Z+GlznzUXus5LwYmVpqj6Ll8qlUlzp+1FMY54Vi6lYq26Gr6xsFq9ywCz8sKQrqji/F0T6c7BfNND08wXJPGyasOUTW4jE4+CzjQFkjHXrLS39pfdrmfJaJg7LDJFYefyRZ6cW199LnqFEGpKFzM+7W0WJnZmBYSep7QTQqMSiUQWEpk0mjvIrqBWBUmPQCLA1yE4HTX2IMEfM9lHHk2wtOxk7DTYwSa7Qi22Cr8mJOwjHuW1FYvC0/RHyIFypb2T3imtHi0mHOQSRfMtVPMQiSDlxao4f/IkWGlpRLDSWSssl56iz8HEfjseIkRXpwWdv2T2P7Eb+P7q8PcKn9zKvqR7zukXf9rbJNx4M0AgQRVFhEIpVdY9zt1efSeIX5jgQu+0OLnUda7m7iY1ewInYtKQcu81xvotS2XOE3XyWT1udyKHLsINvPN66sHSctwVLWYy7bB7gs24i3Ur8UiVQyLZ1fm3j5+C7XMiNxtx9HaNw6VkaGMXOKFy4Orqy2jFrSdpFYtcBsI7i0QT3Bn2nTpunTJMYqTcHgzAUo/jKNHbsfmeaGQ5NLJzUHQlGrfFi45QyPxHqijzsgWS61rdRX5JEWO5uQrbdouX+Y6IlKbFUTWZSczeVHLSbrWlen0f+wV3Ap2CAoDcHvDFslgo1gTpnul+Wyk7KN3gjjEim1/JYSeB8O+crApbaJ3MVO2NiqCYw/QfWXbhpuZCEuETcu+jSvu5o4Fu5E+LH3aD7lEek8l4yCLUwRxrGuRFy/XEtL7iIU6liKrHhldd3bxhTlDNJruqH7FbmRY7Ebt4bLBhabVAVM45i1PrtnnbE80hNcWl7Rn99DrXO1+avwVTrgt7aAqqtbCXaxw3HyEradKuPlV1Pd/nle+kmLNXtQNzXpQbIgpKaTQxvHTM8Z7N4fBy41b7kQ5429MJG1lywCiki51fDp0Xl2x07Hzd4GYWwImwprTc73Vkqk/fqQk7/NlK63UYxl+vIspPn398dcPVfMjYpKynKW4yWIwSh+8PxoBN6+i9icdw/jmq8/7rJzphP2HgvYll/IjjmOqGPO66Oj9gNcdtdSnJ2pW8h53x6SwycgKOfKNOimScGK7GwiPVwRI1L2K3lEcqyhnfqCVUz1W8ruK3U95WEVXOqE1VFfwt7oqfhGHuHmyWjcBT+2VlkL+KOl6WQkznZjmL02jQwDhXX/fvbt3kC4twLH8GMSNbC9Ygt+qrkclELCv6JobwZFdd18Ph+Du/927hsUrlIW+gMuFbLJjoymaZwA6Y/Z/5Utlzqf1SGHPH9XR+m1R3pKVCcNN/YRNVGJndsc0sqsT4o0b4vZEOCIrTCOsNRCXkg6kgYOhylQeQeZ07TCghjvYIfblLnmx0OnShOIxNIOiTIpBYGRor7+is/iTWzevFmXUlYT7DyK8YlX+F1crqHzPrkpKaSm7SY9Yx97t8cze6wttt5J3GyD5ke5LPMchSp0H2WXD5Ccso2du3ezLW4Gzr86EXn0mWRFsowWa6Wp93qof+CynZqzm4nfe1MHVkTlVOl6vOxdCIozr+/7M3ayLmQMgs8GqQzSi7s/8/FL33yWzvuHiVsZx8r4BNZvSCYleR2RUxz5h90MdpTpaaMSkHnFjQ0TESaIMmrl2dkkgt0FVF5BRMZtIHXXXtK2bGX/UVMEzRPHj3EkJ5tDWZlkpO8mLe0Ed+T+4W3FxLkKBGc8odEKWBIn/j2BpU6kXe8rKSq9w/2bt7hbkc+6yQ6EZInL3GhoPB/LeGECq8838vGLuP7gG4rWeTHKdRZxmzawbKoDNlNSKH10ke2znFFO2ciNz1q0nyvJWuqDg60Kr6BFhPjYYz81hvQD8rXGDpCZuY+Mvens3pXNdb0/tebtJX4LDmXbDbG+d9JUcYT4QDX2YxaQVW1AjhpeHwpF6RLKtjPFXCk+T3qEB4oAWch2vUzmZr+xymz55z9NQMYAJM22z0vIPXSc/MKLlGYv+++PIeLn0oPLwY0juvqraX1PbXUFZTfKqLj//P+z9yVuNW3h///RHTtjnVRCiYiI6HZFIkOGSIZwE8klkiGSeYhEhhsREaIomiiNmohSt+nb+Z7f9/N73nPOrn12+wzVOQ3uWs+znz2v/a7PWuuc97Ped70L9e2m2zUpjR3175H/MhvZz3JRWPUFNU+OIHiqAhLZJATE/IPyTooc/X+gAQwDDEXaYs3jGMyV/oJf7Wci7PQzNPb2z7n89ddf+6IL03E/CTYy51LsV6G3HHcOR2Pv3wdwMC4e8UficTA6HH+6KyB1XYfrWo+k78g8uNLwN5C3RmbQ0nlwk0nh6r3Y+DPBm3GBgl1R0pJLBU9e3v+YfqHzgW6x/cJrvuUiIWgSHHz2Dqv/9JadwVJHBebG5vWTor7P8MllL8oe6KevnDiCqKCpkNkH4+KnNmTt88VUZ3vtmtda/CVSKJ094O23FCGbdmJv3Emcv56O/Ho1essycCbxJE6eTEDcVj+4SFUIudYEjZb8yDFv83GdXkT6RMJeBLtxy1iR+4Dp/w4S2yq4VNSjroHHzjoyscNNgdkrNyPY2wVyiQOm+m9E/EOySgKa5gKkRC+Dp4qW6pHBye8gcvp9lLUGCKPkUumKkJMPDJazevQgAatclBaRy+7Xl7AnKhr7DsQhbn84/CZKofCNB49r62rTSvjqAuDw3GKfnsTBa8Val+Cuin+we6EzJgYcQY528KYVaaHOmBIYhUNbfOE8fQeO/eUJxdxYvNarlN05MZgpm4B5Gw/0T4Oiuj9+AGHzaXrUkb54AZrGl8jIqTf8bTbzm93XlI0e8MhlO1nSpeJ9Uqhb0rl+DdHht7ljiAvzgld4Gqr0Pw9t7+8gNmQWnKQUWNQJU70XImDpMgQHr8DKlSu124oVwVgetBSBixfBf3E00vVT10oS/oADtxSJphXVRbQax2s8iguAvWMYdAs/aNBaXagNfvXmZTpiA5yg+CMBJfR9q3Eho6BbfMNm5LIr7xDm26uwIDbH0OWvTzQ1av+JgJfTNCyNuozcPvbX94CRg158fpOKQxuXI/xSiW6kv/MBIibrG5ZEigkLYvFMa/RRo1fkv1T9KROxQe7aUOISe29E90XEGkguM3Z6YtqGFDRwo+G9xUgMcoebuwemeXphrv8qRF7ONywjN+KsXeTUSDFMXjax4KwJcqnLUg11zxfc2+ahdX0yGhOnuwL3DocjeJEf/PwWYuFC3ebn54+gDQdw+wNZSzrwdPcMTFx1RT8HTY3y00HaeSkTFPaYHZ1lWG5YQi7t4bLuHC86nmEkvPz8fLy+uxtz7ccyudSgIe8urqekIGWoW2o2aAotl7oLjsLPQYaJflFIMxKgiXtW8/kFElZ5YkZoCsrph15rubTH5KBoJOoXsxddAJi7dzwccxXu2HJHN3dSqyCWnMHqiZOw/lK/xfFb4zMcX+KORUfzdaO4PQU4tsgNkybp5zxN9oB3YATO536FBj3I2usNmcsyJObUourBPvzhPgkTnZ3gPHkGFkVcxMuaRtC8NtuTSw4p3l7TgOykv7B+xXIs4ymWy5YFI2Tzflx/S44+lidN/R1EBSzEzOnT4D7VAx7TZ2KOfwj2Xs0VzE+twYvYBfCPL+hzB9W0luPp9UTs37kJ61YtwxL/hZjv443ZXl6YMcMTnp60zcAMLy/M8p6D+evP91nsSMKeN7GYKV2IA8/5JFY3b1DrhmuuGD15iPWWa6Nq209bg0s037c1ExFT7TE9PBVv9fNFqV1UPTuDLYELMW/efCwMDMOJzNe4u9Ud9p4bcPUDT4lDGz5mXUF8VDjWBAci4E9/+C1cAN/58zHPxwc+c+di7pw52nmmPotjkc0b7da5Q2pQnxYGN5kCbkv24vYH3gOkBDZmIW6VD6a7u8HNzQ3T5i5DTLpOQeQw8VYsQpLhWj4GSJgkQxVXsHbCL1qy88uvv43+fwhJPuz/EYPiD+uE5v4fDPaCm5s75qw5hid1Ok2KXI4JV7LQU3uhPc1xpXZIlv3uxseID9+FlCKydlDSkUuHPw4gLeuJfqmi+9q5l/Tbn5//AseWGplzqc/BYKepx7VQD0yZMkW3ubnBY4YPAtZF48rrZn2f7kBBKg3SxA19iz+NTP3ajzpyqUJAwls08Ah17b2d8DBwiw3C+RrBr4rmKzIiPKzQf9SoSg7BpCnrkSpq9unGiwO+mBZyARXqXrw79idcXVwxafIUuE2fj5Bj5OKsQUPmCeyNPY6zV28j88VblDe09XvEGACtX7tTLoFUYQ+Vsxt81p7UDXq13MJmj+nYcZ/nYaHVkzws/O+gDm4tXAyF7i08Bj+lBMopvlgXcw4ZxV9Ey9fdUID08/FIyhQGtbKdW2xP/lEscpus/z+dgmnzViNuwPcBWANfLSw8yyUfJs0XPNg5G54rE/GKt/TP9zeXEBkagtVrwnHoXjV6uz6h+ANv0FvzFW+SYxC2arlgUCYY6yKOIr2M1x7439Mf0/+Yud9skdd4l3jksrcVNcWFeCdYms/oeeF7fGq1Tpt7Ul2H+gFFVaO1IgfpyacQvz8aUbsi8RcF1tqxHREREdhGa2Nv2YzN4eHYejRTPx1IYLnsLUHCH7pBLIlsAubs/EcfzVhnreSWLJEop2F9cpmuXVuNC/FgHuKhzcgl+QI35L/GRzHDWZ+w3fjeOqBW+u5aftCNlvoaVFWUo7yiHt9FCOXAvDrR+OEdij9xo+O6JzrrS1FQXCuY4D3wbZNX1M34WPAWFbyOavL5wdzUtKCqsABln/XDJEbe1bSWoZSbp2nkGYsut5WhuLK/EjUtNSgpeofCDw0i6xCqUfnoPE7fey/6A05t4nNZAQqrzCjynfUoLShGrWHVWCTu0B/qQF1pAQrKPhuRfeg5W/ZmJ8pe5qK2H2rTr6k70N7XdfSLbFsAGFkc/m2pxPMHj/GqVBf9VGh9IOWQAvoMNv3b+AYPn3wwac0ghZNGwM+evq+PMDzIr/R8RllBAUoH/poPMiPrPG6SsOgVz/rSPNR80y3DYI2vthZmIPFcOgp4JJDqkFw6LU3q7k60t3eih7xjNRp8//4NRY8z8KzCMMgN1zbIGqqLfEvTvAuQXzP49mFWtp4K5GQV9y9TYvaF/gd6K7KReidvwGL2/U9AKz9XnoH7SpS8ycXLF8/w7MUbNHdZ8idiw/8QEtyW/yN8YKx0bMxaLsy+vbYYBWVN+KRfj5UCQfUnNZo/Wrgedv9LI3zUhYb3b1HGraer/7rmew2KCz7q4kW016K4oAxNIt3Eav1H8wWlJXWG1iBbIqHuQpt2Wo1tPmI1XAzEa0PJs+eoNByrMnjC9IkG317fQFJytuE8Pk0POr63oXOAGtaLTop4TT+sXNK6cxegTKwxcM+M0L79U4m4/tXdjo4BZbGtUJb8ZpuTgMpT8KGBN53E3BuG923T5gy/MZizzvr3KCit69Otu75/Q2tbOzp7DP+PNN8bUPmxHOUfq1DXwv+RsR4XGozcYs/akFyKfY5dYwgwBEYDAVL8iNgNCELDG3knJY8sEUNNlgROGQwBGqocI/keBTcaSFQGEjRd1NjhS0b5CL9HdTqUwQAK9tPe3t5ndRLmS+c0F663d4S1juHDZDQHsqiJlVN4jcg0S7ZFgPstojbIEkOAIcAQYAj8OAgwcvnj1CUrCUNAFAFyRSXiKFSguXNS8qxBfsiyxeVpbE9k7EdKYmRPrOxkDR5uonoU5k35UuTawSSt9frff02SyqFarwcjx2g8S1hxLpxCLIXnNE+TJdshQO2QiOWPNHhhO7RYzgwBhgBDYPwgwMjl+KkrJul/EAFShsn1kpQwIhdE4Cx1P9OuVdnMrT850JpGSjZZEi3NzxL4zSnuFDzoR0pmA8XwLMPDUaLFiCVZ4QZbd0SGOYuRkEzRuW6tSv5cyh+ptnRlsdTabI0BgR8PPVYihgBDgCHAEGAImEaAkUvT+LC7DIFRR0BMGSbFlwuaQSRSFxRFJyoRHlNLLxABJLI6YA1EK5SU5BIjLdw1kvlHSoQ7VzZz+6ESayGxpPobrKWZ8rDEej1Ysjoe65LqzNwgCFeXg8V5POLBZGYIMAQYAgwBhoA1EWDk0pposrwYAjZAgEigKWsTpwiTwmyO3A1cq9K6AmuXNeFZ6zjZuD1ZYX+0ZClRoecGS97IssxhR3tqB4OxgNraek3zbGkj8srfiJTxN5rvK9yobPxtsNgMpx3R4AofV2PHhLctBmGGIzt7lyHAEGAIMAQYAmMZAUYux3LtMNkYAnoESFE3pgBbcp0shoOdmzcU8IlAmJKnf7H0oeQ+Nt8xZSUWYkH4WJqERJ2+w7dQm8qHCKgpuYjokkV8uMRJzKouLLMl5yNt0bZ0wIZkH6rF2VT9sHsMAYYAQ4AhwBD4URFg5PJHrVlWrh8OAXNWSTElniyFg7F0DRc0c3MQyTXzR0tEjMSwF7tGljBzFjq6T9FK+e8TibMk0Zxc4bv8fOjYmtbrwbiYCuXgn4/EwIcQP3MDIXz5RrIPCeVk5wwBhgBDgCHAEBhPCDByOZ5qi8n6n0bAHHHjK8NEROn5kU7m5iASufrRkqUullz9kCuosUQWNb7Fkci4JfVI5MwcyeWvVWns+0O5Ptjyczhw+5G2WnJlJBJP7ZGTw9Se6oQlhgBDgCHAEGAIMATMI8DIpXmM2BMMgTGDgDmrFKcgj6YybGoOIt370dJgLGBUP8bm8REx5wfdIdJlzm2V7pNV0xTmtrZekwymvs+1SWP70bBacm3QUnfz0exPnKxszxBgCDAEGAIMgfGAACOX46GWmIwMAT0CpIhbqshTMJfRSERmjBEJum7OLXQ0ZB7ON4XRXE2VnbtnzHpJLqtEPilIjqlEGFIeptoCWa9Hqg2QLFzZBrMfC/MZ+YReTHbCeDQJsKl2wO4xBBgCDAGGAENgrCHAyOVYqxEmD0PADAKWuiESuRiNZC7Iizlr3GjIPJxv0nw8MVJi6hoRFjEcyHpJbrC0EcEkyxoRN8KULJlE3KleTZFKIkvmyOlwyiv2LpXFUhdTDpexQtoIK04msT0NHrDEEGAIMAQYAgwBhoBlCDByaRlO7CmGwJhBYDBzxUZDMTZnyfsRrUCmyJ4YYaFrYnVjbt6ksbzoOpE7IqOjlQZrvRwLVksOKyLsYtiO1nxQTi62ZwgwBBgCDAGGwHhDgJHL8VZjTF6GAKAlJmLKsPAaWbFG2g3VnCWPIpr+aMnSubD8+qF3hGko0VeJ2NK8z5Gu5+HKPpbIJbkP8+uGjqnviFmXheVm5wwBhgBDgCHAEGAI9CNgHXLZXoJnzz7iu4a03mrk5lXB8tleGnyvLUFRRTN6++UamaPecjw8ewqpeV9BonOp+8MTpD8vw7cBAqlR/eIuMvNrYflqdfpce14jKSwEBzK+GHyL+6bF+54GvH7yBg18gU283F2dh7way2vDRFZWu9XZWIai8iYMnFXWgw+ZKbj9qsZk+1E3V6Ko9BMsW5zBamLbNiN1FXIevEJ1+8CK7aj/gKKyBghtUvyoolrFuCwLN28+x/u6RjRWvMI/6S9R1dioJR7DEV7T+gHZLytM1gk//66qXKTnVg1Q1jnlfTDLOlilL3aWIze/HkYprboWr5+/R+tA6PnFMnksSqipHhqNb0QKxZJFFsDaN0i/fBVPi+oGEKCu4rtIOnUTb1oGWaDvxXj+qhbDcQIdjOWVyj/ahJiPv3CusCVRevnvs2OGAEOAIcAQYAgwBACrkMu2jAi4KebjcEE36lJDMVk1F7se1GtJVE9rE+o+fcIn/lZXj299Gkw3nkR5wGHlFTRyulD3K5zZFo7wcGPbFhy4U9WnLPZ8fIrUlBSkmNxS8ahUQEe6MrDNVYk/E8v68gLa8HC7G+TTdyFL8Dh63yF+vhwTQlIsJnd9jawrEzum2GPZhU/DIJcaNN7eBDe5G8LS6szno65BcshE2M8Mw9VSoiYaNBfctwirrDIhlekryeAPNHXIPLgRu9KqoUYvio4ugCogEWVqoKvkEiI2xOFRnRrofYt4XyVmxrwQIZ7cZzX4cnU1VJ7ReK5lp20oyUw1U/cpSLl+Czk1PfiadRxbjbYrY+2t//rmPSkoHjDowMk29H1PXizmKFwRdqtZUK89eH1wLux94/FW8F0hoflweS2cfp+JXRmVeJ24DBNk0xF25Q0aKEBMS6OZfmhM9g48i/aC3DkIZz8IBBB7Rd/mJO4rkfCkAo2NdSjKuITEkydxUr9dunRJpL5SMbDNWaMv9qIkMQAq1Rxsvy1GkNWoSVmHyTJnrLpC7VOY1GhrqsbHslIUFbzGqxfZyMrMwD+3biDlygWcSUxA/MG/ER25HetDghGwcB5me7pjoqMCsrkxeFLDI5clZ7Da1QlOTv3blClTINwmT54MJycXzIlK1w4OiBHU2pxDWCD5HT77nw8YlGu5vgb2ikCcrRpYGmHp+s/b8Sp2HpTyWYh5YW7orBstjXW83/Q61H/tBHqLcHFnGFatWmV8C9mHG6X9mGjnhnY1oeR5Bu6k3UL6k3eot+JPT3/5zB/x+xPNa2aJIcAQYAgwBBgCDIHBI2AFcvkdGRFuUPod0yndmnqkR8yEwjkAx/K+ahVjuZ0d7Pib1BURDzh2KUIuO28hVOWCgMiEPoWUU0xPnoxD6Cx7zD9c0GdJab29FdM4Jc1VBblEAqXTJIHS5oF1yVUouH4A+y/n6qxeIuRS8yUNG1yV8DtePEBp6yk4jHmKiQi7LSQAeuC/piPKbz7mzxfZ5s2Aq1yKCR5zxe/PX4C1pwt131TX423WIzx6JLJlXkbELAUmBOxHWqbI/UdZyKvsV4zUn+4jcq4DFB7rcbWsE0UJSzDF1RWuRjcn2EuVWHG5QUByBt+4+t/oRnHSUrg4L0ZCQSsK9eTyw6cMRHqrMH1jCsq7AU39ZaxQTcLWe0JW358TEWQDcqmuxOklSjh5LkRAQID4tmgu3JSTEPHgX3x9cgIRW7diq8i2JcQXE6VyeAaGi96nd7btvY4SCzgWX2Lzx13I2TcLiqk78fB7Dz4VZOFpUZMef+PkkvIl10Id+XiPy2udYDc7Go+J0NS9wcW1bvhdOQ/R6UV4QgSR3wfp2KAfGpdSXXMNa1xlmLTuOmot4CvU5sJnyPD7xCAkZFfgUYwvnFQqqPSbs7OzoP2Jt7lh9UV+cbrLkbrJEwqlF8JTywwGLtS1N7HRTQ7X4LMoGWhKJ1cMPI6cCqmdHSQSGRQqZ7i6ecBzljemu8hh7+GPkNBwbNsZhZjYw9gfdwTxxxNx9uJV3Eh/gRK+9bLoJJZIHbDk72tITU1FWloanjx5MnDLuoVIHwXct95GpajlsxYvDy2EVOKLA89qIbQED4Vctr06CF97Gdw23EAtN8jHx5B/3J2DfV4y3m+6BBO33kdnVxYi3RVwX7QRYWFhA7aNy2fDQRqA4+/q9G1I/G81AAAgAElEQVS2Fm+v7cSSqfaQ9LVNCZTTVuHkS0NvEv7nbXlMrsps2RFbIszyZggwBBgCDIEfHYFhk0tSADe6qhB0rqJ/1L/1JU7tPoLM6i58r3yD58+e4Zl+y06LwjwFkct/0VJdjMJ3+UgOc4P94ng8e/sOheTu2EHk0h3hV/Px7t07w+3tU8QtUhmQy/5K6tCNvruswMWPOi24t6Odp0x24k6YCkrOSsonl21ZiFsdjOV+HlBKVPD0X47g4GAEB69ERHIpetGJZ9EzIJVMhHcgXedvK7EzpQzqrjJkpRqxoCb/jaXOCvhEnBWx2tA7qUjP1xMKItf2AkLep3yZu67QW2I7UPehCGWNXej5mIb9+66j1JxBgoDUWlgdrEwuAfRWIHVfNK6+be4jl8Uf7mB/9EW803JhDRqvhWCCKgjHXwjqvLAMTV0AuYcWvnuHF8cCYe+xBSn571BUlo9TS1QC63N/i9AeUZncJvMGNAT39aff726Cs8IPx21hmhT/pO7qt3vY6qaA9/5cdGmacS3EQaesa+8aIZddLWjpALg5enWFpxGskmFh3AvUcoSk9A72b9qNq68q8OHlfWQ/fSrSD7lBHqC97r0W3wF97l0+0qICERR1GU8KBHXzrhDlnzlW1t/mmgsuY/u2RDz52G+l4ixwA4LOCNucNfqiEO/OYpxf7Y0lcdn4zJEndQ1SQ92g8NyKu5+4i8IXgd7vX9D09Tu6uEEFdRNyEkPgaa+CV1iygJR2ojT7Gd42tmlJikGgHy25VGHZkXvagaPXr18b/rZxv3Vvs3DQ3x5Tt98TJ5c1TxAzRwLlkgTk1TVqI8jypR4sudR8fYK9c5WQuW9EGm/0oKe9vW8Aj58/tORShRVni/Hx43tc2+gK1z5yqcLq5IF1TnVflb4D02R8clmJm1vnInDPZWSX1uPr11oU3NoLf2cp5LP2Iae/aRp83pYnNB/4Rww4ZUvMWN4MAYYAQ4AhwBDgIzBMcqnGx7NBcHTdgDStxtaDvLMR2JqQha9GdDV1eRIClEQum5G+xQVymQwyqURrFZDJZFB4xeBFyy2EOsjhOGkqpk4Vbm5wsVeIksue4kQEODohMKlEqxT1FichcJIP9j3/ri+zCXL5NQUhShlmhezB3r17dVv0FiyapMAsUvobbiLUVYEZKyL779Nz0evg4yCH79GiAZZOPtA60mahW6yWXCoRdLYC7R0d2jlzFLCDliOgfd/W1oY2/vm3e4iYrHfz7cnDAW8H/JFQYlouAyFtQS41AlfUTVjtOxHySQuxhnNP3XoS2d+qcWnFBEilMlA70G3ULiSQ2Qcg8UOHqBVcGRSL2MUq+MXloIbves0/rrqJ8MmG5LL3u9BduxoZUTOhnB2NzBqBGzflVfcZbRy5EGI2rHM1Ks8vg6PjMpyvpAERI+RyThTSHqXh3OFd2LDUB24TZiL6mY7Utbd/w/NDCyFTLcdprVWoCumH1iIk5jqKeJYzaj9c6u+HnAbfg9z9swdaN80OaiiwOOmjbmCJ1+baTCzvQO3XIAnJpZX6YldmFGa78dxOyVrPeTjQfrIzlBIJ5CpXAy8Hj+DTeG+krns+PcWJtTOgmuSPqJR3MJjW2FuHrLhATJY7Y+lp3W8QV06aW/j/vlzFaqUEcgcnkPXW+OYEB7kcM/Zko6qpacC8zYrbEZj6uwqrzhX33ePPDxwUuVRXI23TNMgVM7H9Ps9boT0PcQtdMWPteRRyYwdcYfTkcv1Nak9deLh9sgG5XHdDt1YnN5jA7QeSyzoU5Rfgm8FSH93IifGCTOGPE8YqgZOD7RkCDAGGAEOAIcAQGHMIDI9ctj9DtJcccu8DyNPGjNGTt+CLqDNLLjml1phb7HTszhZqNTRtsA4Xg0Uslx1vcTLQBS5Bp1HMvaauQcq6yXDwPYhcrXXMHLm0R+ht3oQfmgM4X4lZfz9DbpwvlK6huCGMpNOVga0TFfA/8V5L4r5nRMNvCG6xC8Muo5xzOdSTy/75mR34kLYLfrNX4kyBXjHXNODeDh94hxzGvTK9G6xWSTdCLnte4dhyX3GXXN/FOMhhLVT0rdBkv79OxfEjR3DkyBHE/RUIN7kEsmkrsTded+3I8RvIe34QPgp7rL7WvzZj87XVsHfahLv64qm72vG9tRXVF1dA5RmFR19a8b2tDElLFDwXPSOWXQMXUN28T4VZ4sTLS+GPk5bMORwsXt8y8ZenDMrlXJ8hcmkP59DzeJ5xFSf/3oagmSpI7CSQOrjBJzAUkX8FY5rSGwd0nQ7/7/tTbHH/Db957EB6FVmNKnBuhQx2/vF4zSOXZEUjSyelgeQS6G1rRhNn9TSzr8lJwip3ORTTQpH8Xt+XeeSy63//F41VdxH9hxdmzpxpsHl7e2O+qTanJZfD74vqqqdIuXwJNMfTYEsMh7dcgfkRpw2v65+78k8BmoW/X+qvKLi2C/6TXeG75Qye1xsGyeqty8KRFR6wd/XHrutFaBVrB1QuBzfszOR++8QeosqpwbkgB3jF5OBze3sfgdSStLq3OLfSCb/86oYttyr77vFdOS0ml5oWvDz8J5ykjvgj7iVP5nbkxS2Ag9QZQaeLeZ4fenlNkkt7LD54H3fu3MG1a9cMtuTDKzHJwHKps3AaLvehI5dy+2BcMmFNNoIcu8wQYAgwBBgCDAGGwCgjMAxyqcbH88swQWJnI3Jp+ZxLtObh1CoPKJTeiDh/B2nXLuJ0Qhz+jopA2OLpUEhUCEgsRg+GRi69tu9D6CQV/BMKBypanekId1Jg8WmdW7DR4EJm3GJTMwrxTajQEpduLURKpB8myhzhszUZ7/pCWqrxOe8iIha4QOY4G+sTHqOar7PyFH2tEYbmQ011xKKo84YK9YUYBLpMxJZ7elJtA3Kpa+MafHmZhDWeznBzd4bcbRb8gvbgNgUO6i3HhWBnSO0UCOgLrqQjgPbesfqBC66niM25pLop4llxW5FzYh1WxT9BC1l2v7/DzcNxSOubLKnLW+m2Ccn5QjfPgef5V8IwRTl8cknLHVBESlrfUBclswsFR/xgL7HTumpXvruFo1GhWDhZCjs7CWSOHvAN3oQNf06GYs4+5OgNj72FR+Dr4Iv4d1Szun7o8NuvZsklkRNu+QcxcskhbHqvQcubMwjxUEA5MwzX3vMGYwRtrqnyOja6yOATdlg7sECDC7Qlnthpus2ZIJeD6YvGyqGpOY8gpeFAhrFn6Xrv+2vYMt8VcokMLj7BCA1di1XBSxHg7wufWZ5wd3WCvdwRs0MTkFXDjWyJ5EjlslfCw4/vUi92HIg5rgotuez6v//Trl/JWf8q7++C1+8/4yctuazAx7wsZNy/j/v37+PFixfIz8/H82OBUCj8sP/hG+05XdNuBcWo1Q/UAO0oPLcKbjIFpofdQCXPUtuacwC+9lK4rrqEct71vhKZJJe6eakUtEipVBpuMjv8KuG7xerIJT9qbm91KjZMlcOV5veK/B72yTDODmhJE3K3pfmx9DtAvwHkHk4BjegaW/JknFUoE5chwBBgCDAEjCIwZHKpabiDcHcFJjg7QmENy2VwErLvHMXWA3fxpZ3cYlXwXh4mEjF2PfzdlIZusd2vcdBHrnWhJBc3j1m++DNoNUK37ER0bDz2r5kBhetapNS0G59zaUKhnbX/FVqqSvHyzn6E7b6DGs7CSLB23sFGlQJB52vR0dIwMCIn555JrpmTlFhyogC13DXhvq4ZHX0KVScqHhzBGi8VZM4LsPPaO/GlErqq8PDwSkxXyuCyYAcuv9EHGxIo+tCSSx6J5JqE8LotyGXHR2TEr4KnozuCjz1FdvwCqPyicOKvBXCZvBj7L8dj+ZT5CFw0GW7bH+qX3GjD3XBnqFYlo6kPExJanFwaRvztwqO/3OEcnj5g+Q5dsfXkcloUnvK5QM9rxP85DUEnDV2cu7IiMdUK5JLcUjmSQAp1ffYB+KvkcHRUwn7lFVQ/3IfA4FAEzpDDed1VfNIOFgycc9nzOhZzHP7EyQ9qcP3Q0UmF36ftNGm55L5N88qGRi57UH1/L/5wlmGCbxTSqw2tdxC0ua8ULMfFAasvUtTY/nl43xtuI3Iqry0K25wV+qJBk+Haun6vrjmHIIU9QlK+Cu4YOW17jL8D/kBQyAZs3bkH+w8nIOn8RZyKWYO5LnI4zlqL+PvlaO+pQ9nHFuOBsKhcDk5YFJmIpKQk49upwwj1UmrJJTVPIiJa/GpzcCzAAb9KZZD8RpbLMmTsmonffvoJP/30E37++WfTFnz5HMRqrd3fUXB2NdzlMkxZeVY/51lXdk1jBnZ6KSDzCMNNgx86HjZGyeVj/OWuwvq0dmjaGpFf8B5lvHqvzbmAXZsO4fb7/rbAtQsiWN8LkxE+2wEqn13IMOb6whNjrB4SUSQ3ZXL/JqssrZfJldPUvrm5WUs2x2q5mFwMAYYAQ4AhwBCwBIEhksvvyIqaAYVHOI5H+8J+OOSytwFpYZMhlUohVbpjcewjfFZ/xceCYtRoF84UFqMHn8sKUPKJP29Lg+91Faj53K51Te15nYCVfptxVR+KX111B8eP30VxS4cZcqnAkkMZ/VFaMy9hywzdnMseIjWZkfBSOCMwqah/Lbi2m1inVGBlcjUeR3lANhhXS+Gz9utw47sG34pu4dCa2ZggVcIj+CDulfPLKsSDzjX4kncOm7xVkNp7YvWxJ/j0r2DOpZZEOmH5EV75KBrtg5MIcTWh6It9blDX2pC9xwuOnqtx5FENuvlLkfR+Q17SegTHPMC7snK8P7sUqvmHUUDWkp7XiJ1jj/nxbwVzRnXk0mHyMkQd2Ino5EdIXKyEyt2b5/I7DzNdFZC5eGIe30V54SZc0QZ6MkIutUqzYOCClHsrkUtSHvuUy7pcHA9QQD53Fw6GukK+NAmf/ud/jc+55C1F0v0sGp4OQThX02zQD+Uzoy0ilxQRc9DkUt2A7GMr4KFQwGNVIl4O8BulOjNsc0QiN7oo8MfuywbukTevHzTd5rTkcjh9sQm9jUV4+lgsmvIjZKbuwjyFAgGxusA6YlGZs159NLKOajc+5SQjZqUXnFx9sTnxESq13VON6iurMNHZF7vufOz/feD3FfUXlBcUorrP+4B/k3/cjaayAhTX9M+R/fq1EbmJQXD6zQUrIjfC047IpaHlkqyXz58/N225bGnAk7glcJXK4b7qLAr6P6ENunV1nRtk9j7Y+8REtFaj5DIDEa5O2HS3E513N8HRZTMuV/CIZF0psrNyRYMUfX55DMtd5ZgUGI/svjWp+JiM3WNyNScLJHkFWEok+34HeOSbu0b9k3NfH7ulZpIxBBgCDAGGAENAHIEhksse5B0KwqYbVXh3dMEQyWUTCq5GYbnXBEjJtdYnEunlLdpIohbPhbMPxS2eVx5XxO7s3ZhuL+bGaM4t1g4yZf+SCSqVAxRSmTagj85G04rn+3ygtJ+P/S/0s6q0irASa1Jb0C1quaxFye2dmO0wGbNmuWJyaDLeCy2W1eUor6KgMWS5VKMhcw/8ZizBzohQLDaISivmQtd/bdX2OBzd7IsFf2WgoctQ0ddaLt11LmuGgURUUMhcbOoWq2mpQ10b2ZI68DJ2EXwi0kSXtOjJPwQfhz+QUNKL3pLj8FNOxV+PuAruQnnmaewNXwbviXL8+qsEjtP/xLaLN3FgngKzwxORfPWqlsRcv34VsctcoAqIQcqNG7jBbWmZKNZGYDFGLp8h2lOJBUf1S8LoG5Q1yCUpi5zyqNtXIT1mIw4+fo/UsImQLjqGgrpGfP36HueDFXDZwlldB1ouW29thLPDWlz/NrAfZnwiAis+55L//c7iE/rAWnxfaq4HGe7VDc+QEOIJpcwVAfszIDRY9j0tIJcdX/7BRudf8bvM0D3SwUFuus1p+9Tw+mLnvS1wkfDmzAoHcsycKxbql1biCtfzGUUZZxC1zBOOTrMQciAVBZ/5LgzkodyArEOL4apwR/CJl/p5m2pUn10Ki3/TROSSOG/GrdZmJK+fiInLTyHnXqSeXPbPueTq9vPnz/iWEmJkncsOvDroCwepCnO2peID17WojJoW5Bz6A44yFyw9Vai3+H/H+5x81AuKyUWLHRDQpyUVa1XuiMzq0pJLJ9dtuFqjG1CpfXcXcSs9IJPNw9+PqwR9oQSXQhwhn74DD4xFguPqYQzsyaWdLJO0FqbBgJEIUeTqZbB7qkcWtXYMVDYTgSHAEGAIMAQGjcAQySWg+daMbxqdkj40y2UdUkM94R+RgENrpsBBvzxI99daVHwsQcGrVygo+YiPHz/iw+3tmOawBMfzyrXndE27VTSAOEtvSQr2bO5f6D5suTdUMlcsCNnU71a7NRHP281ZLo0EEdmf2x+Svy0H+30UkHtFIrNZA039JQQrHLDhtph1UYOvuQkImqSCT/Rj1L2Ow3znRThRzLkTavC1IBk7/aZgVkQ6LwiSBmo10P0mGTF79mAPf9u1El5yGaYGRmA3//qePdh7+gmaNGrtu0Ir0ui5xfagMHkXNlNk2LDlmK2ieWursImLFBu+Gbuv6dcU1VpE7DE/Lg9v4n2h9PgLj/rmiHXgn3BXOHstwQo/d/w+eTNuVjaisfI2trrJEJjYHzmTyFXKBhfYr76M2m/ftK5p5KJGCqFurqMRctmahg0TlFh2odbAtdEa5JIsGwMVTFrvr9KAXDY2FuHEEikc1lxGXWsrenq+a6Pk2vsewtXEcKwLXYeAaUooyMLbM7AfPvveYxG5bHoVZwG57EJlxiEsm6qAzPVP7L1bbsTNWP+7IyCX/9OaIeoW21xzcxhusRb2RXU3Ojt5kZX7oiq3IHsvrfkpgWJeLHK+iT3Tgc6u3r420JG9H74uCu1ajBKZM7yD1mJdyCoELwtEwJ9+8PXxhpenB9xcneFoL9cOltlJnbBg9z3U9ALdTWUo0M97fPPoBi6nZSGXmweZ/wqJwQ5QBB5Bdt81/RxJ/XnBu0rtfOyGF/dx920dqjKMk0tqY7UXgo2QS0DTlI3klFx8MfAb7kH5tfWYKlPAa3s6PunJZOvDnfCQT8G6lKr+Zaaoqo1YLtuKj8HPYSGOFvX2kcsbjbXIOrMdCydKoPRchYO3C/qXyuHIWO1T7Jv7O5Srr6I/nNeg/8ts+gIRPZojSVZFg+VluDLYYM8Ipk2rlGXOEGAIMAQYAjZCYMjkUifPcMhlFzrbO6CBSLTY5mtYrfJA1BPdhLjuF3sxUxWMS/UGGlEfJL2lqYjZtrVv4fvNK7zhKJsEv3Vb+q5t3Z6EF9YglwBas/9G8LoEPGvUQF15BksUzv2Wvz6pOlF+Jwp+znJ4bLiOj8QnNV9wP2I6XJaeQmH9W6TuW47pDip4Lo/BtddNAvfPvowMD77fwDp73vIPhnf7zwSK/uiRy158zEjC0fgoBLnJ4ey/DXH6wC5H4iMROEUBn4Nv9OS9BwWH50Pp6g3vKQrMinlhQGY6aIHzznYUJiyGbPJmpBG5LDmFpXJXhJ2/jsPbuTawGctmyiCZFojNW/XXtu3DldxaLcFrbq7Hi/1zIHPfgSdd/9eHWefT3fBUePYt8cHdsAa5JJe5geSSXAaNkMuQS6jQKqxVuB/pCdmcvci8cxCbNmzAph2xSHlVhuoGzvRk2A+/fq0RjRbL/37tswP4Q+5sdO1P9ec8XIzwhbNUAY/lcXhQZd7CKRzQ0PybKUouv1TfsA65tLgvcjUJaBrSEDZFAa/wvxA80RlLEgvFXVj7XwFasxC/bjXWhoZhc8RO7Ireh9i4I0hIPIIwbwVcguNx58EjPHn+EnkF71D84QNyzq+Dh0KFJUkfeP1ajfKkxbCfsg0Zfe6oOm8K+5BrZokVERwiNubI5ftTgVDKl+CsfloAvygDjzVaT4n5KhkmBZ9FEdek6EH1R1xaOREy11W4/JEX2UfvPj5r9R7ExERjvY9Kuy5r0+0wODuH4U4bdORS5YMlAVMhVU5HcMxVvOS7yBqQsQrkP8lATlGtIYkdKOyIXqF5oGSdtIarK7/vDeaYCCZzkR3RamcfYwgwBBgCDIFhIjCq5FIn+0By2Z0TAy+HpThbrRtC15JLmcDFTULWQr4m1I/E0N1iLbBc9n9Ge6R131S4YeejfuVb05yPZIrwKpdDLrPH6qtf+qwgmvp0RMxwgL29Eq6+4TjxsBx9xjlB3qKnwyGX7kq4zQ9CUBB/WwAPe9u6xdKc0Lpbm+CumI2Y51xp1ahNC4OHy3Kc71uDBdDUJmO1swSSCcG4qK9/Qxw0qL+0AnK3CC25rLy9Fe6yP3D4biwWSJwwb9VGhIWFGW7rFmKy3TTsSOfc8WrwaM8s2LmG4UZVk1aB/N//qULq+kmQSp3gvXY/kp/XgLNFmyOX6uZyFOQXoVp0jrBOeuMKqmly2dRUjaw9M6GcF4e3PP2+pyAO8xw8sUcbkciQXPb2tlpELudLHAeQy+76Ajy4sBuL3WjOqi+2XciD0PvTsD54ZyIDGmEudnCauRALF/Zvfn6zTLc5rVusdfoiTzqgtwqpGzwgd12Da9WdKD4VCCeHOYjMqLOM1HSUIjU+AQ9r9J4H2mWRHOD21yN0QYOWvPOIO/MCjdqfrU68z8oCP5gueotxzE+JKdsyePM5deRSIuIOa2dnB8WS09Auf6ovCAWFMkcuSxIDIZP4W0AuNfiSHQt/JykcF/yNJ4bmTO0Xez+cRZCzDBODz6NvJR4tuVRgqv9arF+/HuvXh2Lr2RfI3DUNDoFntPLSnMsJ8snw33kOaa+r+wZWap5cxrHzGXhXy5uLqSeaXCRjgzobwRPyaqBIroQxkbrBkEBbPkvWUpYYAgwBhgBDgCEwXhAYg+SyBwVx8yCXeWJbum5Rby25dAhE4rtafOLmK9bV46s4t4QouVR3obNHg86v9ahrJospRWrJwDZX/bqQQ1Roe/L2w5usXc+7gfYKPD6zE4vcFFBOC8ahf1Kxy1NlQC6JaH17dRxLXRVwCyKLkJFCGGtBwyGXU1XwDTdcFkK7PMTRRKRzmqMwcidakZe4CWEnX2Ho06E0aH6bhrgN8+HqPAPLIpNwO/Vv+LtMxsrz73nLu/Sg4voGeMgkkMjcsS65jHePA6Q/WuyTf7vwdO9sSGdG4f6zQ1ggm4N9T2sGKIV1744jQMYnl42oef8Wr/NLdMFF6kqQvs8Pzr87InDPUUQGeUIlVcI9IAIn75XiW+c3NNR9RhuP3HHSAL14Fz8PdopgXDZiWSeLk3Hl0zi5JLfY//3fLrxNCMT0oEQU877fkb4ZLgo/HNcur2JILoFOXF4tH7DOJV8GslzOs1Mh/M43fVF6UZMRA38Xqdb9UzoxGGdL+gdM+str4kiEXIa7yuG1ahd2795tsB0x1eas0ReFYnaV49aOuVApPBF+q0ZHJnsrkLpxGhQqb2xOLhSPxqzPR/P1FU4Gu0E+wRdR9/UWNgNy2YOPt3ZivpMS01YlILtBOFFRgy/3tmnbtswtFCmVnGu8fh740gTkFhejWLCVVDb3u+QD2iUrqh/sMjrnkuqYyKXk9wU4rXWXEALBnavRmB2HJRNluuisnC8sd7tv3413Cf5QSV0QfKFMZ4U1cIvVP9j2CJHT7OGfUKp9hsglzbnM6IKWrHFtr+TUUsgc1+IK34pZlo6YgBnwXn2yn8D2fd+2B0QoyWWdorqOlLsrh8Vg9iQjSwwBhgBDgCHAEBgPCIw4uewtOooFBpY+geXy20PsnO4A78AAuLv4ITr9I1qfm3aL1QGtQXdLHcoLX+FRYggmyacicOsObAoJwh9zPODiMBFb0gVEruMfhDsrsIjWVtQqtBI4T/fBvHnz9NssTLHnB/QRVqkGn1PXwUnuiyPv2rSWEGfVDKz4+wbe0aKV3c8RzZFLTTuqc1IQF74IAQeeo+nNOYTOtIdUNRMro8/i/rsmESIl/B6AoZJLdSUeXTiLjDIeQxHJHl0PEDHJHisu64g9EZWSK+sw1c4BvnszUSfUmcXyMHpNjeZXNAeV1nG0g2zaOpzJqdW7Jfag+u5OzHFQwHNTIk5umAa5whOhF9/yFnenjPvJ5bOWHMTMVsJ7fw6qcw8PilzqFLtaFGddRPQyD8h+kcFz40W8+0xWAn1E0BUzoZLK4bowHMfTS8XJh6YBl4PlUARdMLouX99SEgaugJzlRkguS3B2uRT2IVfB0b6BcPbgzSEfKKZsx0Ntkx5ILtM2OJgklzWP9mDW707YcL1aW96y1M3wsneA9/Y05D08AH8XGRxnr0HstWyUt5hpM5yAQnKprsStE8dwOXsg4dfNfdW/KGxzw+6LfHk1+FaYiuiASZDbe2HT1VIDV2t0lODqJi9tkJvZ644gvbS1z8uAK1bHhzTsWuAMxdRVSHzFi6JqQC7paQ2+vTmPUC8HKD3X4NRLnsdC0wP85WWPWbuScSZkChxmrMepbGr7lrvFcvI0P4uxiFwee2tkqZX2D0iPC8FMewkkjr746/xt3L55HVcvX8DZpJM4fiQOsX/vxe7IHdgWHob1K+ZjktQOUtfVuKI3o6p7e6Hum6WgRk3yarioluKsNhoz0PlPOJycw/FPB7TWQF1/q8Td7VMh9Y3FC57lsu7NCSxR/IxfnNfjIecuwBXWBntaKoT65EjOnxwMkRR79utXI3VpA3xYlgwBhgBDgCHAEBgOArYnl71lyDibiJMnT+LkiaOIDp4Ohf0SJJW3oaYgB6/yspG4whkOa67jm/oLHu/2hr37ZtxpoGUqQjDd3hGe3p5wVPgiKvUBMmn5jEeZyHyQgXv3nqK0pQ1Z+3wx1dkeMi46pEQKpbMHvP2WImTTTuyNO4nz19ORX69Gb1kGziSexMmTCYjb6gcXqQoh15qg0Sq0cszbfFwnK8mbsBfBbtxSJKSDv0FyTAz2xx3BsYQTOH4wAoumSCH1jMJTUorUX1DXwM/dBJQAACAASURBVLP2dGRih5sCs1duRrC3C+QSB0z134j4hzrLiaa5ACnRy+CpksBOIoOT30HktAHqqrMIVAjcgI24zRFJM9zkmE0BiISKvtFW0oa6sjJU1HxCfX0tiu/+BW+5Cutv8l2xulGWuhEedgp478roC/hhNMsBN9T4XvEcqUe24k93e6hmhiD+ajLi1s+Fs2IadmZUIvf0WkxXKOAZmowSwrK9EBfWToNC6gSf8LPIaezB17I8vMrLQer2WVB6xyA1MQjOE5bhfIUavZVn4C/5VbvWH635N2D7jbNc1qD4xV1cPByJNQvdofj1Z/zuNBcbjt1DUZ2O8FHgDl3qRu3zC4hc7A6lRAG3RTtx7lmt4SBARwa2TlRgyVlB0BMeBmQVEVMYOYWbixZb9Pkr/ud/2pAfNw8K5QysjD6KE9QODbYEHI5aBS+VDG5b06FTOQeSyzthKkgXn8BrfZkaa7Jx+dDf2LdvH/bF7MFm/0n4XeKLA89q0dn5CY8jZ8ErPA1Vel7W9v4OYkNmwUkqgUThhKneCxGwdBmCg1dg5cqV2m3FimAsD1qKwMWL4L84GumfXuKAtwP+SCjpm2coTqw/oKa01Hibs0ZfRC+ai+8jcXsA3JVSOHpvQFJOk7j7q7oJOafDMGeCFBK5K3zWRiPp9hs09Hbh491o+E+Uw/XPGKRXdgOaRuSl38aD7JfIy76AjdMUmLH3uUGbUNdnIS5wEmSq2Qi/Woy2b7lICJoEB5+9ePJVA83XXCStnaEltB5+KxEwQw753DAcO8Vf+/IUEhNPIOH4MRyJP4vHvDUnu/MPYYZ2KZKB0WKpTXGWy0OvPolHHO3IRrSXzPB3QyKBTOkIlyke8Jw1F75/BCBw+SqsCQ3Dloi/EPXXCsxUSDFp7TUIvdU1jenYNl0Bj4iMPu+GnjeH4KNwxvzQaPy9fz927NiB7WFL4CGXwntvJmoMBlrqUJydjoxXZeLy8vrSUA9p3iL162/fvo1pC6Xx34lG0Pq0LDEEGAIMAYYAQ2CsI2B1cpmx0xPTNqSggRvV7i1GYpA73Nw9MM3TC3P9VyHycj5a0Y5/wp11ERjlblibXIaamxvhppiOzXe4wA4atJRm4My+zVgV4Is5s2Zguoc73CZPwqRJk+E2dw8et1NAihPYG3scZ6/eRuaLtyhvaOtTboUV0JMXizlyCaQKe6ic3eCz9iRe0vIULbew2WM6dtzniAVAc6QSgzyw6Gi+zjWtpwDHFrlh0iRXuLq6wnWyB7wDI3A+l2fN4H2wt/AY/JQSKKf4Yl3MOWQUfxGVq7uhAOnn45GUWa+zmnR8RE7GPdy7N5TtPp4Uf4XGUnKprsSZQAVP0ZTA0WcPHjZxFcgVqBPF51dg6qydyOirXO6eqf03PIicCQepDM6zVyLqbJZ+XUB6pwcNJcXIPRcMZ7kr/twnWOaipxoZBwLh4b0TD5q6UZrgr1vSQTIBCw5mIH3PAvjH5WrnRmoJuWoB9md9wJs3b/Dq1au+7eXDv7FQ6xZbhuw4Pyh/+Qk//yKDy+wgbI27iqelFLWVsyQ2agN4GJRI04rSu3EI8XKF3+E8gzmyPW9i4a1YhCS9xcbgPUAbndb0/K1KpG12hXLZOXDL+2la8nElahX853nD23s2Zs/mbd7emOu7GOuir+B1n5/yQHJJ/dBjfTIK6pt0Zat5jL8XOsPJeSJcJ7tj+pwAbDx6H6WNjdr5Zf/75RPqeU1fVw41WitykJ58CvH7oxG1KxJ/7dyJnTu2IyIiAtsoWNKWzdpIwFuPZqJJuPwNdaHeXgNstTjX5uDUYrnxNjfsvqhB/Z3NWhdUxZQ/sDUxEx8tsIh1Vj/F2cil8HR0waK452jW9KImfS82Rt3Ee+59zSdcXK7Uyy6Bwm0ZEt9wN3m131GK65FhiH1YhHsRHrD33ICrH3gDT2jDx6wriI8Kx5pgijrrD7+FC+A7fz7m+fjAZ+5czJ0zB3PmzIHP4lhk8z5B821ny6Zhyy0z5PJlrdbdkyeV/lCN+jcP8SDrBfIKilFWXY/mtu4BFlvD91qQHbcRO86/QpOA43QXn8UKn1Ck8FmnphWFafGI2rZZG7E7JCQEq0JCEXHoOl5RIC5ef+Mf05xHayVyR6co0WT1439jvB5TWVhiCDAEGAIMAYbAWEdgmOQS6KwvRUFxrYHCbWmhOz9Xo/xjFepb9PNJ1A148/L9kPKy9JtQd6GtvceMImVxbmYebEPJs+c8MmXmcavebkdtcQHeD2QMgq9o8KUsDy9zXuDF8xd4WfARzUb1u050dApJpyA7kdOOkizcz63RLhsjchvorkTuqyojUTvV6GjXKeXq1k8oK32Psk+tOpKu7kIXJ2t3I8revgdnOKagHH1KZE0hnmU8Rm5ZIxorsnH9zBXcy/2AOiMKLr1HpGhA6mobMO+ytyIbqXfy+ogh/x2ylJgilhTkp6vrX7TWFKGg7LPowAM/P1PHxvohRbvsw8FEea2juA5sc+T+OvD7dagvzrGwzZkqtYl7mgbkZT5HFRc/ysSjwlu9rS3G2yo5MHz/jMaGetQ1NKNdpJkI81N/KkA+FwRIeHMo5x2fUFJQjDcVujUkhfjWFj1HRkY2CvQkbiQsXl2dfOI8sFCmrff9ZHO47ZDK+u+//9ps/Ukh1iN5Tn2ZJYYAQ4AhwBBgCIx1BIZNLsd6AZl8/10EyCVzqEE6hqPIUfAN49FhdZZCIp4G8w5tVE00v8wUweWUY8KJnrVFEsOC1hxlaXgIkJWPqz9Te3IFHe1EhM+UjNy9oUSMJQvlaBFK6lvUvmmjY26j/sRtXNmGu+931x/t2mTfZwgwBBgCDAGGgHEEGLk0jg278wMgQAr4UAjmUJRc+lZzs7g1iRRLkoOU4JEglfyqI2uQJYrtcAg1/3vCYzGrlTXdH4Xf+y+dW+ryOdpkngZcLGmDlgau4VxeTfU3S77Hf4aIIX2fAv1Q/6f+QISOZCf8yCpK36X5m8Ppw/Qu5UH5UT+gQTD6XSBvC/o2lYnIKu1JHhocYMTyv9SrWVkZAgwBhsD4RoCRy/Fdf0x6CxAgF9fBEszBkEvK35SST98mxdFWlkFzEJAyS4ozX5EWOyY5bbFgu5jVihRqloaPgOicVhH3Z0tJ2/AlEs/BUjmpnRpL1DZpoMRUXxNr1/xr1MbpfRrwoHZJxJFI3mj1TWNlZdcZAgwBhgBDgCEwXhFg5HK81hyTe1AIDJZgWkIuSSklSwNfeRUeUz62IGyDKjygtXwIZRM7t6Tcg/02WWeE32KWmMGiaPx5smwJ8RU7H01rMfUBMZmE14j8CRPJPRhCSXmQ1Y/6JlkfaSCD+v9Y6IfCsrFzhgBDgCHAEGAI/GgIMHL5o9UoK49RBMRIjlC55c5NBRYhJZVIGPes2J4UWyKfYymJzX0Uyk6KObn+WTNRfsLvmMLXmt/+L+RF7UyIr9g5Ea7RSmQZFJNJeE3Mcmmq31Kb5qyQ9Jy12+5o4cW+yxBgCDAEGAIMgfGKACOX47XmmNxDQoAsZkKFVuycLB3CRAoyubcSARN7h66RFUnsXWFeo3Fu6bw3UtatnYSY2Wp+p7XlHi/5mbOgc+11tNyRh0MuqQ7IcknkmNomDUzQHEjmyjpeWieTkyHAEGAIMAT+Swgwcvlfqm1WVi0CYnMAOeWb9kSE+AE76JjeERIk/juk+JLlZKwnkpMvt7Fja1tdhW6NRNJZsh4CllovydLHb9vWk8B0TvRNY22Nf13Mcmk6Z3aXIcAQYAgwBBgCDIGxhAAjl2OpNpgsI4aAKbdWbukGUojJSmIqGA4p62QRHC/JlIshX8nnMLBWuYR428I6ai1Zx2s+hCm/Do0dj9Z8V2Py8K8zcjleWx+TmyHAEGAIMAQYAjoEGLlkLeE/i4CxQCjkOkibqTmKpASbUtJp7he57pGLLB2TC99oWIzEKtdYuflKPh1bc/kKoTsyuXGyZF0EqJ2Zsq5z9Uttd6Tb4nDdYq2LFMuNIcAQYAgwBBgCDAFbIcDIpa2QZfmOeQRI4RUjkGLXOMWclHdykTWnnBtzU6T3Sbkn91QieUSyyKpHcxApXyJhZAklC6Ot5pQR4eXKY2pPrqzWSkRU+d+yZt7WkvFHyEdoIeZjzj+mtjaSiYgv//vGjqlfsMQQYAgwBBgCDAGGwPhFgJHL8Vt3THIrIEBEyxJrDz1DBHAwhM/S+Y1iiratlWxLA8BYy+VXaLkigm1LAm2FpjEus6BIxpa258G05eGCYemABpFjlhgCDAGGAEOAIcAQGL8IMHI5fuuOSW4FBMjCaI4EksI7lDXyyDokRhzNXSNyYO2AOkKojFlWhbJZk+QSoRTmT+f0DSLu1nTDFZb3v3ROwZLEcBZeG8mgSpbO9TXlav5fqkNWVoYAQ4AhwBBgCIxXBBi5HK81x+QeFgLkpmcuAArdp+eGmoSuoELl3tj5SC3TYakLpbWWryDiYMrlmPAgAkpyERkx53o81Hr50d8ji6Sl1suhDJoMBT9qQ8baO/+6rQdVhiI7e4chwBBgCDAEGAIMAcsRYOTScqzYkz8AAqRMj9RalUSOLFHy+co1ka+RIlWWulBaWyYijpa45RJ2RPDJNXekMPkBmri2CDRAwW9Xxo5Hyg3VEmsqDSywxBBgCDAEGAIMAYbA+EaAkcvxXX9MegsRIGsOKdymyB4FmbG2a6ZwfUdjSj533drfNwePJUo/yUZLslg7Ebk1VyccLlRvJOtwLMnWln8s52ep9ZLwHQlroSX9gAYSWGIIMAQYAgwBhgBDYHwjwMjl+K4/Jr0ZBMjiNZprVVpqQSIlf6SsSHzILCUhZFWylfWQZDBXRxzJpD1F2bVWoCE+Fj/asaVtbySWhTE1qMPVLVm0WWIIMAQYAgwBhgBDYHwjwMjl+K4/Jr0JBGiel7EgMqTQ0j1rzSc0JoalgUxIntEKZmJp4CFbL19B5JXqw9y8TI6MUP0RKbUV6TVWp+PluqVuz4QnRXO1VbIkUizVOUsMAYYAQ4AhwBBgCIx/BBi5HP91yEogQICsWqYIykiSErLKcWTI3H60LDdEzkyRcE5usj5ReUYiUR1a4kpJspHso0XMRwKL4XzDUrdnsgbbKlkyeGELt2tblYflyxBgCDAEGAIMAYaAcQQYuTSODbszzhCg+YqmCAmRI3IVHCmCxMFnbqkTjryNxNw3TibhnsgZJ4epPZGVkUzmrM98WWlAgbnLGtbOYKyXtprva27gYiQHLQzRYWcMAYYAQ4AhwBBgCFgbAUYurY0oy2/EESC3O7K88IkG/5iUVyJFpGiPRjK35Akn60iTXj4WZL00Ze3lZCQsRxpHks3SwD8kJ5F5W7p58nEbD8eWWi9pYMbayRK38NGYa2ztcrL8GAIMAYYAQ4AhwBDQIcDIJWsJ4xaBkVir0hrgWOIWSKRttBNZCTkSaWo/WmSA6tuSJUw42YlUsfmY0A4GUPvicDG2p8EFa+NlatCHk4MNBIx2z2ffZwgwBBgCDAGGgPUQYOTSeliynEYIAbKcEcHhlFOxPSm1o+lmyoeCXDXFZORfI8V+LKTx4MJL1jBzrpYctoQrIy8w21+IfFq7v9BgAFcPxvZs+ZGx0OuZDAwBhgBDgCHAELAeAoxcWg9LlpONESC3UXPukeTaZ6u5Y0MtniVKti0DqgxGbkvcGIkojMTyFabkpgEGU/Nr+WSGiJOtI92aknUs3DPXBm0xV9XcUihULyPtYj0W6oLJwBBgCDAEGAIMgR8ZAUYuf+Ta/UHKRq56RA5MufaRxW20oq1aArMp2YkIWduCQ0Sc8hwK0baUtI22RZDahaXzCTlCbG23T0vqfqw8Y2zuL5FAaycis+baPIsQa23UWX4MAYYAQ4AhwBAYfQQYuRz9OmASmECAopiacoEkt0dbr1VpQjyLb5lzN7W2gs93xSX8KH9L3R6JkPItf8aObREAxmJAeQ9S/ZsjMlwZqB7+q9YyMeulrSzm5ubG2mJ+J69JsEOGAEOAIcAQYAgwBEYJAUYuRwl49lnTCBA5IgWUIwXCPZEJsmaOF0uUMasRVy5rr9No7HtECOlb5iLTWhKIhWQfK9ZiIsSWEkwi26NtdTXd+m13l98uqH+ZawdDkcQS1+qx0m6GUj72DkOAIcAQYAgwBBgCxhFg5NI4NuzOKCBASqc5Kx8Rn/FmfTIXMdaac96IcJsjWnSfiIYxJZ+snBzxNbWnuhoriW+tNSUz3aPyGyv7WCmPLeTg6pXKb6kle7BymOu/oz1fd7DlYc8zBBgCDAGGAEOAIWA5AoxcWo4Ve9KGCJAlyRJr2XgNzGKO+FjTkmapWytHwMiSR3MXhWSDb+XinhXbW5MYD7eJ0Tw+MRnFrhHBGsqc1OHKONrvE7mzVZ2Zw5/ami2spaONKfs+Q4AhwBBgCDAEGAI6BBi5ZC1hVBEgQmNufhYRA1JKxzMR4CxGYiSHrtF8OGulwQS5EcpDViciCEQALAnKQu+Te+VYSuaWqeGXmQimNYn9WMLBmCy2InfkTUB48vEVHo/nPmwMT3adIcAQYAgwBBgCDIF+BBi57MeCHY0gAqSIWkoCyKJpK4V4pIpM5RUq2vxza5bP1FxV/jfFjuldfoAkS4mqteeMDrdeLLGCc+W3pYvocMsxnt43F2V4vHodjKc6YLIyBBgCDAGGAENgtBFg5HK0a+A/+n2yjplTRkn5J3LzoyRTVh1rldGchZQjVMI9WYaJIAoDJFlijaK86H3hu9Yq01DyIbI+GJJN8lNZWRoaAubWtCSyzxJDgCHAEGAIMAQYAj8+Aoxc/vh1PKZLSAo9kRpyjRWSrx/N0mGM7BCxsVYyFzhISCoJc3rHFDE0Rxy4PMdafZG7q7BNcbKK7RkBGlorNDfHlxH3oeHK3mIIMAQYAgwBhsB4RICRy/FYaz+ozERwKNAIucvyXTNNFZcsm0TaiJwSCSKiSsruWLRCGXPVtGbEVXOROjlSRaSLsLPEHZeeIYLAvWtsT3lakp+p+rT2vcGS7bFGkK2Nh7XzM9c2qE2weZbWRp3lxxBgCDAEGAIMgbGLACOXY7dumGQWIGAqoikptkToiHTSshOjTTiNzTG1lsWMymeM+PGvkxyDxcJcFFAuf8J6rCVjpJ6TWbj/rwX4GU59mQvGNdbm4g6nrOxdhgBDgCHAEGAIMATMI8DIpXmM2BNjGAEiPUQihQTB2DlZOYmQktIrXHrD1sU0ZkUjeYabiCyaU/Tp/lDLTFZlS62XgyWuwy27ufdJHktk59oMtRFTbsLmvvdfuW9uwGEsDjT8V+qGlZMhwBBgCDAEGAKjhQAjl6OFPPuu1RAg8kAunoMhmXwiQUrwSFiryNWX+y5/PxwlnNwSzZWdLHfWKB8Rcr7cxo7JMjrWElmujckrdp2IE0vGETA3z9IaAybGv87uMAQYAgwBhgBDgCEwVhFg5HKs1gyTa9AI0LqMg3WB5BMLslgRgbKV1coYwRkKkSEZyRJqilDT/Ev6pjUTYcTHzNixNdfttJb8xtySxcpAuI61+aPWwmG4+Zhb/9Rabt7DlZO9zxBgCDAEGAIMAYbAyCPAyOXIY86+aGMEyEI4GDdIIbmgdymwkLWTsWVCLA1eRPIQqSQyaqp8RABtIT99n/IV4iV2PhYtV2ThNkXGheVgwX0G9gAi3KYGGGh5IVsNzgyUhl1hCDAEGAIMAYYAQ2CsIcDI5VirESaPVRAgImFuDqKQTAjPydJlTUWZFHPhN+jcUusikVBTij0RzpEIoGLJ+qRULmu44lqlMfAyMTbvVaxeiIhas/55YozbQ1OeAWQpZ9becVu1THCGAEOAIcAQYAhYBQFGLq0CI8tkrCJAljZTVj4xUsG/Zm0XPzHLmTkSRuTT1BIjlCeRppEiQubm23H4WRs7a7QxIj9idcDJLNxbSvytIdtYz4Os0UJ8uHNGLMd67TH5GAIMAYYAQ4AhMDIIMHI5Mjizr4wiAkQoTFlcOAXZ2N6aLp5ilkdj8xOJxJmyEhJJomBAo2EtshTPsbjG4WDmXlqz7kexCwz706YsvtRGR6MNDrtQLAOGAEOAIcAQYAgwBKyOACOXVoeUZThWERgMqRASTWuRJDFSJlTMaW6m2HN8mags5Po7WomsrXx5jB0T8RhrydJ5oxUVFSgqKhoxi/BYw4mTx1iUY6pzqt+Rsphz8rA9Q4AhwBBgCDAEGAJjFwFGLsdu3TDJbICAubX5bE2SxFwLuWKSBVPsPl8mum/M0snlM1J7S+e02iq40FDLSWSej6mx44SEBHh6elo8J3ao8ozl90wRcRoAYcRyLNcek40hwBBgCDAEGAIjj4AVyGUr8tOScCmrBmoT8mua85CalIxndaae4mfQjooXL1E+qKCdatRkXcKpK9n4JPIZTcMLXDt1AY8qe/kfGnisbkT2mQSklXUNvEdXWl7gXNwFPKs1cl/sLXUlHl1Iwp3CTrG7Itc60SHyqLomC5eSbuNte/8r6k/ZuJJ0E29aRs+S1S/N4I7UXytRVPgO7wqLUdM6MvJ3tZQh/e4zfGxstIhkcORDaGGE5gvy0i7g0rU0PKuwrKHSmpRcfrT/XHMfiRuCsThoFy4X1hvc4z9Hiry5uZmGyPeiNjsZiYkncTLxAh5XmWnzhi9bdGYs+i1fbjqm+XjWStZqL6bmsHLyc+RSu1SM5ivyUk/h5Mkk3C3m+n07np/agcjYk0jOrob1ERZBrec1ksJWInj1ftz/bM3+MrC9kLXe2PxUGlhgxFKkftglhgBDgCHAEGAI/McRGD65VNfgXJADPKOfwZR63fvhJPwd5iA2z7J197ryYuGjUOGP+DewdDlzTdNdbJ7qAL+jbzHwK214tnc2lLNj8JxHzETrvy0fiUGuUEwLRXKpgOFpviAz0gsKlS/2PW2GxepdVxYi3R2w+uoXC95px8t4f0xdEI0HApbcnb0b0x2Ccam+/8s9r/7GLIdAnK0SYdSiBRwjF3vLcSHYBVI7O9jJZ2Gv2YoBoPmM1E3TMGXKFMu3qUtxolCn+qur0xHt7wqpdAZCrxSgrrECl0Mnw8nJyezm6uqG1ec/9g+itN/HVlcp7OSzsT+Xa3FdeLR7NtyMyDdx4kQ4Obli1ekiLZFsqryG9U6/4Ce7hTic+wEX100ykMN58gZcvrQB0wbk54bZux+BozmGNdqLmvRdmKeSwI6wlTrDb28GajgRDR8e1pmlrsaDWW7FqECDbS8m2oquHkTq3GUhYjJrtHWjI5ceqK1pgkZdhsQABezs7LHmeotOxJZ0bJ0ihZ3EAYFneO3CoAAatBY/RGpKClL4W+oDvLyXgK3h4Qg3uW3Fiaf671G+XZnYQd9UBuF8TRvSt0837AfTtyPlWviw24tv1F3kVjeJDnaweagGFcxOGAIMAYYAQ4AhwBDgITBkcqlpKMSTx4/wKPMmdvsq4bYuCQ8ePcIjI1vmtZ2Yo5yOTecfap/JyqsyTRo1zXi4cwZcfGOR/Z0nsbFDTQPSt06HTOKAKbPnY/78/s03MA6Pc4/Az0EChasX5vHu0XO+AbF4KmDGmuZs7F84AS4rL6Gyj7Np0JgeAU/FVKy7WiZCYI0JR0rhYMgl0Fl6Ges8FFDN242H9X0C4Mchl90oObsMLlI7HQGyk8BhQSxyWk1gSLc0jbiyUql9RyKRQSYztUkhkRBx9UFcgZ5Ztb/GEX9HSIh0uSxH/NNSnFshw88//QK5szsmO0p0xy7umKyyw88//wblRHe42v+O336V4s/EMqjRgbwr+7E3IhDuMjtIFLMRsicGMTEx2H8+C6lbJkJiJ4HK3dugHc6fPxdTHH7HTz/ZYXFCIerIclpxlUcu3+P0Mgl++kWJKV6z4OFoBzv7UFy8sBpKktdgk2Di1vsQDH0A6s94mbQWnkoilhLIlEooCAOJAtNWHcPjGkFDNwO3uduWrh1JgYyGZ+kaQnsx0VYIy19//ZW3/YKff/4JP/3miciMqn5y6S7BcpkdvKJTkGBALjVoSF0HF4kdJE4huFrXP9hjiJkaZYl/QmFQd3awU/hj3/7lIvUqrGclVlxu6B+QMiCX35EWaq8dPPCc7wtPZ6lV2ovs99/w8y+/wzUgGim5lQYEkwYTWGIIMAQYAgwBhgBDgCFgDIEhk8vOexFwc1RBpVJBKZNAqnDQHtO5+KaETCKFwkF33yX4PMrLzyJQIVSmLD2XY+7B13qC14mis8GYpJqHyOSHeHD1b6wM3oOrmXqym5GMSF8VXIMO487d09gaGIK4tMw+Ivz4aSEaSTfsysA2skQJFUGT5wosPVutt2b1oODwfMhNPm+kfFpLhKGC2l5wCkGuKvjG5faRiB+DXGrQ/HQffLWWNQlU0zwxWUYESA7P8DSY9ODsIwwSOKxMwut37/DOyFaQtgMzKV8+uQTQXZyEQGeJ9ntTt9zA8WAilxIEJhYic88s/P6zFMvPluLezun47RcV1l4pxc3Nk2HXRy6bcS3EXrSdKIJO4aKWXMrhE30PBXzZ3j7F3gUSPbnMR871I/g7Zj3myH/GT7+5IyjqJHYtkeBXWSAu1X3RfcM+FGlNNSgpLEJV42NETiWrlaHlWte5NWgpTsP+5R5QEpm0k8LJdxfulFUi80AAXGU6sil1WYBtpx+jwpz13tgvhsh1oasv51Yq3GvdS0XeN39piO3FRFvJzc3Fw4cP+7aM/8/em341sXXd4n/EvWPcL79v93654zeGzYE0lRAgdIIoiIIoinhQRFFAkSOiHGywQRRRRBFFlINihyAKoihIo6KgIoIKigii2CLy0D3Jk/edd+xKKlRCEgIERN01RpGqSlHZe+5VVXvuudbaJ9fDdfpQcjnLaTr8razgf/gGjvHJpeI5ji+VqgcpjN7vInjuqUBj7lYEBixSkz9rIeQeixAQGIuM5BCWXDKLdiGv+DqOhjpCaC2ENbR9TwAAIABJREFUY+hRXC++hB0LiVLKkUu1y3962lYE2AlgLfbC+pQcJIdJ1fZgIXvJf9aEi9sWQjZ9KqZMmYpp0rlYm5SDe00dGH37Dd/C9AyKAEWAIkARoAhQBH4NBEZNLrXVH4NbrLIlE0ESR4Sm3dQSPX3ls6QoH5dyr+IGXxG9dRrRHhINuRxA44X1mCV1R8T5BnT2DEDZegXRs+VYcrAKX1VdqIyfB4nbelwiEmRfA06tcoJTcAbq9GUfllxKEZxWhcePHw+u1VmIcJQgMLkcj/jHa3IQM8uGRy6BnrfPUPv4MaqLC1BUxbtGzRlEOkuxLKVy8LqPa3CrsAhV5Jq1TfgwxG1RhS+vXuKjUoH648GYSVwjHWUQCSSQu/DcQp1kEAsY2DuTY67w23/PpIuytu1+0EbXo3SsdFaTeIFdII7VNiPvL1e1e6xABt+4IrQaC2DTEgYjJN1QR1+PXAIDeH46FpuPV+DtQA9yIiSYOsUaS5PLkLvFE39MFWL5kUpc2DSTJZer0ytxer0jj1z24NGFvQify0AgYOC9LgGJiYnsmpRdgdwYolzqlu+PP/7A1Kmkwz5FQy6rkbvJBdPZ/Snsd9NFf2J1EANrZgFi/zmN7YsYVonKydsIO6Ecm65cQyzBTRqOHC4Jq6obrVWXcGijP1wYjRuswA6+m7JQUVuFwqzDOFXagqbCBCybIdaUSwCJWyBiUi6ivOnroJvvKO2BxKIai83jE0wy3+ho1MtR24sJWyHtoW4L0h68VU+5dLf9/zHbahoYe0fYsfgKIJXPgMdCb7iSgQu9dtbdF2PuvgfqATD2OUnIIjcYpcL7s6vV5DLoOJ60tSB/8wyWXM7YnI+Wtsc4ypJZjlz24068B0T835OswJoVEovZy+2Hd3AmJR4HLt5HZVYMFtr/galTiG1Og8hlicXsZZRmRv+NIkARoAhQBCgCFIGfAAELkUupeW6xUt2YS5ZcSl2xraSPyEnIjFqFmNSrePKRYxZKvMwIBGMfjSI+ERx4jIO+Uq1y+e3xOaTlNuBDRTx8PCNw5ul3fCo/gfjD51FcWoqSqxk4nHEVJRqCWpITj9C1ycglymZZLd5yP8eSSxusv/xdt+lYVzQbXfc0ckZ/FfZ66ZJL9h/7a3HIT4bZUblo5gijAbfY7zWHEUDi7842D9PBV+FrQxmKCgtxNTUMzpJF2HGxEIWF6vXqsQi4SXyxNbsAhYXXUFL7YdCNTrcmP3hPhU/3jmCFs1BNcoQzEJbdyHa+Ve+Lsc2LUR8XSDDnr9OoNZSgSEsYBJAEJiJfgwGHBf/zanok3A0ol7og9KIgSoY/pk/XJRl8wqHZnq5VLtVtn+AlgjWzEDtzS1B6uxINbIIVBRouH2RdZImb7K5du7BlyxbExMTw1i1ILapHeXoM1gZ7Q241HVbCGVi68Qh2rtZTRKWRyMpcDYloFnaW5CPaXgCBbRQK2EDkHjxIWqBRKgnREUA6ayX25j/D966b2OJKCLwA0sATaFICinf3kBnjB0dWxVQTI5H737j+SVcx18XHvD1T8yDyCSY5z/xljPZiwlYuX76MrKws7Zq5byUcDSiXbqL/A+m0qUZIpAizojKRtdkDIvFcxJ5ORrCNAJKgJByLIERRDJ+kmmHJpS4h1SesHLlU4HluAmIi/OFMXMlFrha1l86v1xEpJ/fAVAgWJKKyrQOtj64gea0X5AIrbf0tZS/m2wA9kyJAEaAIUAQoAhSBnwkBC5FLCUQ2cjg5ORlfHWRgxLrkUgco5SfU5iYhfJ4dxHIfRCRfx8t+BZrS/4TEIQY3+ORS5x95O6r3uBnnA9msaFxp7UDBjqVYvHix0XXRPBdI+CoQSy7FmLFwFUJCQnirP9wlIjj5BvOOke8D4CGT6CiX6tKo8LFkJ7wltvBPfgA2SkmPXCpbCxDjycBhWSqq+XGGqve4lhCm+Z1QJBS+0yGK/RU7MUsWivMfBgnBz5HQpwv1F2LgwyWZEdjDP6kSfF7TU5+FUFeRVl2z9d2MMzWfdIk3jzCIXP2wSqed+G0WgpClnrDVibnsx4P0SKzm/ic8BRU9/ahK34B1a9diZcBsiKdNwZSpf8Bh3jIEBQXprKGha5F47S3bHoqnR7CIsYZ47kZE/8nAWkgGSb7j6ekYrAkJQXBwMAIDAxEQEGBwXbrsb+S86ERn4SY4EbLAukVrYuiYxdiddwUJAUS5jEBqSgAYsS+SbmUhRGINkUc87mhCJ1Wfb2KrhwjMDH9sPHwNz7Uhcd24HefOKl0CaRBOvuLidhXoqLmAhDVzYCtyRsSlNh374t1NI9okiiRRJvlE0tA2UTiHZN01+EsWsBcTtkLaVqdt5s+AaEjM5WHIp/x/sLaej/jcbGzxEbPKY8Ceczi40hlilwhcanmKVH8GQsdoXK09jqWMEE5/F6I4biZLLhceqh2WXApd/LB6bTj+9CButgJIPf5E+NoQLGTVfY5cqkH6fj3G4vZC4mY/fWpGzgZHVkmfKliEpLttbJZflap/XOzFYJPTgxQBigBFgCJAEaAI/PQIWIhcjjFb7PdXaHilUQv7WlGZuQ0RuwvRrlKgPnUxJK7bcdtwWkxNA6jwrjgFsQeL0NrdgMLcezAnSz8bvyjjuRiy5JLBwphjyMjIGFzTt2OpHQPvqCODx8j36fEIdpYaIJekWN9Rc8gfMnkozr4h7ri8hD6qNuSsc4LMdxdK3g+SRLYyqi+4fz4FyQe3YbmLFMsydLNQ9pftgLssDBd5szuMH7lU4Utd8dBMl/ysl8NsX8q/h+b2amRt9oUdGwuozl4asL8M75X9qNy3QJ1ZdVYsCr+r8L0+G5EeEg3BJMly3LEi4TIaONKkJQz6Co+Jfa1bbC9u8F1WpRHI466reIPcDTNhNW0aptkFI/V2NWpqarTro0eP0N7RqXE3VuDFsQAwAhHc487j2HKOXHahYrcXxNYad8Lpg4oPq05Z/YFpU6dg2nQriG2DkfXm+6Cro8gd6/6pwtn1+jF065Cway7EYi/8tScSniJCLiORdjEHl67V4D0hBi/q0NJ+BZtnqV2lySCPi4sLXOQERwHEMkedjKKunttR3DuAjoYGmD0z0LCPOhVaq/KRfvw4jg+zZmZm6mZO1dgQsZVWJaD8YCF7MWEr06ZNM6xU67jF7ofwf/8PWLlvw4Ne3Wyxyne3kVfSis8l2+EhEsAu/CIa8yJhLxBjflIVrsc6Q2jNwP/oU7TnRmHWDGfYa9xqGXtnzJgVg+xTardYScgZtKv6ULqduIYL4bq9FH1aN1o+ueyzuL0QO+EyJdtJrDF1ylT8IbKBXC5nbYhkZR4fexnWoOgJFAGKAEWAIkARoAj8hAhMAnKpxMvMFZBJXBEQcxw3m/guqQO4v28uJF57cZ9zLzUIsjojo2xxKhqIi6uyFbfS92ldE4l74uC6HzlP1BczTC5H6xarwrem+yjjx4YWZyM944raHffmcYQ7SRCwr5CNL715MQ3HzuvGmmoTC5E6sq6/siHksq9kG1xlPFJETh23qUgUqD+yaGimS37c1zDbAvkGHE0OgExDLAXSOYjMqoXa45XrUJOsqIN1UrSX4XCIuzrLqbUQTiFZeKFtfwU+N9cbTeJjMLnP00a8Y5VvBRryU5C4PVjtLsv9puoDyhP9WZXTysqKFxs5GItHMouKvPaiilUM1a60AmsxPEM2Y4W7CFbWNpi7Zgu2Z9xCSYI3rKZMgZV3DP65eBEXNWtuRhTmCf/QqJQqoP8+9s0lapiGGAtIsisBrIV2cJ/vi1ls9s+1iI0mRGUoeSYK5l0u+euXHIRLrcEvP4nxJOUm8YXa37C2VrvVmuMJYPBeM3ZQgaeH/WCtjSsdxE4nppGN4ZvKlpNfJrItkG9CUW8/nqRayl4M28rDhw9RUlKiTebDT+xzq6QCj5rV85+SqUjcHBikpBehS6FLLlkUOu9gry8DgdAZUVdacCPWFUKBDBG571C0SQ6BNYPAEy/Qpomt1KmvdB1OZajJpdDOHfMXLsAcJ+IWTjJaz8GChT5wtyVuzTxyaWF7CZUYtnVCvPllZd2wLW4vxuyIHqcIUAQoAhQBigBF4GdGwELkkiSqGNr5HXLMmFus6isarqVio58jxFIP/HWRU+t6cC1aDubPdDZmzDjQeuRSE5PpHXkAhw8fHlxT4rDcWYa/rqp7SobJ5WjdYhWoT1uOGUZcgx1t1fGEAsYWDkbOcfKMwy1OoeWRS0VPO57XqpMDVZ8Kh71NCNIfDCYLqsmJwWypPxJvPVInC6ptwkctGTOO2vDfWIJcbkLR1wZkBDtA5hWBE1UfeG6uhsklWy5lB+7/E4PF3pG4RJRfdKunXTDHzoydw/jhcJ0CypcZCCRZigm5/PwGN3Yvhj0hv0I7zPYLgL+/P3x9feHj4wMf71mQW09jyZB4/gE8YnHlyKWazBECp07WMxU24WdQrCGXHKki3+kQPE1m4N7K3awSyd4nQjmc3IOwcikDa4EUDq4zMXPmTMycE4vU7EQkJMRjnbeETSA0N2wXO1iyN7UIWm9XTWP29/fzXFOb0dTUxu5/aizEbl8GVlYizNl20yxlf3j74J+hthWhGbGrBBd9AkMwUJNLNp3vGO2l06StDCZWMk6Ap1h5YeHfh+Hh4YGuT61obyrFXj/ynBPDKyQWMXGHcDByFsQCASR+h/Do3VVEkUzTTACOvejC1b9kLLlc8U8rej68wMPqYiT6qxP6+O8rRvXDRjzLVpPLIc9JHfsdJJeWtJf//Oc/INPD8F2XP3wg045opPzOKhzwl7H25rX91jjYC9926DZFgCJAEaAIUAQoAr8KAhYil1K4RZ9HDT+Tqt72w6J4LNBL6DMExIH3eHDhNG4R3ziyKBrYeCZ59DXw9cwh/wdD5FKG1f804u3bt4Prm1vY5WU7DLlk4BuVgqNHjw6uR2KxxJbB3PUHBo+R71PjsNzJmFvsYCl7G3MR420PRiyASOaD2CvNw2dz5ZHLvrrD8BvJlC0Gp6oYLM9Itvo+vMKzhgY0jHJ99qIN31SA8l0TXpENncUEudScp1RysYI9uBolh0QiMbwyIvWclgIRGGPn2AYgtZ5PLtci/cx6zBBaQyB2Q0hyJpIi1yEh9wk+/+e/8b2zGdf2LGYT7ggYT8QUquMtAQWeXTuOgwcOYE/8Fix3mY4pU8XwXheP/dnlKNWQS+uFu1B8bzDzMHsPkHZkyeVHFEa7QGTjAAcbAXss42kLzmvcYjOrbyItJhzx1zRzHPY/QOI8MaxFbgg/UoJGnpKkVHAZqVRof9WAmpqHeFx/D+difGDvthKHip+iePc8CKZOhfXszbj8/AO+ffqE7v5+M+MfdRrN6A5nKxUVFbh9+/awa21trY5dcbZCfmBs9mLYVhiGZPcVwNqKDAaQ2NrpsNIhcrwBMpEPFm3ZC+H/+Z8QWOkqv3wyKLDxw/6qL2hIC4CNwBrMwhQ8GfiKnLUkMZMEa851qGNatW6uXLZYQNX9Ce3a55Netljt8XZ86ib3zReL2Ut/X58mPrYdr+ofsvZS9+wBru1ajBlekThd+wm1R/whJcR5/h5UdpIGUfIGhYyaAP2CIkARoAhQBCgCFIHfHAELkcvRxFyq0H55C/wXLtSbaJ63v8ATjmIBpC5zDZ7jF5iECtYt0BC5ZGDj6KZWf4gCxK4usGNkiLzSA5LE4l+34+AuXYOz7/4NlsQoXuJWZgaKnunJfsayxSrbUHk2A/mP+Rl5+BY1gLbSgwhyc0f4yVOIcbPBysRUhM6ajdBj9/CB4038f+G2eeRSqepHd9c3fPv2GZUJcyH1S0bNF7KvXj+Xx8PLZhnSG76qj3X1qJOIcNeatJ/Dk0uDRf9SgBhvP6zdnYHbLeq26iuLw0w2MU4ozg8TcKujXH7rwtOLyUgtfoWm82sxg2RSFUjgHrwTe6Pms66yApErQjPrwE0N2dvbO5i8pq0KSX5WmDLNHuvPPUPjixco2+sDouCJPUIQx3PJ3hMbBDeSvZYll19Ysmy/JhoRJHELP6GPJARZFWlYaiOA2DMOJV9V+Fq8Re3KS8iQzuBBJwqiZ2F2wHrsL6xD+goyj+Z0OK2Mxho3EkM3BdOkPthy7hauHNqBlKKnuH9pH9bMmYkVx+6hzewEOwZbwuDBgYEBHUWMr47xtzs7CWsZyTIKe9HYSmjcMeTVvGXL1XxpAxxI4ibrQBytazda1rS0Q5D+3/+lO/2HtQiu/usRGxOCObazEHm+ET2vziGMqJYCKf5MfwGF6i1Or5LA2lqKdbmaOg4hlyq8LzuJfVr7iEfkQlvWLdZ2YSTitcf34WQZGWD4ZhF7USg+ICvMGc4+wdiadQvHgwSYNs0K7ut3YqOXOtZZ6BCAxJt1uHf6EJtQq6UsHRsXzkPExWZwwxgjaTV6LkWAIkARoAhQBCgCvw8CoySXg26B/FH8EW0z/kjKzcMpfuIc/nZ6AkLcRBC6BCM+nZdch3fOsZPXUd89gP7+btQeXgSJbxLuf+nG94/l2O0lwcpTzfj69Sub9ZC4gH1svY6t7mKsymxmO5Sv8zbCWbQcx+tbUXf1mPFkJOzE5QzmRR4ynqzkxGU84k+d0fMSRftXwM3OCxsvPEOPNqHPR3Q9zUakpx3cVyWh8AWXUUbP6HjkUvG9CS/IxI/KZpwKksJpc5GOkjtczKXy80vUPq7Hmy595VDvNyd8dxRkASq0XwyHXECS/fjjKBtkS/IlacilESVK7HsQjzVjBjrkUgf+PrwqjIMfl9GWjU/0Reyl5yAzfxCXU7UrYSMubl2CBfO9MXeOO+xF6vkribulYG48cg/7s3GqxAXake8CTTImE/dblkgOoDF9NSLPXULsDH1yuQJJWdvgS8ohkMAv8TwO+NtokxwRcnn6cTFOn69C+8friHEhxMYWq7MbkB6kJpcum/LQ9OA0ImcL2SQtAo9Y5JYU4uq9alyIcoMVSSwkWYTkO+90W13ViZa6Wjx+XIvn6kBV3e/N3Pvy5YtR0sYnmAqt6mrOhUdqLyq0nF0Dm+nTMNVqHvbcbtUllwammyEuu394bMeNlg6kpaXCzVaIU+cLUFp1E/tZt1Yp1l5ipTx86fiI/p46ZAQ7sjGxQrdNKCQDG4oXOEYy/Qpk2FCgkZh55DLoxGM8rbiJvD1qOzH93GSwJO0ZFFCO2V4yssrw6Gk2wu2mYcpUEZYfu4PTq0WwthbBI74S3W+uYdt8YmcCSH33ofzpA1Q1t6Jkx1zWboXyIJyo1/jtq76goSQHZ7Lzca+FJ6Ob04z0HIoARYAiQBGgCFAEflkERkkuVfjwrAp379zBHe1ajitpMYhJKUCl9tgdVF45iKjIBJwuquCdewd37tXiDScF6cPb1YCc2PlsEhiB1A1LNx3G5YfvhriSEgVJ3VFtQ+W++RDNjcft1g50tNzAdg8h5m44rEsGj+3EcrloCLk8+fIdKpNXslNHkOkjhqx/zocrI4SDV8DQ77jzg3bi6jtC3vrQSkb6feWQuIfi6J0OtTuZllx+Uk9l0V6O1NDZkNrMQvDOLJS/1gNj4CGSfKRYsCkRUfOdsDr7HfpqU+AnccLGgi86iJkmlwrUpSyANROCs2z5dP71B++MlCwQeB/i4AJN/KpsEfaUtLEqrZZcCmRw8ZiDOXN013mhGepkT+jFs+xwuBKVU+yDnaWa9lF+xfPiE9gaOFM9b6SAgevyeOTWf0PvwAA7QDFIihqREUxInDpmj5BKEndJ5pRkfPchJ1lNGiTBJ1DX8hovm17gWX0dHhXFw1dMfnc+NmdcRvmNctz/eAtbteSyA+dDJbAWCFj3TYHEFrYMA4Yh+9YQObvDnXWhDUFWSTLrZr77SLTarVcWgvSGNzxyeRmvOzrQ+iALm9ZswbnqZpTsngsrKzt4LQ9DgJsVSzqliw+hlscNVK1ZCJaQpEIuiLmhw7xHZCv//ve/zSKXhISav5hvL4S0fntXiu2epJ5TMFU0F5svVKOlowNa5XKqCHYurnB11V1nBu5nnyMkoY+3t7e6eEoDCX36mpAb7akeMBA6ITRbEyv+vRixZI5RgQNibnxH5+sa3LqUighPQuQ0bSv2RXxOAc5lZyObXU9jT5CczRYrD9qD09rj51BU+4V9ZvQ/vjNqezlesBeeglmI3h0K+2lTME20FJkv3yN3HXHfJeTyDvt8VbwpRPzGRNxs68VTksyLcYFf+CaEzFUnG5IFpKK2ux2FsV6QapJ0CeVLcaRG7/llfqPSMykCFAGKAEWAIkAR+IUQGCW55COgxNeGAqRs8IWDSIY50blo0bp7KvHmyjYsdBRDaOeFkJ2ZKGnqMj6vXm8rqi4kItRLBqG9L2JzqvG4KB1blrnDRmiDWctjkVZQh08836zPnz+jo8MQubSG43z9eSlDELI6DPsLSeKKDnDK5dkO3gX5VeO2jbnFct+zn0p8rstHcoQ37IR28I7KQFWHFgjdqUi4/1N9Ru3FXQiaKYGAcYZfZDrufVWri8rXWVhlSzr59vCNPol7rfU4FSxn1dkaHhkgl+q/vxcezFKkv1C7+3KXZz9V73E2RAwm+DTaJptwCfPJgrpO/Wg4EaROvqNRKAUiJ/j9lYTMA6Ga+f9WI/udQs/GVFApFRgY+I667HVwFwu0CagEjCuWRGzAqnlyiLiMtjIPrNyZibzrN5CXl6fN9spmfb10DfcaW1GZk4bjGVm4dPk0diwUw1o4A1tvtqrJoRH1VEehYvyQ8kQBsLalVi4zH5xFuCPJECoA4x6K41UvUZoUABdSXqETwrKyEMMmjVmGQ8cj4cgsRuQqBwitBZCFnMHDdy9xgnWLnQpxwEFUvOJcPtvR/DAPW+cJ1CrmoiTcytkId+s/4LB4BwoHb1j0FMfCWWgNofNmFBnz9tYxMOM7xO11kJCrM7Aa2idutOYtpu2FzJ9JBpzUz4TXuJ24CAyJreQGAabL4LVqKw5uC4SMdYtdisOPWtHewS9bO9rbWtHS0oKjx9Ixf/58ddF0yOVXKD5U4XioJqOxQIyZ/usQvXUHdsfvxOblmuPieUis7kB+pN2g6szZhsgD0advsZmjS9kM0zdxLMyJJZdOYcdwk591+vY9vPiiuXlHYS/Thf7YsXclbKzmYuUSKaZPnQablVloVXYhL4KQSwHsQjLR2MM9IFToba9Ekr9m3s2gk6i7vQtzGRFrL1ershAiFWHWphzUVB7GCjsRXLffBpeLzLy2pGdRBCgCFAGKAEWAIvArIjB6cqnqwsvys0iM8IWDmIGz/2Ycv/VKG5fGB0vV+RzFJ7ZhxWwZhIwzFkcfQcHTL1BChd4Pz3G3IAvJW1bD15mBgHHCoo1HUfySPxLeh7aq80hc6wO5SAS5dzgSzt5Bay+gju/SI5ftz1F59RKKa9RucPwObfOTKlRWVePhowcojPeD2GYtrhGfR1OLWeRyAC9zIjHPex1Sbrxk3Sh1LqmnXOp819WI4vTt2JJ+H1x/fqDxNMJ8grC3sAk9inYU7/SFTOqLhMqvesQJ6L4TDzfhIhy8r84MSiaqJ4rQ9+/f0fsxHxvlIgSe5DLw6vzyD94xTRZ0C6fC58pELCaEm0xPEpaGCweC4cbOHchLxMJ13g18Ch0jkbLXD4xAAPuABKTHB8BBOEg0OfJHMrsamwdxustG5DV3oKuri43bhfI1TmrnufyC69u94TXPBwv8/BEQuBzBq1YjbO16/BW1CTGRAazKaC2eg7UHLuLBJ5UOucxqeoT0YCfIfLbgavM3vMjZhLlSdX1dIy7idW8VEryI+qWur2hmNI4ci8Man1kIP/sG7R2vkRftgulG3D1ZkjWVwZ9HqtHWXo/KqzfQosMIFKg77AeG4BtdiJFGROq2F8kBozSLXBIyaN5i2F6ISknag9i9+l5vR33eFsxl3ZWnQbYsAWnbSGImtfsyRzZNfU6zCcG6w5mGyWVOE65Gu2mmhxHCKfg4Hr4twEYHXVsSzd6Jsh4FnqUtASNg4DQvCBt2pSK76B5uJY1gih/RHOy5p5lzhkcuzbGXbe5WWnI93SEUiQc2s/ay7kI7VOhH5W4PvZhSvXtJYI81Z1uhVH1BTXGZ2l6+FWGTswi2ftFI2hMKD7EYvgce/SRx3uZZGj2LIkARoAhQBCgCFIHRITBKctmP2pRFkAgkcA2IQVpRAzSCm+lS9LagPHMbAt0YiFw34WRaCOSkcy+QwNk3BLGHLqDilQllEwp8fJyHg5FEJRXBfdsttgP89esHXbdYHSWCr0p04HlmiFbNmDpNAr+9pcOX3SxySaquJEkVDS+myKXh/4BKqVYSVO+LEec7BxFnnxlUB77e2Q9flxVIrVaTSz6Zbrm+Fe5Wvth/t43tfBPSSTriROEhrov//d//beTXJ+KwYbJg+JdV+FCVgb/mySB2jcDFZgK0Cp0vbuHMwa2IWOEPb4+ZmOHsBEcHOeztbCGT2UBC3ErFIohEIjhFXcGHpgwEeUbi0muiVvehtTIb+2NCEejnDc/Z7nBxcoS9nR1sZTLIbKSQSvnZaW3gvfMmuvmNrEMudZjakGooGo8jQJstdqgSldWqgurTM9ST+Fr0403xPgQ6kU78XpQTIooePDjop3YXFzpiRcZTjau4Ep2d/2KJVev9LEQvcIBwmj6RmoppQjnmbziBiuYONnZ0SAFVn5CzVgaB0BFRV78O+Xo0B0jSKb49Gtvu6zONnfq3B+3FSrIOZ99xKqXuPd7R0Y4nV/dj1UwR/rBfgWP3yH3Rjmfl55GyfT1WLJ4HdxcH2NvKYCOVaOxDCGsrK1j9MZ11cbYNzcKJCxcMk8tLnVB11iAt2A1z1mehlngPK1txMdoX8+bOg7fvIgSGbUfWg8/sQJCi9QkeNH3hJcNRorUwERvWr8d6c9bIHbj4TONdwSeXJuyl7ON/0NnZhsLtXhCR+NomIKeeAAAgAElEQVRpNgg8Wq21F86EFS2F2B04EzZDBlkEENq4YWlcHhqHNI0Crwt3IcBZzE5V4r4yBRXDJNEaje3Q/6EIUAQoAhQBigBF4OdDYJTkElB9eIyyB63Q89A0D4GuJtypeQNFz3OU5N9EzetOXsfLnEso8flpOWo0U5YQhaT5cTmKyx+h2QSxZDu2zfWovlOB8tu3UV3/xrz0+spmlGRl4GodX001p5y8c1Tf8Ka+Fi/5Pr28r4fbVPT2DIk55f6HkEVjnfbWe3lI/6cIte36HfAOlmySrLk/blHh25unqCXT1tS+wmdjxJxXQNWXp7hfP1S95Z1ielP1CS1vvumov8Sdkqi8g8rXUKwIKTecfKYfHY21eFz7FG+GTLWiV5S+93hB5iutbcIHzhOUta10HD+RryYpev/S0/QAj9/xgenF+6Y61Dd/ZpUiYvskaZV++7c1N+HFi+d4/ly9vnjRhNc8GyCDC0MW1XvcvaAui9EEyEP+yfQBMp+iKVy5cpNEScMvKnxofIiK8nIU37yH+rah7cRdj3y215egoLRBz+3V9P9w/08GXkgCJ21GW6Lc5Z7A8eMZKGzQsK3ebmg9SYcvvGXOMMNeatr4McLNqK8qQ21jh0llUdnXjS42I7U6A3VXVzf6h3s0KL7j46fv5j1DLVN7ehWKAEWAIkARoAhQBCY5AqMml5OtXoQccB1Dcz/Z6UcmW0VGUR51jJl5nWY+NkRV+p0Xotr+61//Mkl+CLbmxwROHJqEtJmrCvLbnNs2TJTHp/zm3psGCS87xaIS3d3dg9O/DDeANMbvtYRyfOAY16uSdv348aP2WUhwowtFgCJAEaAIUAQoAhSBiULglyGXRH0yRyHhOtfk3B+r2lmmiQlB4uo00s9fhVyPFEmCGSEy/E64PnZESSPK1WRbiM0Op7Lq18XQ/kQSKFJmc+5N0h76btpEMTZU/vE6RspJiPvPunADTQRLor7ShSJAEaAIUAQoAhQBisBEIvDLkEsCWk9Pz4g6oqST/rMvRKkYTUebuFL+jguJ7VPPVWlY6SWdcmMK2o/EiwyeEBXKFEkjRIwQCnMJ2USSD1J2c+yUKMn8xZDqSdqIkChiw0S9JeeQ/yPtRp4BZJ8cJziYwstQeSajSs3HY7htzsWbfNKFIkARoAhQBCgCFAGKwEQj8EuRS6J6mCIO+p3Jn12lIMZCOtT69TJn/2fvRI/0RiH15VQdQ/gQWyAERV85G+nvWPp8Uh5CmAihMlRucozUi6+ymjvgQMjXRC2E7JiqA1c30g58YkS2icpKMCBkmP+duWUneJD/N9X+5Pf1ia2516fnUQQoAhQBigBFgCJAEaAIqBH4pcglqRLpZHMdVXM+STKcn3kxlczHWP1JJ/t3WYZT8giZIaraaEjLeGNojuuusSyrhJAZa3/+8YkcZCAEj//bxrbHM06Q2IOhBEgT6SY83nZDr08RoAhQBCgCFAGKAEXgRyHwy5FLAuRwCoV+p/ZXiLHSr5Op/cno9mnpG4DEkw5HsAgxn4xxt2SAxJQCTxRAQtRMqayk/qZsgPtuIgcaSHnNVS/Hu10IKefKQhRcU1ha2jbp9SgCFAGKAEWAIkARoAj8qgj8kuSSqDFc59mcz58xa+pYsoUSYvKrLubgQpSryZjMyByVdSSuu+ZmkzWmfo6HjZDfMueenAiPAkJgye9QYjkeLU2vSRGgCFAEKAIUAYrA74jAL0kuSUMacn0z1amdjGTDkEFyHWJTdRnuO6LYTEY3UEP1NfcYwYUkciFursbqT77jxyaae+3xPo/EBJqyV1JuUreRthkh2qbw4HAiKulEEixTqixXJvL5M3sUjLfN0OtTBCgCFAGKAEWAIkARmIwI/LLk0tykJlxnlnTuJ/NCiMVw2UJH4g48nnFtE4mjObiQNibYTDayQsoznOsuUR/HUm5CSjkbN/U5kWq2uXHRP6NHwUTaPv0tigBFgCJAEaAIUAQoApMNgV+WXBKgh+u463e2CSGdbAtRlEjH35QCRYgTl5jFlALGry+53njHtY0nlhwuXNwcv27625PN9dEc9ZnYriXUdEK+TdkOh9VEq9nmTpcyGe/J8bRrem2KAEWAIkARoAhQBCgCPzMCvzS5NDepCdfBnmzq5WiyhY6kzkTV+hkXfjIWru0MfRJSNZHxhMNhaY7KSkiXpQkVidM0hI/+sYmcioPEl+r/vqH9yXZPDtfG9HuKAEWAIkARoAhQBCgCvzMCvzS5JA1LVCtDnVZjx0in90cvY80Wam4iF0K+xuJy+SNwIuSZkOLh4vbI95ZQ/ixRR6KyEuJmSkHkq8+W+E3+NQipNUfhJeWbSDXbXJV9MtyTfDzpNkWAIkARoAhQBCgCFAGKgGEEfnlySTrLpjr1+iRzIieW128S4tpqKm6S1MOcbKGEMJpb5585ro2QR4KHPmZkfyJJkn478vdHoz7z/99S28S1Wt/WDe1PpJptblz0j7wnLYU/vQ5FgCJAEaAIUAQoAhSB3wGBX55ckkY0N6kJ19nm4hcnygBIJ9uUikOIIqkDUaDMXUZS58mi8JlbN0PnETJJiBxRqkeCk6FrWeIYccc1pa4SJXEi5xsl6qmp8nC2T2xtItVsc1X2yZjl1xJ2Qq9BEaAIUAQoAhQBigBF4FdC4Lcgl4RsmKvkkU72RCklhNQNl3SIkKXRqHAjUWxpXJvlbmlLqc+WK9HglcydY3Ii1WxCZDlia+qTqNF0oQhQBCgCFAGKAEWAIkARmNwI/BbkkjQBcZ801XnV/24847wI8RsuFtQS2ULJdCP69TK2P571ndy3gGVKR9RnMihhDF8yuEHa40erqvouxMbKO5Fq9nD3AlfGyZScyTJWQ69CEaAIUAQoAhQBigBF4NdC4Lchl8Qt0JykJlxHdjzUPEIsiLuqKRWVEBRLZQslv2dunSdKrZ3stw8hMMRdlXwSFZKQbtIehGyRQQGCKbElbhlP9Zn7DUt+mjvH5HjYv7F6mKuyE7dePvbGrkePUwQoAhQBigBFgCJAEaAI/BgEfhtySeA1N6kJRzAtRfJIh/hHZQsdSZ0nOtb0x5i86V8113WUDBAMR9wtoT6bLu3ovjWlsHK2Tz4n0h7MVdmJPdOFIkARoAhQBCgCFAGKAEVgciLwW5FLQvLMSWrCdbAJORjLQn7PnGyh45mshJRhOBLE1ZfGtalb21zyxeGm/0lUP0sNTIzF/oz9L1Fj9ctsaH8i7YEowqYUfa58xJbJuXShCFAEKAIUAYoARYAiQBGYfAj8VuSSwG+uMsV1Zkcbe0Z+xxSRJZ3kicoWSn6Hq89wn6Tcv/tCiOFwOBn6npCxiVT7xtJOhAAbqoP+sYm0B3Pjosl5dKEIUAQoAhQBigBFgCJAEZh8CPx25JI0gblJTUhHe6SZMwm5MHV9os6QzjFRFCdyMUV0+YSCxrWpW8XcKTIIdgSz8VSfx8NOyKAJv92NbZNBkImyVXNVdnIPUfVyPKyCXpMiQBGgCFAEKAIUAYrA2BD4LcmluUlNuA63OfP+EVdDU+6UpEP8I7OFjqTONK4NbPIec9w0iY38rEqauQR6IutnrspOEmPRhSJAEaAIUAQoAhQBigBFYHIh8FuSS9IEptRFjlRyn2SqBGPLz5Qt1Nw6T6RaZQzXyXCckCrOBkx9/qxKmrlzTJL6kYyuE7WYo7KTMpkz6DNRZaa/QxGgCFAEKAIUAYoARYAiAPy25HIkSp6hzjXp2A6n/JDvJ1MHmLjsmiJJ/O8mUq2arDcicdM0h+gQ3Igq/TMu5s4xOZFKoblx0eT+ogtFgCJAEaAIUAQoAhQBisDkQeC3JZekCcxV8gh54DrXRMEZbq7KyZwt1NxELj+rGmfpW8tcomNoAMLSZRmP65k7xyS5ByZyoMTce3O0CbfGA0t6TYoARYAiQBGgCFAEKAK/OwK/NbkcqXpJ1ClCIvgKH3+bxFyS2MvJvIwkEypHqCdzfSaibKZiafntb8p9eiLKOdrfMHeOybFOzTOS8pmrsk9kmUZSfnouRYAiQBGgCFAEKAIUgd8Rgd+aXJIGN1ch4ZMI/e2fLVso6ZDr18HQ/s+qxln6RjaXkBO8JlLds1Q9zZ1jktjIRA6emEvqJ/OcopZqI3odigBFgCJAEaAIUAQoAj8DAr89uRyJeqlPwEjim4mcB9BSBmXuNBSkvj+rGmcprLjrmBub+LPGAZqbvIgQvolazCX1E1mmiao7/R2KAEWAIkARoAhQBCgCPyMCvz25JI02UvWSkEoyXcdEzf83HoZlLlkiBJPGtY1sapKfUUkzd45JYg9kQGaiFnNVduJGSxeKAEWAIkARoAhQBCgCFIEfiwAllwDbWdZXJU3t/4zkQd/MRpLIhca1qdEzV90jSZN+xsXcOSaJG/hEDayYq7KTASK6UAQoAhQBigBFgCJAEaAI/FgEKLkEQMiiqUQ9+kTzZ512Qt/USMIe/boZ2/8VCLV+/Ue6P5KpSSYyNnGk9TB1vrlTrxDlfqKW4ab84Wz2Z3RRnygM6e9QBCgCFAGKAEWAIkARmAgEfmtyac5clVzHlf9J3GInSrkZTyMYSSKXn1WNszR+5sbo/qxxgObWj9wDxH4mYiH3qTmDP4QY04UiQBGgCFAEKAIUAYoAReDHITA+5HLgITKiwrG/+BNUP65uRn+ZuISyMYeNNSgvrcST5g6zFTyOZA6vkijQlJ+GzMo2TFyEmpEqK56jKCMbZa3KISeY6+pJ6j22uLZe9PQO+fnRHVB9wuMbhbj7qmt0/w8Fmi5uR1RGDUYTqTdsFtOWe7hwaB9OXKsf1fVHWSkj/6ZEc0kWTuRU4YMZNyM7r2dTGS5fvosX7R3oaH6Aa0X30dIx9B4ZVwVf1Ym6W4W48/Ib+wwxV2Unrr3apa8XfdodbqMbz/LTkFX1VffZpGhC/uGjKGzo1D3O/Zvms7ejCfUvPxi4pwfQWJKDqw9ajba58vNr1D9/i+9617TMrgLtFRlIzX0OHgKWubSZV+mqTEdcQjaqv5phaGZec0ynqbrQ+uwp6l99NNomZl1/Mr3PJklZJlVbW6ide5qKkJZWBAOvSbPMZDKdZLn2+Y6GokykZxbi6WhftwSYvgYUZpxA3kO95+6woE2SfpSqA49KK9H0VTFsiX/YCd3NuHuvcYTP/27UFWTgfOVbaHuHqk48upyBnPsfTL4LDdbzBz6f+hvLUXS3CUObSIk39wpR8rgN5vhbjeUdTzAZ3/e8QdTNPPgddzJ2IPF8Db5MwCt6fMhlXwm2zpBi5em3IzdOM2HinzZQdw47NkUjOtrUuh2nH/WBP1fl67yNcBb4YG9FK49ctqLxUQWKLqTj4M6NCP3TF0GJJWjV61wPp0wNNGUhxIGB59ZifFAp0V5dgEs5Ocgxtl66ivtvtbc3v3pj3+69gkjZbOyqHEpz//PhMc5mpOP48eM6a/qFMjTy6/zsFNY6yzFjxgwzVjcEpPCIm+oLSnZ6w33NabwgRVC9xfn17mZcZwZmuAUguUaPAnZdQ7STPdblDD78OiuOIcZU+8dkoErb6x7AwwO+cN1yiyUf5EXM/9/NSQVoqNA9xtnWtjOP8f3f/+bZix7paqvGmchZEEyZAsHMcOQ2DqU3Y2/QoVdQ9nzCm4YaVNzIxem0JOyMDkXg8kSU9fSjctdsSHyTUTsAdD/Nx5ni5iGkiwwccImtGs+ug73VHOwofo2H6SthJ5qNqHOP0N7RgZbnT/CwpgY1NTV4+PAh3rx5g7ft7/BVW00VvtQVI9eYnRs6nluGRm3baOr2/TpinG0QlPmafemZq7Jrsxv3PECKvzuC0p/ovlBU73E91gOMawQuvuI6Ckq8uRAOJ2YOtt38qPvMUrWj5MAG7Mh/AyUUqD+yCLLAdDQpgb5n2Yj9Kxml7UpA8QQpfhLMSbhngHiSOqnw6UIYZB7xuMveht/xrCTX+POAw+nSFVSZ1dvtQnXKUtgznogpbBvsKAw1FeBbJY7HmHpWGvpuMw5cazV+XdUnXIlyAuObjMd6t6uhIoz/MRU6rm2Gu9Aa0sAMNHFNPZofnuD3mckijqQs49HOpHBjaeuBGmTGRmPjxo1G1s1Iudmhew+aBMRS7axEa/5GzBLbse8u0wNAKnyrv4HzWaeQnnoI++Pj8HfUOoQE+iEouQp9ymZcTdw8pD+yKSFvbHZoEgfel2NpH95loPqMqtRgzLD3w87rrRjLLYQvOQiXMliW8cr4M4T/25rtydKPUr7JQrCNFMszmtD14vaw77fcW/Xo1O/Ad17B5lnm9J/IOXp9KAyguXAPIuPy0GywIZRoyV4DuWwp0p4O7ecZgFZ9SNWBc2tkmJdYPTgAp3yNk8tlWHSkfuRtPpLnEymBxZ5R33FriyvEs3egTP/mVdQhZaEYduE5eK/fJqQMFnvHsxcb5/e8utlG9ffbdcS4iOEZf3dI/29U1xvmn0ZPLr8UYaf/QixcaGBd4AknsRB27vMNf79wEdadfDpywzVSGUXDJezbvg3btm3Dtq2h8LYRwSVgg3p/2zZs3boVmzbH4fitaty8lIuSx+0sORgkl6/x4tJOrFo8Dy4yIaZNnYKpAjnm/rkGG7buRWruPbx+dR9Fly7i4sXBtbi4GKWlpSgtLcPDN7zecVc1DgXYQuqzG2WfiTX3427iAjg7OcHJ2OrsjT0VI3goGMHC4GED5FL57h4Kb79CZ00SvIRSyGfOxuzZZJ0FZ+kfsFp0AFVtPOJUfxzLhTZYfaQI5eXlxteyK4j3k8IroUqnk91VtR8LbWyxJKUG3cpW/BMsg19CEaprHiA/zhuy4KO4W1ODquwouM2IRFZVDWruHUeI7RzsuaeLS1/lLsy2D8X5d9yTQoX3Z1dD5rEeqefO4/x53fVcylq4yyKQpx155ZNLTaffOwqpmZnI2BkIR78UVNcWIIMl3GmID3aFfcBWpB1PR+bNJtZuiZswp2JrP1+VIz3cHSLpAuy8mI9DK5zAzFiJE9Xjp+D3VR2Ev6sdGKEA1tbWsBYIIJHPgm9gKKLi0lH2rg81Sd6QzEvEg/5u1KQGwoGZgRXJZXhHOJFCAV0l9gXOrrOH9bx43G7tQEf7I5xZ5woryQLEF9Xj+rbZ+GPKFEzRrNOmTYO10AmxNzl2SQiYH8RCG8hdXOAy3CqXwJoJQba2LdUW3FMWB3fpUqQ3Dg64aFX29lrkHohFTEyMzvr3338jPj4BmRVk0KEP9RkrIJd4Y+ftz1CpPqKh8jZ7v5YUHESw61xszChS37/FJxDhKoLTqhQUsPdzKW6X1+E9+9P9aMhYAQf5MqTVfsNTDblsfFuMOG8ZZm/Iwct+QPXuLFbLnBFzXf/Nxt2ReuSSfYFLYO+xGIGBgYbXP+fDVeLMwxZQfa3C6cQEJCQYWOM3wt9RjgXrdxr+PjGHHWBQfTyPUKkMvuvjdc+LXwtvRoTZq7brHt+zGUudJNrORu+j80jU//3dEZhvI4TjkmjE63+nv5+YjfvfOFzG51PZehl/uYkgn+eNmWIHrMx8rvM8GvKrk+h9BguVZaztTDCyeFv3FiBKZg2590pEREToruH+cBWIETgCAjLidh7S8LwDqq+oTFgAuVccbrLvbd53OptKNKUvhcTOEwEhYYiI2owtO/Zgf0oaMq/W4kv/Yxz0lcBt2WbE7diBHTt24O8gdzBee1Gl+yrTuepodizePlwhvj3BuU3ekAkEEDt5YoGhfh57zMy+nB65VH2txY3SRtOd3EnTj1KiMT0QUvswnG9X4O3plZAwjvDwmY/584eunk4MmIA0PNcngQQDG0eEp5ca7z+RvpXBPpQKn8viMV9qiyXJD6DtynDtRT57q5HkawvvvXd1B1T555DtbzewOyAM6WS02Uxy2f3iKvbHHUUlcX+y0POJFMUSzyj2Op/y8ZeTBP5HG4bwioHaQ1jAOCLq6mcjg1aWesezJdEll6N8z5MrjWUZeJqLpIQ92LNncI3fsAj2Agl81u3WOc4/R7u9Lwt3TT4Dhy/d6MllXxPKco0ocef3YYWcgW9sppGR+VwUPR5UnYYvpvlnDDxMwnzGFdtK1AI4cZMj8WEsAWg+hZVCMdZkNWvJpYtgPlJqu6B8fQtZpy4g7+Zd5O2cD6H7VhS1DJKrtjv7scBqKqZOn47pmtXKygoikQgCAYMVmUTZIDf4c5yLcAfjtBInn/IIp/lVsMiZqnfZCJFYqwkHIR28VbLyMLKi3WHjm4iKyiR426xAykNNXZuvYYu7Ndy3FKKZr1yy5FKGVak3UVdXZ3x9UoYDAUPJJdCD6oN+kEr9kFzzEv8E22pGMdVqkF1kProJDa/cBQ/3OJQRrkI6IvYcuRxA7T/RWBMSgiAfJ4js5uDPkBCEhIRgTVQGbmWthu3iVDToP9ABDNQmw9fWNLm0DzmDdhXQV7IN7n4peNJTgxNR+1D0vg81+30wc1uJzotQP4vpq8p/sMlHBmun5ThwrRaviO28vofT0fNgL5mN8LQKtBso21gbW9X5ABeOZuDMpULcyo+HH8MneuTqCjSk+kMyexfUwvU31P6zFm4iCdzXnkS5nkt4+9OTCJGJsDj5Htq49n9egMSNu3DhQTNeVF1H/uXLuKxZ805GwUfkwCNAanLJuG5Xt+EwFfx+OQKSIeSyG7fj3CHi2SyxX3K/TbXywq7i20jwsYLIxQcBAQHadcWKRfCQMVia3qS+FxUvcWa1A8SztqD4XSWSlnjB09NzcHV3hMRaDLkb75jm+zm+u1Gi5cvNyN0bjwtPPmvJZUNjARLjz6COGC1U6LgYDjtZMI7e07s3njah+VUjntbV4V5qEKTum5HzuA71TY9xYrlssKyGcCKjwK4uPGwBVWsWgiUSzF4ajrVr1w6uYSsRFBw2uM//jtuOPAYyTsO+0G307URzv9lKhnqcDJDOso2WXHaXHUK45t4j919ISBC8HYUQOvkgSOe4+v5Un8PbDkvCzfH0y+mqQWqgHEKXtbjw6gNKdswFI/PD3kpjnQvitjeJ3mcWKstY25mYpMXbmiWXIvgdNqCKkM43MwJyOZp27spDhFT3fch/N5reFsJ1eyn6oCaXMiPvGww8RNJ8GYJOqb0uyPOBEBLZOJBLi7cPFHhfdRIbfexh670Rqdm6A7XagduM3QhyFUNotwA7b7QP7bQrm3Aq3A9haXfRSQxJh1wOoCE9ELYSL8RcfTOEDLCPwknSj2LL0leNRG8GrjFF+KJpSxs3TR+FPYH/px9VCV6QGiWXTojMfmS8/0T6Vib6UI8OB8CWmYPYogYUJYax/R/+8zXQzw+BBp7BYQnXBlU70hYyTb9KQy49YvNQy/brnuLl+8ZB5XKgHVWZm+FrL4Nn2GGUtg5Y9Fk55mfU9zIkh4Vglb87JAIZPAJWaTBZg9jzz6FAL+7Ee0IocIR3EO8dxGK0BttyuL7C2N7xH/qAnneWe8/zLWo02/1VaVjHt4NVi+HOWINxX4xV/OPGtkMTUGRQ5jW/NKMnl6Z+Y6TSuKlrjei7AdTs9wbjEoP89/0YkvmSRy4J4fx8YwtmSZbgeCO/16/E/QN+hsmlwAEbLqmJKSGr5BrQ1JUll99qkRUxG4y9PxIrPkLV34qm12zvc0S1sMjJym9ob36FV69e4dXzfxAqm4m/8xvx6lUTKtJWwsXOHyk13eivSYKPLBjpL/7FEu76M+GwF/lhf2WbrjJHyKVgGqxEEtja2kIulxtZ7WEjFg9RLtk6fX+IfBL7N0CUy5GSSyXe3s/HhbP7scpJhiVxWVqF8sLlu6jNXg0JYwcnQ267TrZgpIRcDqAmJQBuM2bASSaGyMYBM9yWYNeOENgFHceTtrdoyd8EN0IuP+VinXwdLnWSl8VczIor0yGXpD5sFtPmauQmrsFssQDOgfHIranBP6EucI88i0ckZrGjCQ/P/Q1/BzHkvhuQer3R8KijBRpd+TIDgRJ90qBES2YQpM6xIOKiOonVO1Skb0DY7nzUs2XkBlHacPfgYjB2a3CpfQCdne9RdHAdwhMu6Z3Hnd8BMujiJ7DlESALkMsvBYh2sUFAYhEqS5KxjJFgRUoZ7ty5g+Kbd3D/WTkSfARwi7mK1xoCTNoC/XcR7yHVIWyK5mKcu9bIDlzoQ9xXug2uNsE43cop4PpnqPCl7CjPZXojwvwcIXZejLWcC3bMcVR+fYPs1XYQCkXsYBMZcBKJBBAIBBBJl2JbrA/EekRZEpyEpGUy+CdXofXtW7w1tLZcRrSLAXIp1W9jFT4VbISLbDEOk9HoYRb1aLETonJf6/7u6/OIkDFYfqwWbfzytJYi3luqJZf6l++vO4oAmRwhp5tH5PKmfx2L7HfX4Z9QV4ikvthVqhnA7H6MY8vlEDqtwNH7pHs4wuWHvc8MlHMEZbF0O5PSjLmtLUUuR9vOLLlksDz5lmn1SN87pywH2wjBMIdc9t7ClhkyrL30RdOA40cu9S1kLO0z8P4BsuMC4crYwntjFmramtHUyo2wcb/Uh5aSVKz1ksHBbwvO16lj4rlvuc/uynjMETtg7cU29f2mQy7JiO8rXIp0h1i2CPvK9Tx7JlM/Cip8uBIFF2YBkh8R2VndlqMml1IhGJmxvhN33EQfqr8BWbExSL/zEjW5x3D06FGja2riHiSkqL8/llsDbSj8EHIpgUD77rJBUEYlMpbbwCNsGzYskEPqtgy7cp4M/j/XyIY+R/B8Iv8+5mcUqYtEhLnhPDUufjP+dGYwN7Eafe8vI9KJgefqOF21Lj4CvjZi+B2pw/sxv+MDkd7Yg4cH5lvsPW8I2rEc6yzZhlnimYgt5k+Tp8T3j+1492V8RLAxkcuu4nj4G3KXGMYtdnHUWbwc9HYbC2a6/9tVghhXAaxm/IkNOi5zW5Ba1ISO5lNYJWSw7uIHNtsrUclmSwNwvLEH7bVlGhfXEpyOmQtrp4Ad1VAAACAASURBVNVIPq9xgb10Aw/KE7FAj1wSgvnvb0VsfOmKzJeoPxYAqUMAEm+/hxJkdG4Z7BzXIeftiLszuvUa657WLbYPn+8kwV8+E+svvmR97Ac05DKrVYXP7x8gebEY9mv+QZ0O6ehAB6tc2iPyQjNLqo1my2VdXm0Mk0uuHuw5EtjO9GHdpr1dZRDJPVjXmwVezpAwTpizYCEWLvCAA8Mpl+p/VjxJgZ98Nf7JSUBg9Hm8Zu1IhS/FiQjdegYPW4d21Fsf/IO/ww6hrAfoed+EZ/UlSPRj4BiZjSfPmvAsKxRSEQOJRAIJIwLjl4Lapgwsn0kIWR/K4mYNrU//O9y/sBfLZ4rxh8wbkanXNQSsHQ15mzFbIEPAoXI2EQ4ZhOhrrcCJjb6wF4jhOD8UO04Uo2nM4w7deF3D2W0pSnLi4MvIsTr1psaWict2KQr2BkAsXYGEvCusJwHftftizhWU16vdxL++KcQOTyHE3vtBwlyVyi78s1oE64AUPNS3Bw2pYxV9axmir3IdqbGSSyVeZq6ArV0ozrWpgM8XESaVYUOB+gHITgfTXqlDLgm+bOZaA+SSMzn2U1GPvKQE7UtmW7A7RHJ/RMUPuo4Qt5B92ffBeW12PczF0cOHcfjwYSRvD4KrWADRrDXYk6I+dvhoHmruHoAvI0XYxcG5Nj9fDIPUfiMKuwFlXze6vn3DmzPEdXsnSj99Q9f3JmQsZ3Q8CgyqJjouxxrlkpDL4nY8v6t28y0tLcD+QBnEXjHILlG3udpdn7ddVoMWTTYD9oVuxKvBYBlYYswYJpf9DUhfbg/RzPXIKOb9nsa9WKccZU9YV2ydNrHgjvLDHRwOcoaQ8cKmy82DMUSkE9NxGwmL7SC0X4QdBS8NJr2YTO8zS5TFou1M2skSbW0BcjmmdmbJpRTrLxtzXzdikIrnSAuQ6JBLRuYKb37/x38TLrQo0HU7Dh5SfxzVutGo0H4mBDYeuzXeI0Z+Y6yHx9I+ylbk/eUKG/dg7LvyHN9VfXiY7Adbj43IfUkGrFT49rwIKZE+kMs8EJpcjGZjfVLlG5wNlYPxScQD7hx9cknq+u0BUpbaQ+S0Chl1XKoVBV5Mpn5U3yMkL2TA+HNeUWMklzbEq06fsOs1vDl9KO5fBr7hG4cxd4z97MLtOA/Y+6eyoRA6Xw0hl4ZiLhmInfwQffQ6XhjwwbXE84mUaczPKJZcShF5lQcCyX+wUIK5++6gOtkPEqdI5OmrcH3FiHFkEHDsBT5b4B1P6mLJ97xOe411Z6ABaQE2sPkzXddVm7jsLmNgF11k8H041p8dE7kceFVhOLB5GLfY3OKn5o2CjKB2CkU/6k6sgGS6Hbz+DEJQkGZd6gW7aQIsP96A7+/PYr3UFhsL1YY4SC4/ozDWEzNnzsTMma6QS6wxzYqBnYMDHMg6Iwzp1w2Ty673+Rpy+QYDHx/hzhN1tkkuEN07vgJvWxtQ+/gxHg+31jagdYTvPMMQ9aHySPigy8QqP7iKbDB7yTJ4OwghtPdSu06s2YzMC/tY5TKrVYkvZTsxUzAHcTde66qWhEiwyqU1HOep3RAJvnx3jMHtIPg4MTwypkBT8SmkaxIGZRTUo1f5DvlbA7A2KQdF1/ORHOqLZdszcOX6dVznr9eOYTMXG8BWVIG6FD/IV5/Fq/y/YK9xPVE2lyArXTchkX6CIrKffvIGiEit+piDtbZCOP99DV/61LFw+m6xjx4kwXd+IqoHenEt2hGLDtfx3Hf62IRAjNQdS2NPougJPyGUWq0silsAr3WncF8Tt0riBUnsbfuDC9gb5g3PtRc0xNhwC5p1VPkSGctseGqZkFXLBKxyplbRhEIhrK3/AImN5Ny5dT6t3BB7rQ0DA//Cq6yVsBNYa8kl0Itz4YxZ5DLiQotmapKxkstuPM1NwN9Hylh3Kta9W2qP6KLBl0df1yMdckmmT2EXLbl8hqbSrEGbKyLuMcTtswjRcikWRCUhOTnZwHoAW5c5Q7pK7SI92AYqfLqfgbUecri6ySF2nQv/4N242tQLKF7idIgcQmsGgZw7ribxj9Q7iSXp6usYirmUISCtHt97ekDmDe3p+YaqYxEITSlHJ9nvqsPlQ8nIfzboWcG6xRJyWXQbCd72kMlkkEmIa74YUrJtbHVYicxm9YjemEeLtcB0ofrQEsiEDGwdTcSTkzhzOwkE0khcGWxG7VXGvqHExwcnsX6OBALbhYi71qImlgMf0VRbi+fv1D+q+nQPqStnQCR0wKIt2ajuGMSVlGEyvc8sURbLtTNBx0JtPSZyaYF2VrzF45ISPH7bgzvxHkNc7w0NrjDLT+K14jteVpWgvJ6o4Wq3WJs50cgsKERhoWYtqsTTp1cQ620Dl4hLaOMNoPeW72STBc1ZuhKrQnbgsllJukZyZ4y9fVTf2vH2G28gvLcBWWGukHlHIG6jP1wYe3ivS8a1F6Y7Kd8rdsOL4amWpBqGyCXpkLfmY+MsMZg5MSjQYKKaNP0oBZr+WQm5wBqMJokbp1xKpO7wN+JSGOAhMx5zKZXA3V/fPVN/34w+FGsaPbiftAAz/Hej8JUuYVU2ncIKWyn8U+t0BtnYfzOLXA5N6DPwIAUhq1JQ+c1yz8oxP6NMkEuvLXsR6UzesU+HxtuTvoA9g2UnOW8bS7zjCbqWec+z7WSRPwo0Za2CnJmH+Eq9UYLJSi77O9+jne86xd8m7lzOkqHuVfxz2j+jh/ccGy2OJPats7MTHU1XETvLCuIlh3CPl4jmdV403IRe2F/dAxAFz8bOALnkdTI6ryPGVQhrz51DYy4NKJcfWy5qyaX2XdL7BGmB9pD6JqCys8/sl5i1SFelGy0mJM6uqSQbWVlZmjUThzZ4Qya0g9/faYPHT19CxfVEDbn8zsa5WTuFIqNazyWWI5dCBr4b9mH//v1ISkpCeno6MjIydNcThxDpJeGRy35UJAXCb+ECeDqJIQ2/iEF9B+iuScZimT2C0qoNuAe2o6OTlwGBjf2SI/R8O7qvDpJLRX0O4sPmw85mLkL+jkVsrO4aE+wJRr4Q6+Ky8WhAhc+X/4KrrQxSOwfM25SPJ+fDoE8ua4q3wX1JMqrePMHxIFssP/aEdRVs/9zDuvmovr1EQ0s3/uu/+lB8OBKha9ZgDX9dvRqr+ftrwnGo+J3GJU8JpdZYRt/K+v/Jd4slCh8hLETVUyeu8kZCOZ8Et+FdxydwxEz1vgDRbgzs5LZgNMolIZf5f9nAeunhYZXLdeeaQaYLIbZHEvqMLeZysGbKV8TV1wVbbvFenorn2OcrZN1i3xN3WG7Rkst63E0Ngf8iP3g5iSBdr47nVZNLOSJz9NxBtc+lVpTsngsbPrnseYXilFB42LohJLUClSmLIPPfiWPbF8HBZRkSz6Zg1YyFCPrThc0+rKYx31EYLYcs9Dxv+hfDLx1tfChbhz6UbneD3MRIopZccgmUlM04EyKHfFUWXhGbUr5DTUEubtYbT/nPvtDHEHOphluBN1c2wYMRwFoyNCET1yTcZ+eltZDqkMseNJaZkS2Xy5pr6DO3CI9ePUfRgRA2nkTiGYFTNYNur+zABENcn3jxfX2vcSNxOWaIrCF0WIDIg1fQ0AVMlvcZwctSZbFMO5MSjbWtOSsA0HMFkVIRFqc+4w3Wab4nHUVjMZfdTRZp58GSqPCl8T4q9N1fNftlhScQPd8OQrELlqVo4ga1/2wk5lL1CSU75sFlyT6U6islqi+ozU9HMnl3puSjnvda01521BsWbB9NGVTdb1CVl4rYZe6QiOwxLzQBGWfSEB+zDUeK3wwlLFzZBxpw7E8ZJAsOoIY/kGSEXJJ/66w6AH+ZEPLAI6jh939/cD9K+fo8wsn7w0YyhFxK5YGIS9fr+7B9oXTsXuEEidGYS3v8GWeg38TvR42gD6X6cBdHQ1whmbECyWXt6ntK2YqciBlgvHaijA145RpH82mSXCrR39M0GHPJ+9fOy5Gwc45F4TvL9f3H/IwyQS7nJj5AZ8tz3C9IRNSuAt0phnoLsEHGIDirDSqLveMJWJZ5z/NgH9OmoikbaxxFmBVbjE/6fGtykst+lO8cmnDD0Kif0WNsDNzocdPOVcm657Wi8uBiiK3cEXOxGnVN6piwzs53uLNnDpjZO1FB+qbDkksV3l4IZ0eqhHM2I+lMEZ5q3AFZ9z8D5LKj+QI2O/ES+qjeoTjOG1IBMdxWlkz0d3YYIOJvcHOnFxjXGFxp0bhytneAz6VGjw7vP5UfUJURAU8bJwQeLEeHnoHx3WJVX6qQtFQOkdcWXG5Qu0pqM6G2PcWd4hI8eD543PA8h/340FSLhiESbB9ubXGGDY9cqjpuIc6bgUAvHm3QZkTwiL+jHXUaqE6Et0M4Lr5XoZdHLklt2URAzn+jmMdBOBTIuXYcYVJ9QG7kIoSEeMM1KgV7F3shMioIMo8QxCUkID5yAeR+KajKiYCNYGjiB8mac3oYKnD/zE5EG02tvxFRK70gnirGyswXGnLJlcyynxy5JC6q/Hjj1tt7MM9aHWOnjhV+g4fHguGzIgWV7BOnC2U7PcG4R+NovB+kHFboRUGUDMJlx80il+TaSmWvmlw6heH4zWHcJEtLcSMpEIxOQp9+VB5cDj/O3czbjVXGnOYs0GSeXozIzBs4uEgMt78L0ftf/zUIopZcaoL00YdbsU6w4ZNLewEYO0c4Ohpe5TYiMFpy+R2Vu71g6xGGw6Wt6OdPRaL4ipqM9QhJuIm6ppd4kbkCsoWHUEvGqUhCDx8pFqY84XWg1S8dG5eV2Ll/G+LPlyJ9mQQyN29eRu0FmOPEQOSgdhHXZuJevBHnWObIucVyGWRV+HQjFrOkC3CA68n1V2DnLAmWpBnovGuQUo8Wjz5bLKDEu1u7sVAmxRzfuZBJR0EuVe04EyIZ3i3Y6LPBGtbiOVgfOQ9igS18ov9B9SfdERuD5JLFQIH3905h00IH2AWmo2Hgx7/PeEZssXfr2NuZlMoCbT1YOaDzEtYyYixNfzk0PtcouezF/X3eFmhnfkGMbfej9fYRhHlIYeMRjtSyNgNESqNczo3FOb4betkjvH5yCYm7DWRy1mRMTjxXYzqTp7FiGT1uufZRfH2JqoJTSIwOgpdcDJF8LkLi0nGtrhX1uVux0I6Ba0gyLvPrrMmW/4iNzVTi9blQOIo9EVeiN7hlkFz2oOFWEWq/9KHp/Eas3HIJz/4fe2/iVvPW////R/f5nPvY1XvXrjZJiSgRkYhEJEMkEk4iOZ1IhkgkIhIRETkROgoZMkQaRObpbrrbn/29Hr9r7fG9d7vshvO5j/u339e1rvd6j2ut15pez/UaltFU5D/OR32mNMEb5aQk9iZPxs1Kcjkom0vNO57VPqBJLh22Wa/281C6zzufcfbXqXi4TmB57p/U5C1itBRAUrmVLasxLR24HM+6UzVcLytgfbCEOngBiyOmE+DtQcDmEvIWueGz6jQtnXqGUfP5EUeX+6CK3M9xG872zDxbb56p1zMZ7z/kMUoHLiXmbjfu3HCFK+X5rJmgt7nsFmCvPIkASU1EzkOz34yvp1mmlFhU8IyrwzbHCwIPzzxvrKohndvvsnu2OyNGuBN3rgNN8yX2yT3Ipqxn3lgnpKAlbJZ5ld2y9SDXrIHCIDIyaLVY26urLTw6u4FJbt4EBnrhHVvAE5NUwACgmp7xTICpQUouhW2VkJC8efPGpLrZfGMn4ap/Miomm4NxvniEJHGpsQO+lPPrOIkJKdf1jep74LLrDhlTXRk9xgsX9Ti8XN2YvP6Uzv6wP3AZN9JZ7y1W+5br22ejdnbCSWHD66JFBXVTnTYJqU+vYxYvD+qi/dkFtkeNQ6kYgZM6kDlyNY6Y3Tr7Dzm4FIloW0tYMtoJ/18v8KKthVvbZ/CLbOsJ4xYU4vzTTz/pPHj2GjxkDKFCvRq9RqMluNR+vMXuuV6oZ2VwreW9bo9Fsc+iPrzlYX4MY1z8WHPutQGQaWk7uhCl7N/GdIXb7wcVmxjvrJCpiFo6VzHZETbmETV5IzlbxT6Xl/j87g0vChajmhBNSno6aaum68DlPYMwW1OfTbhnFPn92M0KKaGQEJqAuMEeUXfdWkPOfE8UEzdQ+uKNzqHOoCrTjo8+391B8AiJaXGpJMXHEDF9Ij6z0ql8mMN8Zyfm7ntIe/tX3lZsIUQl4Z9Qgn5r1W5qtkey6lQj93dN7wUupQV53Hll7m/ychptLoXkUtz/97//pd+KZMQIhEru98MIq61INLyoKOCwQeqemzwbd5cAYncZpfBHKP6ziqwwVyZsumZaeNCRxx5wqVaz+oJ8SV1O2G5up0+2kFxqP7XS+lVMsEIFaTbBicUW6m7Gr7vvbifYbSZZj3roebSHUOVYfr0i0unkWfkB0hIWEuLjpvMsPTIwkuRTl9gV6kZwYh5Fp05xShcKSZ8/ElV4KoWme6c4VVxOnWHTNE1jLhGuPvz6Ryd8rSQlUEI9fw8Vdwxq9zVHifORCN58nttyNfzaJ7w2LLzoJ3RXAuavttjKJWH1PPwlZ3xnrbC8vyaGaSONNpfdNJ5LYqpKwm95AQ9KE/FysoOhEP3WQnLZw8fmep4+fTr4UP+CV801XLjyzCbD3je4NNRaz1ta3+hFSP+p+czYfuTn4crL0OpZ5Gi46tpcOk3jAea4SCw8amMvyz7BJWjfD089m3NiK9bN7axwRruombY2nzt9ejTWg0vJ1YtxEycy0RiCEii6doSEUB+cVROJWLac5cuNIZqQ0c6olhUhd6lhKxf23xu++um4vYMZbgqcVL5Mj9lIVtENGr5o0bz5k9zVwahdPWxuo6ZWuaAYoWTB4Zd0N51g6WgXfFYW6zyvW5SjF7jU8LI0kQBJIij1OhaKtn8LPkpDw5FkMm6+1zlqGTy41NCUOw/JBt9i5F++d+6Lh7Kgr/Y9f+6NwtfFCWdnFaHbzX4DzO91U5uzlBkBow0L5wqcVaOZEDKX6LgNbM3M4diZy9xq+Ehj8VomuTvJFv4VKH0j2FH5nnabWouD4/2HPEbpwOUInJVykxA3JCdnnUMfvXu7z9zYGozSdRppNw2aTrrvlCwp+sTQ53hB4eGd5811NsiYppUL6wORhImUAVz21J9k47IYYmKMYQHBXgpc/Gay2HQvhphlWzkn1+kfZBYGDS57p6flQ3UWkaNVBKf8QevtDKapZ7O3zui9UMuH2gI2hI4hMLG09+DT+4cWdwQDL+zW5KBSz7w/5NAiFf8ctZgj99/wr+fnSZnuifvUJHLTI/BQhrL7gQEp9AsuNTQVxOCljiI9NRy3oDTOnE1mkqRk8voi7lb+btOhj5BcLvdUEHHwMX/uDMVD8mPpgUwWu/4nwWUHtXnLCXQXex+6MGXtIRkDe4qTGQvxUuntn6zBpViprtsThpPPGs68aOPFvUrKLl7k4sWLXDixn10HTnLecH3x4jky5rggReykUs7IyuK1918Y7GvN4PJNawXp4V64BW2g9GkNhbklPDKt5ml5f2M7YWpXgjZetpASaj6/okF4v33+nMd5i/EISaOi/jkNLz/yVWxhMvp7kstObqUFE7C5gqptAlxeptOw0qRXi9Xyse429159MaxWa2g8FInKcypbbeqXmJuo2PJG1x7rr7B76XzWHq2mua2F6gNRqEf4sfrUI93zL1/kej/m7wcX+0x1fgqrFs9lst9InP/5E//4x0/89Isr3gEziFy2li37L1DXeIktk5zw33SNN7d2E+HlwuioA9wzrhKLRYWP7/moFSqtvcGlMuoIT77ovQnryigDz3JwaVSLfZwzH7+pv3FdbHvxoZ4nr4xjgKGU7Y0mL4SdVTkkJGRx1SbHpaHxYASSsz8JpTJ39zrnGja2u7ELXEr4R8T1sYF7HIumqFGaJJfdPCjYyGrhGTZuAZNUzowMjmaV0VNs/Go2nTDsq9VVxdYAV6Zl1HAnMwSl369c0dG3nfPxXnhNXqCTYEv+KTq60FVF6kQVS0/KC/59tdiex1nMdA0gtaoLHdCU7AR2knBcZhgHte28b33FR2spv7CHs7UVCd18ftPKmy/i+w5qd89hcuwx6tqh81IiXspwdt6so66u71CzLxKlBbgcXIsfyFffBZf9/uyvnc/6TbrXw0HmZUj1LDIx/HXdVbUFf6eRJNhSMekHXPYiieyG/fWsofH6KU7aUrHW3SsgeaaEy5QEcvt6p+gite+6dftc9rUVSc/9TELcpvB7jbmD9TzJYa6HNyuLbYBqWVkGFh3G+tF+5PGt2zTpFtKEJnQbNQWbifBV4bdgGxee916Qa39UQKy/hGfoVv5o09LVUMaOuA0UGLQsLMpiAS41vCzbRIi7MyMjsrhjgSy7qPnb8FFiUVHsiT2ll+TSVa5xZiFAaeJikr/FViRdb+pNPjfuXDnF0eIKqk080i2yo9wGzEPJTYv0dO6gvngDwSoFIxTOeM/bwVWxkbXFoeVVeTZpOw9w/FwFNU9e8dUwJVi8ZrjQdn7kdXMzzU3NNL98xzfr35k+GuT4JL4f6hilA4l9OPRJqzZrHXytIi1YwiUgifL3WvRjhhsrzn4chjleFGR453kTaQcVaefOntl4OnmzKDuDaKVectnrV39PtVjrbHbwrCSZULULfitO8lznXOwdFxPHM3Lefh68ukfR1gWMd1PhvyCVE7ffyNTFrP9leS1ApcVelTLGVs/otnInZx1bLzSZVA41r6+wZbo7ihFO+Kw6awYo/YBL7etzrPGTmJRaSV3OHNyCfqfqX51UH4olbEk21/rwFmsEl+H7HtFSnELi0TradXYl/0lwCd9qj5KxP5/N01XmPTgNpNU5MuoTXOoZRg+XeWQ9MG850dbWwvXfp6HwXMLRp8b7DeQtdEYZfczCjtKyBo1XRnB5jMrdYfiEbuFSSw+ddceJD/JA5R9NxsXHPCpNIVStxH9FAY/Nc7PxJ6azTbVYVTDLUnqrJKXETDJI4z5SsiaCjDvfdA55eoHLbzfYEujN0sIWvcpW9312TpdQKJQsPGqUoJqygKa5klMlt2nt1PLlVj4bNuVxteE2xxMmIY3wZv7OC1w5nsa6bcU8am3h7qlUVv92hrbuPkdp88/tiGk03yhZF8iYgBnMj13Hlk0L8ftFxZKjeimiWIgRYFar/UxZojfS+KkEq13wnr+PGoMkzDKZvsHly/+1LZ01gsvlJ5p1Hpgt/tf5iLxFo3HxWUmxUfKrfcP5NX5IPlFkVfWhtmP8ifY1J2KE3ZMLLuo5ZBm5kCGBSxWzN+ebtrEx7dtWIPZzO8aOxb4yhz49PC/LYVdmMpE+LqjD1pJh8By7MzOJiDESwdvuGCawbmp3TEPpFUTQGInA1JsmD2ztnz7RZW2L8ekUyzzGsfFcBXlpxjabQuw0d1wnLyXFoEaXunUfl2TOP7qup+DvOot9TzWg7ab9y2fdljhiKxZdeHeJX/2UzMi8wwfjPXH+8o0unYZTj8wztpXactkO5rlJTE8pptymt9cadDsr9XTQYWBKdOByMGqxxjr+C8/2gw7rTPx185l1St+/HmxehqGeReaGta7FYtFcJJcwsuttjIE2wGVP/R+cuVbPx/6YYLGns7VtrU3CdlKWFICfznGfcN7XO3i5KVC4jsTHxjPd++Pnk/2wo19wiaaZgsUjGRV1mGe69ZiH5ESORD3vAE/6KYfNLH/v5rDWj6jvd9w/t5t4seWSZzBr8qp58/UNb77o1SP12dHw6uoOIsdIeIVvo8IeFbrOOs7l7OdUTTO1+auY5ObEqPAd3OhlCKbl9d+Ij+oLXNrSoJJLIIU21eNeda3hWc4cXMespcwEqPWmJ9a+KGxXu5GHsvRbof30gMKNYXi5eBCSdIbq8u3MEbaiASs5ck/mk8D2T4d4d7Djk0h2GMYoe8GlcE5c+RtRy7K43qZF8+IgcyU1ay58HpY5XpRmOOf5oVWKlpdnk1ixq4oPn8W+vj8ouNS+v0tBUiijBAPo7Mri42aGUfuqlMQJbri6KvEKiWfv5Wc295vri5CdnZ0WtmPWUhOhiiiAZ6+ju578xd44j1zIEfkqWp/g8h3lG/yQfOMpaevmuQFciu0YjLZr/anFCsll2K57ZhsSkc4wSS41759Re/chTRaDe68S275hcJ8+clI4kZGR5jDDDze3viSXPdTnzEHpvoK8epkqZPMfpEwageeSozw1AfwG3VYVP//P/9i0ndJ52TPxELKBsesD7+Xl+VLHybWTcVMocHIeRVhKKQ29HB585XH5cfL27yEjLYX1kf5IHuMJDg7A12cZ+SXJ+HuEscGGkf2+tSG6xQJRn9+aXtCmEauRvSWXL9ufc3y5D1LAFq5/09BStByfsdHEzHTXg0tNC3ernvJRVyYN9ftnoxwVR8kHDa+PRuEyajXHG9poa33ImeSpKH/2ZH52NS0tNVw4fZkruUsY84u4d8tSnVNYNg2gnvV7VX7upYZrBHpCRVUADfGe7tC0cSVZ2CxJTFh5jIeGiU3z4hxZWWd5YAKafYPLVi06B0HWfdCY5ppS02ypT7OniZLEQCQnL6IOPrBQW+ysL9Z5VFSopvJrSUMvWhgbs6b+ABEqN+ZmlbJ33kgk/9WcFUBrSODSg8UHqvvw3FzDqXUTLNRihQ1F65lV+EqTSL1hFPVqaCmOw2/kAvJkeyppWwpYrFag8IjiSJOp4RuKY2no31WVSoBqAXm3DujUXMPjk9i4caNlWBeJv3Iy6aLh6g4tbwqicVOvosSYFcMT0+m7NpdfOLvG16aKm5eXB0qFAsl9lO3nPlHkysor0tSBy0GpxZpy/JdFBgMuh2s+G0h/7osAQ8vL8NbzsNS1pp7s2RJOJptuq5LbAJefi5ahdA4mQ2fMbPW+4XIw9Wz7T98ojnWlt129/O0ePjXd4/ymYJT+S0jP2sHWjQnERkcQmS0fLQAAIABJREFUGjQO32UFusXsrgdZhHuMZE5mCccTAnHzjubIU2M/lv9PHx+O9jLUvthdl8+KQA+c3cYTuekIN1o6QdvCyWVj8Fl8RL/Y2/Gci9sX4Kd0Z0rCCer6God6FxHNm1vkJUzF00mJ/7Jcbps2XrTxsrg1THzU0Gjbl+RyDaefNdHUZB2ec36DpeTSVLqeOnaHKhmztkymBqwHl335neiThxI//dZI5eGNzB2rxFkdwrqCexin8q/383VSZSd1KCmlBu/Z5ozoNJQGoqprq08MbXwSmRmGMWoA4NJUfAFrhemK5MOGK0KCMVxzvEhhOOZ5fU6H1m4NpdVtvfSjgctvDfxxcAOzfSSU46LYfr6Ijf4qC3ApCP3x1h7meUn4RGbo7SDlNcxnarJXEbfvFnLzhu7ubp3tnTUja7wWEhmhIiukmr0OzWvKU6ahcvZhWWGDlYS0Q6cOZtwz1LwVSQf1OStION2MBo0FuBROa0S63wOXM7ZX02PMzzANimJl537mVJ1N2tFX8pXDXqW2fUPHhLsRvOEoJUZ36efOcXb3YrwtJJdzid8wj1mR0SwW25YonfGNL+Hpp68GANPKgyNLGPXzT/zsOZ99VY2G+3pwOWJGKjdra3upxT168d6slqB9x6lYNa6Lj8u8Vmn4VH+Ngm0rCPGScA9cxq7LL0wSH8tCfaJkQzDTZkWyeEUC6xcFopywguzii1T8Wc/razK1WE0nXz++pbW5gfpH97m1dwEqvxXsLynn3lujqosZXDbnRaIKiCQmWI3KfyYhY0cRsyeHZWNHE51/i7woDz24FBsE+07RM/s6RknJ6NWliM1nBLh09V5HUcsHPW1aH3B2334uPmql7ekholycmZddQ+nmybg4+bPxkkzN0856Fk6srO2NjX3C2EZDFO6sOW9Wvf369Bzpwu5W8sRTJTH592qTUXvn5XV4uy7gsFGqaNpCQ7/PpVCLEw59hFqsAJeivxkXW4zpin4R6qwm0ei9VFRadyPn1gunVp6EbbvOextNV/O6grQwNQoXP2Jy75r2lTTVufYNpQl+uIxeSbFYaWw+Q/w4CfWcLO5+FnvOueKfdJEmuUpSUykbxrti9sDaQVmCtUMfJ9x9/JkwYYLN4KeWZA59RG60vL9XTMaKaXipJzA/KYezRb8RNtKbRXlPZMC4m4aTK/BzVqBw9mVZQb3smf4/744vRuWfwo0u/ZY6btMyufsslwiVTGXVRADDHmAqObhsp3y9D8rZ2dQWJzBuzBjG9AqjUDkLp0VevZ75BCTT7xZrfarFyjJlFf2vUYsdlvnMSJwhjtvDmhdjnmTnQdSz+Hpoda1n4HwUSsL29uFsqhe41PB0bxguyhgKjdvoyophjP7fgstvlCWOxmnECBSuPkwJj2LZmiS27thLbsFpLtYYHQB1U58XhdppBAopmJSr5kV3Y77N5yG2F8OPhlY/YoWzibLcw1w1bohr/O+jPKK9VUyJ3UBMoDsuXmEkF9VhnmXMJbEZ62imMi+JcB8Jhas/0bsqaO0l1bPx5bDwUUOlrTW4hPYnf1BUcotW6/VDXRG0tN0upejyQxPQ05dMy7sLa3Xzg7NPLIUvjAsNhjl2XhbVNswKLHmotxQtFzzUCd51PiArTIVCGsPMtQe4pnOoZEnD7qYLbJruieS/njKrSbijrZ4H9+9z387wsOG9mZf+q8cnUQx7x6hBgsvumjSCJH9SbggpxnDN8SLjcnA52Hle/Geo7dbQFn48cNlF3f4I1KoJLPztFPfFCpTO3skALrXfaKoqJCN+NuG/3+DNnUPETnTFSTWRRSm5XLz/xsB4dfDo2DLGjnAjZEs5Lzp6+PDBwJybpGNGFcw2nb2lAHu6DdMNtLM4dTdSmhyCh5MHoWnXZCDG4i3TRde1ZMa5Ghi77i6TnZ1ccim2OjEy7lN/+YlfFHJHMSKu4JeffmHG9lt8M+63Z9eg2EXlZn+ksUlU9KX+qX3N0SgXpMjDiP3kB3zowKU9arHzyCjYSWL8SlbGryN1/0XEVlYCzAgg33rvGCt8FfjG7WHbXE+cxkSSdqqahjY9uFTM3cvTj3LbMaucat9xY8ccvJQSSvcQUspbeFe5m5gQH9yclIyZHktaQRWtvaSVVv+RXZrUYrtfcTpxGoF+alycJFzdJJwVwu7ACRdXD0aO9mGslwonwQjMTqTwhZgRZJJLbSsFiz1QOKkJSTxG7ccemq/mkDBNzdjYk7zobiU/yoOo/Ndo3hcS4zmXnAYNXTW/M1kay/pyMcUKidIilOp4ij/+2wC8ze228cJ6xikCSfmjmbbmG+yZ68k/vZZz0Tjgf6eeRXsX7b6XvbGsj4h+016XRbjSi8RLHXS1/klBqlBFd8ErLImCu6+4nTkdV4/Z7L4rlpuF5DUc1wlbuGmie/+SS0F+oU1gBJbi/Ob6VqabVgCF7kktecvGISk8CN1aYVZJl9WdMar9cIs9EV4oFCOZnV7Ba9Nk3UNj0Ur8XDyJyHlk6JdaPlamEuwqVD7PsjtMsiktHzFCMoDLDp4WrdHZSbqMCif9jxa6euopy82lrL4vzkbLqxsF5Jypla0sG3Or4f0tYVMu9g0dgfO4ZRysajEA9W6azm1gspuE/6ps9q0Yh4vkT+yRezLQbJ50rn+qInWSkuCMu3QKBz32gsuvV/jVTyJ4+x3am/6kVLZgZNpr7+wuokdLBKw5ZLGgJJ6fv3jb4MDJWCars70TuuwzHUP7XbVYgzMutxV/0T6XsgzJovaDjuGazwyJf6c/y7JoIzrMebGRgt2Mm9W3Q6nrL3eziRylQDktnT+tlBxMyXwpYpnSiSnbaw19/gMlq0bhHPAbt4y8uOllc8T+ejZ/Yzv2hVPLvie5hM63TVRlzqQvm0u0H3l4Jp2o8a5IY8bj6+bC6LANHLr6wkKDw5SHIbUX01/04H+Y+2LHyxrO7t3A3LESCuVYIpKPUWO1P6w5B5axztbbnMnawDx/lc60ZOzcTZyoNW8VZPm2javh4KOGTNve4NJGTr97S/vmEr8GuBK4sYCDMWNwm7Cc/ZVi/rBTLVb7jus7whnl4oyzx0x+v/aajw+uUvm8r86kz5L2wwNqvrMv6Xczb/HC/8H4JNKzdy7SgUsF6vHBTJ061RACGeMqd+hjUQAdv/a2aBmeLiHsvC/nBYY6x4t0hmGe1/1miLy/schGcHn6KTUVVmYw5UUkBbugisykzNoMpqKGJhtKocbf2nMevEMfzTtaje4HRUrt5az3kZi0aDVRQSNxUbgxNmwlmZeFNFB4e6ulMGU+/gaDY8/QbVTp+kUXdceXM/p/RuAXd5Qa2R6VciZWbzvWN8LqflnB7oV+SE5qZm4tt72qpH1DzflTnC+/zq2aG5xOmoqkjCSvWf5fS8mlKJqQ1hjV/+ZuPcaJEyfM4Vgq4a4jdODy3WeDfnsfg2LX7Xw2J6ew9fcMMtLiCR3lhBSSiUX7ltdaexkJoyTm5jaaVW7lz78X14HLPphwg3ON3g59LH/6uekKqTPccfJfQ9HDVlofnuf3iDE4/Y8zoybNZuqYf/LP8QtJSfudrKwsw56X+8nO3kvWnt3szMxi76Yw1NIEVhffoyI9FE+XUUyeE4LfmGnEJO8hr+AEhUWnKT5bQknJGYpPFVF4vICj+Yc5lHuAnJxi7liZDpjAZU8XjTXl/FFZRU3tQ548b+bV20+0d5vr1GIrEl3xZOBSDAbX9rHtRJ1OZbuz4TybZqgZFb6TKp3azmeKY9WMiUhm+5oQ1LptbTqo3OSPNCWd2wZgJtQcJzp7MHXl7/yWns7WrVv1Yct6Fk6UGBGwibJGPeBsrS3h6Nk7/KvbwDH1Uc9CUmjcq1LeF+Tx988rOHfiLFerqqnMW4Gf5Efy1a88ORKNf8Aithbe5o1x/Px6ix0zPXDxWUB6UQnb57ijjjuLeSus74NLeuo5vkNfvrTfUti0YByS61xynmn4WneS9dM8UCi8iNh587uLO6IqtJ9q2BvphWKEiuANJbzo7uLFuV8JVjnjE3OUegumsoNHVy7z6JNecjl+3Rnq5N5G606z1k9ILu9TmxeNr+TH8uN3qNwdofMAGbgggd/2HCT/eCEni4o4VVzMmZISzp0r4UzxKYoKT1BwLJ8jebkczD1NjU6dQsOXhhsU7Uxglq8rqokxZB4vIGP5FNTSODaUvaD6wFLGSxL+sQU8ahfqSg84vHQckpMnwfEHuHC9ils1VRStC0QZlEpRdiRqj/nkNWi+75THxSi51NB4NBq1cga7jA7KLLuq/qpftdgvlG9bZFaPl6vKi/i8qfg4O+EVNKfvd6JWc/ihsUEZpFm2GNrux5TmZLNv3z727f6NJYFuuExMpcq0kGEr88N7b0CgY9jmMzEXDnHcHnJeUti9ZXjrWdRMn+Cy37rW8PraDiK8FCh8Ysjvz5C+p449oRIjXH2ZNieSiJkT8BjhhH/ytX7NaQZUz1ZNTPv2NqVC++VmNbeuCG0VZ9xji2WLQlYf6C5t73Op/dbIzcIM4qaPRnIexfSEXKraevh0/yRbIsfjppAYNTmKxPTj1BgXFsX/htpeDFkcXP1Ylk/b3sbjm+fJ351C3JyJqF0USKOnsiQ1n0oriabll0LY8onGu1c4lZPG6sggRok9cBUqxs1ZS9aFJ/ZLOo0/Hg4+asi0lYHLb2Ws9dIvLsrtK/uMG/Yt136sJityNG7BW7j6QYv2QzU5Syfg5qTCL3QR4RNccJkSx+798n0zbfFQfiwvuMWl32bgKY0hNDaFXQfzKSg8SdHpYs6WlHKh7BLl5eVcLivlfMkZThcVcvxYPocPl1D7GXrq8kmIkplIWc8B37lelFHBtyGPT4L3H6a5qLKAGKULU1fv0c81Yr7J2kKUj3ErErFP3R0KUlNJy9jJ7qy97NmWyOwxTjj5J3NNzNcMdY4X/bybD/U1wzDPGxr/kNut4T8GcLkyN5cYH9vbr9nclk2M1TJfD8YuOZDz4MGlVSo9D3YTqlSgHBPCstRDlNW9M4vRZe92va6lNC+TnPJX/Pt//1dnG9bW1sAfO2Yx0jeWo3fN+ygKJvrTp09m2zHZfyyimufkLxqJs3sQ8UdqMTketXhJXHzg5BI3s3tlhTM+Swr0m4+b3u0NLoUK7vfVYm/x8s0bvapuH4Ni991dzPbxZvRoL7y8xjBu6mIyyl+ZHBGZsmCIdN9JJ0iaTY7cbtT6pf6uDZLL8Kx7vJZJuVoubMDPQi3WGmAbfqr9wIW1Y1F4R5F1Te8kRg9snnLj5G6S46KJCJvO1CmTmRQYSGBgIFODgwmeMoUpkyczefJkguekcTQrhoV77xoYhK/Ul+eSGh/N3JnTmRY8maCAifiP88PXxwcfEXx9dc4W/Pz88Bs3jgkLsrHmp83gsj8C6J/1Dy5l32vfcWnDJPwXZXNLpqf95U4+SbExLF4Sz/YLTfp23fmSuqdvzHWn/cCdglTiohcwd+5cZsyYYQhhzFu6mSOVcvrpQabYdkUctuq5fydWbboFDyFFpOMSid6GCU/hhMf0dK7rgLiGHpMk0FxGzcty0iN9ddvTKFyDSLHwgtsbXJZt8GfcikJMe4L31LFrjjee6lH4+vkzJSyapKNCrbWLZ8WJBHsFsdoA1M2p9h/TfqwiM9yP6ckXae56R0VqCOPnZ1FtNCCx/lxTT+6i8YRl1pjVrsU73dVkzBzP4rwn1OcvY156lQE4d/GyqoBta2OYMyOYoMAAJviPZ5zfWF2bG6Nrd76MNbS38f7+BCzKoa7nI5eSJuLm5Ix60iKScyt4oZuMdInx+lEd1YeiULt4MWtrGU1yINzdRNnvEfgFJXIgbabeFb3Cg+nbyijdPJ2wjGqdFEPn8VU1nW3XX/Sy32m8n02kUS1W00LhMm984orNdWFNF3HdL7hsp7ZoJxkZGYMPmQcobzQ3rL4Z2hoyZnjhNdqHcQHBhEauYvcfrYNbJLNVTjvuDQV0DGY+My5n2erPdmS3z1cGnpd6bg9zPYvMDa6uu3leGIv/xFjyH37fQK/j2UX2piTqPTTHJ7JpdwmP+hfOGDw/uhCy66FNnqNPworFrbZjLFKaPS4rVFPYdPmteVy3+bEtcKnl1bk1jFf5ELoyg1N3rJ0WdtBcVUhm4kLmbbDczmi42svg6sdQQE0zp1YH4OkiAKELHuNCWbxuG3mltaYtjGySwnSzm8c5c3EXe0MrXFAHRLAqLZfS2jbLMdr0vh2RYeCjhk5bGbjs+Uxz3QO7VUnvP3jCy88fKEv0w9V/BcefylXUvvK84hiZyfEsiYogfFYYoTOm6/Z3ts1DLWbB7hoDQP9K/eWDbFkVxayQKbr5bOIEf8aP82Osr+CheptLjJ2zh9pu0Lys5Fj2PjMQE2BsACHnfJ2VuQcMfHwSPO8wzUW1p1jtN571F2Vitp46siP9mL3rrr7tddeye7aPge/2wsvbj6CIRPKqhRR9OOb4DVx608XjrLChz/OGbjH0dmv4kVFyeU5GHzu63nC8MiRwKSQrgsEVNpIazQceXL0mY776zp6tvSoFwHzeYAaWHz9+pKfHvELe99/0TzSv73Cz7vN3JgXofN9MfV0tt6tvUXO/kU9mPsmQhJaPt0+RU1Bpkn7qVGNbG3n+5CkNzWZ1Rz3Qaqbh6ROeN+rzrsuz9gPPa2upfyPnNr9Xgt7PexoqKSqp6Ve1sPdX8judvH5yj3rDXm7GJ9ovzdTVPtfbuX5roa62nr6yqnlZy/VHfasqy6VoIt5lVA02JibO3V29BiT548HEtR8auPfktcl+sL9/6N6ta7FY/f728hEPGoW1pNXR9Y12+5ud1cfmS7EoYk0bW9ei/8jrWdDP2q5R/p1wYiWkmWZ74y4+vWqmseEZzxpe8aVXezbnyRzroO3pfepe9mb2Ol49ptaKVubvzDGbjrSE0O7rt940NX/Wd6z9m1llTNNO+1AlXD1ddNlFi76zJJ60P6rgYnUzRg/9vd7uekH1rcY+2qGG9m+daD6/pP7xE+pfftYzv5pOOo1DQ1cb9ffMe1Ba/L9HbLpdR4uhmrTvH/PYtqGP+TNNExVHcjh5qz8bL/PrQ41pPzVyv7aet8byDPWHw/l991vqa2t5/GowE+tXHl2/Ydd8Zp1leX+2fja468HnZXDp2f5q8HXdQXt7r5HWdiKDuTuUetZ+4eWTOh7cq6X2Xh2NH+xryJ2vn1D7+JWVf4B2Pn0a+MA1XO1l8PWjJ3p73WWKzl+jtvHj4ABhxxOuFF+ipmGQ31vX/TDwUcNBW8Er1D61j9ewLoK4FjzU3Wb72pWt73X3/gIeqs+0Bvzg7zE+DTjbhg+GY44XvxqueV78azjara54mvc8r71Hg0xYYij2X34aErgUuRNeKeXMr4gLBljYgAkGWzggEZI/Iwi1uVelTKompDn//ve///KCDzSB/hh+eflF+f7bDgFkRJ3Ky9lX3CiN+2+jwUDLY7TV7YtOxvuiXYlDtPnv2RuLttWnvfFAM+h430EBBwUcFHBQwEEBBwUcFHBQwEGBYabAkMGl0emLkVke7Fkw2TalXsNc4MH+zug19nvlEwDhv/EQkqrvld34XCwkOA7bCy9GGsnP/S1cCCc+YoFG9DPH4aCAgwIOCjgo4KCAgwIOCjgo4KDA35kCQwaXonBCTU/OLA8kLiRifanY/Z0IJ4CvveUyqyz+nUow9Lz0B4LktBHv/bfSYCBUFPtM9ufhVU4zW3GLvSoHkrDjXQcFHBRwUMBBAQcFHBRwUMBBAQcF/gMUGBZwKfIt1CFtMch93ettO/YfKP0AkhRAoa+yWN8XUk4BRoUtqghC5VHYYgpVSRHEv4QkSqg4/kggbCAAWyw4OA4QXo6t28f3roU6uWgnjsNBAQcFHBRwUMBBAQcFHBRwUMBBgR+JAsMGLgWA+h7TbHwupDk/oprfUKRQxrLbOov/CrAtALrRVlVIrYQ6pACqAqgJ6a4RsBqB6n+Chv3ZBcrLJsrzIwHnv6rTijqyt90I2v4d7Y3/Kto4/uuggIMCDgo4KOCggIMCDgo4KPDfRYFhA5eCLPZ6yBQg5EeUbAkPtnIA9XeJCzVUkTchJTM6TxIgRUhIhxvgDWQR4b/RudFgur9YJLCnrYiFBMfhoICDAg4KOCjgoICDAg4KOCjgoMCPSoFhBZcDsTET0pwfzfOlvU597AES/5fvCCmikIoJkCOkn0Olu70g+0es47+iIwt62yO9FO/8J6TRf0WZHf90UMBBAQcFHBRwUMBBAQcFHBT4/x8FhhVcCvLZK6UR4OpHk9TYa3Mo1FuFx1QhSbTXCc7/JdgUaYk8iroajG2fUMu1N78iDceBTqJsD81Em3EcDgo4KOCggIMCDgo4KOCggIMCDgr8iBQYdnAppDRCUmYPI/2jSWrsdeojgJv8ENIoAUwF0Po7gk2hzjxQiZm9KtA/Wh3L62044wPpF6KdOQ4HBRwUcFDAQQEHBRwUcFDAQQEHBX40Cgw7uBQEGMjWJD+aZMte9cb+GoIAD4JG9jrHsQeoD/UdAYgHYp9pL9AW+XJI4/Stwd5+IZw5OQ4HBRwUcFDAQQEHBRwUcFDAQQEHBX40Cvwl4FKAFHsldAKs/UiSGnvtDe0FakKiJVRohSTQHuA6VBDZ3/cDBTUCNPb3P/mzwajf/mid6Xv5FW3CXqm+UD12HA4KOCjgoICDAg4KOCjgoICDAg4K/EgU+EvApSCAvfaJAoAMFNT8Jwlsr1OfgaqZijIJ8CH2xRSgzV4QIgdwwxEXQNfeQ5TRXkAswLPjsF+qLxYxHIeDAg4KOCjgoICDAg4KOCjgoICDAj8SBf4ycCmIMBC1zx9FsmUvaB4OaayQXgkw+38JNAcqSbYXbAvg65DG6RcQ7K1Px56XP9JQ6sirgwIOCjgo4KCAgwIOCjgo4KDAsIHLjrZ6Hj57Q5eMpnqvoo1cO76P3HPVNLa12VSjbHlYReXN+/w1fkV7aL2Ww+6ix3TI8tZftOvpVUpv1POxl2aihqcVpzl+sZrnfZTFKD3sDS61vK2t5nGvQn7lUVUNrXLC2cickGgKCW/LzdMcOnGJ2w22aWlMv+9zPbevlnPlzzpa+yiDWBTodWg/cLf0JOdvt6KRPbR3mw2RH/Ff7evbXKp4SNt3yitLot+o9nUNF8pqaOpF134/A00rf5aUUNVkW1Krab5Kfk4pdXbks7/20nTzHOV3W2iXZUfs/9l3/Zjr1WY9yP7TO/qNuooyqpu+oNU91PLh/lVuPDde9/7C4o72E/cvn+P6s8+G7y2e2nfR2UFvin7jUXEWeVUfLf/bU0/xzj2cq/tked++lP4mb2loKM9jf2EVb/RE7z9f3x5x/fpzvoh3O5uormmku/8v/t5PO55RffeVxZhgkWFNC7dvPOFzH7TRdthqL+Y/dL+soeqJffu/DrQfmlP5i2Padt6+7b8Pajve0/ah/8Hm2/ObVL+w1Vq+0frkIU9a+6CTppGqS7do+ta7EtpfPeVh/Wv75sbhaLs9jynNyaeiWT6L/MX07/X7DtrtZQZ6fSu7oX3H3YvndOOr7O4wREV9PuBho9V4+Z0/D73991B/4lficmqGf0zqbqD8cDZ55c+H/9/foYvjsYMCDgr831Ng8OBS20r5tpVsLG5CQw8Pd01HFZ5NvQY6H+WTuCKDK60aPr+9RnLACHwSzvDCJphp5UHWHJy9V/PHl3+LzUx4VF5EYWFh/+HkGarsmqC+UJ05C09pAgnnWvpmgky0/8rldT64jN9IhTVg6bnP9mAnXObu426rGQTYAgq9wGXHn6RNccMvtpBnMv6gszaTGa4q5h54Si8sa8qTMdLNrbQgnEbHcezpe7sASq+8vTjLWt+fUcw/QL3N+tCXSzifsTi6rpLsJzEx9abFAoJ4x16w1NbWwtP9c3FTLSS/4QOvW1/y8qUdofUNn2U0M+dLQ8OBCFzdIslrHBizom07zmJ3XzZcrOZwfBx7b1tyG103tzBRtYxTsp1BtBpbafTfXjKnueARU8hrGV83ENtLISm3+/h0ntWjJYJ+r9bXkbaZ/IXuuEcdxi7yfL1Awmg3InJf2NFPbOSq/RaZoX5EZN+zANNoX3Mh0R/JZxknnhtbuYam4zF4SRPZcOmtXeCy51E2kT6jGT26j+AbTV6DVR11vuHRjTJKis9QevU+ryyr2UYhbN/StL+jqa6GaxeLOJyVTnJ8NOFz06ho76Jy03iUwRnUdsO3B8UcKWuwAbD1//1aloiPNI0dtV20FsXirZrCxkuvdOXv/vyGVuv+0PqKj9Zo/dMZ1owbw5gx9gRfwjLNzKL227veaVin2c9165vPMuawh0fZ4ahUk1l3tkF230hDDc2Fy/B2VhN9TMwTVkf7LTJmjCUs5TwNtpq5ppmCmJFIExMpbZV1IKvf6C8H3g9t/maINzUtNzl5KJvdGWmk/BpPzJxg/DwlXAJSqWpvoaoon9ycvezalkryuniWRYUTEuiLp+TEyNjTvDMU8/PZNfj5reaM0Zqg6w7bgiXUi47ywpqQXVWkBkgEplXbqAPorklnsuRF3Jn3Vv2sm9vbpuAaksk9Y7fsp/zD0nY7zhCrGs+myt4Vrn1by4Wi3vN+Ufkj88LzENq+rmjaD5QnB+G36DBPRBa0LylY7mdfX/INI6NGNhF9OU+8lydLC9+Y6Prp2l4S4uOJ7ysk5FD1vTGoq4qtAc64xhbTx3KBjVoajvYv2kMwPusu68avL5XZFmVZk15C3TXLe8Zybjhy12bb02VU08KFDZNxHTECZcBqip5aD2g2iuO45aCAgwI/NAUGDy7poi5nHiPVc8iq/cwDA7h8+rKMpCAV41cW8qwLelqOMMvZnZgjT/sAQ2Zwee7lB9C84MBcJZ7+MwgPD7cdZk/BRzmaxEvmQUr7sYrDaamkptoIKasIHaUTawWWAAAgAElEQVRm6vJk28/TCnWMoahJ7btiVngpCd1T1wvsddfuYIrLSBbmPrQh9Wvh5p5FBE6YwIQJE5gyZQpTp05l6tQQovbombv22r3MUasI2V6tZ7676tg/x5NR83P7kJBpaC5aS+i0aUzThSn4eTjhpB5P8LRpujQmTZrExIkTmTgxgJBfT/UB4GVA2E5wKdRj5Xaj2pY8IpVuxBS+M02k+pbfw+MzO1i7di0JCQmWIXE7px60muu9tYasOc64RxfQ+EcSY51GMGKEHcFlMuk17TRc2MNWi/rdxOJACecx4SRssVHvFu+mkpqWx433eu7tW1kiY0au5Mz7NkrifVBH5lLfo+H1/av8ceUKlw/E4usaTvqFK1y5UsHdxjpyowKIPvzEol18r71MlUYRd9aaqbMfkFtva9PfaPPp/GpGSyFk3tdzij2P9zHLbQyrz3+wqjPbf2mvSMLPdRbZT625V9Ex2rh68Dfb/Sf1N3KvCQark4c581Arg0j+4z1a7VvqKv/gypUrlJdsJ9InkFU5pbrrK2X7WebjjNeCTEquCBpf4Y+r93ktku55yIElIQQHB5tCSFw+9e8ecul0EUVFvUPh1nDclDEUmkxVNTRf3Mrcsa4oTG1MgXJcNPv+tI8egkqdVdsJ9fFAclLo26pCgVI9juDwaOKSsql41UlNehDKSWnc6vpGze5wRkpjmJdRwateZPxCWaIPytDd1Ikq0r6iNHEikjqc3TUfdIy+iymvhn7h5GUxzulq7kMhMW6jiMm+wtWrV/sOFWdICXElILXKsCCk5fXRhSit0xjAtUvwdu7K+Gu6nlG0yh9JGUB8Ub3FwpOm5TQrfVzwisrlUW8sAXRQX5RAkJuE76L91HzsDSC7n+YRNcoZ72WF9LeWONh+aLsnDP5uZ/kGfCRvpi5YQlziRrZm7ONI0UUq777g47dy1o9xwWtSOPOjlxOfmEzq9j3k5J+k5HIlt5+2mRYlPp2MQSnas0mJRMur07GMdvYl/pwZzOhy2i+47KRqayDS2A1c/tLNy9oKrj00fj8QcDlMbdcGuNS8usm5P57zSQeC3fGdNEU3t02ZMpnxI12QIg6aAfWg2765Tr9U/c40N3dmZtbwTdPMoUgVIamlVNfcojgpCFXkHm7U1FCVH4fvmFjyqmqoubmPKPeJbLlpbsidlZsY7xlNwStju9X3L5X/cnYfK6CgwDIcy1yCn9WCpTlXstggwOXwtH85uNTy7vhiVEFx7M7NJSc5nFEhmVTXlpCzbx/79mWREumDZ9h6svZlk3up3mJeNJWm/QlFCUGoRoaTeeUGh5eNw21sNPurrfkI0xeOiIMCDgr8F1BgCOBSMIENFG1N4fi99yZwWfe0hLSUI9zXLblpaTsRg6s0my1nLnP5siyUV3LzxjXKL1/mTMp0FKMWs+/iZW4/qGL/XBWzsut7r3QbCd5ZznofbwumS9sswI+S8bNiWLJkiTksnk9E5GLztfyZMR67l5tvK8hYHMWCUD+UChX+YQuIiooiKmoRiQWP6aGD6ykTUIwYid/0MMLC5GE2sfsqqbt+luPHjnE0YxHjpKkkF5Vxqewo2zans9cwIG9eFEr05t3s27eP3YmhuDv7EpWapbvel53PVQsOSkNDzhxcx63k4MVLXLpUxvGUSGbG7qDwgrjWh4sXz7FlloRqaQEN/UgjdVJMO8GleFe+hUjX1WT8pMmk35ZzlqJCOrnyqw8KdSAz5DSZ7I3ziKn8fr3FBC5bbmxjurMrMcca0Xxp4dGD+9y/31e4zcHF7igjs7j14Cmv2nuoy19LtK5ORL1EsSDEBxcndybM0l/r66uf+OKtlOpEiO1c+dUP9dJCnSpjd10WYSof4kuaKU8NJXjKFKZM8EJy8sRvsmB0phG9NALvkfM5VG9Y4v9qX3txUowiKMI6T4tYd/wJL9+8MdGml4RZVo92OVnSvqJwqRpVxEGe6UDNV65tmoCzkzdTI63TN19HJx7VAx2+8UeSH862gIYUws7aOrLCJFT+YYZ+YfxHGP4qydxfe55xZOFIXMato+xVJekzA3SLLWLBRRf8RqEc4YLa13BtvD9hAhODN1Mu1ou6a0ibJBG4chcHDh4gY+l4pJBd+nx23yZnxWLSL5m4bt2o8P54NMrR67hsWm/q4nrqLCK3FFD5+BUfPrRQe2YLYWonXAK3UmV6zzio2D5rP93i+J4cjpw8x+XiFEIka7DXQ93uUJTjN6EXxnym9tAS/CQ3AuILeSJLRzCAK71URB5qMI9tn/9k/6adlDd18uXFHW5cv851Q6gsTmZqr/SEMbsAl17E5t/pp//c5/69CraFycEldLc+4KYsDWNa+vM1TqwL1LX7iIwLVNp478adF8iE+XqiddSRtziIuRmVvDXy2ZpmimJ9kPwTOPfSeNMWjTW8vJTCdE8vovPvc7t4v34s1I2XeiZ28/xJTF9lHEPFPREMDO0Q++GGwn7mGVvZ/c49HbgcuZpSW9IpMW+NUbHirK2Hlj/uDS7FfPuIfbNckSan8adcscQALifZklx+vECCj0RQWjWd2veciHFjVMJFgxpsH+Cy8xOf5P83LLoOtu1qX+UTpbS9iKicv5O8eD/cgtO4VpnOZFUkec2G9tJZTVqQkqC0WybQPZS2b6ZwO9XbQ3B1DSGj5hmHIt2Zk/PcpIHlYZAYdlVuwt8viQrRhztKiPMU4PILtYfiWRQVRcRkL5w9JjLbMCctisvhct5C3GcYFo/MCepi3bUZBLtbasNYvaK/HAi4HNb23xtcekYdQSgNiHbtJyTc7TXsj/uN0ted1Pw+mbEbys11Y1WY9voSUsK8UI6L4WB1G+2CdehqoCR5OmpXf2KyrtFqh8Tc6reOSwcFHBT4ASgwSHCp5UPFHpnKxCoWh4zCZfQMlhjVQRL2UfmxifyFHigUTvzzn//k559/5ueff+Knn37iZ8UUYpeO45//+Af/kAXFzCTS56gIzaiiuS/1rMbTxHvbAJeu1oyflnclq/BWzWCn0Fnr7xAMm9KZwJjNbNmyRR9S1jB7tF7dqPP1aWK9JCYsTNJJ59asWYMurJ6Hv9M/Cdh8hWYdIGilJnMmblPS9dLQnjoKkuJYsWIZYb7OqALmEbtiBStEiJ2Dv+SC3+zl+uu4ZAofy0dbDc9ywnGbnI4e03XTXLGHpQEeeIVuoMjEuXZQEueuYxo+dnf370hpAOCyra2OolVj9SpDalcUCgnP0WZVvLGR2dT16MGlW9QRatvemcDSizNr8HGSg8tmLiUH8IsqmiNP3/VXE4ZnHZTGe+K2tAjbuz5+pCxxLFJACtetGKHv/vzbFX71cyXioEH9U/uBm4UFVLWa24hcLbbn2VFixowiMvexWfVnAO3F1J5Eu0pZRrCbCyG7HvLh2zcTvfoDl/ZIL/VSSi9WnNZLJTT1uUR6qgmJTWbz5s02QjLLpqqQJqej0/T6UEK8txthaaVUlmcwR1IyL7NCD3Ru3KXx02OyrICKjs5dN0jxdzWDS92aUxnHzj+1qdLVeWUDPm6RHDYykLYqSwcuXYnMe4kWDfX7wnA1gsvPRSxVqogrkVd6D0+yQlEGpXPHVIVa3r9us5CkQRdVqQE4S2HsfSLvZ7Yy0fue5lkO4UrrMUZDY24ErqMTMStSdPL0ZBKrd93AICgHNDzPjcTdawXFOgTWTU1uIglZFXzoA3vZTs8ALl2dkFRq1Or+giduLi4yyWXvMsnv9DQcJdrLGffZWTwwC2jkr5jineXJTPIxjwVjvLzwkqvpeqtRKhS4qLwsVA79og7Qm/Ra3jW84GPPK4oSghHaGObgj5dSgTRynOyeeB7EzLRrdA1DPxx4SzCRoVfkLwWXwMdL6/Bzdicy95l5gaKrii0TJaZss1ZN1PAibz7u7vPJ0+nS9gEuJydTfKWYQzs2smJeMD4eE0m5Lm8AQ2y7ms+0Njzn+fPnPH98iGjVWNYWP+X583quZc3H2yOUzJpvdAnJpQxcfihNwEc1lxxha2M8RH0PR9v/eptiYSfdLSSXAwGX/+Lln8UcP/o7C7xUzEzKM0koj5++QW3+QpSSh2VfMPYLL3ck12EGl8PS/rupyQzDd8wYvFQuOLuNZIzvTDZtjMIjYh/3Wl7SWLwaXwEu3xWxVL2Uk5/EWBrIuKSK3uCys5mr+1cxxcOV8dG7ufbyJSXx/gRtKEMv5P3Gk+KNhI50QR28kt0XnvZesDLWt+PsoICDAj8kBQYJLuHL7SL27NzJzp07yfg1Ah8XBc7jFrElU39v555T1NzYRrDkyuIT7+no6NAx0g/3zkEhLSKvvo2WhnqePH7MrcxZOHvHceLBY548rWT3LKfvq0taqYvpJJcCXJa18viGXhXvypUSfg9X4RKQQH65XvVOqN9ZhIoaGgWfqhukXYmVryr33CNzmpLA365TnRGC0iuWU6+1lnt4Nhwlxu0XJqde1YPL1vtkz3NlwuZKS8b2cxmJvmNJLDNDpe6a3wlSR1PQ58p+D4+yZqKavosHMg5I+7GWgsw8qkxqZGZwaVwTF7Z6ApT0Ai0DApcNVBfnkJ+fy4bpElJwAjn5+eTnHyZtwWiUYVk8loHLZ//qNKXXC1zWHWXpqJ/52Xs1xS/a6PjWxPW8tN5qlmnHuauT9vQPLjXPc4l0VzF3fyVl2X2pa8pUZU2qz1renYnDy0nJ/MMCvNg+jOCy6GUVO8LU+K0ssrRbHEB7sUihs4yEURJhe5/Q/f/+n11buQhnTv0fn7iS5K8DTfue9iBsHEvifVEGp1NjkJxpWmupMKqdip91XCclwCgV0PAsdx7uHtEca9HC+xMsdlWxssTYmgRitB9cWuS15yGn0lNNCzYbIv1wVocSl2JYwDEs5PyW/6d5EaEfcKl5tp/Z0jgrm60ubqb4o5x70LKOLDIiLvTg0sU1ivw++5z8o2+8qKkwjRflhUkES2oW7r5kuifGkpKtYUhukewosxpbxFjzx02eCPT4TdDbBZeg3/VgHtFnVSgNkgF5qsZ4v+DSzYcNOjGv8W0bZ53Kn5t94LLrMbkLRuLsEc7e+zJxq43filuaxmsUHhVjgVXIjifIRWJa4oHez/LzOXa+1gC4tXy4mc3m3RW8lI1tvZLrvsv2YAm/5KuW46nxxWHoh/0lb0zG3rMOXLpNZmmKbOxJTSPv5ge0Q5VcikxonlG8O5tLz2TWeF3X2OgnMWO3lSnHx3J+9XdGuUAvfQIBLl1Rx+Zxo+w4+35bS+REFYoRCpzcfAiOiCXp1yjGKYP4XW5bOJxt16QW28n76+mEqsey/MQz3aKdzjbUCC41DRyK9GDMqhKzNFyUX9T3cLZ9XR9R4j52ss70JMhHhbPan6nTpjE1YDRKyYuJU6cxbao/IyWzWmzPvUxC1As5VJhKeHyBQW1Xy4eyNKLXH+F2c29fAs23DrF28Q4q5OtithrWQCSXw9T+21/X8+hhOWkhEqNi87n3qJ5HedG4OksolUqUkjNSSCa19TnMHSsW0jqpSBpnObZ0vaLmZBoxge64eM1kw7E7pr7+sXILU1y9iMp7Ylqg7WqpZP+qYDwVLoyaEs3G/WXUy5q1LdI47jko4KDAj0GBQYNLffG0vPszhyX+anx81bj4BBIauZmz9R3Q84zDUWqcRkiEG1Rc371r5crmQBR+6yltNNoBmm0uBehoa6li+3RnZu55wNf2doRjmfb2z1TtXUZ05lU+iesv9zm9I4PiR2a2wAQuS/8gNcgTlUqFSumMQuGCq4j3FUbOJ1c4AelnkA5Yt5XY0SrCsh7oGBzhxdME2hqOEC39wrT0m7S0tdF6L5t5rmNJufEvWQvQ8ubUcrwmp1HT/oVPX8VKbAc3UgLwTbjAx65PfPhiXJ3VA0rJlnqinfcUarNallCpfPfOLFFsM4BLubTYOi539iNsL+n+k60CiPxudAzylbMrPfBYeZavBrVYIbkU6jNGQGsJLpu5mjYV55/+YQKXb1tvkTNHidfUhSxfvlwXlkUE4O5mXNntB1xq33B+zVgk/yT++FDPyY0xREdH2w4RQaidRqBwj0OHlTQN5EYKhkpJZNpvzJb06lquMSdou5fHmkUGdc8wf1TOYwgK8sLZSU1guOF+9EaKBtheZA0BOkqJ95SYc0CvGvm9rVyEs6TvHd11e5nlpmCEFIYAl98qNzNR8iOh1GhbBV9PL8fNSAO0vD8Xj7fbbLIFGOUbD4pSWburAuE/RKfG5upJvFy377vg8hH1V/LINqgz5pQKVXLRzEuJV7syNS6djIwMG2Eb6+eMxtXEABvVYm1LLrtv/UaANJ3dOqNFI2U6OLfKHbfYYrPjD+Mj2bmnqYgVY13wWnYSgaG/e2iekTPHDWdnZ0NwQqFQoDBdG+8rdPfN7xnvO+MsBZJa9S+e583HQzFi+MClqxK/UKNqcl/nCCZ7SZYMoM1Cf+Jm+gxUCidGzk7i1L3Bc3h68wT9gqLNpEw3O6k7ugx/pYRf9F6qTPq0phf0kSGAS+tx2+LPVv3Q4tkQLnTg0nUS0b9uZOPGjWxMSmCOrxvzcpvQ6MClG1HZt7h7927vUFtHs8GJnE212L7y1XFeN6bMy2uWLZZ1UrszFFfFCJSLjvHi/hl2Jccyw1ss3CpwdvcjJGoVK2Z5I03eSpUh3Z4HOwlxM9tt6yTuQ2q7H6jcFWNWpV8Qgo+zG+NnziFopBNOngGEC7XSRWvIPf6bQXKpob0qlUmu08i4K5egGqX2g237PdSXHTSPUSUP6dC8onh9GEvSCym9UExGdDBzfs3hzIULXJCH83tZE7aYbJ0GVA/3M0NQLzzK8+IVeOoWWUHTUE5etlFtu+9z9oGL6IbdvurTAC7780dgcvYzAL7FIjkb7V/7tpAl7k6MXnueD516m0trtdg7t9IJnpJGdXcH5+NHMX3nfYOtZafOGZDk6se8TQXUvDHzZvp0v1GTEU5I4hmrBcAuWm8dZ+viICYsOW62rbXIrOPCQQEHBX40CgweXLY/pywzGn93X6J2X6Myczqq0GT2/jqdkd5zSDuayYIx04iY7a3zPiZkIJ2dbeRFK3EO38M9k7fV3uAyPcSZ6Zl3zWo/OgDjizq+tE+X6SZwadRN0zRwJEqNekEezwVu07yipqSISw/7cO/dzyAdmHaLT42P+bMkjbhNJdx7+0kGLg8R5fwLM3ZU09rWSvWu2Tj/4s2cFStZtWoVazIu8rLrCdnhI4k4WM+n8vX4jV5J8bNSEsZOJu1WB59K1+Azdh2XDRN898cWGoQKUf1FkgMlxq8r4am4rrtAzu5TVNcbVIzEPV14TF6MCnVsAY+fP6fhRVsvlUQhOdbtr2gAl78ExbHHZNdkORFmn6oyqPjqFwA6H2URrhzDukuGJdeeB+ya7kZwhlDDMqvFCnAppGwCeMvBZeudAyz0/AWVp4pfDJJLsYiwa6bMVk/IlSw8tPYNLj9VphAkqVhwuFHWRnp3va+PTvFriBql3yJ2V+q3S/hcsZGJ7gEE+qmYf/A+9Q9qKUmahCrmBG9bazh30uCtMHcz4V7OeM7YwAG55+KiMu4LSdQA2ouFGW1HCStVEpF5LTpGsL+tXD59MrqK7F020x1NI8djRiOp3HEzgEu6myg/VUGLcb1C+GC2Apcf60rJOVxBmw2QpXku1D+9WWc2YLRDcvmQG7ujCJ0eQoCXM67LDZ4OdeBSTWzhiz48AzdTvjkQNzvBZceFBNRSFPly97vaVg4vUDJ2Y4Vt6Rbw5UEB8ZPcUAVvpOy7nkdN1LWI9CVJFLZZ411nkmWl0q4x0Fb7uoR4XwkPtTvSsEkuPZmdlE1OTk7fYf8OYgOU3wGXXTwtWMZYFzeC42IJkZQsPPqK95UZxCXmceuNrBFZUMP2hab5EJGSKzFmTzS2X9Td7aapNJkQDydUM3djjSP0rwxBcmk1bvfXD/vJ5IAe6cDlqDVmm0udgzp3GbjsRyvH2SwZGwi41DTlEiGpLRaDOu9nEe6hxN1dieuiYzRd3kpEVCwRE1xQLzvOS51wurfNZfftdCa7zWKfwanX0NvuF+rL88nLyzOEXHasDELl5EHI2izz/cMnuXYhzQAuv+rsv6WxcZy2qDSj5HKwbb+La+nhhEybygQvF8SC4ntZ7X6ryWCGypOIrGobJjmttH0yAF3dgoea6IJWvp01g8ueh4WkLJ6Ch1sgUWsTSUy0DAmRE5DU01ialC9T35dlwBg1gEtpZjIF8rlHFi+qfKEHdcM0DyEWHE+vwMddhavHSCatLuZewWKswWVN2Qb8ZmZQ1XSPfRHuzN17j5aXL2l9307P52fUNYqFqW7uHtlA/KpVOh5I8EG6EBdHnDGuO69h5+U2w4KIBpvO2I00cZwdFHBQ4IeiwCDB5VcqNwfg7r+YnVea6ZJvRdLzkZqc5USlXuJ+/TOe5M5DNW0HtWIhq/s2Sf5OTEy+JAMvenDp5BFK3PpYVu85wW/TRuA8cpzO26reS+pUJnpJOI/Uq6vo701j2oxVHNMhR9CDS6MHWS3vLiYyznUq22oMqn1d10gep2Rm1iPbXs10g7TE3O1lZpW38nzWTDC6eNfyrjyJAElNaMZ1s+OcpznMG/ELs/fco7W5nM2Bv/CPf45n1a5ssuKDcZ2ZRXXZBvx9V3P+/QfOx3vjHXeGO4fmM2Z+Hi963nNmhRd+G65YSV20vC9bz3hpApsr9WXorD1AlK8bvpHbuNwkW9HVvuV4tBteiWW97R9kzVFsgfGvd5ft2orEJJlta+VZ7nzc1SsoNvhQ0b45QYzKi4SLYiKxBJciOSHZNYPLexxf4c0vI6PZnjwdJxm43BbirFMPNbKv9oBL7fsrOsCtcOpHLVDzjpojCUxVuzFhSRaVrwyrqJpm8qM8mZCUT+Zsd4NabDe1O6bhLmM0OurPsnGGGq/wbVy1hb50hRQ2uva1l4ich+Z6+XqaZUqJRQUyqeLXr+bFCoMjHyEBFvXV/6GhSWz1IE3k/2PvXfxqSvv////o870/n1uHfVIRlYiIiDQijUgkEok0jUTTIBJpnAbRRGQiImJCQw45RJRyzPnT6W5/9uP3/D2utU9r7/bOrrYZ7nutx2PtddhrXWtdr+ta13W9rvdpzba1hGqNkkvzPV13KjhUUY+YRJaTy57n1ykvvyazB+ymZtMcIsxeicOC0Hmq8J8w1eSleAZJe06T75LNZRdn0/zRysmlrwcqn5GMHOl49dN6oXKJXBp4eWg+qmG+jJV5kg0Pn0SgdhiqUaGEh0ewYMd1i+qVwKLrzm7m+XszKiaPGmflaQatn60zctnbsJ1I9VgyL5q/yW7u7VnA5Ll51Lx+S3XmeFTBKWzPikDjDnKpf83D+ts0OwseaclDNy8b62kwi8Ms5807PTSVpTJR7c2YxGIePDY6RZt/8CmN5ZlE+XujGhNLzslGm8kqw4s7XDzvQAVYeAUu/YGpKhXRuaes7aidKUL11Ueyts7Aq0t72FXpJEyUS5JL93yHZlSGsjWTy1NmjfI+5FLHMovphVBT1TlU+R0Iuew6v5ZA4XTLbDtheEpxvC8+322haHUw2gWHTJNITmwuZaFIui9lEaKNZa9E6j64t+7qX1JblMh4rT/Rmy70mdiSq8Ua3tSSN3skwyNyuGQx/xCTxO6o+12cXT0KrazNN7w4S0aYSuZZ2t4BkRchWZekyaueazmEjUjgyHMDnTJyKeqN5ARo1CoqHWiWi2t9LN9/P7VswGqxbqj/hpeUJk0nLi6MwOQ8NswIJSk5Bl1IHBnZ2WQlTcUvIo/akkS0HvbYGKXj1qa1lzulOaz78Ud+dLJmJkXg4+FDQslzmbS9H0yUvxQEFAS+KQQGSS7B8K6Nto9iar6DK7mzCE8rs5GUmFHoubGJcO1MCu720nt3OxHeASw90sSLF01cOpzL6oTvCPX15P/9v3+iCZpB8q5DrJvkScjiLfx64ABHjx7l6NEScr8fgS46mxLpWJw7ytGyKhreGcUD+id7iNEEsvZ8F3ysIWuiCr/vt1N93aR+VHeQ5EAV4et+50+5SlL9fZ6LjkAil8PwUstVaLWoPL1k8cPec3lDOB6eE1l9/J6RENzZyZxhw4gpvMPtXxfi9z//4B/D5lDyxoAYIAyPWMKSUG+8x0azJHEOE3zC2FBRTKK/F4FRSSQvmc14nynk/mkemBqR62kqJXmcCv+EYhs1kt62C2ybH4xf7G7qKnJYKFSKYqbg761ldpELng+7a8ka74Fn3L5+41xayWUDBxbq0MYdkNRexdu9Ob6MkcPNLtj7kst//etfMnJ5l9KUKZIqWO2mGTbkUkioI7Zct0gfP0sue59Qtnwc3lodWi/n5NJIAkYSW1AnI1Dizbuozc+m9MkDCqMdkEvDO26XZDDT38vhIMMrdAO15mIaQH1Ra6aR84fJ1la6T82iUqtUUoR8EerHZszFfp84qeYPymYrwgMEE7qmktbajUy0IZfvOJUaiHqG0V7XSi4NvCpfToAmkm23zLaceh5XF7PfJF3YkzmL4d6hJG0zSxt+pexKrYsOfRyQSz8/VlhG2zYZkGa5/8yd7KLk0sDbG8fZu3s3ux2tRTnMD/RmUo5ZfVs86x0nU/zxHreGM84859i/kpPjnnsFRKl8mJ25g83rUlkUM40J83+h8c0xknQiTI+Qgxh4fSGbCJ2KkNRyWvU91G2KZfnRJ9zaNn0I5FJP8565uEtdXqhCNxQnM0HtTWD8Hm5+NE3QqYXk0jjg6245R978YFSePoSv2EedyTtR56mVjHAwwOxPjU/+n8qJN00Be9eZNPxdCVFkdozixu/QSbEP6HRX1RoC/VM57Yhcdp4mdaRcwugOcikmx6aiGp3GWfMz6aGuIIPdDR+4kDkwcvn++DL8tIv5TQrp4666Cx0PT7Epbixqj2F4+k1ktszrd1xCvuRpWU4uBWnmKRkAACAASURBVOiGtnJSgjWEb7oiTVK7r+7bkkvD26vkz/HH77vNXHzaLpl2iMk94/qKOwcSCPAOZuVJ8V0YeOEknI8qqoDb1T8yzstDpkovU5H38pCpxfdTrQZMLl0bt/TXD+mf7CNu8g8UbRBxLs/w/vVLHhcvRDc+nqzcXHKWT5fIpTkeqr6xkGhfV23X7fJqaOVYUgCaaT9jnvu3u0I5VBBQEPjGERgkuezhdvEPrBCeYZPnMUnnxYjweJabPcWmrODHIybnAlJDqWHa5jqu50WgDl7L0SfCZvER++N16MbOZH5kkKQueUzYXD4+QWqgFzGFDdKAW6gNGqVj/avF9t4rYKYmlOzabiSiabKlkw9qHO6bVQmlQYoThz5yF+8fa8mYMIz/CVrG4TtttF3fStQ/PZn3y2V2zNERujCeSV4xVnIZmcOvOzLJyt1K5txR+MTu43HnbY5szCI3v5DsuEB0MXuMqrumyqRvOc7KEDWaSWuoaDXL9WQ1rec5LW3d9NwuISd7Iz9t2kLBgWqeOJgtld1l3JV1XC86O21IjZnc2GzbbnF0zWRGaEJI/KWO9t42ShaNYPiCQxh9ovQll+JBz06ttniLbbtzmzttT7nqgFyG/VDO4+ZmSWWy+dRaxlnigNmrxX7iWt5MfFTjWL5/G/OFU4dTJ1gzTuax0uyVb5QvKg9vdP52/0lBsDtB39iXXC7cy4kfJ6IbGcHCuePRxe6m8d173r83rq/KVzJahLCwIZeu1ZeccBFEPYOqdoPRnlGlZekJW68OH2XSy8878LGWalfDVa6/NSBsEeXk0tB6mAQ/H+IOtEjk3UouxfT6dTaFqwlMsXOWISWr58nuGFReIaRWtFlnlT9rc2me2HBELlWExCTbqkhZ1KOSWTDFT+Z0pH+bS2vOHez1XCNnokryxGux+NE/YOd3KjQJJTYqcA7udnDqPdcOZJGaGEvkxEB03iLWpQceqhGERMSyZPUGth+9zpvuejZPVTM+6xIvr+YTI6Skcb9gNl00vG3nraGXO0Mil9D9spF608TY9XNHOVhWzTXLRNlVCuO0qGK2UmM5Z2vXV3/rMZIQqKeFqtw5jPJSEZL4K7eFAoIYzJvCOZnJpXRS/4I/di4iROOBJmQh+dVP6dF309lptoeXb99Rsz4U72EeqKbmUvtW/p91v7Or11qv6KG+aDnJeWelOJb65/VUnZbZu1X8YpxkW5jPSbkNXGUdLaKQB9Buu/IdGpEY/K9EvL20jDC3RQGj8BWel/c009suND7GkCHFthDPGCC51L+kruICwuTbspgkuyOTy7ENziMmXbtdJJebOFyYQmJSItFj1aiEppFp3mnodbed+n1LmDhcfDveTFm1l1LZBPFvm+fjr0vieKeIQGTrLVbYezYWzkI7YT3nm91U9yXgrOTyZVs1udH+aMPSqXhQR8mecu5aNAIMtF/eRJSfhrAfzlokrfr3z4xmK48ecW/fQnwicqhufERT61s+ivAlo/5qyeVQ+6EuruaEE7qumtqfBbk8S5eYJDtsVos18LbhT24++2DSCNHzZG8sOt+pbKi2TpJa6qT9zqc7HEpLYkNlC73oeVq2jCB1GFk1Ltxrn5ZyrCCgIPBNIDBIctnLo8oituVlEhvojV/UKjabPMduzcsgJkBF+M9m1TSj2qHaP4ywABUTs//gfW+vJKV5dPcuj1/Y2Vze3cVcb3+S9/3GltWppKenk52dRdK04WgmLyYr2+SFb8NOzsjsMSR1Ho3JVsTQQ8cHKzGQCMLrM6wNVjMj7zpvTIRBOv/hE92iH3Z1kAI8PrmWqLnZHKtv42ntz0T8U83CX5t4cu0CF05nE66aayWXM4VHVWH0dZ6MkHGsqbJ6i6XjMlmhgSwvtwsobHjOuaLt7N6cxAyzqqIr28hMKmxHGH0roYxcijGlkJrZOCiSxVc0k8z29iYaDq8kTDecsAWxhKpETMhXpgGiY3L56eKPFnJpTMcRufynFIbmH//4h9U7sFkigT25FJ1SBimF1/nwsph4QS7PNlJbfpzjx23Xsr2phKmCWLz9mO1/J85Q/9LgmFwmHKH1wRXqWrskCZFuRhZlMg/DZ/LnM3Iw5BJ4X7ORuMQCLr0woH+8mzkqP1baSfLM0ktXHPj0LVTsyGUvDQUz0YxO4aRJ2mRDLjHw9HACfpooCmwc44gK8ZwjCT54envj7TebgutmTx+ueot1RC51zFp3wOKy3za4+CG2LAxy4NBHRcS6Y1RVneVIehjqiK3UNlzmXFUVVY7Wc9XcbqkmM1hFdJEsjiRdPL9fT/2jdouE3BF+js91U5M9jfERsSSl57B9azJhKn9WVVpERKbbPlGZNhrVuKmE+3kz+vud1Jk0KqzpDp1cWtMSIYpmowlYRaWpeISDMOF91t6OzHqPca+z6TQ/xwah8hxBVHalkaCZLnJILqX/9LysLSQhRI1XYArlTpzvGJ6XkRygIjRlLXEj/ZhTeNuqDm7/Iubj3ga2R6rwMcWcNZ+2bF1Si3VhcO3id2h57iB33pYsQjd+FUcu11JbK9bfWR+hk8hllyBP2iiZba7r5PJ9Qxnr5wSiGr3GGAtWej8Dz48nE+DhTeS2Ow7sjV0ll5upKv+Z5UuXsnxNLiVXG2l+Lq/jQ6u7n+oPsnnXAdZNN+Ig58aSvbJTcmmSZGsXctgSvWrwdd9apGZyeYia/CgCI9dz5mkvXQ2HSQnzQRcSz+bT97hbkUWkn5qQpcXcczJx61AtVhdOoo23YOOYJSthkkxzwfo2ffbs+ug+/8tPDGDc4rwfekv5yhg2X/8kOeXpQy4/XWb9xNEsLjGprvfcYut0FR4eVi0H8yvpW2o4Wv4nbV0GPlw9QM6W49zrapPiR/uqQ6TYvHeqdpGz+zLvDHqe1+wgq/APp+GYzOkqWwUBBYFvC4FBkkuRSQNtx5cTpJpE9mXT1Lc0K5VM8Ih57DNGcpfQMDwtZqGfBx4+cfzabOxahLMSI+mwJZePT6QS5DWTLSdzme7hy9T4Zaxdu9boeU943xPr6lhC1JPJtbhLN/CyOB6t33LKza9iXw4u2Vy6NkixvvsLWqrXM+mfviRJqr4vaLm4gWnq7+3IpZ7mA/MZFZVHdW01f0rOSAy8KltGwJQcahprqa43kzXzixs7dO2UtZRIJKec7JkaQlL2cVbYMFVuYa4ugMRdxrAIZ39JIkgbT7GTgZ85VZx0XHLJmZlUmrdv3wodKQMvqjKY5O2Bh28c+x6aRXiOyaVQcR3jPZ2fLj01lbMjcunFxDWl1Fy+zP37943OiZqeI2lb9yGXlhxgeGUil05CMUhqsdqJbLxqVvu03ivtOZJcCvsb/RsePXzB4z1z0fiHMTs2lljzGhGEto9arGv1Rf50oRoeqQok/ZztaEXf/pDaP+po/mBU85bf48q+jeTywzkyxqkI23jFMri3JZfCw0+1dM3YtVXWECDCpKnxF2J0WuYUVLBj7ghUISs4ISZxhiS59GHhL9f6eseUJGx1HF093oFarCceXipUKhUqr2F4RWzmQFYoGnHscB3JyrJyUkeomH/Ias/qCnauXuPM5hL9C85lhuHtoWL8skPcMRE+/eOTFBSc4LZENIc2QLd5x94G8iPVBKyqlNkuGsmlhxOP0qo5v/C4p52z6eNR+UfxY9l9GztKkb5zcml8uv55LZW1z2RSR9lb9T6hdGkw3v6LONLcScOuGHy1k8mobOuX1OubfmGOWseCgzIpuSxZ3Egu5ck6+w7FNeJbrL9xZxDfYi8N+ZHovt/vwBuxnse7Y9AGrqHKwttcIJfPmji7NYHxWg/UIQvYfPohZp0HQ9tJVo7zQuPri0o9iTUV9narrpLLPMzqjiL/PfWbmaoNYZ3FhtgNdVdqP9SMmBRtbVNF2zojGK3WmeSyl0YxieKbTLl5EmWwdV/OaDGTyyO0d7+hXd7mfmjgt1WT0Xp44Ok1kqisCprMXZ1UgT5yr+ow+3ZtZ3NOFmtiQ1D5jCM8PJSgwEQOlGcS4hNFemFfR1s7V0Wg/SI2l0Pvhz41P+aFXjh46iu5bO14xOElgahC13Ppk56npUsIHBNPwszhRhV6/VNu1D7grV5P465ZqEcmU/5Gz/ODcWhGrzZOhhja+SMvGj+vAJJKW9DrW7l+6RZ3TqxivCqQRYca7SZHOmiqKWX/r2Vc6zdWkfyrVvYVBBQEvhYEhkQu22+WsXnpNPz9xvN9RhEnSjcSNWI0C/bdlzUUPTT9tpRgL+HCP4jEYmMjotfrHZDLFs5mhuI5IZPTlzYx3WsyGy628OHDBxu8JHKhk5PLDqrWBKKeVUh9WSpjLSpJcrXIkei8hGMR26DeAQEBBIZmUtUqHLS41kjLyeWTitUE/3M0K8oeS/lxSC4//MH6SWNYcfIBpYn+RvfdvcKD7GjiDz2h5eACRkbtMEo4LTk1dui66EKkGNKGFxxaoGPKz38aVVM6y0n2HWeJ92e0Vxw8uRSPFWFfzIRSvpXw737Ib8vGohoxhYgJWlRBcWy/LAbxRnKpMQVbbm01xvcSKq7B6u/IvdzqmFy+eMqDW9e59aBF+l9IkW0Xe8ml9V+3k8vNU9FFZ5KXNIkJGVU07pmLj138QWELFjBIyaX1zYXqVw5hqhCyLstHLMK1/VSGqeI4aIwyLb/FpX0rueymad88fHQx7JZN8PQhl/Rye9sM1L4JHDZ7TzW8pCI1GG/hzVhIWVuOkzJWhd/sAm68N0ouQzJO02wqY6msmytIH6fhO1O4ISFBq0y1d+jjyfDAEMaPH+9wDfZT9evQ59G+eMbOK+K+RdfVCSQfSklUa1l63Dz8FlFW6tgRP5UZy4v7d//vJEn5aUfk8uODk+QKWzKVL746FZN/umYh9F1nVzNaM4/9kv64Gwbo0ssYeH1qldSeegUmUfLYPIFiips5t4BrDQ002K13H7cb241PT2hssZ3YMOfxc+TSfF2fbddDjq+Zgk4VQspxoxo2vU2UivZCF8aK4ttYNA1tbjbw9Nc4tJpY9pomHW3+FgdfiFw6/g7FA4fyLX6gfPlIgn9wEJNT38iuaC0jlh2Xqa86I5d6WvbGoPIMJDTUBw/vAKLXlZomKYwIGV5eJDfKF0//+ey708ChhAA8dRFkV8snKT9HLnu5WRDDuNhC5AoMHRUrGKGKZLsl1Jcb6q5ELrWEpx+k/ORJTprWE/kLGW0juZxDSvpcvouNZ6EIW6L2Iiil3KSSOsS6b65chtccTfJDs/Awry1zeXreNV6k+OelRPirGD4xkW1nHzvwTv+O8vRwpn0Xy8KlqaxZMBH1+KUUlp2m+kojzy/K1GL1XXx8+4q2liYa797i6o556IKXsqu8ipv9TQI7mQA2v77NdgCSS/l9juu/Lbls2ReLLjSWhHA/dCEziRgzkoTtRSSOGUX8gavsi/MxkksRYidoCrm1tymcpWbUigreYbAll+LhhtfUlhzlhphs+1jOMh8diaWt1G2LwkcbTla1WYOrk7qtM9B6+hI4Ss2wwGSOuxSXWJ5DZV9BQEHg70RgCOTS/Np62q8WEDvK6GLda2wiu2ufmgZYPTSfTGeyVkXI8kJ2Lh2LtyqEpF9vStISQVpeyNRij909QeqYYYgBbNMVK7kUREeQUfPSh1x+PMfaYBXhm67T0XyFClnnZe7ETp7YRvwoFaEr99p0buL/30//SesLQS498BsXLnmpnTp1KlOnTiRAI3foY3wDqxppG7cK56L6n1B+PGskSYJcRnjqGBs+lfCxvqhmbuNUYQz+kdu41aPnWcliRozP5MieBfjrIliRl0fO6tkEqoS9qGVKWxrkCButv5Jcitx1d3cbQ5bI1GM7n13h4NLxqHXhZJ59Tk/bOXK+G4GnLoy08odUrQ3E05HERBVN3nVzTFA7yaUsfTOR7e2Vs4c3/LZIi3bJMZl0xoi/W8ml8Ky40A8PDxVBc3M42fiRJy6TS9fqi7neCunvq9JEfL0j2HpLllfDcw7GeaOKdSTxsN7d356VXHbx9PJ+couqbZwZvS9NRGOJc2nC8WU9NTeemyaCenlSuoxgb19iiu6abGsMvK3JJlwj1MlPkB+lsqov25S3OaRMJw9KV0o22N4jo8k9/5Tu3kYq9+yhslGWX5uMGHh2uZii4/Wycv7E04Z6Gl+aiZPNDU4PugVx9w6WeW0VMTuPkODrgWfgas7KOKfTRPr5w0ouO+luu0Jx9jzGab3xj8qg+MYz/sybjsZnFvk3hPqEmMWPRjN+PX9I8wgDH6D33tnGdDspt+HlGdaGapj4QzG7EwLQjl/CrhrR3rqmFttP9j4ruex7r4G3t0vJih6FtyaU5Yfv2Q7GO+5yeHkoWk8dkxK3UnHvva3U0yC8N+tQzTJNoPV9gIvk0k3foXj+UL7Fzov8GOJLYql5kGzN0LvzPzBeFURapdzOzAm5/HSVn6aKb80Dv6mp7Lv6Uib9NfDm+n6SJ2nx8I0it8ZIJg3tF8mepsVz5Fx23jCL+ezJ5TtKF2vQJZYi+euxvp5sr4frm8JRBayWOQhyQ92VyKUrarFz2Vy8lbSUZSxLWU32rtPcN2XHLXXf8JrLW2bjr1ahHh5BVtVTXtfkkxARiNZTTcD0JHKKa2mTz/3J0LHftajF9jzjWNo0Jgb74e2pQqNV4eXhwTAPT7w1PowYFcgYfx2emkCmzEqj5LF1PGOfpjPtoj7XiRMSuXRX/ZeRS0MbxQt98PD0IyLtEPVve2m5UETqND/GJP3G4542DsQJm/7n6NtLSPCdQ0HZRiarxrCmSggDhDbZAtR+KVQ4aHelkDeaGcZ4xb2PKE4IwGvMKk4LM46ea2yY4MUsYd7QcYEfglUklNoKGBxioZxUEFAQ+GoQGAK51POh6TKlW1P5LkiDbkICeYeL2bxkCn6qsaRXPubaL4sZp1IRklTMXdHAfLrN/sVjUXn6Ep7yCycvXOL3inIKE4MYFpxK4cYZqL0j2fLHU54KcvnP/5Js8v7rv/4LG7s8MbD1Nksu9Tw5GI+fegbbzK7YHcHrklqsN1NXbGenOf5jwXriAs2hSIyOUIqzs0nPzJJsP9enLybc9x/8Y3QypY+MMSEFuZyhmcnm80abmyvXDrJ8tAfevqMY5aNB6+ePnyaQxWvTmb8wmbQff2Lbrr3kxI1izJqzfKSbht+L2LlzB9nCU2NIAj/tEHEo81gapiLw+ywKxPttTyVCM4LojALpfQsyY/BXhbEsbyc7Cw9QuGocXjYEoK/7cIcOjoYN45///Cf/7TWfogfPuFe1k9URPnj5TmfdaWGQb1re32Bf1mZOt3zi3NpANNHbqL3/gAcPjGtDmQgFE03h/R6T06DPkcsWrhbnsCkvnx2FhRTkLGaiVsWUXJOk1vxc0W05UIv92HCWoyeruHStjgu/LCZQNY0tUvwb2Y3mXblarP4JR5IimJ9XTZuUOedeOft6i3WtvuRs3kp+wQ62/5zGrABPPEMyuSjvcDsqSR2pYs6e/uN2ml/f0dZKLs0lZOB98x2jA5i6avYkBaMak4HFl4hNIt2SHXG4zovAhIM02nC6Tu6eO8vdd0bJ5bjVx2kwlbFU1g3HWBUsJJe3qN8XT5AqmCWHr1OTH8Mobz8mzktl4/bdHDhcwm+lpRwtK+N4eTknT5ZzvOwopSVHKD50gF/37WH3nmPUuezRtZe7xZmkrl3PT5u3kZ+3joWhWjwCV3HaZuRs4G1jHfXNzvTlbYDoe/DhNmePV3Kh9ho1+5YSrAom88JH7v8aT0joAjaU/CmFepFu/HiVLTN98A6cR25pOZtmD8cv+QRGOuHCAF0i4oXG9mfHNrLixqHSzKHIJIE2vL1GQewotOHrufDGgOHNNYoWj5fIW3DkAqLHe+M9JZn8XXKVvF0UFu6gYHs+W/P2cF5mp26fWdcll720N5ymcHU0QWpPhoctpahWToBkKYvwE78kM9nHEw9vf8IXZ1F04jrPe0Hfsp95WhUReSIQu5EIDajNUsWw53oxCWo3fYfitYfwLb6tTCPYL4EjdtoHhjcXyJqsliYK5RJCpw59DM+oSJtO9PoKmmRCZn17PaUbvidY5YFmQhJ7r9vGbO5pPERCgCdewcspk8rZnlz2cGPzVFTq8SzI2sYOcz9n2RawJTOeUNEOpFbIJKxDr7tGtXonk1MaZ2qx1nrknrr/jmvbvsNPNZ4VZTepzo3E13skk2dHEBwwjYTM7ewrPkJJ6THKTpRTXn6csqOllBwu5uCB/ezd8wtFRWVclynZWMhlbzdP6qo4X1NLXf0d7j9q4dmrd3T0WESjUtgSayiSbi5lhQy6j5b6buGfoElMirur/svIpXDoc3EnPx9pkNTnu5p+58cZfoyM3kqt5BXsPWVJfgTEZLJpZQR+49aQvzYE1ZRczI7vu2uzmeDlw9RlP9nG1N7+E8nTfCU7eovjqBdXJJV7iXIbWimO16ENSyRzbSxjvELZeM2mU7JWDGVPQUBB4KtEYJDk8i1nMiag9fTCb9ICMvdU89gyWO7h+d0Gru2Nw8/bn+82VNIsbxd6mqn8KYbgsDR+yZmJx3//N//1/7yZmH6QX1MmMjnjdx69eGEkl14TST9Wy9WrV6W1sbGR5uZmntwqJNasFqt/SkniaAKTy5DHVe+D9ufI5bvjrAgexxqLD3khPGygMDaYWdtuGCU5PfXkzwpk+HBTuBKfkQRPX8yW3+/QZpbEtTygrfk5HZY+pYPGP85S8+ddWt50YuADVTkLSCt5YCVqwtlERQqj/IWtQgeXdiSzZMmSwa9L17P3+HF+kwVdLhnofmkNTT1d3N45hzHhKzlQLxRdHC1Gz8GrCqptjPJ775eyflUeZ54b+PTpEy9efI5ctnFteyxBo0cxevRoAoNDiVq2k0sO1IcckcvOU6mMNIdH8NAQnLCPBmezz3JyKbJk0MvyZiSXn1WLHUB9GTXKH39/f/xHBxMWk8a+a29kz4Oe67mEqWZRZIrZ6gjlz53rSy57uVcQZQldIWago7Ze7WNnJ6VreE11dgTjvi/gWh9HNKYn6xvZs2AcUXnyMB9CbfEam2eOY+G++zQeSGRubq2JTHXTWlvMz6sSmD0jnLCJoYwPGcfY4DEEBQYSEBhIYGAQY4KDCR47lnEhIYQuKLJRz+s/zwZajyQzIXgMgYEBBASOY0psGnuu9pUa9Z/OZ/7tPEPaaFPgew9PfKbnckkaXOrpdSB80LdWkRsbJIVc8NCEkWXxpth3gF6ZHsLYpSXWdktqb4IIDApmbEgoU6LiyTh4w2gTa3gjhZ3RhCzl8AMZ4+Ajj6oPkZeZwqK4GKK/iyJyxnQpZulUEQt0yhSmTJ7M5MmTCZ+dS42lne6bb9fIpYFn5SsktVxVwExSC6t41E+a5qd0Nl9kT8ZcQoaPYNbmy5JU/f2ZTEJ9w8iRbKMNvLp9ntNyj7Cf26+s5VGr6+32575D8a6D/xbfcip1DGPTTtu0g0KC/eTAAvz8oimol2umiKc5kVyKv2zaJOEQ7hLrw1QMUwczN+s3bspjP5pBxkB7zRZWbjQ7arInlyKE2A0OZcYTNTWMsLBJTJokW8PCmBIxm8SsQ/xpM8kzxLor3s8kuYwuuMlzc18p+vlT6QTbqMXGsq/FrqdxW93X0/hLAvN33DC1gx9prNpDdko8c2ZOZ1r4ZMJCJxAyNlhqowJFGxUUxJgxYwg2tVPj5xUin8O2kktLITjdEddayaWB53Unh95Hv3Bn/ZeTS1k2DK85kz6JkAWFXJXViw/XD5CRlMDCRSlsOtVMb1crDQ9k9u6GN1wvziY5fp6tnW1sHIlp26hotP8erM/Ut11k56o4oucsIuvIbRS5pRUbZU9B4FtAYJDkEjruVnP6WovJ+YqDrHY/5trVJxb7I9sr9HR86kL/vpX7DXe59Od9WkSH87SJpidGCeCLx/XUnLnAjSbT8YsXkldTKZ1eEUi5gacmYYSh/R732hyM9OQP1TdT/WsRvw1x8CkC25vVOB1tRYzCQS0fG7hwvoHXZsHToBL5AjfpO/jkvA9w6YEinMyrV694fLOGyvPXuN9mLVN7DIXK8WcXqfztgsgbuvn07g2vX73k9btOmRqZo9S6eP7gplO1SxHy4WbjK5NqqPF+w7sn3G5okaluOkp3cOd6m2ooLa+zuLofTCr61hoOFZVaYhGKNAzvW7jXcIfbtxt48PS9zWRGn2foO+hwRsb7XOzkRG833Z/5DJ3c+RWf7ubdsxaeND3kYdMzPriUv05ePLhFQ6uttLTz2T3qG546JvguIKBvredGi3ymzoWbBnLJh3rKdhVx4pbte/dJwvCcuqrLPPnMZX3uExzj/TubPkP/4R1yfyqO7vkrzw3lWzS8ue+4H9I/4/ZtR46Nenn9sJ47LXbqwg4zbOBNfTU1TQMB3cD7ljvUN77q/9t3+Dzbk0OtuyKc2PP7os21bWQMH1poqH9kJOSfntJQ34gjbXi31f2ebpk/CNs8DubI8KaJm/efOxnn2KYoXTuE7982tS9z9Kn1LrefOJhI7v5Ex9c2NvkyECipKggoCLgBgUGTSzc825KECL9gTzKcHQ8kBqDlAW7cESEjnL2bOG/0rOrGB/6bJOXMWZAjLIXdp7IoCCgIKAgoCCgIKAgoCCgIKAgoCHxbCHwV5FJIA4VkyxHRsD/X3t7+tyJs9XLrWPo22DiFf2um/oKHf0tl/BfAoTxCQUBBQEFAQUBBQEFAQUBBQEHg3w6Br4JcClQ7OztdIpeCbP6dki0hObUnvPLjf/3rX/92lcRdGerq6uoXOzmO4lplURBQEFAQUBBQEFAQUBBQEFAQUBD4dhD4asilgOz169cukQ9x3d+1fI4EC/tCZXGOgJA8y0mks31RxkLaqSwKAgoCCgIKAgoCCgIKAgoCCgIKAt8GAl8VuRyIZEuQvL9j+fjxPOnx4gAAIABJREFUo1Ny9Her7P4deAz0mZ+T/MrJprDTVBYFAQUBBQEFAQUBBQEFAQUBBQEFgW8Dga+KXArIXJVsCRvNv0OyJbyZygmQfF8QT2X5PALC6ZEcN2f7oowVSfDn8VSuUBBQEFAQUBBQEFAQUBBQEFAQ+BoQ+OrI5dcs2RJkVoQacUaGFDtB16r055wiyfEVMTKVRUFAQUBBQEFAQUBBQEFAQUBBQEHg60fgqyOXArL+pINy4iGI3l8p2focKRJhSpTFNQQGUsYKrq5hqlylIKAgoCCgIKAgoCCgIKAgoCDwdyLwVZJL4XFVTiL72/8rJVv92YQKsqQsriPQH5b25f1XlrHrOVCuVBBQEFAQUBBQEFAQUBBQEFAQUBCQI/BVkkvxgu/evXOJYArp5V8l2erPmc/f5WBIXpjf0v7nVIzlBPPvsq/9lvBU3lVBQEFAQUBBQEFAQUBBQEFAQeDvRuCrJZefU0GVk48PHz78JTj2p8r5VxHcvySjf9FDRLnJy7G//b8ztulfBIfyGAUBBQEFAQUBBQEFAQUBBQEFgW8aga+WXApU379/7xL5ENLL//u///viBeHMmY+iEjs46D8XM1RONoUkW1kUBBQEFAQUBBQEFAQUBBQEFAQUBL5eBL5qcikIozNCJyceYl8Q0S+59CdJVVRiB4e8kEbal6OzY6EaqywKAgoCCgIKAgoCCgIKAgoCCgIKAl8vAl81uRSw9WfnaE9EBAH8UoszBzSC/P6VHmu/VP7+jnQHEnZGlPVfIZ3+O3BQnqkgoCCgIKAgoCCgIKAgoCCgIPDvgMBXTy6FLaOr0su3b99+sTJxpqL7pSWmXyxDX0HC//u//+uy5FKQS8Xu8isoNOUVFAQUBBQEFAQUBBQEFAQUBBQEnCDw1ZNL8d4iFIW9lNLZsQhj4u6lP8+mQvqmLANHQGD6+vVrl8tVlLeifjxwnJU7FAQUBBQEFAQUBBQEFAQUBBQE/ioEvglyKdROhc2dM0IpP/8lnOs4sw0U5EhZBofAQDzFmsu3o6NjcA9T7lIQUBBQEFAQUBBQEFAQUBBQEFAQ+OIIfBPkUqAgiIWZZHxu6271SWcqsYokbeD1U9jFCvXlz5Who/+FBFtZFAQUBBQEFAQUBBQEFAQUBBQEFAS+TgS+GXIp1ChdlV62t7e7DW1nKrHiXcR/yuIaAoJUinAijkijq+cUyaVrWCtXKQgoCCgIKAgoCCgIKAgoCCgI/B0IfDPkUoDjzGOrI3IirnXH4syjqXBGoyyfR8AdpNJcvu6WSH/+7ZUrFAQUBBQEFAQUBBQEFAQUBBQEFARcReCbIpciU646gRHXuUOy6EglVnivFV5slcU5Ar29vUOWVJpJpXn7JUPNOM+J8o+CgIKAgoCCgIKAgoCCgIKAgoCCgCsIfHPk0plzHTMBkW+HqkbpTCVWOKNRFscICG+9Q1V/lZeheV8QendMFjh+a+WsgoCCgIKAgoCCgIKAgoCCgIKAgsBQEfjmyKXIsPAIayYd/W2HahfpTCVWkaD1rXaC9LtaLv2VmbP/BGFVFgUBBQEFAQUBBQEFAQUBBQEFAQWBrxeBb5JcCumYMxJif34otpGOVGIVkmOtzCJEjJAOu6qqbF82Azl2lw2t9e2VPQUBBQEFAQUBBQEFAQUBBQEFAQUBdyLwTZJLAYCr4SyEOqUgQQNdhE2luFdOgMTx//3f/w00qX+76wUGHz9+7IOPHCt37g+2DP/tgFcypCCgIKAgoCCgIKAgoCCgIKAg8BUj8M2SS+EwxlUCI4jQQBdxj336g0lnoM/9mq8XmDuS5trj5O7j/3Tcv+Y6obybgoCCgIKAgoCCgIKAgoCCgIKAGYFvllyKDLhKdAYqcXQmtRyMBNQM9Le8/dL2lP2RUVF2imfeb7n2KO+uIKAgoCCgIKAgoCCgIKAg8J+CwDdNLoV6Zn/ERP7fQDy8fvr0qU+6Q/U8+61VKOGZdSD2lIIEtre3S4RfYC0wFPauIg2xFdJHMRkwUKc/Ih1lURBQEFAQUBBQEFAQUBBQEFAQUBD4+hH4psmlgFcQGTmJ7G/fFS+vQjopiJI8HXfFzPz6q4P1DQUhlGMg3zeTSHGNkGq6gqs1ZaSQIsITryCc9ljLn/OfiLscJ2VfQUBBQEFAQUBBQEFAQUBBQEHgW0LgmyeXjlRY5QRFvu+Kp1dHpOo/0VOpkFyKUC4CP7EVJF4QSXerBovyczZBILwCK4uCgIKAgoCCgIKAgoCCgIKAgoCCwLeBwDdPLgXMjtRY5aRSvi+c0jhb5ITKfI9Q4/xPXQRWA5VKDhYrQVzlUkxFHXawSCr3KQgoCCgIKAgoCCgIKAgoCCgI/D0I/FuQS0eqrGZyaL/tjywK+0D59YLsKKFH/rqKKSSVAnNRRoLoK4uCgIKAgoCCgIKAgoCCgIKAgoCCwLeDwJchlz1/UpScwE+VrzEMFoue5/x54TrPXUxAqLM+vlpBxbUnNgRRThbN+8Lez35xJLUcqhOfzheN3Hn4km77h9HDg6oSTlxtoe+bWC/Wtz/mzr1WBh5IxZrGN7P3qYnLfzygvatrAKq3n7hVXkRxTSt6c0YN77h+rIiSKy9dq3uGN5zfvoasvZd55WJdMz/qq9v23qOi6ADVLRY0/qZX1PP46A8kZJXTKsO09/ZhNuSWcvNvrdCfaLt/mztP3rpWP2QIdj+4QMXlRt72UX7Q0/zHSapuPKVDdr3tbi+NR9aSXFTX7zdve88AjnqaqNpfyL6qR18mfZdf5RNNf1zhYd9Gz+UU3HPh4MvZ+vyPXCr6gZziOt7I6rH1f2d7X3P9d/bO39L5TzRUV3Kt+YPpGzbw5tYFLj8yH7uWl6F9z06e4Y6xj5OkP3fanfkZytjFreOWIfdpel5cPciWfZd55wDA7mt7SM/cR62jPx1cD4NtExwm5p6Thg+03L3NnUevhtb2u6PuDnDcLgDobq6jrqW/kfAgYeq4SF5CPFknnlrHh4NMasi3/bth6wIgX4ZcdlWxJkDD9/tbBzyAM76zgRcnlhPoHUhyWZtLafx/vc0UzNHiETifggtNvHjRxp3KAxTu3MlOu3XXrl2UlJSY1lKqGzslj6Zm8im2b9++dQE+u0sMbVT9vIwfyprR08udbdPRRRfSqIeuuwdIW7qZc2166L1JXoSaCdl/OCCe5jQNvD68EF1IFpelgdpH7laVyt7b/P5229+OU9vSw5vq7aSmpJAyyHXFuhIa+gyize820G0PTSfXk5RxlCaHaep5cmABfrrvKLg9gFGp4QWHFuiYlHPN2qjqH/PLHB3Tt93B4aPsXl3f/Ctxw1WE//ynNQ27a/oeGnhdf4pSSx2yKwNXzpdedP8AvPM4Sbpx/FjTF0PDq3pOlfZ9z9Kqu7aTF++Os3JsAAEBrqxBROXJyZKBnm6Buqj7EWhnGeu+Eb9urm6ciHpaHrc+UzCdb57R1tpKq3xte8Hb5tNsSf1MnU7N40x/M1LdtWwI9UKTVMbA/BB/5OzqQLzH/UC1PTnuvUXeNG98Ekr6mQzr4c+fwwlcfZYu4YisptDm+1yZW07DRdtz5m83/dcb/ddN/VNOpU9GM2wY6tAVlD4QT/h7lq66XMJVOmbmXe+HaJveraeOvWl25blqN1c/vuNFm135y+uC2G9rp6M/wjfocpbh9v4UqaO9GZ91WSoz2T9Odr+y+m94zbn81IH3ASsyOXxHfKSCtFUOqZ377fe6fr4JJzB+7vS731kxSkXYT9eM/aehhQPzhzM8bj9PXJ5XG+r37OQlBzr2eV/Dzs+1aX368JX8/HuL3YB5iPlx29hlKOMWB4U35D5Nz9PSJYzWRrD5z067QuuhfnM46pAsLvXtMu2uNR0OuE1wnIz7zhp48ftKgj2HoYkuovEzfWu/zx1o3e2T2MDH7ehbKE4YiWZCMofvifIx0F5/2oU2xzhu7/MK8hMfjpKoUfFdYaPdtyK/6C/a/3fD1gXYBk8u31SQGTmNadMcrFPH4+/tiU/wFMf/T5vO4l9u06t/xs3qc5w752CtOkjaRBU+0TmUVTn4/1w1dY9th4cfHpSxbJwn/xwZS0FNE+eyI/DV6dA5WP38/PD390XjqWbe/qc8k3mIFaqZg4ut2E1D0VxG+M2moP49t03k8kFrJRlhOsYtK5EIheHZQebrRpF6yn6UKi8xu0ZaIk1qfENmEB0d7XidNYVA9SjSzvwvby7sIC01lVQH68qECEZ6ehMSk+Lwf3HPqvW/cXcoDZU8K6LBqM5iimY4Mzdf5YPNf6aDzmvkhg8nbMPl/gel70+zLmohhfU94CK5/HT/BD9lbKfmpYGPTdeottS3Kkozp6HynkDqgSrH9dByrbEOnr98j3ZDL3d2zWfShAlMsFnH4q/xROUXbDpvOh5hPpZdPzmd3987AmII5xx0xPpnf3Dy/CPe1eUyWTWcoElTmDJFrJMZN8IbVcxuHsv79DclJGhHklB4jgsXLjhfq4+TFaEhNLvWOkHS20B+5EgWFrdwy55cdl5i3XgtswoffKah76QixRePYcMYJl+9JrDucD5RmkBi1mwkJyeHjWtiCFQFMTdddqyJpuihPEN2eA6SdBhel7HUX03k9oY+kxY99VuYqhpJ8on2fibC5OTS9G2HJZO/Zw9FmdGMjMjjWn05RdJEWAFZsYH4Rq2hYGche8409nmmJVcd9ylNDUM3Ipq8c5fZnzgW7Zh4dl0bgtaIJfFB7BjaOZs+nhERudQ4/NBlaXaWkzxcxfi5K0hNXcni6f54+aZwvHo9E7zsyl9eF8S+Op7i/lQNBljOPbdLyc1ez/r11jVr2XR8PdRMXrzO5rz8Gsv+xn1cfnbr66r/+hb2xmrwm7GMzHXrWOfKujaOENUYMqrFBEUv94rmMcbJRNMoXzUeHip8/J1PRAXN3Mw1Nwsl3v2+glGqCPJMs1S993bynTaAFb+/6ef7k9U7MYQdyvfsjrGP6XUMr4qJ1+gIX5JFdna2dc1aRJjKi3Hz1lrPif/Xr+Q7f3WfydMh5Ud6F3eNXYYybnEwKeaOPq33PkUxfoxLP2Mrvey9R0GUmoBVlbYTrKaycUub0N7fDJhtnRzMkb7lGEuDvPCbFMYY7xF8v+eetT92lKA76q6bx+361tNkTNGiCl7C4cZO7hTMIcDfH3+nq3HcPv/g8/6/97+aXP4nYeuobtmdGzy57Gqk2oEkRJIIFm9krp+K8LQ9TiRtpVTceIlBNByazwwi7AcVlmP5jEQHbQ/u0Piii6dX9rB6VSEXHr3oVz1WhLlAmk3QMnvHHdpeWK8fknfY3iZKN2Rx+Ga7hVw2PCgnJ+tXbklc2MCLIwn46GLZ/sctbt2SrbcbedkFHc8ecPvWLf7Ij0ETvJKSG7e403iDXXN0/c/CiPwEjibtjINGWlbwH04ux08VyXb3iSZlqTvb7eD61iiGqyaQVtFARc5C4uLibNboiAii7c6JaxZm/26d/RbkRzeB9X90W8hlSNpR6iUcb/Pw+QOr5LKnjdo9Kwn31TF+4VbOtXzibsFMVJY6NPC65zU2k4vOZjklcqVh4sYrRkmTOJ6hsZWsOoNnkOcNzw4Qp3acD/X3W9mXEow2PIeLNblM1sWyr8XU2XVdIydMTVjOVVupjEQu/Uk6cN22bsrrqdi/Wc3PUXbksusc6YEjWXnqQx/J5duKlYz21BESNc+mzK11YAGrDhiJW8frFlqam7m/Lx5t4EqOPWymuaWVV7d3EKWz1tvehu1E6qLY+cA4C2I8djO5/FjN5oVxzIsMRu0hf/8FpBXfo5dOLmWNx9NjJGExtvU5Lm4B6SXmWdO+5NI37lfaDKIZSic4Io+bHXXsSt5IxfMu6n6azJj0KtuysasjHY3lZEX5ox6bwO5rL+gQg/juJsozp+OnCSGh4CJtbpsgsj5c/2QPMSrHdc5mQsDhd+bNFLOWgEQufVh+UsxYt3MsyQ/dgkO0fmjl/m1Zu2hf98TxnSba+8vbAMlld20Bi+Vtz7wZBKuGoQqewTz5eWf78dlUNJ39uuq/RC61thNA1mJ0uCeRHa2ZXDq8xHSyg+qMYFTj11FjLxDq77ah/md4RsliP3QxuzHOIX3k4o/j8fIczdRY++/PehyfdtCoieOO79kdYx8TDka8/fv22dK3oe6r/dVzg03hWiu5dEd+zGUyxLFL0yP3jFuG3qdd5u75/TZaa/k52eQWmLXYCtld2UjXnW3MUPmyoOhK377udiPN593QJvSnRWPGfbDbD3XkR/vhOXoRhx+9pOqHiah0EWyo6WeS0x119wuM23selZGz4TfuObcrsaJkGrd/deTyPwlba2k43Rs8uXSaJCbS5oJarFRJ1cTuaeJTRwfCxlGsIv6heV/afvzIR9n/HW9PkTZabSVaPXX8FKZlZsFdPnR19Usq5aqvne3lrPRX8d22GxZy6Uq4EsdZN9ipoi5nYcRIvEfNYJFZrSV1JzVvmzkw3wdPTy+8vMyrBx4eHnhpoil80MGfP0/B225gpo7NJXe2jsjNtbTYq4iZj58cI2W0Lbns/fDSTsWwmcrMCagnZVHV4kD1rO0VH/sbtDnOvGtnuxvYl5ZK4aWH1JXuYPv27U7X/Jz1ZOcZ/99RWsdb8wRgH3KpxsOCpZaYohqK5mgJWZjOsql+aIJm82PJTcv9ht4uOqW69ImWkiWM9A7hh3Ptlvr28fVTmppaaf9krY/yutjZ1eN8tkyoR0ZoCPvJpCr6F5BL9O9pa3rEo0ePeHRvL/G6Mawqe8CjR41cLPie0T6R5NV9oltILmXk8k1FKoG6ORQJnW35IvAV0ledH0K673z1RevtbTNwNZIOH8LilhE/bQRe/tNJWL6STRXX2B/ny+g5a9mcEcNo1QQScvLISZiAt/9s1m7OJDZQxdQt9TYSuo/HlqALykASogg5yoOdROkiyL3UIqnMtlzKJUI7g821smOdm8mlwEPtxcQEmfQqayWzRqmYmHONrufHSPJXMX5+hq10KyuRcK03EduuU5sXRVBAAP46b7y0IwgImsmPP8ThE7OTm09beVK2giBBLl+XsthvMb+966Y2eyJjM6odk8uuFi7sWs4UHw3j4vO52NpKeUoIYemVPJO+k0/cL/uByBHe+IUvI//UA8faAvJyH8C+VM7qkcQXnHEq7a+qKOO30hOclkv+z+4nJUTtmFx+qGDlKC2x++zV/QbwYvJLB0gu5beK/XdV6Yz1HkNapdw8Qs/HV208e+OYTX119d9ELkMyTtNs7iM+s33aUMT3rpDLj1Wkj1ETsfWWzTdrj6O7j41SSn+WHjPa1Osb9xDr60dEUqYTyWwmiVN1qCbnUicmX4b8PX/G3GKA6m9GyaU/yaWPbc0AHheTqFMxZ0c9T+Vl1nKOrDCNlVy6JT/uGLt8R3raZPeMW4bcp3VQtz2OiGnTmDhag6cukDAbDbsIonMrObduAl524yzL5JjKOmlprsODaRPM97p9++kWe+MD8dKE8+M5k3+JTzfYMccPT/+5bL/iuhTf8m6u1t0vMG4f0JDThlz2cGVTpNS/9jHlGe2HxsMDlY+/YzOf4CQOi9ndv2L5JrEdGjBDIpcfKrOItPloTSqyn1GLnZF80DjraKqkVtvMDh6IQdGkBeyuN01hGJ5zak04YQlbONVoUoOVCsoxuRSVtL31FFkzQ+1UFk0qiaHTSD/6WCKgr54cIcnX00IuRTzHwanDGgvhw5+lbN+6la1bt7J5bQyB3h54jV3A+jzjua3bj1J3+WfCVRoWHmm3lFz7kYVofJdz0pQ9fdcnPrx/T/Ov89GFZHLu9Xs+fGykaI7KVlXQUcPoKZ8FNdp9DkhS56BRtbyou3d63vPe4TjtA+czQvCNzEdov9osojO1k1z2tblU4e0fQcr2U9x3ppqnb6RothZN1A6Z+q+B1v3fo9YkUPLZCDR6nlYVslGuyiRUlkZ54x+1gixJhWkVswO9GTkzxXhsuTaHI/XOxJ82uR3YgfieJJvLLtov5RLpN4YlRx5KUtQeObnUN7E31oeA5eV9nRgJfLWBpFf1L/0WthJ7Y22lIh8rVuDvF0nqz5vImBuId3AcmZvy2L0zlVBNBHn1PXRWrmJUwGqqunppyJ+Bbs5uHnfVkROmYZadbYRDcvk5iZnqS5BLDUknZBVV2ExPUzNx4yWubY5A7Z/EUfsZ6q5KUkeqiNpxn3fPG7l7p4qcCBUjkw5w824jd/fFo/FSoVarUau8UEXkUd9YxJwxaZzp6qI6Y6wNcZcqQvcz6n7LIWHicLz9Z5J+6DpGrSsDb2vWM0XjT9y++xb7zO6nNexaHo6vhzcjp8Tzw65KzE3owCqW7dUSidKY6kh3A3uS55Gaf4Kbr8xDBD0Pi6JR+aZQIYMNSeqicUguP1WlE6Sdwy9NdpMdto92/Wgo5LKngYIorWQzfM+cJfFkYZowW4VPSgXybJlf6qur/9I36kKfYd+PeMoll91c2fa9NFC3MYGZFIjWU4V/6FQnpi/TiIjNo9atzdw7zmWE4GXuowzPKU8JQh2eS52pudK31VN94RbPzdWo8xJZoTINDYmMDe17FlViyGMfU6WRyKUTzRML0bEvn2EqO3Lphvy4YezivnGL+YsChtSn9XBl40Q0Mwuw+Y7Fp9y0nzhfD1Tf5XPjmVlr7RH7F2jQLS6m+eUbOsx1SLzOINsEWU7ctqt/eYmtMaPwVIWy4liTpb0XDzC8OE/2DB88fafzQ/lDh+3UkOvuFxq303OV/HkRjtuTiNn8bPYlYUMuu7mUFYJq3BK2H7HzKXHwByJV3oQuL+yjQVmcNQutWqbJ5abS+ffCdmigDIlc9jy66Njw9jNqsaWVty2SJPPrG97fpiQjkpFewwlPLebWe/OMgp5Xdb+SNn0EXsMnsaTgPM32416Z5FI0/D3vTrNshBfhyVskoifInrRuSWW6RsvCX4XDnxe8aDrMEhO5FDaX/cXANL/n57cGXl8pYlGIH4FBfngHTiQydh0nGjuh9yH74/zwHKYi2jKQNhJATZhpZtXyAEe2CzqiCu7IpLjvqd2RSHzeBd4JadyHWxzbspkyi7GkMW114HKKb3xGzezWLW4cSiZA3XfGzvJKg9rppbFyt0VFpaj8jqnB6+BK7lQCItdx8pFtgeobdzN3uIbI/Fs2Daf0eJfIZV+HPj1X84ibl0eNyc6xszabiaqRJJW+kEkiB0Iue6jfMg2Vz0RiEhaxaNEiFiVEE6Lxwj88znQcy2Q/L3xCY0gQ/4t1YSRBXhqWHOvP3tZVoLuo2ZZgVTOdF0Ggl5ZxM2cTNsITT99Qo5rxgpXsObzRJLnU01GbzSTNNDbfcDDyE/hq1ARHWlXKrKqr8nMxTPZXyQhQFzXrQtDFHeSZsEk121x2N7I31pdRSUel8w3bI9HF7qPF0MX59EBGpFTQ0V1DZrCGeQeeycoCHJJL3Qy21n+QJM0f6rcyQxdF/m2jpoPx2DVy6XzgNszW2U8/g9HQ1RtIGiW+ydt97Vw6K0jxVTH7lybJxtTwqoRFwz0Ztep33nQZv217tdjrV3MJn5LDtZ5Ofk8ZyXQbqVCX5BBIpQlm7o/F1L2Usx5RXz5RtzmaiLTjdk5Numm7epgNC8MYv+iwrX2tq9Wsv+v0r6kvzSVhkg/efpNJ3HyKh929NBbOQj0ildOOWJg5PYta7BtJxVIzq5D7TWVkxsvrmfP9+Ut2csVBFZaSN5FLl8vZ/E700rhvHn6qSWTZG432Sy6/wvpvllym/86j5maaXVkbilk9M458i6FkF+fWBqKenknJyZOcPHmCnYlj0ESt56h0LM6dpCz7OzQBCWw/YTwu+TESdcAaPjdHZYHdhZ2ehh18p/VgmIlcfqpZxwRVMKkVVs/gos3QDk+mXKp3BtpPpjBaO4tCk+q8UXLpmIwN5Ht219jHPZLLoefHCL87xi5DHbe4s08TGiChaE1OFS1VzNDG8eVBeHt7o5q4kSvmCWz9Q3ZFawjJumTXng+2TbA80U07el5d/YUlE9R4DJ9Gxu9PjOOjnlc01tdz75mxsTW8/oP87wPw8hzB9NUHuPbCtq9wV90VmXLnuJ2uajLGDGdW5j4OHDhgXfdnEzNCmNuYOhMH5FItNH9sswn92Fx2nlyOzxcgl/9e2A6t2g6aXHa/e26nbilTsRTqmaPUfVU65OodFm9/nTSd2cqiUB1eftNJP3ILC6+U563rCWe3LGCc2osR09dw8LpMr9yOXIpKutxfZyWRZnvKpt9YNsIxufzfLluCI3+0y/sdj6jMiydkeBBx+RepyZuOLjKTHWunM2L0bHIO5jEvYBoxs0ZLXiONn8pHTqb4oYsv5qWZT0sPdNxI23q+Eh1/EH5OZtKNXjuno7a3E+z5k7zvxhK701bFp6s6gzFuJ5fdXMyNJmLaVMb7e6NJOIJZZmt4eZntcYGoA+ayubrNqF6lb6EkMQBVaCbVjtyD90su9XR3NFptLmUF9+5YEj6jhFRItIivOJ48ClVoFjU2Ov4DJ5easJ+M6lbiWe+OskSnJeGIyZmKI7VYqcFzF7nspbHqAPv27TOte9iyLAydpw8Rqwqs5/f/xsVTOSZy+ZHzwlZqTDLHHIUsEfhqfZmVUUhRUZHzddcWkkLVVnLZe4utETpm7RI2hjJy+aaOvStXsU9MeBhaORDnQ/jmenr0zeyJ0RFZcI9eScqnJVEi3HpaT22WPKkmzx6Lt24i3yenkJK6naprBW6zuVTNzKTYiVff0prHVlW/fsjlxJyrvHtyjyvlOST/WI4NnJ3lLNOpiN33FINwaHVsKYHDdWh8RjBpRRk3ixdiTy7rKtMJnrmZ2uab7IwZzpwdNyWVuLb2Dol0G94/pOGJUG/o4cav6aQsX85y+ZqcTLL8ePlKtp41T57o0ctn4mXfxqB3Pz6i4ZFpkqSrhZrzoyxFAAAgAElEQVQ96SSuO0mbmFzIn4E6cC3n+2tWzeSy/Dnnf5iAZmIm5x5Usyc3R3LYJJw2iXXDsgh03iEsyLQ9n7OlzLlHaxO5dLmcTSD0Nh5gwUgvxqZV8tqmPf6M5PJrrP9y7QJDB+2f88Ar9c/2ar9GcqldcIgXEh49XMuZhG5xKXJ/ZNJEkMWzubHv0rqTXOqfcDhhFCrdcLRmyWVPM1VHq3kqq9f25PJtQwVF+6tN725Wi3VMxlz9njvcNvYRXVEx8Vq5tpGpIrpqc+mW9glw29hlqOMWd/ZpRqmWOmwlv1ja+t8oPZ7PooBJrC34gTDfxfxmHpB0nScjSGNqs62t4qDbBCmJDh5Uu+Dl3/J+dtI3cb60guuP7lHxc5xkB64en8juOqvaq2SjqhImGLLxXNdjTufMIcBrGJ4jppK06TgNH+BrH7dnjJGRSHMRSKRTdv4rJZf/ftiaC2Bw20GSy24uZAY711fvo8bhwPmDZjH7/jjOpkWT8PFUExz3M6ce2oz0HeTIwOu6vSwP0+GpCWFh/gVaJVGl1eZSmrzoqmZ14HBm/niQI0eOWNdDG5ij60suhUMf+3GEg4d/5tRHataFMjxkIVvPtdAtD0XS+5a6oiXEZZ/hVuND7u+Zi27aFuqld/+T3MkapuXdtA5opSeZOujR35P5UzpZxeconK1GFxQmUxuYygR/FV4jQpgqV0+esZxDj0SPa5Jc2pNLaeClZtqWehvJ4Jchl2bYuji7ehRaGbmU/ul6yIm1U/HRjGfJnivU7VvAKFUoGVVOvF1K5HIcq4/WcamymDXhKvzC57EwZjqho30IXVfOvgVaApcf42mXsVT17+9ycEkguti9NOvB8FKo1nriO32ZnbpqNmvnjcPLO5T4TJnnPrM668Y91FhGnEbJpZxcfjq3lmBVOJtumKZCvzi5NGMrBr4vqS1KZLzWn+hNF6yDKdMlcrVYw5ta8maPZHhEDpcsxqymC/WveVh/m2aHMzyy59HNy8Z6GlqsEtie1lvceWaudxFoo7ZSU3uSshqjHZ2+eT/f+0wiR0hFPp5i5agA0s52wscyErUjWCmJuQw8P7+L9evW8UN8KKrhU0nMXMe67L3U1O2QvMXOXrVe8qC4ftVsyVtsTJrs2N3eYqXBm4o5myqt9oVVB1g53mhzKSxwX1dlEKryI6bojtVG8uMxEtUqFhQLz9MvKU2aTlxcGIHJeWyYEUpScgy6kDgysrPJSpqKX0QetSWJaD36tpVqy8DejH8vd0pzWPfjj/zoZM1MisDHw4eEks941DMnOeCtnoeiHVMHEpW6kzON1nogyK9QR1OHbrBKBRylbyaXJzsxvD5N2lgNUzfVWTE03SMcHgVq4zhgNCh1lFLfc4NRi+24Qf6s4QwbNpzkk53oW86wU+5BNmsNc8d4ogpbxDqZV9n1G3Zz8YWBr67+6x9Jqv9hOdfoFiTGJfVLD0amnpap0zkml+rQeH40t4vZ2axbOFEK6WAMm2Xqu9xGLvU0lyRKttprtq0lVGurXdN1p4JDFfUIYb6cXPY8v055+TWT6ripigz5e27m/JDHPokcNZlrGCWXQ/AWO+T8CKmvO8cu7hi3mMpqyH1aF+fShV2iH6Mlj8ej8VN74rfidx43PuStpE0SQpYpDknvvQJmakLZYBFlCtI9tDYBQxu/xqk/b87U35jZewJLkibh7TGcySl7ufZaNpsi5sqFUz97cilB2MvzP3azYtoIfKILaej5+sftGWN8mbdV1tcKm/0zO0nw/9rJ5b8jtn271YGcGSS5dDYD8pS7J9KZpB3NxIn+jE4q5r5cWin2mx/y8ImIU/aCR2fWETl+DulpScx25oXPwfn41ZvZtiKC6WsrjV5EHUguM4K8GOatNdo0CbsmafXin/+tsUo0zWqx+fX0GoZOLw3v2mj7KNIRKp+zCE8rs5lVNRdMz41NhGtnUnC3l96724lUj2HtOZPIny4eVv1CTup8IgK1kqv3ERNjyTx6hm2RWsLT9lF69ChHpbWE3O9HoIvOpsRy7ihHy6poeCfewxm5vERWiHBnftuG0P4t5FKAYmjnyo44grw98fLSEbnpis2suBG3HuqLFjMjdJRpAO6Bl24U4yPmEJ+czoa8Ig4dP8vVprc8KVvFpOGesnAWHqiDYthi8qJmeFnB+u9jiInpu343cQSenv6ERff9L+b7TI63muuJHbmU4jWNQBW+ietmNZu/iFx2PDzFprixqD2G4ek30fZbSshHmCrIyaUEeVs5KcEawjf9STd6mvfMHZIXXQ+/FSb7ui6e1Z9me3wQnlKHKaSbNXTzidrsMHSR+YgQel2Xsxjvk0DJS4Oxc9QEk2nnhleShtg79FGPIjIpjbS0NNKSIhnlPZqZ8uMvQi6H4aWWhzTSovL0khz6GIv6PZc3hKPWTCPnD5M8Rxr0qVlU+g79k33ETf6Bog0izuUZ3r9+yePihejGx5OVm0vO8ukSuTSr9egbC4n2jeOApa6ZWw4Xt4ZWjiUFoJn2M3XmZsXFWwd0meEtDb/ns1w4LtOEsPTII1OYmQ5+T/FDZRPn1EHKMnIp2iqhMq0OXEOVEM6+u0hRzm4uPtVL3nSN5FLP6xsl5O252Mesok/qAyWX+jZOrZmISjhZM5HL3sbf+CExgYQE8zqPcH8PvINnstByLoGExA2ctIjPvqL6LzkY0zJ96216DR952eKKamwLT1/LJ3m/BnL5gcq0YELXVNJau5GJNuTyHadSA1HP2MZtG3Jp4FX5cgI0kWy7ZW6QzZLLoX3PjiUUAxn7WGO0GsmlhtDvRTgeWeiwFXMJUXkR9N1S2/MrE5g2wt7mcmj5Ed/O0Mcu7hy3wND7NJErY1grbeIxY6gRQyv7v9cSlHHeOIElQpHM1BK+WcQR1tO8Nxbd/8/emfjVuLX//z/6Pt9Bw57UTqlEREmRiEQHnUMkQyRDIkMyRDKEcyKZIiIihCglQwkpREp5mn7tZz/f9+9133u6927vVHv7Pp5z9n697tc97HtY61rXWuv6rGvyS+KaPvYFDhkT+mlrrOPly5cj3+pe876xgis36q2mabMNLvWjYv8nmlt0/gP28+6Pl9sHBhNUIXPzGtQsVjYlhQsVlVRWSrbyLGLkMsK2XOGR9HplJQ8OLUTlYLPYPx9tB8yqw7owYnA58CtavjzMIsZHRWjqTZofZRCmns2BWsPAruVLVR7JEb5MTioSQ/ALCVMFU63ex3mkWebg2rCQIHc3xkUnscnivy2Hb9GilZh5WQOX48aworDDPHLsIGaxbR22Ir8MrKn1K33U5G1gpRAZNmEBU1RueIUuYoUhUmziSjad1ufIEwUfBWEZFTzODEcesJ4bhgENQTDzxjtkAQnzg5AZEvz2lpM2ScVvZ6TRC0doFvv1PMs8hDDngsme6fcvA5d0U3c+mVCVC6Nc3Bg7bze3RA2YqWwCr7wvySZ9z2FOXSql4sX7QaPaanva+NAopLRopLHpM9/MF/uML9aY2QqO0Cy2t4uao7/g4+7H8nPNJpr2v+RgpBzvX09QY4jMW5fLIrmjzGK7qcpdyuTRLowa5c7UNcckCw9nOZPxC96qeC50DwSXoBH94pSTtiBkdeltqaNKPwA/vnGW38+X8tA4ID8gO1aJLHoPZcZrkkG8spKq6hpKjq4iOkgtRgx0dXXFLWg1Z6pbRO14x/0dhKsCWXddMOfp1vlnzj8umpKKUWAVwex4ZBgrdM1jCS617bVcP3uNGr221TIVibathmtnS0TzH2MDWx4MF3SIINGWGd1Dk+a/s5z0UBnuQSmUtOoBs0zJsoufeZAeStDmUsp3CuDyOj2CtvOUwSxWS1vtI56879C/S8MbQcjxnMZWq3bhlhUS3C2f8kdSPFuLG+lHw7vzy/GXB5NaZs2u3Mrz9l7q+8CDU8e5brALFhZVImSoEy9bzR9n/JwZuBR4dDvBQuCn6l4+nY3Hy3MxeU1aCbjs58PZeLxVcwZGOTa+VH8wrHbu4vH+2Xi6jmVhdgaL5DrNpeUrBw/o00VF7k/G/z03We+vJPboS94PySRW4trS3EKHzgxI9Ln8V5vF9tQ+4HGblr4H5uBS23SKOLUHsSd11hFSzSW9j9kVKscvURK4zO7+LAXeBg4Zieyjf1Y0V35Pm6X5uC2zWPr42tJMi65x9NFv7RmfhPo4QnZxlNziuDlNlwdbgXfSNR2Y1NSTEyUNQtfHox0hKEJ38KjrOQdnKfFfe00fWdsRY4KBP37s/rvgctDPj4R3f6zcbvStNJR7CGaxNqP+DqYRdjC4NBTXtP93p62pJiM5chC47Ka+cCMRancClp3hlSAjaj9zNWkCXvMOUfP+CQVbFzBBqSJwQRqnH7WYacysFlzvjDsnx7AabvUu3UUb4FJg0q9fv5oA5iDgUshz+Y9//GOQj3zvr35eFeewN1NIq+COOnINGYZAQpkpRPvKCN35WC9A6rRecu9ggn1lTE67JzFDgq72dnr1AqjK4MfSfpYlHuPZcKmU3HSDyWYq8WGjUYT8ZjLv3HqQawYhz4bmsvv2JgJlJnMQQ83+FeBS215D/oZIvN09CE+5wMOSXczxdkMRtJwTT6RePYZSOm7fWZXNgpD5ZN1v1wNCC3DZU0fBtjROPZWa/Bm+b9BcbuLYvnn4uisITtFr0g230Evl/kg8XS1NHR0FLuFb1e9kHDrJ5ukq5h19q9cc6QrQW7aJCTbBJfRcS8JbuZhTn40FFuxrqc+Zg8J3DcXGandTmKAy85eVPqH/GmXpUcxN3MHJkhru7g4Xo20KmU76GgpImKAgKPmaGJ1W+/4s8T5qFp9qEumuAxUzybII6WcJLi2/aQkuLf+3ej4s0GHQdAxBeAO+lm0jdkkWdz5q0bw+wlyZmlVXmihcFU3G429iQJ4B4PLbXbZMHstv+e90bddXzZ7pMlxc5FjL46VpLONs4SOae7R0PDhJ+u4LPO9ppiQtAk95oJif9GnJIdKP3KVdq+FD2QFSs+/xRbqKZJUwQ72opfncWutRwg2m+dMmMsbdBcXYyRITfn0k8bAwwqN26HLFWoBL3SLDJNLuvuJErAc+KwpFk0Yzs9juctKmyJi48dbgwHVY7ayl6WIKy/aW8+XrWZYoRgIue386/tc25hKj8Cdpx1rGDRiDLMcki3NjHmTrmktl1A6KJGlmru6cg9IwV+nnLof6XOrZ0xxc9lObNRPF2EQu6ZPVm4FLtLw7FYdaEUmWIafzUMGlzf5saQpgj+zTT3NVqcncXkLPG8W7maeUMT31PCXS64bj0gpeCwvSDqmPY2QXR8ktDpvT+irJCFUQnqlPl9Nfw55wJeESF6T+mj1Ml/sSlxxPgHwqOwxhh3HEmDDUMdW++0YOLu3hXRtldpDcbvb2IYBLeWg6Zc2GqL/6/euTLJLLiMis4L0h7op+L6ShG/1DweWfgbZmrTDsE7vBpba1kjwhyqu7O+5uChafMvnKad8XkTRRiUIhxzs8kQPX6zEq6L5XVHuZ1F+OX1iMaPoYERHBjBkzmDFjMmNcrJjF6vNcCkDUvp+W5gsr8JdNIe2uoaaCJiGBAK8F5OqyPouf0L7LY7HaBRePWE4IjoADfjrthgFc9panEaRaQO6Dw0Qr/IhKTGHDhg3m29oYAuUh7BATegkvtGIWq22iYKkPrq6eBP+WTt7dRqOpxffApaa1nqrKp7ztGImkauFz+e0NZcc3MHecHDd1OGvzniBa8gKd1SeJD5Thqo4gtUgfEc1IH12dhpNeZaDPGvS/PkvCBBmq0M2U6CJVCCsiZqlItB9L2RnljbtXJGnFjSYtlVgWA7hM5/bDY2zZfY1GcaXfWFD9QT9fm15RV6c3i3mSQ6wVzaVdtBXMeyLleE2JIiYmxrTNCECptKW57KdOAJGeCRQaQaTAMoLWSY7vmmKJ8K4Dly42VgFlcw9bRCEV2kgPLltK2DBZwZh52VQJXUL7mevJE5FPScPQRQTw4CuP4biFGagUXGq+faZiT8QQTHdlYr5bq00htMiwQMfwhDdpy4vm7jI/km/08O3taz5q+qyCy6auV5xa6ocsaAt3vml4V7AUv3GLiJs5WgcuNe+oLH9JmzhEaKg7NBv5mAQKv2j48HssirFCWheBrq3cy4xC7eZLfEEjGk0Tj+9U8/TiGibK/Pj1jzqLCIgwUp77WnWRI7aCPWWnEevvhuvYGFKzbQSEyr1OvdBAIrgczaLsciqqKijeNQdP5XyOluwhQhFAcomOMc3ApbD4Ifh6qheT1zjIODTcdjY0njjvjARcGl4g7H8O/u+8shof1S+cfPOZd0aT2HpKM2bjKQsk4VQVb8QIsnWUFV7m4SuJ2Wzje76KhgTWwaVMPYFQw2JCWBjTAtWilc33fC5HynMG6pqBy44bpEyQEbztvtFP1xxcCpNJqXjP+PUlOleLYYAxwzfFFhXcV/T92XDdftmng4ur/PH29rayeSAXcvSNHmPlP2+8/WI5KsgTDquPo2QXR8gtQheyf07TRegeQ+Jl/QQnjglKog7VmxZhte8piPfGdZQr/okXdW5WhgY27B0yJhhe5vj9SMCl/bxrox4OktvN5JiY6QQobJnF2iiHcFlfFvMgmIPcLyyt2yXj6t79l6Dt4GQU/x05uPzWwM0jycz2kyEfH8uuywVsCFSZgUtBWG97sJ953jL8YjK49sZy1W+QEtrLpONUhCfqUpFs27bNFPhi8zZO3G4ckIqk+eNzirYtJH7fHTtW+bW0PjlPxrIwvNUTmZ+Sw8WCbUR6jWVh7guJcNdHw5llBLi54OLmz5K8gYKfQDvBdE4HLvupzgxHGZZJZf1RolXmAQ0MVBT9N1RScAn9HS00fxA0oYIA2k7Fwfn4uHkRvXkvKTGBqFzl+EclcfDKc9q62/jQ/MmGualQhmmMksXy+3ACa5gKR8FSNYrFp/ncU0NWpAoXmS8z1xzmdqOlTRD0vb3CpumeyALXUaxflTa8qvtjHTXV30+tUq2/52lDq5mmXNNUzMZQFfKgVZx/LYUh5uBS/N63Z+SvCUElC2Bx9gNJcAgDuJREizUUcLC9yNeWmks7aStOxEpCk3+nUJIe4OK+xYw101zOJTF5HrNiFrFYSFsid8M/sVAS/EfL5ytrRL5084sn/7XBTFUHLuXzsnhYW0utxfbsdasF8JYI1/3tPDp3lgrRlLWP+tNL8BcDNpmiPX89uwSFwhTkQke+bt4ei0WhCiZaKOvoENKKnxpNdwXfikeXNjFVMY3UokcSX4sqXuhDsltthuGCjhEKb30V6QQL1gE6aVs0PXskMYttzI1BFRRDXKgaVeBMwseNIW5/DkvG+bDo5ANyYz104FKIjOcvrKj3gaaO7NlyfFYWIejazcClUFntZ8rzz1IprNJ0FrLcQ8WSgiYq9kbioQwltdS08CcAILv6szXidtSSnzQVlcsoXBT+zFq5h3OP3kvGPYuHDOAyIQ5P4Rm5PzF7rnMheTyK8N3GHLfm4FLA0ZdZ6SsnTPSVsnin4XS47Wx4TuyfDgSX/zL+7xKjQssjpTn+tHwqTSNc5U1MdpVxoVfbdJ4EfyWBS09QPcA7xDq4HFm0WPt5zgQue2nIXYCHKpojkkXbAeCSfmr2zkDuGadLmO6I/vyjZR+BF22axRoYVb93RH3EVzlKdnGM3KIDl/bMaVo+X0jA22Mxpww5iHuukeStYOEfhgjagkj0kH3RY0Rw6bc4l1prVs8OGRMs2s2Bp8MClz+adx0otxtTCAoWgHuzKTKkEzKLFjsIIfVlGTq4tHN8+ivRdhCyG/4aIbjspfZQNGrVRH7ZdpZqQXDsvUuqAVxqv/G2PJ+MxNlEbb9Ly+NjxE9S4KqaxMLUo1ytbrEtcBhKZg+Tal5z4/hRiut0wEGr1dLS0mIyjzWoyBv+4LfRLswSNZcNlO6bh/d/uhG+pYRma8pEQ9m+u9fQ+kDwP3UVo4S5jV/CkfJ3+tXVPt5eSiZEKSNwRTYHl43HXRZI/IknFkFsTIP0nXbBFEwuOp73vBkeuNQVVUPbsyL2xQcz2lVFaEqRPtBQL03leaT9MgmVqzveMxLZX/TceioY7Qd+j3VHFnOcd4MoDKySRvuZO7ujGOPuhpvHTLbf/kBbzS3KDGkMrD4E2i81VLyQqtVs3DiMy5p3V0gJVSELXE5+nSWo1fBKSP6u+JV8qWur9hNlmdH4CDlYkwp4IU5ADgSX9tBWqLsILodiFjuPjLw9JCUuZ3niWtIOXUVKXm3LNdYHKZi8IY8jcb4oJy7lUJnAt0Mxi5U2ggRcGvtRL6+EQEsKNbP3Vuj9WgRA9IVra8cjm7hFl3Bd+4Hi9FjC/FW4urgg9wlh3ootHMgv5aVBta3/1P+dWawL6gmhTJs2Tb9NxlchDegjrbtwrOVTwRI83cPZU21YvJBoLrXN5C32wMVVTXjSH1S19dN4K4fVYWrGxZ/hdV+zmLIl9uQHNK35xHnOJadBQ2/FdkJk41hXIiAALS15C5GrEymyIhD1PdpBiGIG+wRzwP5X5MX54jZuDVcNCzX28py0yt2NlJ9KZ1GQClfPUJLyH1JZlM3aOQEoXZWMn5tEVmE1nw2kMDxrMIu90CL6R3/o6KO/7ijzPLyI05tMC7eKmm2FNFpsDw/Tg5H5reGKtJ8a3ivs7QWX515SUXrD3GSxpICUUHdUMZkUG8wTDfvSCt4a107/9fyv/VxI4lgFkQee6xfWenl3cwdR3mOIyrzLp95eerq7+NbZwdf2Nt7dzWL+WHe8ozO580k6wDsQXDqA50zgsod3d4+zI6dUsuAHXwuWoDDmudQxhLalirLKDzqZQwRj9vTnzh8v+wjFHha4tKc+lp3SXtnFQXKLvXNaXy0HZqsYE3/WmOJNCJQ2W+ZJ4mXdgNn//iY7oryR+S1i75ENhKnc8Z2XwY1Gi+S5BnBp15ggHZwcezx0cPnvJbfbpJKwSOCjsOo2YvbMcMGlXePTX4y2ZoS2fjJCcCnojz/T/EEinHeVsM5PxpSFK4kN9sLdRcm4yOVkXtc52mtbq8hPnU+gPmiLZ8ROyqqPEi2z8PWwYXo3MBm2O1PS9QE1LH0urdT173//Ox8/vuRRWRn3Hlbw+PFDbuYuI+C/3YjJeaYHnq8py47F77/dCN5QTJNRMLbyQquXNHQ03KVgz2pm+StQTYoj81QeGUunopaNJ7n4NQ8P/8YEmYzA+DyeCWPctxqO/zYemasnoYlHKf/Yx5e6Ch5UlFOwdjLy4DQKsmNQe8wnt0GDRgCXg9HM3aC57Ket4QFFxzNYExOEp5sLMt9ZrP/jsdlkrKtGrzhRp8zxR+4iw292MsfuvDNfAOgqZvUYGXOPvjGZlFilgeXFbzzcOwu1LICleQ+4tm0GnjJfIuJT2XvkJHn5Zyg4d56LhUVcKb5GSUkJ14uLuFx4gXMF+Zz64yTHjxdS9VWw2DzJ6liJ2afUBHQIxwszCinaGIRqYgL5L/W82/eY4ykppO3aw749qfwimOP6JVtJ/t1J9Yl4QiNTuS5qbnXg0n3I/CrlcwvN5Yhpq6e1OBHLrIc7V9gyizVvJ23bQ7JifFCGbuHWFy3aLw/J+W0iSlcVARELiZrojvvUBPYdkpo6HiI7+wBZ+/exJ/MoN818fU0+l2g+UrYvFn+ZmsjtpTTXZjM/MJgZs+cSFTYOpYuSGXsqjYsvVUfXsHpbDufv1tEmyj5aPj84w6GDBzko2Q5sXUSAbAKL0w+YXT+YfZR9KyfYmSpJr0kVhVF3pq3cb/pG1hZi/QypSAQg85i8tDTSM/awL+sA+3cmMdvXFdfAjdw2Aj8JuBSsEm4fZOfpWlF71NNwmU0z1IyJ2kO5qOH9yvl4Nb7RG9m1Khz1hI3c7ummbFMgsqk7eKSXfQRT+UluHkxbvp39Eroc3L+dhDBP5OF7jNo/7cf7FJe/N/Vdu3hOS3fLc+4W5pKx9hdCfWS4yLyZvmI/xfUGdwCBv3p4V55H+q8hqN3cUAfHkfb7HRoNIMwALi8ZLkBPXRG7N2Rz58NbnlZVUvm4nPMbQpGpllAgAZKC7+nFmzVcTQ10TDsbuoNekFx+9ChxfmMYM2aIm18cJ38a/j/MoZQwFF6/clo0Ne8VTco9XYXAX9JxyNqxK54R27hpdBXQgUtd5Gdr99u+5mqZisQuntM1kAlcGkCRlq9v9RYNFaUcjRdy+KZQKhFNDE0r7h3Rnx0g+5R3dlCyc6HJhcFy/po3DT83V7yD59i+J3Ylx8vyiJM7YnyyV3Y5zJU75Q6QW/StZdec1s2T7GjU8lC2l7/m/Poo5sybS7i/ElfRnL6H5rIsFk+QowhKIK9WGLM0fCjNINrHDbcx01l1oJiXBi2+Q8YEMy506MnQweW/n9yuI1QnzXV1NDQ28f79O2ovrSfYXcXSc98JWDdccGnv+OSAceH/EhPZRdshcPDIwaXFy/tr9hEhd0HuG86StGMU1342M0U03N77oYqi3ExySt6j7XpFefEVrlwZyXaVW7X6RLJDAJf//Oc/+dT8gJ3T/4f/+I//0G9/wy0wkbwnzRKtZgNle6MYNzmZYoM5haHwg+7buJYyCaWrG+opC9l4tJTXEsHyw7NaHh6LRe3uzaytxbw1WBwK7+x7S/H2aAKCk7nW0svzrEidb5mLB9N3FlO0eTqRGQ9F30gRXKqms/POa96K/jImP5k31dnEiGax36g7Nh+16yhcXFWMi1hK2rESXn4vd6H2K88vZRAX5E3E7gqj2ZRYxMc7CJbNJkfMnzkoISz+1FB3eDEL9hm0VZ3UXT/ClhWxzAqfSvDkICZNDGTC+ADG+fvh5+eLr5iTyrQfN2e/KCRrmsr4I9scYEjBxveOcy7X0tv1llfvJCuT/S/IiRmLl5catXoMfpOj2XCuzsLM01AlLRrjor4OXMonrBaKie4AACAASURBVOTk7TvcuTPE7cZuomXm4LJvxLTVl0u/yhuV9YQPBq38x4+8u5JMgJlZbAy51vzUtF/EUP+KwGWcMoBu8dWdvCr9g8yNifwaG03UrEgiZkwnXPCxCg0ldOpUpoaEEBISQuicHZQZ+d1Cc6NtpWx3Amv/0Gvnux/xR2oKyevWsi4ljX0FFbQMupCj4e25DcRaCmC2zmMT2XPqPGcGS0z9vf8KymgQ+mj7BVYGTGCdmIPTQO9asmMCmL1XCGEv9N8q9s32w8dH7zs1NoDg6CRyH5oSXQsRGU1msfr3CDvtZ64lTyFwYTYPJFF3Oh6fJCU+jsW/JrLrylvdWNrTRO1LIS+d/qf9wuO8NBIWLbAQQGNZkrSXojoTaDM8YtiPnOc0vDoei1oAKi5yfEJjSdp9ituvOkzlMnzEuO/nU+VZdsWH4uXmRkDydUSxwAq4NDyi0zLogYuLiuCUq1b8obR8qLjkmHY2fFgvSAp5Lkf++1fzfzyb1s5h7u5HxkBx3ZX57Dt0igtXSii9c5+Kympqn9dR//otje+aef/hIy2fPvG+4giLJgSzrsgQ9VoHLhXRB3hc/4pXr4a2VWXHoLAAlyPnOVNLDASX/ab5cpQw36mJ3PPAbO4yPe3I/mx664hkH7qoKthDRkbGyLfMw5RUnXXA+OQI2SWJw+kz7ZRbJEKRPXOato2722cxc2sZ7YL/85k0kteuZd2GHZy818yX26lMkckZv2g/ZR/MJ56eN9fYvXgSPrP28tiwTuaQMcHEL44+Gha4tPj4iHj3/1BuF4urec2RaOniuQujQzdzvcU4E1rUSn86THDpiPFJWpA/NW2lFbVx7DBwCZ08u3NXAqhsfPGHXP7Gu9rv+FoJ2Se7OqkpK6Lw4gUunL9AYfFdnr6xiDAlCucNtH4xSspDLnHXs1KuPmxETHVp7ane1zx88MYYfMD8Fg1d33TLrZqvTdQ9f0Fd01edUKnpoccw7vZ+pO7JC6RKY+N7+j9TX1XLO2FQ7Kmj9MI1Hjd2DiL0GZ80P+jpHOB32d9QRkFhhcQ/z/yRQc/6es21oIPe/O/zZ1fTM6pq39kWZKxVRdPKq6oqXhnMEwWrVntoK36jhw8vnlCnz2Vl+Ky2o5Haqlc6H+Jv76itqqPFwEeGm/R7TVMVlY02/rS4dyin3e+fU/Xygw1eH8ob/nz3fGt6Rs0bQ2RiSf16v9FlUMRILv/IQ7t4rus5JeevUfFaEN2G89PQWnOLCoOGr/8lVw8fodjgSyN9lbaD9/V11Akr1u87hvkd6YuGeSz2zyc0SID+MN8g3v4v539tL70j7M7dXV2SOUPQDNZQVfdpWG3Q/7meqpo3xiBtAlHs4jl9I4gLjDkFVEjGT+3XRp7XPqWmppaX7/Rz5kgabcTP/CtlnxEX2uxBR8guDpFbjKWyc07r76HH1uCk/UL1vSo+m+NK45eF/Jid3yQPO2hMkHzAsYd9n6irquL5YLEGbH7xX8m7Q5PbxfgjdRXcL7/Hvbv3uF/1itahjG29tRTlHKKgQrrIa5MQDhmfzN/+J6ateUWtnjkQXFp9/0918X//93/5/PmzREtpDVjqrrW2tv5UZXcWxkkBJwWcFHBSwEkBJwWcFHBSwEkBJwWcFPiZKfCXApdCQ/T09AwJXH78+FG892duPGfZnBRwUsBJAScFnBRwUsBJAScFnBRwUsBJgZ+FAn85cCkQXtBKCuDxe5ug5RS0nc6fkwJOCjgp4KSAkwJOCjgp4KSAkwJOCjgp4KTA4BT4S4LL3t7e7wJLA/Ds6hq+7+XgJHf+66SAkwJOCjgp4KSAkwJOCjgp4KSAkwJOCvz5KPCXBJdCM3758mVIAPPTp08IkWadPycFnBRwUsBJAScFnBRwUsBJAScFnBRwUsBJAdsU+MuCy//3//7fkMCloMEUcmQ6f04KOCngpICTAk4KOCngpICTAk4KOCngpICTArYp8JcFlwJJ2trahgQwW1panNpL2zzk/MdJAScFnBRwUsBJAScFnBRwUsBJAScFnBTgLw0u+/v7hwQuBe1lZ2enk12cFHBSwEkBJwWcFHBSwEkBJwWcFHBSwEkBJwVsUOAvDS4FmrS3tw8JYAray3/84x82yOi87KSAkwJOCjgp4KSAkwJOCjgp4KSAkwJOCvy1KfCXB5cajWZI4FLQXn79+vWvzS3O2jsp4KSAkwJOCjgp4KSAkwJOCjgp4KSAkwI2KPCXB5cCXQTQaEg98r29AEadPycFnBRwUsBJAScFnBRwUsBJAScFnBRwUsBJAXMKOMElMBztpWBG6/w5KeCkgJMCTgo4KeCkgJMCTgo4KeCkgJMCTgqYU+DnBZf99Vw/eogzDz6jNS/zDzkzaC/f3c9n9/YT3Gr8aKbNbK4p5tTpEqpef6T7fSVlj98zPB2mlk9VD3k+IC5QJ8/KK2juHVq1+l+VUXjjCc3dQ7t/4F3faH5Rw9M3bcOma+/LWxTdraOt3/KtGt7eu0RJ5Tu6LP+yct79sY6n9S0MrHIfL0vyufigkT4rzxkuaVpf8/R5EwNIabhhpPueJh7eruLTMBlO217NjWuPePfNyoe1X6goyCH3xmvb/KJt4XFJGS/bhsdRVr5m9VL/i6scPnSOx+1atF+quVPZYrssgKPa2WphHHXxWwN3771k6N3gG9WFOeSVNZnqrm3n8bkc8u+3DLkv2MO7P4xvBZqOgHft5ltHtaXwnv7nFOWcpLTR/j6g/VDBleIK3o5ogNDw8cHv7M69i7VlxN6HR0nemEu5tT8dSQ/ju75RW1rMw7cdeh7V8qX6FndfGc6NNw79oO8ROQlxbC/+v5lbpQVz1NhiTz8UyvND+6K0wvYeO8c5eyk48Pn/Y9lyYAEkV7QdND6r4emrT4PKPJInftzhCMriqP4sVMqePv1T9WeHyHMa3lXcpKJp6BKOLcbQfnrAmZw87jTbP7fa+oa16/aDy/YLrBrvi6/vUDZ/IjMrhtaJeopZ4y1jZtYzBmAZazWx85oQrEcI2tNwZjlebvM50iAFl++4u3M6bp6LOVHbSHlGBB7+CZxvHgYK6b5P+lQlAfH51EuQU09VJjMUKuYefjmEevZRsSMEmf8arrSNsMK95WwNckMRfx5rWMj2Wzu5vtYP9wkbKLUU2vqryQxzxyMunw/WSKJtpmTncjacf4uGfp7unY4qKps6DfQ8O0nSsgxuCIzf/4TMcDmT0u5ZAZ6Gkmn5fGoxqsBU7orotJNnJQXk5+cPvp25QPmggquGNydi8XSfxIabw5McW88vw0sWSkaVrmE1757woK5Vx+eaOrKj5Pitv0GPoQoW+/7a/UTI1cQeb9ADHy0fHxVRMEidCm7VD0Ij8w90X12Nlzyao2/6aL68jsmefszZcoEXVhnAjnY2/6wdZ300XNpCfMpZGqx2fg1vTi5ErZpFVs3AJQqrH9Z+5I+FKqakPzSNP5rXHJ6rYvrep7b7nsN490fxrVDbkfGuXXz7tYyDqxNJTBzOtoqdlxtN4F7aUN0XiFdNYFPZwPbUfqriSsHA/l1Q8szKApOGhsPRKJQx5L4ZyWSq4V3BUsYqw8l4ZDmx91GVEYo8MJU7A4sJnc+5YaWc3x2bhH5eUEqdtQGi/TIrfWQEb3+o6+/aRk7+MprRsccZUfUEmveUsM5XwfzjTUNbVHFYW9sxtjisHwoE+JF9UcrU3zt2jnPGvmFtfv6TyJa2uUDLx8urCHAdhSIqhzqrc53tpx37z0jKYkd/FgrvsD5tT3/u40vpflYPax4zn/NWbs6nVtJ2DpHnuu6QGiRjQnKJbpGzt57b35tbCkp5aTllCeu2gnypDGFHhQl4aNtruW7jfQXFNbRZk+OHyXD2g8sv+cQpxxCXfYNbt27Z3kovkBquICitfGhC8f8xuBTo1tHRYR1cvikmZZIL/qsv0PDxIx/rLrApyJ0J667RamwEDQ15K5g+bRrTzLZwYvfrAHVX1QHmqFWE73qo0/D11nJojidj5h+l1pqwgobGgjVEhIURJm5TCfBwxVU9gVDjNcN/4czdVfZ92o4QXGo/n2eZt5yI/bUDBPG+qt1Mk40h4WKrDWGll9qceXip55BV9ZUaPbh82VRMSrCKCcvzqe8F7fvf+UXlw+orluhVytUWA4kIEOR4Bs4gKirK+jZ7Kn5yH5KuWZPeJO/ufsj2UBny8N08/s6tpqfaKEwYg2xaBjps2c/TfTOQjUnkkhD/6bvgspNbGyeiCN3OQ+PA0Et5WhDuSh8CJ01iksXm7+mOIu40raZCDHrUc3M9/oo55LwShG0tXx7nkjBZzfTMqgH8Yl87D1qMYfyppbU0lamK0czMeECHtSe7H7IjdDTBW+/a1pZ/vcrmyMVkCw0zRHD57cVFtqfsp6zF0LEdxbs/kG8F+gybd+3jW+2nPBYpVIQuTSUtLc20pf5KsMyNCQvWm64J/29ZxSxvuW0gbwVcat7f49LNV7RX7CBENhr/KVOZOlXYQpjg5Y4s+hCll/azVfr9tE0snizDzTeK1Vsk5TK7R3I9PZe7pkFcx2n9L8iJVjMh+Zq59rL/OVmRcnzXFFsBtaB5c5Ro2ShGjRrBJl9EnhWTifbLK/GRhZNZrZNe+p8fZJbSl5WXv9gYa/Wd5UsRGyMMc4PFftpEvN1d8QiYqp9XLP4Pm85vh2uM47yj2tq+scVR/VCgzw/ui/om+P7OOc6Jc7at+flPJFta4wVN4zmW+buhnhLMOHcv5h99PmA+tvbcj7g2krLY15+FWjiqT9vTn//Ol1sHSFq9mtVWtlVx4YxxdScwOtHq/8Iza7ac4ZkRXDpCntPSlP8rY7wW8cdb/QKp0BfkbqjHBxMSEjJgC57ghbsslpPvDXKLiUusgUtNw0nigwfKluO95chm7DMDy6Y3De/IQeDSm/iTj6murra9PSllZ+RAcKntaORZjZXnHufym1pGaOoVqqy8t6b+k8M7olar5bUVzeXTE3Go/8ef5UeLuX79OtevX+PclhjmJuVS+kRX9prn72iqL6fk2jWKj60gUB7OxoJirhX/zs7NOzhw8CAHD2axeWEEizbv4+DBg+xLimC0mz+xaVni+cHsk9wy065paMiZg2L8co5cvca1a8WcSo1hZvxu8q8I54atiJ3RSsasvvp9M8HhgsvOUjIWx7IgIgC5i4rAyAXExsYSG7uQpLzn9NPNndSJuLqMIThauC7dFpKcX6fTVPQ3ULA1lVNPWo3gsvZlIempJ6gWNWhaPp6Ow0MVw/57FvxQU0dLD3S9f0lNdTX39kWjCFhFfmU1T+sqOTRXxaxs/Xes8b+wUu83lqRrf+fzgzMcEttCaA/L7QDbfwsj9NdU9g34T3dv9u9lvJMoRLQtBSz1khNp0LBrGsmNUaCKO8VHoZ9/B1xq3p7kF7U/iYWCaWYn93N3klPynNK0IJQxxzBjB7FuPdxY74dSCi5FM59sK/XRlTkrZQ5jZIHEpR8w3nNgVzrp+w5yMKeI58LA6Kh2tkb/EV3r4vGeSEbLJpFUVEtR+mIL3oolKjycKDN+0/He4rTLOg26MCCrJrHlnrByodNcBiad1Y8nNdR/eGnSXPY1U350FaGeKiYu3sONRtMqH3bybsMre/lWWOnQOpR37eVbEXAovQcu2HQXkjBaPlAr1lfJrlClGbjUvj9JrNw6EJPP30NuYgDK0HRul+0gRBVDbqN+4ux5SHqwnOD0Ozw6uYZFEh5YEO6Hu+toJs6SjkODHC/eStGHPt7cPE62pM/vS09jR5ZhfMjmSHEdPU/3MkPmycKc+wPnOWGM+nsfXR1fxQBxgpvF97aWJ/kkh3vi6qIg8NdjVBkXl/QdRvue/N/UqKKPUC+OOZ3c3jQRN9exTIuxXadFSb9T21FHqY2V6fy8bcwT5takozasPQooqjSZitvd1o4aW+zsh46ZQ4a86jjEUc85zomadHF+tqCtCC7/HLLlAGboqGBflBrXsb9y6lULJRsmI1OFs7XM1gL9gDc47sJwy+Ko/izUwM4+7Zi51TYpOy6tQC2LYL9UNWn7dhwiz3WVkxasIjyzih666fzWj1boCwpv1thQkPSUpuCvkIBL8X7rc+soueQ+s7rorAqVPxW4VLgiU6lRqwfbPFG6uw/QXPaUJOPnaoMIg6wAy+Ye5rVEyDej0bBPTGaIRzbORjkqhIT9BzmYfYIrj0pJD3Pjb3/7T/7rv/7LuP3tb3/jv0eNws3NTdxkgZvRWXRpaTqxAJVBk9VfS15KAsuWLSHS3w1V0Dzily1jmbDFzyFQ5k7A7KW684SN5IuSvqECGupzolCG7OCRKOv20Vi6n9+CPPCOSKbghWEw7qYwYfSPAZcCk8rdmBy3mS1btui21FXM9pExOf0hPR/OEe8tY+IvKab/hftSlxCqdCd8bzUfzMwOVrA4fAzuPjP41WCKsPogZW1vOfmLB66uOnrq6OqCi4sLbooosl928WjnVNwteEIes4Mdc1REZJTT2NREk7XtzTkSxwrg8hsNeYnM0Gt9pwV5I3NVMS7YcuXecK7XFHuON2qKp8fl8MSIOzS8yZ2PSjQ51TGjpvE4C5TuBC7L4rRo1nqIxMky1DHp5BnNXM9w9s4bNLRRsn4iYxbkisKjpu4I80YrmJH5kNvDAZeilt/NtiYi2A+VqxLfKYZ6SfYzt1IisJHd7TyIaamBnYe7760lN2k12XfqqSg4wP79+21u+9K3kJap+/9AQYXOrEOokxm4lONi5C8l0Tll5MxVErg4meXT1Cj857Ap/4nEJERrYTIzEt6dRXJSiJ18KzSQYBnhKN61l29Bp83yJqHgtXmfe53HEpWMuQeqeCfti403SA1WmIFLNF9pbnjFq1evePX8GItU41hz/iWvXtVxO2s+Yz0iyKz4Rq+guZSAyy9Fq/FTzSVHsKs3+7VRnDQOWVAqd4bi/G18to+K/bGEh4UxeawCV5UfwWaWIeFE7SjmxuZJuFmMP0YtpSySgy+Ny9fGN1s/6OT5uY1Eervhqg5jzcnHfBm44IxOS+nNsnM6oKepO0qMp5rw+I1s3rzZyraRJdNUyEJ2ILGAGliEYZrF2t3Wdo8tP9McYphzB5J1xFec45x+fragrcA3//aypRWu+FbNsUV+uClC2XRDv4jzrZIDc9W4es9j//3vWCVYeeWIL42kLHb3Z0FW+JnmVh31+jtaaJbOWU1vKd44CfmUVEoarciWzZ/oNBvyHSHP9fMiZy7qoI2Utmv5Vr6VEHU4O0tODg9c9jdTXaazJC09vY5g+QQST9zUWZaWVfHOqqXkzwgulX4kixLqICyuaeRYjNI6uJSFs7O82SyAzsfGs6wYI2N6xn3eC6aoxq2RggQv5A4Fl31UZsUSMmUKk8d58t//KcPLfxzjxkeyNmUBnv/5H/x3wDqK3ujK0Vy9nyhXLxLOvh1YYe0nCpZ4DagnX4tJ8h9HUrEpV2ZfxXaC1YvIa7IiWYhv7udZ1kxU0/dSI2FibVsVeZm5lBsNo380uFQQf1GyrC74RobJmbztDg8zwpF7x3PW0tmyp5jVY2REHnhB66MC9u/Zw549e8hYH42fuwtu4xeyJVN3bc/+s1Tc3UmoTMHi0yZjz9bTi1F4ruCS3jdQ0/ONjq9feXviF1SBG7nx+SsdnXXkzJV93xTNdaCWRVN3iChFABtvWUxqhlbtq2B7sIyADaXW/SV7q9gdLsNFEc8FkTwa6nLmoHT3YkKIwYRvMn4qV2RjAgkRTfqE66FEpN3gfVkaoZ4R7KnqQdv3gcJV45BN2kBpe49oFjtkzaUILm37UGnqspmlDGJrudURRVdbccKwr50lLGqgoGP3fV/5KmFD08s7uJkSiGfEPr1psv4foU5m4NKaz6UMd+9wEvdf4YUV+9sOB/Cuo/lWqJ1dvGsn3wq9RQQcNrSORsA1AIjJzMGlqQHBaBbbQ+udHUSox7H0dL3oH9snBZeaBo7FeOC7onBA4C3Nq6PEjFYx91AZxdnbzM1yrZnFpueb8wt93N82GcXMLJ02X1I+TcNxYj1dkM3aR+V7w3z0iuMLFah+y+Ntyxe6LLGu5HnDoebTA44lTsXDVca4mHQu19lCwe3cSAnEzQBatR8oTPRHHrqDCv1wpWmuovRWNR8M3+0W/HQEje4DcbzqKE6VuFRIFpS+YxY7I+F3vaZUV2q729oBY8vPOocY2tWhe+c4pyOnwDf/9rKlOWdoWu6wJ9oHV1kQK881mPz/hTH1403SZnjg6jmdDYX137dCM3/1sM9GXBYH9GdBVvi55lYdsJINmLMGUXwZxmY95dsdIM/1v/qdRT4BrLrcglZwz5g7WoxPUtsyTM2lhBusmcVK/pYc/ozgUiEnIMK2mY7OVDKaEG/ZANAlai7lVtTONn0uu7m6eoyDwaWJvoJ62Ue2SAzo01x7hgT//xE1k/9jBVwuP9NAd7e5tCuYmy3xmsLWB1JBXkvL2aV4h6RT0dVBe6cgDXRzNzUI/9VXaOtt50uHQULQAcphMblFh3BRr6TIvFimCurNYm0LgKPMg/0MMpAErd1KvI+KyKyagSbK3UUkesqYc9gUpObz/Rx+DVTj56/G3W8yETGbuVjXDf31HI9V4zpKRpTRvFXH6Ipgy1V4a/b1Qhme0tnVRZe4faX8wBIWZd6iXTjvqObc7gzOmwzjdfToe8TOqQpCdjwyG+QNxNLUHyJK7kXCBWvRk7R8KkzEV9C6G8BlTwXbp8pQ/5qP0fTdpllsH493hpprtNzGsbLwI1p0Ppcy7xCiJSZ/BpPjiAC5uc/ld8CltvkEsQrzBaDul3e5Xddu8ttyWDsbqDfSfT91xUeMJoo5hU/1k2wX93dMwzdiM5demS8GGDS+EfuqzdtRqNN3weXAgD59DzKJXZBJmXEdSIv9vOtAvhVIO2LetZdvde1qtzaLHsr2xplMnReE4+emZMLMOQR7ueLqGaQzeV64iqOntuk1lxq6ytOYoggjo1I6vgqSWQuXhcWZwBRufqnjzIY4Fi1aZH2LDkbtOgqX0QkUmo2Tun6n1AcbM3KwtpkLK/xxd3dHNnkb9w2WC5p6DkUpCEy9M3D8Mz5sOOiloWgb8/xlorZyde5DWgxDvuEWyb6v9gCzlC6M0gsw38o2M0kWwOoik7lq57mlKI110NJ6KZGxytlk6zWofa9uWw8K9h2zWMuADna3tcPGFkf0Q4HIDu6LknYb+qFznPvu/CzwzZ9GttTw6cFhlk6S4zI6jJTLb3RzVd8n6qqqeP5eNxBpP99j33xf3Fy9mL72JA8//oglWzvL4rD+rO+LdsuFjujPOnlT7reCvEoLtywrbnmVfyTgK5daqzhCnuvlVso4XOUBTJ8XzZwZgXjoA8sNzyxWS9vraqoqK6msrOTRpU1MlU8kqaBCPK+srKLuQy1ZkdaVMj+Zz6Uns1OyycnJsb0d2k18kPwHgMsuXpYOIVqo0SRxYNTB/IIiHusDeIi2y8olHH39jtK0EFxGz2Xjmmm4qOey8YDeB2d3PEH/oyRiXRbZ2dmcPp1P4QMhxYGWxt8XMloWSHTCClasWMGqjKs09b4gO8qL6CN1tJesI8BnOefri1g9LoT0B920F63Cb9xaruvj2PS1vaNBMBWru8rGyTImrC3kpXBee4WcfWd5WKc3JROuidtzcuNUqOPzeP7qFQ2vP9qOBKsHl7KZGyVmmuY0KSh7bQzmoDOXtKHRSn9A+5vn3C9MJ2FTobl/YHchy1UyYnLfoe16RXHmIgJH+xO77zZlmdNRRWzkwPrpeI2dQ/rvmSzwDSN69lj81l7Xg4lOLiWqUS3KwxhbRZy5rQ8k5j6Xgl+iP+rEou+s/vXxeFco8slbKTfHK6IZYt2hKBRe8ZyzEmiDnkoyZyiQK+R6zaWW5jNL8HYPJKVUogKzCS5B86mOqqd1vHl7j8zI0Yxdko/Of1sn5MqDlrDLwHNGf7Askmd5mvtciuDSHb/IpRbRO5M5/rgPOs8Tr1Kx9Jy+XNrPXEjwRhaUZqr3IBPG5KG289Alq0Hu7OX2jijCw6Yx0ds8cJG25S77Y/2Q+84jo7RZx6OaRvKX+CITzUgsXivUySa41NDbVWfyuZQ82n4uHg+fJET3BofxriP5VijsCHnXAXwrfF0EHHb5XPZTV3KS3Nxc/XaU3cuDUbl6EL4my3T9+BluX0nXg8tObqYEIBuXwDkLZ+T2slSCZSoWHBfMzW3/Op+dZX24GnnAQvaVWaaT6uVOaiDy4FUcNs4XZyi4sI9ffaewPmsDwZ6/ccZgXNFzkxR/hW6Ms/1J3T+iz68ct/EJFNSbIdqBT2recCrOB5lqNErD6njfW0rOlpr5e1uCy7baInKOl4q+3r3tHyxMvCRmXYKbgI98oOmy1CSsuZUuvUGN3W3tiLHFYf1QILej++LAJvz+Fec49935WeAb5b9KtnSgXPmtjqKdsQTIRiGfuIQjFSazV9HvXCa4D0ncSnpeczV9Lr5uo3D1mkb8rlNcKnSQjGt3WS5Q2yC4StkpEwodxGF92hH9WQ8ux2/ktnTdsu8RmbPGE3NQ0j5CwO3SFMaZgUtHyHNaPt39nf0Hj5B7aC3hShlTt5XrgscJfWHIPpc6BZyLhdLJpFCS88uJu2RFKpmyLp+yO3e4I25lnE2dxYTYw7xwwJqG/QF9NJ+pr6rh7Vdbpp2GYbaXlroqahvNI4HarbnUNnMiVv59s0ibhB7FKPfJbHugW44WmUYVz8n3HTTXnCX7xG3Ktocxym0swTNmMEPYpo9H9V+jGDNZdz579hyW5Tymr7+GvdNljHKfSuL+HLISQ0UTq4fFyQT6r+Ry6xcuJ45lbMIFHh+bj+/8XF73t3JhmTcByTcsIhBqaS1exwTZRDaX6YSRnqrDxPor8Y/ZyfW3kh6g/cSpRUq8k4qtm28amkDYDzegIzoXOAAAIABJREFUjygYyJi7q5gbN27otpKTrJqo87nsEybqkhSCZGqic56avt95jiVyGQvz6rm1OYjRgYvZc6ORXmkqkv42KnKWEpt2jeq6el4cnYcqbDdVAmP3PWJHiIKwzCcmoCvWQzeQKMfOZ+P2ZFLzbpA9R47KP1gS+XAak7xluHkFMk3qOzVjBX+IEVNNBNHUHSZ69FiWnxc0hpJf9wPSBZPYtRYRI8Vb+qk7GoOnIowtaYtQiJpLLZ/uZbF8ze80SKXbQcCl7msaGn5fhLdPHHlGJ2K9BmWoAX26r7Day52AqARTRLPls/B312sre8vYNEFBVM4rUfDuf55NlFJF9GFJECS729mkUZFQ0Y7DHq6v9TEH0cLbeuq5uH4aHoqJLD16n4rchfjIgkgpsZKzT6iTagJrz1ZwpziPdaEy1KELWBw9naCxHgRtLiR3oRK/Fed416Nrfc3XZ/y+1A9VzDHeajopcxjvOpZvBVIMn3cdx7c6bZaDosVqWijPWcJEpTdRu27pAmFJOEdqFqv9Uk7mnDGMDk/njt4tQNt6Q1yEc3E1185LXgGaz1ScWM00tZKJv2ZR9t7a7NnDjWTBF0rNWDG11ljUclfUKy/zuq6etk/5/Do6kFR9HpL+51nMVASx1ajKNPui+YkeXH5/VVjD2/wljJVNYt3e9QQppavj0PO0iD+KqmjpBym47PvwmMLCh/ro5b3c2hhg2z90sLnQ8J9iCWcNa1H2Rga2e2z5uecQ84Ye7plznNNFwg8jzHJ+/lfKln2OkivbuL8tGHeX0YQkHuPhZ6lwIETIP0msJbgUWaifD/eOsDLMC4/Z6WyLcYSM64CyRGVT+14Al/bIhIKs8LPNrTbApSgvywnbXWVmFWUNXOp6vgPkOW0rNzYEoQxJ447BekoYQxWexO67ZpLDDfL4jRtcOxiHtyRQT19nG19aW2kVt/dcXOWN8tc8msTzL3R8e0ZW5ECrreGOXoPdP0JwqeHt0Xk4wnRTBJduaiZHWZrVzmCczBX15Dkm0ym9ieD0cTJMAX36aWus4+XLlyPf6l7Tol9MNoDLs526vJcfP77j7vYwXG2YxQq+oEJ+zH/+U8PnolX4u7viKo8j/4uW9jNxjA5fytIgd9zHR7F0yVwmeQSztSiPJd5u+EXGk7B0DhM9prLjkQQsCtiqoYCECTK84/LM8pn1N99i7y8BqGOOUFGUzmKBJtFT8XZXMidHAhZstfqIwOUo3OQqVCrDpkTm6iYG9NFB8q/c3RqKXBFG+j19bxAFCjm/FrSjbW+muVMQ3gXTxtmEJp03W4E3FLWvchehyplkPeun/5mQ+3Ec628YVvl7qC85TPrqXwj3U+LiIsNrcgwbz15jb4SS0KRcCs6e5ay45bNjvheqqDTyjdfOcvZ8CbXtZhAS0Pk2yads4pbR+rWf+twFYh7FA7UGGzhDKYX9F9H/KXhzKU1nl+rBpfR/yfF3wGXvi1xiffz47dRricZlmOCy6yLLVQqWGKRBAXg0HGauciKpQjJQoQyzFARsvEWvwXxw0kZKDQOXWCVhwrCvnSW1dsChDaFLeLO2lfsHYsW+5uamImLXfaRVEbR6VTm/MSPIB6WL4DPhgpvKh4nhc1mUkMzWzBz+uHCdBw1tvDm/himjXTGt8rkg949mtz5qn/28+6P4ViDEcHnXcXyrA5cKguavNC1oCKHcV84jUOaG/6xl5tdXxRHmNdDnsqv+CrtixyN3GYWrejJzpGbgcfvEIGlScCk2f3MhiQEKQnc9orf/DedXTMBdqULpZhtcaupziJKPISarQpI+ypJNuylK9ES55JxuoU/bxPH5SvxTbuoWzYRUJDOVhGZU0oeGt8diUPklcc1qvliLdw8ZXHZQnBRA0Lpimsq3MdkMXLZzZbUf8hk6H3wTuBRMnVfgq4hgb7VuvLKuuXzHs4vJTFGOZfJkb8bG5/FCqq0Ujt/WU/+miSZLzaXCjrYW5wL7xhb7+6HQHj+yL1q095BPneOcbs42zM99P4ls6Ti5UttawZUb9VZTZtkGl3oG6v9Ec0unw2Rc+8vSqw/+Z19/Fmpnf592ZH+2BS7vkBoopNAypWYSym4LXNovz2l4V5jIeGUoW+9KpBpxDHVB7jGGMWOsbB5yXCxSkXQK+dcnbuZ2r26MUUlz24tptayBSy2fSo+y/1zVIPPk0Aa3EYJL6G2pM9r0Pr5xlt/Pl/JQb+NbWfmA7Fglsug9lBmv6ex/BRtgYauqfi1GZRTBpbs/MRsyyMiQbDtXEK5yY9z8jebXM3ayIlz5Q30ux6l0AVqEvJdDAZefP3/mn5pmTsd5E74qkekqCbiMSOfEgY2k7tjDxnk+eMTk8rq7htPbUtmxL5u0WD9U0UeRKtQ0jRdYFShHMWUdRU3mK11is/Z9oLG5l76afNLTtrF9126yTpbyZoBppxUmGBG4tGUCIUlI31lOeqgM96AUSlq1+hU5JcsutlGTt4GVQmTYhAVMUbnhFbqIFYZIsYkr2XRanztTLJuCsIwKHmeGIw9Yzw2j4NbF5URvvEMWkDA/CJkhkXlvOWmTVPx2xogMRSFiaGaxOvpomy+Q4C9nUlIRzVroqT3M/DEKpqXrTRKskLG79iFVX7Wi9kDUXHZ1ULh6PL6ixsNXsvfGQyaAGy/JNV98/SPZWXyV1FAlbn5zSdqcTOKSWKJmzGdfxTcxoI88ZDVHjOZ5BtPlPNJj1GYaPW3zSWIVPqy9bmKA/tp9zFCGsqtSEDa7KU7yQTHvKLWlgvngWJYWvJOAWUO0WHva2VZgEivEG9KlQYQuuqk7n0yoyoVRLm6MnbebW++l/UTL+5Js0vcc5tSlUipevLeI6mZeAG1PGx8aG2l820hj02e+GV/V5wDe/XF8K9RiuLzrCL7NEEKRartobX5Pm4nldES1lYqEPr62NNPSYdAYdlOVu5TJo10YNcqdqWuOSRaHznIm4xe89eOwJbgUIufWZc9GOSmFwztm4iGbwIrje/lFCP5x5SLrJkj7n/7YxxOZizsqb4v//CMR6yMSU0hXo8A76ZoOTGrqyYmSBqHr49GOEBShO3jU9ZyDs5T4r71mPQ+rOYvpU+EMLYdYT+0DHrdp6XtgDi61TaeIU3sQe7JR7LsmcClYpDxmV6gcv8SBgY50RdHy5WEWMT4qQlNv0vwogzD1bEyLZ1q+VOWRHOHLZP04aKyCvW0tCkb2jC0//xxipNWwD5zjnCXJ/qyypWU9hfPvgktrD/2ga0Mui939WZAVfra51Qa4/HqeZR5Caq13ZpZt1sCl9vNNu+W5vppDzFG7oAxZwsaU1cQvnMvMuENUt98le3UyJ3XJ1AdwQO/ddMLGL+eMmP9O5Cxd1oop6Tzs040xcoMr3JmL3G8UfC6tgUuBDjNwRDqSEYNLU+2EdBlzUPiuodho8SpEL1WZBx0xPWB2ZLdZrNnb7D8xaC6F6J//+Mc/jOBylIsn/oZk9oHeyP7zf1D5TRQT3AvRP2P3V9DZ+IIXlQeIHC0Bl4bIgx03SQmcwLoSyWpE111Sg/xYUWhh0qf9wI2c/RzJiDemzTCajkjNPC2PIzZS9OU7NPhR4BL4WraN2CVZ3PmoRfP6CHNlalZd+cqr4hz2Zm4kxs8ddeQaMvSRY/dkphDtKyN052O9yUEfVbvDkHsHE+wrY3LaPTOfya72dnot/WXaz7LEYzwbLpWSm25Ijp5KfNhoFCG/kWqIErn1INcs/LRMlNLy4eo60bR31sZdJE5WoI7az2MjsDXdaXkkCHg6cNnPu8clktyj+hykxXkkh8gYs2g/V4x5Sa9x7XoZz16cIWFcAMER84hbkUza7mxOni3l5VddtFj30QGEWLZxmM7kVyHJcykK34pwMp8YBHfB+nkrQUJwDzFdg4bG3PkoRwczNVCO9+I/zE13hUoNdcKw2c4GDbMlhUZ6bl3o0rbXkL8hEm93D8JTLvCwZBdzvN1QBC3nxBNJ3xrpZ82e63cI7/44vhUKOzLetYtvW3tpriq1ap5zo3g385Qypqeep0RitmM0qS+t4LW+X32r+p2MQyfZPF3FvKNvzRY7ess2McEmuISea0l4KxeyPzeFxOzHdLTksUgAl9frKC+8wIUL5tv5Y6sJlvnz2/5z5v9dvEaVwam7r5KMUAXhmdU6U/z+GvaEKwmXmOb31+xhutyXuOR4AuRT2WEI3WrGN1ZOhqy5ND1rDi77qc2aiWJsIpdaddYXZuASLe9OxaFWRJI1ICdbN/WFG4lQuxOw7AyvhPUm7WeuJk3Aa94hat4/oWDrAiYoVQQuSOP0oxaJK0K//W1t99jy7zCHmNpteEfOcS5NmKOtzs9/LtnSGl8MGdBZe9jB14ZcFrv7syAr/Gxzq3Vw2X17E4EykyuEgeTWwCWtZ+2W5/oqdhLuE0DwjGgWxa8mJS2Dg+erMBjcab9UUFT83LSg2VVHSZE1a5x+qjPDUc3JoUGjG2PcRvsxUcAwQZHsLHsqLo4Gp0sURGLlOile44vqtwK+ByUMtLC1tx9c9teyL0KO75piic+gDlyaTM3Mw/maTFrhpwSXikhSsneyLi6SqUnnuLU9DBfvX8jIO83p06c5fWwNIaNUzN36hyio3LhxkzvPdMlv+18etAIuNbw9+Qs+kZmUlpfySEzboeXT+eX4Tk2nrK6c0qpPZisjQud7unc6yqnryS8RfB0LSZupIDAxl+uC0CYIcSpflhzS2WBfPxyPv3IRedaCz0hb/weCS+lnRLNWmR/JNwTVhpbmCyvwl00h7a4BsWl4dz6BAK8F5OoyhIuPa9/lsVjtgotHLCd00W2krxXf9fnUYlSBqQgWn73laQSpFpD74DDRCj+iElPYsGGD+bY2hkB5CDsGTf7Wzs0NE0U/JZfR0eSY5Ru1KILk1Cik28JW3zGLlbxKcjgcs1gtn07HoVIv56IEW30rSsRLsZA8veCseXmQWbJRuI1bxlkDyO4uJ3f7UW4L58OYMCQF1ZkvG9vZ9I+mtZ6qyqe87bA0QzbdM/iRhdD17Q1lxzcwd5wcN3U4a/OeGAfczuqTxAcKUTgjSC3SR+ETX67rQ8Mx35cv/MPC589RvGsedMBxfCtUdPi8ax/fdnBxlT/e3t5WNg/kLi7IRo+x8p833n6xHJX0d0TzHDleU6KIiYkxbTMCUCp1FiQDNZf9YsofhWcChfoFTV3Qme+YxSpNvvXWeE8r+lSOIfGy/qXiWKkk6lC9Cfhq31MQ743rKFf8Ey9imYHJ2nvFa/aCy44bpEyQEbztvtGv3RxcAp2l4j3j15cYzcS1rZXkpUQwxt0ddzcFi0+ZFjK174tImqhEoZDjHZ7Igev1VgLBOaCtHTK2OKofCq3huL7oHOeMZh561nccbfmTyZbWxoYhAzprDzv42pDL4pD+LBTeUX3aETxnBVxqmyhY6oOrqyfBv6WTd7fRaNpsFVzabI/hyHM2XwKad1xcEYCbRzRHxIg7WpoKluLj5sMvx2rNFDGCC1pRohr3oE3c7ugW41eYmcXSwbV143BTBTAjWjLvzp6Ct0zFnJyXkgXGQco0yF92gkstn6+sIcDNBTe/ePJfG/zTdOBSPi+Lh7W11Fpsz163Gp1jfw5w2U1t4T42JsQwzU+Fq4sLCp8QopdvZm9RrRjQx5rPpZDn8n//93/NyGsVXHbcY8uUcay89JKCJd5M31NNf78QQXYsi/54I0aYHRN5wCK3mo7ZVYaw+KJwomLqTn3aDMH8zHMCm8p0vpq997YwSfXzgMu+inSChRUfAQGipfXJeTKWheGtnsj8lBwuFmwj0mssC3NfSML499FwZpnITy5u/izJq5P8ZyCzdCDRrc4owzKprD9KtMo8+IXxCSEghco2uOxtKudEyizGymT4zZjF5NGuyMfNJeVYKQ2ir6jhTQP39gnpwvt6+fK6irLLeRzatZEVC+ew/nwz99KCGFqeyw6urPZBEX2Eupc3yMs7RX5eDusj1ciCt+uSqWuaubYxFJXA1zP3Ua137xUBpyKINCH/5QgnDPN2NtBHaJdpjJLF8rsxJ4vhvyHuhXyxS9UoFp/mc0+NaMLhIvNl5prD3G60tMWEvrdX2DTdE1ngOor1mh3hS90f66ixEkq82sa1pw2tFoOqo3jX8Xwr1G+kvGs/39poR5tmsTbuF8GlktDk3ym8dIlL+u3ivsWMNdNcziUxeR6zYhaxWEhbInfDP7HQuBBgP7jU8vlCAt4eizllQIw910jyVrDwD1OwL237Q/ZFjxHBpd/iXGqHag1uAJcR+xigWLRBGpPmspeG3AV4qKI5IgHmA8Al/dTsnYHcM45TL+q4eSSZ2X4y5ONj2XW5gA2BKjNwKYzLbQ/2M89bhl9MBtfe2Fohs1HAoba1Q8YWR/VDoS6O6ovOcW7gHO0o2v5ZZEsbfUd/eciAbvDXOOTfIZfFIf1ZKLKj+rRjeK6/o4XmD4J1nFC0dioOzsfHzYvozXtJiQlE5SrHPyqJg1ee09bdxofmT1bcbeyV53RNqf3WRHXpeY7uSmZJTCpFX/uoO7EQbzdffs17ZZJRtB+5nhKMXBZEUpGQsUL/63vMzqnuuMtUTN14lTNJPpiDS6GKtVzJ3U/m7t1618Pd7M7cz9Hzj3BEBhy7wKW25RrrgxRM3pDHkThflBOXcqjsHT0M0yxWNoWkvBJzM6vifcR6yghem2dhXlXM3lgPB/tc9lOzfx5TZi9lw56TXK14izHtJBoe7Z5hNaDP2mKJqkjfpiK4lHkyPnQaoeM9kc3cy5XsaLwj9lLdp+F9/m94TdzI6aML8VaFszIzk/S1c/CTCUK+dHL/mcClC+oJoUybNk2/TcZXIQ3oY+Bow17Lp4IleLqHs6faZKop+Eq1PhD8flzF6L5u45dwpFzgF+HXx9tLyYQoZQSuyObgsvG4ywKJP/HEuAqve7tpILnTXk7aFLkYYKPnzXDBZT+fn14lZ8MCJqpccfeJYG1uOR/6tXS+uERG3GQ8XF2QeYeyeONBzt19Rbux5xrqqYvYqIsWa7pmdmRTcykE4VjHFG+FuJjhPtqfqVFxrE7dQ2Fth+hzORRwqf184f+39y5eNW3h//9/9BmfMX667JuKqERERCQi0ZHOSUdyiSQS6UhJpIOcXA65nIiIiBOFlFxy6yJ3UqPbpz32GK/fWLu926tdiHJOzvdpjDXWZa/LXK/5zNV8z/nMZxLtrmNu1kPalMnmdVr0Bjc8py0hrfglxvZHnIrzx2DwY8XWVUzTuRKUdsPM9OOZGNwVF+43Jou4HKJ8Nr3gYJgzmtAD1H9Lx6XpDVe3BzPa2Qknl9lsvfKC91WXKXnc43ffC7F1x/SuivIHnz/Heu7Xrwdru0Nlt0rKB2+7w0tcDsQtdgGph9OJjVnGspg1JO05hzqrBy0uO6vZNdfA6KjjPVMfGWuymKtxJeZMt4LsarxESrA7Gs9wduxdzwyDMx4LUrlYZ2mt+ZxRNZeQONkZTcg+y3RDnzu5+zebuGyn/toBUrKLewVZaMqLRNczz2X3NaZXFZTcfsrNPSG4GSby05bjVCpRdTuukWgVl6YWakuPkhozl+Ct13h1az9Rk3Q4GiaxOHEf5ypf9dOo1096v0pcDtG3ZTj9D5HvXD//o4fmO/ffqVv2U25UhwYs6FTXfK/NAafFLC6HqjwrbzOc/rcaeX+vgIwoP0Y6GvCPL7AEn+ygofQwST9NwuDojPusGHYW3Mc2ScZQ1Oc6qDi4liVBvozWjGCE1h2/+VGszzhDaWEiAQYNk+Mv9Px/6rGD9mr2hbnj6BZM5q3u+o8SyTxIN4G47O3McTXg6qpBrw7o03Px99v4ZnFpel9GZugY9P6buPzOhOldGdm/TETvaMA7cDHBE51xnhZNxh713Jd7yMraRebODNLT9nGpztjtFuvogKOTE04DXRS3q/m/0zNzw/fjYzb8+7vm8v/9z//wP6rlf//3f3tPf6IJYd8zI2ZxaQgm9VIppaWlXC87yPKxDji7jmGMiw69mztuOk9+WRfHT0uiid2wlR179pMcNoZxay/QTAfVZ7LZvXsXST95o/GJYKt5rsM0fvXT4LkwkUxlzsOdqwjQjSI4PpPdu3eTmRCCu8aPZWm72Z2VS9bqCUMTit78IXFm+oqd5ucoz9qduYkwT+tUJN3BJA4nJZGcmk5G5i52/hbLXA9HHH0SuGKulxn5+OQaeemrmOOlwzApgrQjh0ldOg03zXjiCp9S9vsvTNBo8Ik6zD3lmpYqDvwyHo2jK/4x+yh92cm7mnJulJeSt2YyWr8k8rJCcXNZSM4TI0ZFXCoF0hpK337t3N1z2VJbyl/ZSfwa5I1BEY8egcSk51P1zl45dtBYdoxtywLx1CqBYxzQefizOPkc6hhLg6mkG59dJDf3Ly5X1NFk1uCdVObEsCg0lMAJBpxG+xGsdhW0bAcorqFjphESFs2m2AB0oyL4s6Gviut4VkhKiAcat5lsPFtHFy3czl6Eh7MrfuExhPsZ0ATt6p7TaEjy2VIQWwtZNVrD/H2fn3Ow/2LbQtmOObhpvFl6+Abnt8zCVeNBYFQiO/bmcvjoMfJOnOSv/ALOFp6nqKiIC4UFnMk/xYm8oxw5lMuBA/mUleayKkzl7tEPx15umHa/L04ttrgIDtZ2f+fs1dJB263Caiht99vt9iNFvy22ua/acQtdMB1PJ0fc/eZ9+pywFRy4a2l0Mvdc9j+Z8wjzFD/Q1y22r+X0Jy6bqy9w/HQRV8vKufz7L3hqZrDdPM+R/fVt3MkKwU3rz9bSp5xcF8y8BfMJ8NLj6LaEw3XtPC/JZMkELTrfaA5XK679Rl4UpxIyxgmn0TNZuauQh6rpbbvuZRHqPQn/wLmELAgh0McFRwcNM7YrkWYH9mcTl9YGOhNNtXe7A+mVF7MvSpnzM57ivh355qlXnr9Q/dBaxFpPDVMWryDMbxTODnrGBS0j7UJ3cCDT2wqOJi7ExxIkyzXwN0qbhyivSw4Tof3v/A/pyT35zqn+Rw/dd+7/nbrljxzQZ7DlWSlFw+V/axfvn9yg4EAqq0N9cXVS6oVzWHfoVq/GvO5y32Fu6Iuf54XWQYPn3Dj2X603N8YNvj63gm3b1rF8w04On79FnbmHy8Sr4i0EujjhGZHLPdUnvec7pHS0Pj/DKh9nnH1iOFXXwo3kKWi81lLUYqSxeDuLvLU4GiYQ9Essidt2kLk7i6ys3svuXZlmbZaxI420tEOUqjzA1M8a6Pa3iUvTO3O4dJ3Prxx5qH7bZh4XHyItIYafw0IInhNE4KyZBMyYwXR/f/ynTWPa1KlMnToV/3kplLRCR8lm/L3D2PvQ+g/0S0lv5+KGKYz/5SDWoWNfumJwvxt5nD0PJ+9VHL5RTnl5uTnabX19PQ3qMO7PLVEmu5p53WibgFrxfa75+wIlN+9R964NEx8pSl5M7NHePs1NBTGMcY8m/10rV3dFs3Tp0m9fft3E/lOnONYn0qg14ugA1nklPFFqQR9OscJ7AmvPqXpVu6rJCvVm7g5LRamzgoy5nowZYxmDNdYbv5BYcsqUyYLfcz5+EnpHJ9ymLCZhXzFPe1zJOnlxr5qy/WG4ObszZ3MhteqaV2cthVtD8PaL4/yrDu5nBnVPf+PgwszfCinYOJOg1DKzH7xZXBpm8tvVp9TW1vZanlVmEWpxi226kcpsFwPjg2NI/fMatT1p+bSVtD+/Sf6ejUSGRLLrZu+esW+vpPf3PCNPz2eTpo6a/NntHaTHBhGSUdEzDkt9167aMyRGxXGkSlXrpZWHBan8OsePSX6hbC160T3Wd9D5bHty560U/DRzyVaHQLb9/IUtIzW/L2FRRrll0HozNRf2sml5GHMCpuE32ZdJE32YMN6bcV6eeHraRf/08GDcvJ2UPy7hUNZuW4OI0ijyFUv2mWo6hsR2Y/k9efag7VaBNpS2++1220pFXrpdBG9VlO/P2qvlvLTfKXpmacyxhEQPzrzDi5cvUaZ2Upb6s3F493KLDSWnrm8DitWY+hOXbWdXMdo8Fc0IRjjo8I7Iobq/TkbTe65tncPszSV8UMa6H0sibs0a1q5PIffv57y7ksgUjZbx4TspedG7Ear92Xm2L5nEmDk7egcAa71C2pJQFoTMZ17wfEIX/0p85jlqBvC9sb5TX3HZZfsGjhiBg6MbQek3+hknab2Dbd1VlUGg1gGtRwCRSfsprH5jc62ynUbHiwoKctLILmrExBDldcXx/9T/ECsu+c4pDkfW/9FD9J37f6pu+YOKyyGpKwxFvXAobK6Fmv0LcXNUvqcGxgUuJWl/EQ9tXZLW4t57bWri/ulUInzdCdxe/olv8FfW59L2cdFe1JheUJgwHe/5Oynv6yjZK01N1zNYviaX2+87eZrzE7OSbePzTR8fc+XPTJJiowhfaNFmgbMICAhgxnR//P2nMW1atzYz67OIbKoGKsl6pcK2823iUmlzaKjgdp1aCdhu+t/aMvH+5nF2/XGJm/XdFZ//+7//G/pXbK7m8qVq3gwyQ4c+YYO/Y+u9Ys6V1fHJ4YsdTym78axfgaS0brW2dDdgGJsaqLn/gJqGpu6KkbGddqsJdryk5s4D1I31PSnvesOjimrqzbGEjDS9a7L5pvec9G0bprePqah4zLtP1nvbefGwgqraJruATd/2vD5XdbXTPsxsputJCXn55T3j4fqk+UsHOjsG5pb3pfsMwe9DYbtDY7fKywyd7f7rdtuTN+28eHCHmle9VZ/pYx3V1nLVUk91RQ2vrGW951rVhrmMV1GrrhSYOmj58I43r1/x5kPb58v858qR6R2Vf1dgN/+56uFtNLcMfSE0NpRwKDuPclULsqmpjvvVd6mqquZhveU7qErJpzebuXf1mqph79NnDsdfhqIcKu81dGUR5DtntZTu/9FDxfb/nbqlIs46ldtJAAAgAElEQVRfU1NRwf1GVeO9Fes/vf6H0zIUZXpIbK69huJT57lV1/z1dbT25n7GXQ51xrXS8hWNkuantzRQrwx3+hf/vllc/otp/tce/eHDB5qbe/dc/WuJkQcLASEgBISAEBACQkAICAEhIASGEQERl1+RGUajsU902K+4XE4VAkJACAgBISAEhIAQEAJCQAj8ZwmIuPzPZq28mBAQAkJACAgBISAEhIAQEAJC4J8jIOLyn2MtTxICQkAICAEhIASEgBAQAkJACPxnCYi4/M9mrbyYEBACQkAICAEhIASEgBAQAkLgnyMg4vKfYy1PEgJCQAgIASEgBISAEBACQkAI/GcJiLj8z2atvJgQEAJCQAgIASEgBISAEBACQuCfIyDi8p9jLU8SAkJACAgBISAEhIAQEAJCQAj8ZwmIuPzPZq28mBAQAkJACAgBISAEhIAQEAJC4J8jIOLyn2MtTxICQkAICAEhIASEgBAQAkJACPxnCYi4/M9mrbyYEBACQkAICAEhIASEgBAQAkLgnyMg4vKfYy1PEgJCQAgIASEgBISAEBACQkAI/GcJiLj8z2atvJgQEAJCQAgIASEgBISAEBACQuCfI/B9xKXxKRcPZJNf1TbgN+l4eJmCazW877K/xEjt36cpul1Pq/1P//R+yxOu/f2Qgb9VC5X52RwuacBoTavpA7dOZHP0+itM1mOfW3fdpyA7l+K6njt87uzv+JuRp8fXE5GYT4Mq4V1VR9icksed5u/46GF+68HZbhc1f64jOruczqF+z84nFB3IIqfo8dDf+1vT+pVlyNhQwr5tOZR+tH+gibfleWQfL+edyh7tzxrSfeMzSs/foLal7wNbGx9yt+bFl78NLfe4evUxH5VbtNdSVv5sSPLG1PSQkutPBnyvjtpyyusGb3GDs/0hzZ2vupmx7jK5ew5R0vBvf1e/KtlyshAQAkJACAiBYU/g+4jL9mLivfQsOfJmYAKKZi6s8cR5wnqK7UVKVyVpM5xxiTjKi751uiEE3MmT05uIij/Okz4CV3mMkWe5i3EzzCGzqmNgzzW95NBiA1OSy2yVPuNTfp9vYOaOu/T7GPs7t50iyjCBDSV9n2l6XcHZvKMcPdp7ySu6Rw/GD6dYOd4DD4+BLF4EpdmLHBOdHUpKu7i7IwD93CxqeupjHdzYMhntjDQqP/Mybe8aed7QQIN6ef6S97Xn2L4qhpiYzyyr0jivznjTGy5mrPr8Nf3db0UCR+528K6ykDw7Xvb8Prd/7Ey5nR0O1nY7ufmbP55rLtAOfCzJYpUq/StT8qm+0vuYlVfcH7dtdmVvN8Z6zsZNRTdiBFrfFeQ9VO7+vf+GvgyZGk+x3MtA4I4KepeALh7sCsIwL5sn7bUU5h6nsqmfD8Sg7d/GrLM8hakad6JPvbX7ril5OA1dQBp3PlMOlDs1F8biqZnB9ooOnudFMdYwjfXnG83362x61U85aeT9F7OulauJvji7hbLv4RcSoCTCWMfhiNHoJkVz5L7SVGbibcW5AZSLPIpr1E1rg7V96Hx8ZQDP7f19M5fPY6coNTe4dVFzYjMrVWXGWj7M65VJnKjpy6Tj701M0kxmy43BC2ybhciWEBACQkAICAEhMCzEpenNSX511xK4s7qP4Oqs2M50zWii/7Kv0A115pl4W5zINN1IZqfeoE9HifK4tjJS/Efit/nap3tRm86xMWgJWRWdMEBx2fLgL7bG76TkVT+V437EpbHxb05feswHc2V3JF5TpjFtmrJMZcIoZzQhe3lqFYDvjhKhH01E1kUuX7786aX4FIkBOnyTSntX4ruqyQgczZLDdVTai8u2q2ycqGdu1kNbz2yfbGmjIMYVhxEjGKFenCax8UgGQTpPQtZuITk5mS1rQ/DUeLEgTrWvCyb7kfVluivG+0N1uM1aRsLGjWwcyLIuDB/NOOKLP3I/exHjPiG0x7hqcXDQ4OL+aSHuNTuVMlV9dPC2qxaXJt4cWYLBL5qMffvITghmdEAaZRX5ZO/eze7dmSSGeuIatJbM3VnsO1/Tp7yY8bc+IG+VH4ZRwaRdvMaByPHox4Wzp2ygjT19MnGAB4aiDJn4UFPKpYsXuWheLvDH6iCC1u7ljPXYpVIevu+kemcghpB9PH1eRFLgKFynx3HioVr8AIO1/543b6d082Q04+K48LGThopirty1eh8MVFx+pDDWE21gBtWK3jE1UhA7CY1bMBnl78wC1VldRpRtR3diz39RXWKs+5Of3Z0YE3mMelVx6Um+3Yax4Rzx0/RovJdypKaNu5nz8XB3x/2Tiys6Ry0/HXzRI6wHb/vw4djP6Byc0Gi1aL9m0Y8jrkjh0klZ8hQ0HkFEx8URp16ig/CwCkjTW86sDyQoudjciCPi0s4gZFcICAEhIASEwBARGIS47KRi+wz6VIbsK0f97WtDyakzQXMxqUvCWBTojdbBgE/QIsLCwggLW0zs4ft00cbVxIk4OozGL0Q5rl4WE3e05jOi5lsItXIrPYiRmknEFlRTkLzE7plhBAcEENwrHd1pWpJ0prtHS6nMGiax6e+OHnHpE3ucispKKiurePTioa3nsvM5pftW4u9qYOKSdC5a3NRMjbmEae3EmIWjdmE6OTHe6P2TuVKSwlSDhaXyuu1lJPtp8Uu+Ya5AmQmYK9fuROXeotKcBiUd/Sx3ivktqB9x2X6ROM/RrDz7sU/P5fuClYx1VOebOn+U7cWszq3mw5s66mpreZATjt5zJSce1VJb18Drql0EGQLZaa5pQ1f1TgINQey29L507/cnLvV9RfBnstv0+jDhekVcfq6S3kpxvDeaiRspsdMn/d56yGy3r7h0DfuD5yZoL4rDW+kNay1nT/QWCl60U751KuPiimz5a5e41pp8EoPc0Y6PYG/ZS1oVIdzxhPyEmbjpfIjIvMLzvh05dncZzO5gy1AXlbtCmTBuHOM+tYyfT8btNu7umIkhNId6pU2mqYKcSB9GBqRyU53Ng7V/K4r3Z1nlqcEvuYx201v+jNAzetU5ixvsJ8Rl+wc+qHz5FTG2zN1A6P4ntu9W03X2bEinqLadj09vce3qVa5alpKTCUzX9BaXLc8fUNVf+a28zcmEEEITDnK5wr58V/HotbXft5XnD+9S87KdzscnSd58jPuqNFpft8+6vYi1HvpucTlktm8Rl9b/B8oXv03VcmOfiI4nlJfX9W78sohLfVAm9+3suuvhboL0lt5Jc0OfFkN0vjnPRFzaw5V9ISAEhIAQEAJDQ2AQ4hJaG+5Rcfs2ZYX5FJTe5vZty1L+B1FjdMxLK7Edu13OhdMFlCrnVNTwSqlDKBU/rROTIzayadOm7iVxJXPHaJisVOJenCDKXcPEn+JtvyvnJUbir3cmYKCupV/DqqOanNhVZF19RHneLnbu3PnJJSN5E0lp3b/vyivnvVLJ7SMutTg4OuHkpCx6QrJLyJ6vx2dJHMumu6HzmseGo3e6r7Wm09jE8yePefz4MY/v7yfcMI7VJx/y+HENVzIXMtYlkLTyFjqUnkuVuHxXsApPw3yybX6r3enROaIxuOHm9rnFFb2zcx/RZny2jxCNC35hywifMQon95lELF/JtoIyDoS5Mnb+OlLjQxirmUREchrJEZNwdp/HutQEQj01TN9e0dO71nxiKQaveKwaz1z5MwSQcrXO7DJbdzWFAP0sUktV+4b+xaVP/Dlq1W62n9mur85m4ZfEZXMRceO0BKRX9qTXmh39rgdtu7coTQvCy8MDd4MzTvpReHjNZsP6MFxCdnOnvoFnJ1fgpYjLN3n84vYLxz50UJo0mfHx3b0vvdLVXsflPcuZ5qJjQngGVxoayI/xwS+ukEZzh3gLD06uJ3CUM27+y8g4+7D/3vleN/3GncGWoQE9tsvcuGX46aDNTbnzOY9rW3pfreTTIOy/+2ZGnuYsZOTIheSYXQI+IS6nJnDy4kn2b1/Prwv88XSZROJVq6gz8nhfKCPdf+XkayVDOinfF8uqzOJPjhk1PsomWKsWl929dF/foKdhXvbjbkHbWc5WPz2zM+8NzM6tNNXictC2bxsSYO65NIvLLl6cicV3wk/sut6fl8pHbqQGYtBMY2uZuvWnm4mIS2tGyVoICAEhIASEwL9LYFDi0pz0jgq2BxiYEJ3HE2ujcz9jLpvL0wlydSf8oKrV3lxJ0RH1l6qy0HWHtBlaJm+5SllqAFr3KI6rx9wpD20vZNVoDUG7HnxdBelbWHc20aRKnu0WH7kU74NrYAaKB2zPn/JOdj2XfcdcanB2DyBm51ke9Ot/23M36HGLbeft1RQC3cax9M9H5rF25jFgVnFpfML+UBc8ludjrrtab6GkR+9pcSGzHuxnbaxjf2jfHsHmghW4uwWy6rdtxC/wxNk7jIRtaezdvQpfXQBpFZ20Fa5mjMcaitq7qM6YhWH+Xp62l5Psp2Nulq13uV9xqem/h7bHhVbTn7jU9Hax7a933P6Yo7XnsoPrOxYSMGMGM9TLFE/0jhrcfaf3Pq46JyA0jVKrVhgC2/3wooZ7d4tIDtAwOiqXO/dquJcTjs5J0+0iqHFCE5BGRU0288fFcr69neL48b0bADoaKT+WTMTkkTi7zybu0C3emsWkifclm5imcycs50HP2MyO+hL2LPfH1cGZ0dPCWb+nkBo7PdaPdQzu0NeWIYzUF2WxJSmJJPtlcxonC46xLWkTK4Lc0UxcTILdOclHbtl6dgdp/+YXf1/EOh8ntIu6e5RBEZc63KJyuFZ4hN1bVhM6yYDDCAcc9Z74h0QRvy6M8Vo/tpZbPg4tV0n0dcbZbyvdh9rIjzagtfRS9we4r7iErua3vHr5kpcDWOpKswn3ckYzPorDDyzdufbisvMGGYsC+rf5gHn8Zh3r3UdcDs132yYuTZg+3OL38HFoXGYQn/9E1UNp4mVhHL4aHf6bLlvs20rM4hbrOZ/YTb3tZVNsCF49brHK+HfpubRSk7UQEAJCQAgIge9FYPDiEhOvixLw044k0DpW0U5cGuvyWTVRw6h5GZQ1qV7lMxV03zWbiRpjICizSlXJsFzbVkCMq4Z5v6uEquq2X7/ZRU3hXrLM49p2k51/1+Lu1sr1lOl4BG7k9GO1rx0Ya/ayYKSOwIzKnoq7+bnKO31RXPYN6NN5I42wRWmUNLVTsiPC5o67KABPJz0TZs/Db5Qjjq6+3W65i1ey78gWS8+lkdbSJKboZpB626p+LBSU9Oi0eAfau6za74cw1V3TW7jQTslGHwxhB2k0qQL6dNSwP9SVMVHHzcfNY99Cc6gztXMpzpNRMQW0dpSQ4K1jUW53sBIlNf2KS8Ms0is+0trayseKdGYZgsioalbt9ycu9fjEneFxbS21A1mqD7NmdhgZ5sGS7Vxc54l2ZgJHT5/m9Om/2B05Dl3QJo6b95VjpzmZNAedRwQ7/+reP7ohEK3HWszDvJSXGSLbNb0+ys8jHRmz+gzv2rvHXNq7xd66kYL/tGTKOts4EzOamT29q+3mYEAanTcLNhym/JWdXyAtlKcGExB7ime9xuF18PzGETYv8WPiz0ds43MtJvNtqyEsQ3S73OsmhhG3fj3rrUv8EvwM3qzNzGTZknDm+OjRjJvJbB89zl6zWBweTnh4OJE7rtjGRA/K/hUS7VSkB6JzGIF28SGeVp5iR0IUs8Y6MmKEA04jvQkIW86vc8aimbqZUkskra6qdAL0AaSZI10ZeZyzEBeHEYMWlwPLGxMfbu0lwluDdlI0fz5QtY7Zi0vlWz1uJHMTcsjNzbUtB5IIGaW4w1uuHaC4/Nrvtlpcmt+t7SHHVkxGp5lA5IFKc2Cy1spsFro74b5oL3d7f4ZtYy5HTWPhzz/zs3pZOI3RIi4HZjJylhAQAkJACAiBISIwBOJSSUkz5dsDMbiFc7DWCGpxaarn6C/uGPw3UGTfA/mZCvrk5Bt8eHaf6/nJRG/Ip9dMHG35LDNoCM2p7wkuMTgeHVxJCSZgxnQmujuji/iTt5Ybml5dY2eYJ1qPBaQWP+/uKTXWcTTSA41vAsUf7J6svNMnxaWRjtYa25hL1aUfTkThMkbpneqipiiXnJwcy7KP7cv8MDi6ELA603b8wDGunE22iMtmLinjBcdFc6IXKGtAE1fmxmeRnZ396WXPdqJ8tb3FZVcl6QEG5u5Reh9V4vJdOftXribnXheYGsgNc8E/tYJOYy37QgwEZt6ny9y7rCfyxHsazqaaI6BGzxuPs2EyC6NjiFm1k6KyzMGNuTS18va5XRTaft1jn9P4zlrB7haX+sWHeGnu4evu+TD8koe63cMshH0SuWbW6t2iTz9AcTlw2zXx9sSveI40oHMZxZQVJ7lzeAn24rK8MA7v2amU1t5hd8hI5u+6Q31DA8/fttLV9IjqZ0rXYye3/4gjZvlylquX6Gii1fvLV5J+4aWl3Bgx9hKdKoP86s0hLEMWcTnSLk8Uj4XVY7wtY2fbKVrrydjYAi4keONiGUvXJ9lKedR/o/0r0rIyk2AXLSNHatEtPkTthc2EhEURMtEZt8gjNJjFTt8xl503U5iqn8Puh0ZML/KJ8dLg4jYSzSB7Lvu8X58DndSe28RsNydcAhIoqFW7VShmYucWaxaXKhFpvZ/98QGKy4HbfveD+ohL5XBXHQXx/hicxhCSlEr0JA2G6Ylc6i/gGSZe3S4g78JdnpdksTrujx5PEtOHai7kFXBLuU7GXFpzVtZCQAgIASEgBL4rgW8Ulyaaaq5TbI3eqKwLc8nKPkWRsn1+NxHuWoK2nDZHfDz/Zya7Dp+3RH/sjgJ56UoVL18rYy41zN9WaPutKJeVE7vHXHZi4k1RPL4aN0Ky79pc3ZpPEKnVsPiwNVrjUDFq58KaMehV4tJ85/ZH/LVuOi66iSzdd53ynMWM0fgSX9RP9E2zuJzAmuPlXC08zFp/DW7+i1gSMhPfsS74bswnZ7Eez+UnqG83qxuMTfc4uNQTQ+h+FG3e82d8RWl2JBP17gRvu2wRQz2/onaLNb0rJW3eaEYGJHPVPPjTcp7xDY8qqqjtb5oG262UqC+8qqmguq5nEhPzr50NldxtVBJlEZdB6ZSUnuZkSZ15DJex9gALXaaQrPQKNp9l5RgPYi+0QfNJIvWjWHmuhReX9rBp40bWh/uiGTmdyISNbEzaT0n5LnO02HmrN5ndHzetnmeOFhsSq9rvEy32Mdnz9ObAKh1KoJ5PBD7qcas1u8c6qIKv9C8utb7hbFC5V25cMhntF8XlIG3X9Iq8qJmEhfnhGZ3G5lm+REWHYPAJIz4picSo6bgFpFF6NBK9Q1/3YaUnrVsgK1nVxd28ZDZu2MCGTywJUQG4OLgQcdQW8bOXCQzJzhCUoQGJyyZOLHXBN+kKRZ8Tl4Oxf1M9h8NdcZmznew13tgaJD4x5lI1FUnH1UR89KHsr3tLccJENN4x7EwMQPc9xaXxBSUZP+Gt0eAdnsX1bv/o3rnar7h0ZVG66hvc8w1Xic4+4nKQtm9JVb/iUvnN2EhRgr+5x9jBZQG/P7QTyb3fyjydSmNuGHrVmO5ep4i47IVDdoSAEBACQkAIfC8C3yguuz4bun70SI156gkHzUhGfSq0/cR4LjQo4nIETloDBoN10aNxdDIH9OmuTjRxbbM/Wt0Mkv+29C2Zezy1/Jxn3204WEyfqBgrtzW95fquMLycHXFyMhC47Xqvni6l56gi+xdm+Y6xCAEHnAxjmBgwn/DoODanZXPo1AVuPHnPs5OrmTLSUTU9hwNarxC2l9gCWbQ+Osu2sPFoHUbg6DaZeeoItREZKEOh1OLSnMTn+cR46/Dfdp0H+xagsR93+BX7Dm4rKLB29tFOY8U5doZ74Wi+h9LDWUIHLZQm+WEIzOBuF7RfS2SiSwRHX5kwR7zVeZNwxeam269brHYMgVGxxMbGEhsVyBjnscxW79uLS2Xe0wA9M9Or6DI186puIK6xddS/sYbEHEpxOTjbNT7LIWzqerI3K/NcnqfpzSueHl6CYWI4iSkpJC+faRaX1rkTjTVZBLuGkdvQ3SjxVdZuauBElAe6Gb9R3pOvX3WHAZ48mDJkfcRnIlFbx84qU+TMMhCyr4biPuLSSO2Q2H8n5Znx7K3+yOWErxOXTaeW4ab/hWPvOynfFsry48+o3DHzu4lL44urZEb4oHVyJzi5EPsOSyvZfnsuvZz6CfhlQOM06jNusYOzfWt6PiUuO5+dIX76SJwMLhgcdUxZdYJHtk+J9XK6Hh4hLrzbxT9kqjtO+gkEqb+VP0WQUdIuPZc9xGRDCAgBISAEhMD3JfCN4vLTiWp7mMcqP1c0zoq4mkrsKXVgBrvrzCLxE4EhkstsYxmbS0n21+DsG0/RW4tw0ej59S+rYLC77zfvfqZiTBs1J+PwNzgwwsGJsQu2c9nco2d9mInGoiyS03/nyOliyh800mw/BM56qqJV29/zok6ZoqOOuoY3tPT0WLZRkbOUySMdGDHCmWmr95N3/DjHLcux1J9wN0Rxqq2vuAQjNVlz0U/axKXaGnMkXyWC762Lxzl4spgyazTf2zfICtOjCUmnpOeYKtrv7dtUVD7lvamV8pyVhPi6maeccXR0xMl3FccqX5nz5uP1FAIMPqy98A4Tbd3jMxceMLswmyPB6vxIuWnrcbAXl2a3tePnqbL0tNpPRWJ6X8X540VUq4MetV9inZeesH0PaRyQS6zKbfb5Kz529S8uh9YtdiC2+4Ybyf74biym9DdFXF6gXempP2J1izXxvvomdxo/WsqBkWf7QzG4TmdzH19slWFZN1vucig2is2FdXQpAXJOLsNL60diyVA3yFgfaF0PpgxZ72HkWf5WYjMKuP/oFrtCDMxILqbmwXmy4jZwRGnJeJdHpKs3CZe7hZ+9W2zHq6GwfyU9ipDvGKC43MaRrBgioyIJHq9FM2O72UXT9P4t781jlr+HuGznaeE2Fo7T4OQ+h02nH1nGi1tZ2q377blU9VBaT/9mt9iB2L7tu92fuGy9d4ToSVo04yP5o7KB0vR5jHbU4BN1kGrbpeaUGuuL2ZeWSmrqNuJCPNB4h7EhVdlPJTUliqmakSw/3Sbi0pqvshYCQkAICAEh8J0JDKG47KT+4jZCvLyJ+H0vq7z0LEzOIHz8BMJ3/c2rHvGkeqOBiktlGruSLYRFZnL1pQnj073M17jZWtVVtxzcZv8VY9OHKo6uD8Ld2YWA+FOUFW1jnrsTOt9l/HFHPVJvcE+3Xt1ScZDUPblsnGlgwb5a25x4SjW3ZAMTPikuof18LO76JRx5Y72bkUfZ89B5rKawx+O1O1Klemyp9eze6w5KkoOZH5NCblEV17YHoJ+bhTLTSeeTPKIn6PCNO2+OTmtqPE7UGDeWHGkwV8c7y7fip5tNpmryOXtx2ftZfee5tP9d2TfV5RCq8yI2ZQ3jHPu6ivZ2h7X7XaPMqfnRHNDH5uJomcogOIUClZv3ud/mof+iW+wAGkY+absN5K8MIfVWizkoTx9x2XKNTZPH8svRessUEpWkz9Tg4NB7InuFibGuhOP5N3nebuLjjVySt5/ifvtzipICcdX6mOc4vVu0h+S91/hgMvKiZBeJWX9/cgqM/rgP/NgQlaGWa+xak0LBk0YOLR7J7IwL5Eb6E3n4qZlHc2Esnm6R5L1pNws/e3FpS+9g7N96l4GKy1SK8n9j+a+/snxtCkdv1FD7wtpNrLiVD624NL4u54/YANwcNXgvSuX8sz7RbqwvYFv/k+Lyk7ZvZWI/z2UHtedTmD/WGZ3vCvJqLO9jesu11Lm4OTozLmI/d3q+Y7bXUgIvFcV5YljyJ2+sHfvK/xe9O6sLpedSTUq2hYAQEAJCQAh8TwJDIy5bH1GwdQFeLr4sP3KP1p6APq/5WJVL1EQXvBelcNp+3o2vEJdqCF33dhKo8STuYt/KlPHtIypu36X2o7WGob7yS9t2FeOWZ5QcWM/8cVqc3AJYc/gOHyy3ba7MJcpHg6NbIIkFz2y9rOaxiTO/yiW199g5Sxq77pMZpGXUlGBCQ0Ntyyxv9PpP9Vx2UaMISddo8q0VMMV9MFCLx+pCc+TF7rt3i0uHT7jJaub/3k8EUVVAn1dFrJ+sY/SCLCqUWDKmN1yIm4h2ShLXLNNatBfF4aEN5YDKhVMtLo0tbyhPDxwAJ02vOfmaz65ijOEncp+9ob7HJfYRxalzcdX4EH2kgmfmCLI1lOSfoeyxym22rpGmzv57LjVuE/BXTTsy3ccNzRCJS7XVqW23pfYpL41KMJi+PZcNrY85stQTje8mrrYYqc9biue4cCJmj+yeyN5Yz+3Sh7w3GqnZMxft6Gjy3xl5cTAM3VhlWhglX97yd1owbk4eROXVYTQ2cOtqJXf/Ws1EjSc/H6rpG4lZEav/ehky0Xg0EnfvWArfK1NIjGR2ZjWPDoXj7hHJsbo3FKz0xCX8MI2mbuFnFZfGukPELNhAvnXw8pDY/0DFZRpWF2YlzzsrUpmu92Gj2TV86MRlR2MF5w9sYJ6nBqdRAaw+UM7r/hrv1IZn3e5PXHpp8Zyh+saYvzcz8dZ9zi12YA0r1scqa7XtW4/39Fw+raVo2wI8nR1xD07mQp2d24fpFcWbZzHSwQnPn7K5rfZmUG7WWUHqdB3+v93q+Rabnv9BmF7p3e4YYM9lK09K8jjwx0nKGuyeb02wrIWAEBACQkAICIHPEhikuGynrjiL5f5uaL3D2Xn1ZXcvS4+47A540/X8MhnhE9DpxxOakMPlpxYF8o3isrM8GT+ND4ndoTxVL9hFZdp0RmjCONg9c7zqtwFsml6Tt9QNndL63V5FZpABB40Hs1f/zpW6vkK2s/YsG2a6ovFZS6EqeEbbyxqqKiupHOBy98nbvvN1msWlHv+4g+Srpsj4K2MJY3v1XM4nJm4Bc0LDWaJMW9+R0r8AAA65SURBVKJ1wism3xLoxcSbs6vxdnLAyTOKo0+tLqqWOfYWZFJWXU213XLv6dueCpqNmkpcdn3g5onjlJvdWTt59GckXuYAR7Yxo03HI9HpIjneUwlso3Z/GDqDHyFKOkdOJanwbo/rruK+e/P0BqbpppNYcBNlv3up4EGjtaej1RwVVxuUia1D1MTr4iQCDO6EZlVgsSxMDSeJ9tLjs/QPKnvSoLxN/+Lyu7nF2gCat/rabm9xWZcTisE3lAh/Nww+swkYN5qIndlEjhtDeO4NcsJcusWlEmDFaxoppVVkzdUyZkUBHzD1FpfKE01vKD16nNtKq0hzPstcDETmNVC+IwgXvT+JxfZBqYZBGWorZ9sMA9O33aLDHIhFEZf36Oq4w46giSzL3MYCF3eiTylp7y0uuyrTCTAEs+eRoraGyv6/JC67uJMZwoTQLKpVmqS1YAWjlN5yJaqypdFpcAF9uqgrTCJoVPd4bcfRYey71/e7ZGdyvXf7E5fjDATEbCc9Pb33siOLgoeWF+oT0OfrxWVf27f1XO6/e5XUYG+mx+Zx3871tecFjPWcXeePb+RB7ls/CZYfP15OYKJmCltu2AZmdt3LZLZ+KinmiUXbqCnO4/jVZ+b/UR1/b2KSdZoS8z3aKE+fhd7RFc8xWkZ4RnNK1TDWkwbZEAJCQAgIASEgBD5L4BvFpZG3lSdJjfTDxdEFv+hsSl+qms7txKU5Baa3VPy5gZBxWhw0YwiIyuLvR0eI0DrgNsGf6dOnW5bJeOjUAX3s02/idV4krs4BpJvnkFP9bnrBwTBnNKEHqP/ajkvTG65uD2a0sxNOLrPZeuUF76suU/LY2gWoeo5q0/SuivIHnz9HdfrAN83iciBusQtIPZxObMwylsWsIWnPOazJMb06zzpfHZPXH2ZvhAf6iUvZU1JPOwN1i1UnVyUue7K6g8dKcCKdG3N3lNOj4UzvOL9mPJqJmyhtfUFhchgzvAw4OjigHTOVBcs3setoMQ+t3cCWx9iPuVQ/Xdk2vcknZqyOoF33LWK8g/pLKQS7jyY47RqvOzpob2ulpfkjTR/eU38tk4VjnXEPSePqa6tBDKW4HArbVYlL03MOL3HBwdGNgNhDVLzvou5yNqtmuDEu6hhPO5+bp30Jy32B8e1RIlznk3lyC1M141hbpNA38erwYrRuMRT0U0E3T4+hm0WGooC6HnM4wgOncas5p2oY4V8vQ0Ye5SzEzXM5fymhcNXiUmkaaK4lf5U32mlbKTMLjG7hN3JZvnmsYVthLGNclvFXMwyd/duLyw/k/aLDEJnHe3sj7dnv5NY2fzQea1CCJ3+LuOy6u4OZPR4aHdTkrcBXp8dvzUnKL2wlaJQTI6f8TMqfJTz6oFK1PWnoZ8NeXBqfcvHAPgprvnB9+3lix+i6GzbMjYJDYfs2cZlTZ4LWFtv8pP0k3XzI2EarTT92n9VUSkqAHtfQfWaXfeulLefX4KkLYV/vSV7NP5uj+arFZWcZmyc5MTf7CcbWy6z31hCR1/NFs95S1kJACAgBISAEhMAXCHyjuOzk0dEopvj9Qtq5R30rBP2JS2tCPj6kMGsda7Ku02SupDgzfcVOdu/e3b1kbiLM0zoViTLI8BaHk5JITk0nI3MXO3+LZa6HI44+CVyxr0C3FrJqtIb5+7pbp62P/PK6hbIdc3DTeLP08A3Ob5mFq8aDwKhEduzN5fDRY+SdOMlf+QWcLTxPUVERFwoLOJN/ihN5RzlyKJcDB/IpK81lVZi9e9nA9xenFvf0vGEWlxr6HUOo+5RbrO1NTe/LyAwdg95/E5ffmTC9KyP7l4noHQ14By4meKIzztOiydijnvtyD1lZu8jcmUF62j4u9Zoz005cGl9SkhGGl8aNoK3FPK/OYqGPH7Pmzid4xjj0Dnpmpd+mXYmiu281q7Zkc/JaDe/NdVgTb24cY481zy3rXZvD8dZMYEnyLps9KL9l5XK5rombqQHoRv3Mn+YehQ6zW62roxL4yG5sZZ99R1wDt3DJPG9Ht7jsjnr7pet6/+7YZ57LobBdlbhUetqu7Oa3P6vNdtD+5AwbZrkxOjidUnMvcRMno9zwCElg28oA3CasJWOdD5ppKdy0VLg7SpOY5OTC9GVb2anmu3Mr0TNc0Qak2+YBfHmdwtLGbm8Dq+n8y2Woogk6X5RRUHydW1eucaM0j7VT9ARnP8KoBCb6K4bxmgnEnrVOQ9RJeYofGu+fSNqZzto5o9EFZVL9aijt315cdnI7dToa7UQWJ+5gl5qzeTuT7Qnh+Bqc8FxVwDsz2wG4xXbVULgvq9v2d+0gMWwCGt18ss29sB+4FD8Z35iTPLPowOYH+aRETEYpAw4aV8b5zSJ4wULCwn5i8eLF5uWnn8JYFLqAkHlzCZqXSEHDdbb66Xu5mluzvve6mec1NTypa6CxsZ7q0+vwczaw9MQHGMLvttkttk957V3u+i/fTvgkXqWjuZKcn73RuM1j181S9q2NZWNKGhlpm4iYYmDkvD3dXg6ml5SfPkHBxWuUlZdwLM4fjWYm6VUWmKYGDocb0PtFkrAulHFOvmxRpleSPyEgBISAEBACQuCrCHyjuFSe8ZkJ2D8nLtXJ+3CKFd4TWHtO5ePUVU1WqDdzd9zuds3srCBjridjxrjjrkxrMtYbv5BYcsqUCKW9/zpvpeCnmUv2456utd4nfHLPSM3vS1iUYe19a6bmwl42LQ9jTsA0/Cb7MmmiDxPGezPOyxNPTw88PHov4+btpPxxCYeyLCK5T4Xzy8ezz1TbxsBZei6DM+/w4uVLXlqW+rNxePdyiw3F3OqvfjfTOwpjvdH5/MqRh2q3uWYeFx8iLSGGn8NCCJ4TROCsmQTMmMF0f3/8p01j2tSpTJ06Ff95KZT0Eu924tL0lpLt0aw5dKd7Spa2mxxKjCdu7RrWxieRkVfefxAnczqN1J5YT5h6LOnntsNWcODuW8rSQpi//WZPNMy220fJ2HOEU2eLKL56nfLblVTfr+HR01rq6p/T+OIlr16/prF8L+ET/Fhb8ByTxS1WF7KLW48e8/jxwJaKrFB0anE5ZLarFpeqTDS94XzcFHwWZ3Hjnc3SP97KJT4qgiU/x7DtbC1d7Q1UP7QKLaXz8h23DicRHb7INk7XzDaMyNgdFNSoyprqcdbNf7sMVVjr853lpPg5M2KEA7rxP5P7oAuaiogbr2dK/AVe2ZDQ+egUm35eQHDwPEJ/Xk9u+WPODqn924tLMH24zaGEcIKm++HnN4UpU1SLnx/TAuYRmXiImz1511dcFsb5MP7Xo7ywvov52+eFp5c34318mRYUTvzB2z1THpnePqfHQ9yaYRhpelJKweE9pCUnkrA+nnVxceZyqEzvs3rVKlatXMGKmBhW7SjiVXv5wMSl8Sl7Q9SNWw6M9N/IBQX8kNk+dNWVU3j2LGe/ejlH8d1aytNmojP4E19Qj9H4nIKtkSwOCycyehXx2w5R2mgVj8rYXa1t+icHJ9xD91JttTflP9rzK+xeHUbw/J9J/LPK5onRw1o2hIAQEAJCQAgIgS8RGIS4/MytTU3U3q3g0RvLP/bPnDqUP3U9KSEvv1w1sfxX3L2zwybsvuKy73dqOy8e3KHmVW8fMNPHOqorHndH+mypp7qihleqCpI1PcaGCm7X9fOD9YRvWLc13qfi4QvUcvUbbvPtl5g66PjGV2prbbU0Rphoqq2iouZ133Gun0lZ15tHVFQ96wno9JlTv/qnloZ7VD1TRkza/XW00PrPFiGGUxkydrTR0tJGZw8YE++qK3j0eX1shji09m+iqe7uV9uMXW5iLj/V9TbvBPsT/pH9Fuqr1eOYP/VQE29qyrle+jd/X/ub6xWPefuNZe9TTxiS46013Ky0Hzfc/53b3zzjQdVtykqV93li8aLo/1w5KgSEgBAQAkJACHwbge8jLr8tLXKVEBACQkAICAEhIASEgBAQAkJACPygBERc/qAZJ8kWAkJACAgBISAEhIAQEAJCQAgMJwIiLodTbkhahIAQEAJCQAgIASEgBISAEBACPygBEZc/aMZJsoWAEBACQkAICAEhIASEgBAQAsOJgIjL4ZQbkhYhIASEgBAQAkJACAgBISAEhMAPSkDE5Q+acZJsISAEhIAQEAJCQAgIASEgBITAcCIg4nI45YakRQgIASEgBISAEBACQkAICAEh8IMSEHH5g2acJFsICAEhIASEgBAQAkJACAgBITCcCIi4HE65IWkRAkJACAgBISAEhIAQEAJCQAj8oAREXP6gGSfJFgJCQAgIASEgBISAEBACQkAIDCcCIi6HU25IWoSAEBACQkAICAEhIASEgBAQAj8oARGXP2jGSbKFgBAQAkJACAgBISAEhIAQEALDiYCIy+GUG5IWISAEhIAQEAJCQAgIASEgBITAD0pAxOUPmnGSbCEgBISAEBACQkAICAEhIASEwHAiIOJyOOWGpEUICAEhIASEgBAQAkJACAgBIfCDEhBx+YNmnCRbCAgBISAEhIAQEAJCQAgIASEwnAiIuBxOuSFpEQJCQAgIASEgBISAEBACQkAI/KAERFz+oBknyRYCQkAICAEhIASEgBAQAkJACAwnAiIuh1NuSFqEgBAQAkJACAgBISAEhIAQEAI/KAERlz9oxkmyhYAQEAJCQAgIASEgBISAEBACw4mAiMvhlBuSFiEgBISAEBACQkAICAEhIASEwA9KQMTlD5pxkmwhIASEgBAQAkJACAgBISAEhMBwIiDicjjlhqRFCAgBISAEhIAQEAJCQAgIASHwgxIQcfmDZpwkWwgIASEgBISAEBACQkAICAEhMJwIiLgcTrkhaRECQkAICAEhIASEgBAQAkJACPygBERc/qAZJ8kWAkJACAgBISAEhIAQEAJCQAgMJwIiLodTbkhahIAQEAJCQAgIASEgBISAEBACPygBEZc/aMZJsoWAEBACQkAICAEhIASEgBAQAsOJgIjL4ZQbkhYhIASEgBAQAkJACAgBISAEhMAPSuD/B6JAX82kYV1lAAAAAElFTkSuQmCC;" vertex="1" parent="1">
          <mxGeometry x="40" y="130" width="919" height="337" as="geometry" />
        </mxCell>
      </root>
    </mxGraphModel>
  </diagram>
</mxfile>
